%TF.GenerationSoftware,KiCad,Pcbnew,10.0.6*%
%TF.CreationDate,2026-08-31T06:27:26-04:00*%
%TF.ProjectId,card_routed,63617264-5f72-46f7-9574-65642e6b6963,rev?*%
%TF.SameCoordinates,Original*%
%TF.FileFunction,Copper,L1,Top*%
%TF.FilePolarity,Positive*%
%FSLAX46Y46*%
G04 Gerber Fmt 4.6, Leading zero omitted, Abs format (unit mm)*
G04 Created by KiCad (PCBNEW 10.0.6) date 2026-08-31 06:27:26*
%MOMM*%
%LPD*%
G01*
G04 APERTURE LIST*
%TA.AperFunction,SMDPad,CuDef*%
%ADD10R,7.391400X2.199600*%
%TD*%
%TA.AperFunction,ComponentPad*%
%ADD11C,1.574800*%
%TD*%
%TA.AperFunction,SMDPad,CuDef*%
%ADD12R,1.549400X0.609600*%
%TD*%
%TA.AperFunction,ComponentPad*%
%ADD13C,1.701800*%
%TD*%
%TA.AperFunction,WasherPad*%
%ADD14C,3.810000*%
%TD*%
%TA.AperFunction,ViaPad*%
%ADD15C,0.600000*%
%TD*%
%TA.AperFunction,Conductor*%
%ADD16C,0.250000*%
%TD*%
%TA.AperFunction,Conductor*%
%ADD17C,0.200000*%
%TD*%
G04 APERTURE END LIST*
D10*
%TO.P,,2*%
%TO.N,+5V*%
X-3949700Y-52705000D03*
%TO.P,,4*%
%TO.N,IOA3*%
X-3949700Y-43180000D03*
%TO.P,,6*%
%TO.N,GND*%
X-3949700Y-40005000D03*
%TO.P,,8*%
%TO.N,IOA0*%
X-3949700Y-36830000D03*
%TO.P,,10*%
%TO.N,BWR*%
X-3949700Y-33655000D03*
%TO.P,,12*%
%TO.N,BIORES*%
X-3949700Y-30480000D03*
%TO.P,,14*%
%TO.N,IO4*%
X-3949700Y-27305000D03*
%TO.P,,16*%
%TO.N,IO5*%
X-3949700Y-24130000D03*
%TO.P,,18*%
%TO.N,IO1*%
X-3949700Y-20955000D03*
%TO.P,,21*%
%TO.N,IO7*%
X-3949700Y-14605000D03*
%TO.P,,23*%
%TO.N,GND*%
X-3949700Y-11430000D03*
D11*
%TO.P,,25*%
%TO.N,+3V3*%
X16510000Y-5080000D03*
%TO.P,,26*%
X24130000Y-5080000D03*
%TO.P,,27*%
%TO.N,IO0*%
X16510000Y-7620000D03*
%TO.P,,28*%
%TO.N,GND*%
X24130000Y-7620000D03*
%TO.P,,29*%
%TO.N,IO1*%
X16510000Y-10160000D03*
%TO.P,,30*%
%TO.N,GP0*%
X24130000Y-10160000D03*
%TO.P,,31*%
%TO.N,IO2*%
X16510000Y-12700000D03*
%TO.P,,32*%
%TO.N,GP1*%
X24130000Y-12700000D03*
%TO.P,,33*%
%TO.N,IO3*%
X16510000Y-15240000D03*
%TO.P,,34*%
%TO.N,GP2*%
X24130000Y-15240000D03*
%TO.P,,35*%
%TO.N,IO4*%
X16510000Y-17780000D03*
%TO.P,,36*%
%TO.N,GP3*%
X24130000Y-17780000D03*
%TO.P,,37*%
%TO.N,IO5*%
X16510000Y-20320000D03*
%TO.P,,38*%
%TO.N,GP4*%
X24130000Y-20320000D03*
%TO.P,,39*%
%TO.N,IO6*%
X16510000Y-22860000D03*
%TO.P,,40*%
%TO.N,GP5*%
X24130000Y-22860000D03*
%TO.P,,41*%
%TO.N,IO7*%
X16510000Y-25400000D03*
%TO.P,,42*%
%TO.N,GP6*%
X24130000Y-25400000D03*
%TO.P,,43*%
%TO.N,GND*%
X16510000Y-27940000D03*
%TO.P,,44*%
%TO.N,GP7*%
X24130000Y-27940000D03*
%TO.P,,45*%
%TO.N,+3V3*%
X16510000Y-33020000D03*
%TO.P,,46*%
X24130000Y-33020000D03*
%TO.P,,47*%
%TO.N,IOA0*%
X16510000Y-35560000D03*
%TO.P,,48*%
%TO.N,GND*%
X24130000Y-35560000D03*
%TO.P,,49*%
%TO.N,IOA1*%
X16510000Y-38100000D03*
%TO.P,,50*%
%TO.N,GP8*%
X24130000Y-38100000D03*
%TO.P,,51*%
%TO.N,IOA2*%
X16510000Y-40640000D03*
%TO.P,,52*%
%TO.N,GP9*%
X24130000Y-40640000D03*
%TO.P,,53*%
%TO.N,IOA3*%
X16510000Y-43180000D03*
%TO.P,,54*%
%TO.N,GP10*%
X24130000Y-43180000D03*
%TO.P,,55*%
%TO.N,SEL*%
X16510000Y-45720000D03*
%TO.P,,56*%
%TO.N,GP11*%
X24130000Y-45720000D03*
%TO.P,,57*%
%TO.N,BWR*%
X16510000Y-48260000D03*
%TO.P,,58*%
%TO.N,GP12*%
X24130000Y-48260000D03*
%TO.P,,59*%
%TO.N,BIORES*%
X16510000Y-50800000D03*
%TO.P,,60*%
%TO.N,GP13*%
X24130000Y-50800000D03*
%TO.P,,61*%
%TO.N,MHZ8*%
X16510000Y-53340000D03*
%TO.P,,62*%
%TO.N,GP14*%
X24130000Y-53340000D03*
%TO.P,,63*%
%TO.N,GND*%
X16510000Y-55880000D03*
%TO.P,,64*%
%TO.N,GP15*%
X24130000Y-55880000D03*
%TO.P,,65*%
%TO.N,IDREQ*%
X31750000Y-5080000D03*
%TO.P,,66*%
%TO.N,+5V*%
X39370000Y-5080000D03*
%TO.P,,67*%
%TO.N,GND*%
X31750000Y-7620000D03*
%TO.P,,68*%
%TO.N,IDREQ*%
X39370000Y-7620000D03*
%TO.P,,69*%
%TO.N,GND*%
X31750000Y-10160000D03*
%TO.P,,70*%
%TO.N,N/C*%
X39370000Y-10160000D03*
%TO.P,,71*%
%TO.N,GND*%
X31750000Y-12700000D03*
%TO.P,,72*%
%TO.N,IO1*%
X39370000Y-12700000D03*
%TO.P,,73*%
%TO.N,GND*%
X31750000Y-15240000D03*
%TO.P,,74*%
%TO.N,N/C*%
X39370000Y-15240000D03*
%TO.P,,75*%
%TO.N,GND*%
X31750000Y-17780000D03*
%TO.P,,76*%
%TO.N,IO3*%
X39370000Y-17780000D03*
%TO.P,,77*%
%TO.N,GND*%
X31750000Y-20320000D03*
%TO.P,,78*%
%TO.N,IO4*%
X39370000Y-20320000D03*
%TO.P,,79*%
%TO.N,GND*%
X31750000Y-22860000D03*
%TO.P,,80*%
%TO.N,N/C*%
X39370000Y-22860000D03*
%TO.P,,81*%
%TO.N,GND*%
X31750000Y-25400000D03*
%TO.P,,82*%
%TO.N,IO6*%
X39370000Y-25400000D03*
%TO.P,,83*%
%TO.N,GND*%
X31750000Y-27940000D03*
%TO.P,,84*%
%TO.N,N/C*%
X39370000Y-27940000D03*
%TO.P,,85*%
%TO.N,RD3*%
X31750000Y-33020000D03*
%TO.P,,86*%
%TO.N,+5V*%
X39370000Y-33020000D03*
%TO.P,,87*%
X31750000Y-35560000D03*
%TO.P,,88*%
%TO.N,IOA3*%
X39370000Y-35560000D03*
%TO.P,,89*%
%TO.N,+5V*%
X31750000Y-38100000D03*
%TO.P,,90*%
%TO.N,IO0*%
X39370000Y-38100000D03*
%TO.P,,91*%
%TO.N,+5V*%
X31750000Y-40640000D03*
%TO.P,,92*%
%TO.N,IO1*%
X39370000Y-40640000D03*
%TO.P,,93*%
%TO.N,GND*%
X31750000Y-43180000D03*
%TO.P,,94*%
%TO.N,IO2*%
X39370000Y-43180000D03*
%TO.P,,95*%
%TO.N,+5V*%
X31750000Y-45720000D03*
%TO.P,,96*%
%TO.N,IO3*%
X39370000Y-45720000D03*
%TO.P,,97*%
%TO.N,GND*%
X31750000Y-48260000D03*
%TO.P,,98*%
%TO.N,IO4*%
X39370000Y-48260000D03*
%TO.P,,99*%
%TO.N,+5V*%
X31750000Y-50800000D03*
%TO.P,,100*%
%TO.N,IO5*%
X39370000Y-50800000D03*
%TO.P,,101*%
%TO.N,GND*%
X31750000Y-53340000D03*
%TO.P,,102*%
%TO.N,IO6*%
X39370000Y-53340000D03*
%TO.P,,103*%
%TO.N,GND*%
X31750000Y-55880000D03*
%TO.P,,104*%
%TO.N,IO7*%
X39370000Y-55880000D03*
%TO.P,,105*%
%TO.N,IOA0*%
X31750000Y-59690000D03*
%TO.P,,106*%
%TO.N,+5V*%
X39370000Y-59690000D03*
%TO.P,,107*%
%TO.N,IOA1*%
X31750000Y-62230000D03*
%TO.P,,108*%
%TO.N,N/C*%
X39370000Y-62230000D03*
%TO.P,,109*%
%TO.N,IOA2*%
X31750000Y-64770000D03*
%TO.P,,110*%
%TO.N,N/C*%
X39370000Y-64770000D03*
%TO.P,,111*%
%TO.N,SEL*%
X31750000Y-67310000D03*
%TO.P,,112*%
%TO.N,N/C*%
X39370000Y-67310000D03*
%TO.P,,113*%
%TO.N,BRD*%
X31750000Y-69850000D03*
%TO.P,,114*%
%TO.N,RD3*%
X39370000Y-69850000D03*
%TO.P,,115*%
%TO.N,+5V*%
X31750000Y-72390000D03*
%TO.P,,116*%
%TO.N,N/C*%
X39370000Y-72390000D03*
%TO.P,,117*%
X31750000Y-74930000D03*
%TO.P,,118*%
X39370000Y-74930000D03*
%TO.P,,119*%
%TO.N,GND*%
X31750000Y-77470000D03*
%TO.P,,120*%
%TO.N,N/C*%
X39370000Y-77470000D03*
%TO.P,,121*%
%TO.N,BCK*%
X102870000Y-7620000D03*
%TO.P,,122*%
%TO.N,AOL*%
X110490000Y-7620000D03*
%TO.P,,123*%
%TO.N,WS*%
X102870000Y-10160000D03*
%TO.P,,124*%
%TO.N,N/C*%
X110490000Y-10160000D03*
%TO.P,,125*%
%TO.N,DIN*%
X102870000Y-12700000D03*
%TO.P,,126*%
%TO.N,AOR*%
X110490000Y-12700000D03*
%TO.P,,127*%
%TO.N,GND*%
X102870000Y-15240000D03*
%TO.P,,128*%
%TO.N,+3V3*%
X110490000Y-15240000D03*
D12*
%TO.P,,129*%
%TO.N,BCK*%
X114147600Y-9525000D03*
%TO.P,,130*%
%TO.N,AOL*%
X119532400Y-9525000D03*
%TO.P,,131*%
%TO.N,WS*%
X114147600Y-10795000D03*
%TO.P,,132*%
%TO.N,N/C*%
X119532400Y-10795000D03*
%TO.P,,133*%
%TO.N,DIN*%
X114147600Y-12065000D03*
%TO.P,,134*%
%TO.N,AOR*%
X119532400Y-12065000D03*
%TO.P,,135*%
%TO.N,GND*%
X114147600Y-13335000D03*
%TO.P,,136*%
%TO.N,+3V3*%
X119532400Y-13335000D03*
D11*
%TO.P,,137*%
%TO.N,GP0*%
X49530000Y-49022000D03*
%TO.P,,138*%
%TO.N,N/C*%
X49530000Y-31242000D03*
%TO.P,,139*%
%TO.N,GP1*%
X52070000Y-49022000D03*
%TO.P,,140*%
%TO.N,+5V*%
X52070000Y-31242000D03*
%TO.P,,141*%
%TO.N,GND*%
X54610000Y-49022000D03*
%TO.P,,142*%
X54610000Y-31242000D03*
%TO.P,,143*%
%TO.N,GP2*%
X57150000Y-49022000D03*
%TO.P,,144*%
%TO.N,N/C*%
X57150000Y-31242000D03*
%TO.P,,145*%
%TO.N,GP3*%
X59690000Y-49022000D03*
%TO.P,,146*%
%TO.N,+3V3*%
X59690000Y-31242000D03*
%TO.P,,147*%
%TO.N,GP4*%
X62230000Y-49022000D03*
%TO.P,,148*%
%TO.N,N/C*%
X62230000Y-31242000D03*
%TO.P,,149*%
%TO.N,GP5*%
X64770000Y-49022000D03*
%TO.P,,150*%
%TO.N,N/C*%
X64770000Y-31242000D03*
%TO.P,,151*%
%TO.N,GND*%
X67310000Y-49022000D03*
%TO.P,,152*%
X67310000Y-31242000D03*
%TO.P,,153*%
%TO.N,GP6*%
X69850000Y-49022000D03*
%TO.P,,154*%
%TO.N,N/C*%
X69850000Y-31242000D03*
%TO.P,,155*%
%TO.N,GP7*%
X72390000Y-49022000D03*
%TO.P,,156*%
%TO.N,N/C*%
X72390000Y-31242000D03*
%TO.P,,157*%
%TO.N,GP8*%
X74930000Y-49022000D03*
%TO.P,,158*%
%TO.N,N/C*%
X74930000Y-31242000D03*
%TO.P,,159*%
%TO.N,GP9*%
X77470000Y-49022000D03*
%TO.P,,160*%
%TO.N,N/C*%
X77470000Y-31242000D03*
%TO.P,,161*%
%TO.N,GND*%
X80010000Y-49022000D03*
%TO.P,,162*%
X80010000Y-31242000D03*
%TO.P,,163*%
%TO.N,GP10*%
X82550000Y-49022000D03*
%TO.P,,164*%
%TO.N,PWM*%
X82550000Y-31242000D03*
%TO.P,,165*%
%TO.N,GP11*%
X85090000Y-49022000D03*
%TO.P,,166*%
%TO.N,DIN*%
X85090000Y-31242000D03*
%TO.P,,167*%
%TO.N,GP12*%
X87630000Y-49022000D03*
%TO.P,,168*%
%TO.N,WS*%
X87630000Y-31242000D03*
%TO.P,,169*%
%TO.N,GP13*%
X90170000Y-49022000D03*
%TO.P,,170*%
%TO.N,BCK*%
X90170000Y-31242000D03*
%TO.P,,171*%
%TO.N,GND*%
X92710000Y-49022000D03*
%TO.P,,172*%
X92710000Y-31242000D03*
%TO.P,,173*%
%TO.N,GP14*%
X95250000Y-49022000D03*
%TO.P,,174*%
%TO.N,N/C*%
X95250000Y-31242000D03*
%TO.P,,175*%
%TO.N,GP15*%
X97790000Y-49022000D03*
%TO.P,,176*%
%TO.N,N/C*%
X97790000Y-31242000D03*
%TO.P,,177*%
%TO.N,AOL*%
X109220000Y-19050000D03*
%TO.P,,178*%
%TO.N,ASUM*%
X109220000Y-26670000D03*
%TO.P,,179*%
%TO.N,AOR*%
X113030000Y-19050000D03*
%TO.P,,180*%
%TO.N,ASUM*%
X113030000Y-26670000D03*
%TO.P,,181*%
X117348000Y-19050000D03*
%TO.P,,182*%
%TO.N,AOUT*%
X117348000Y-26670000D03*
%TO.P,,183*%
%TO.N,PWM*%
X106680000Y-40640000D03*
%TO.P,,184*%
%TO.N,PWMF*%
X106680000Y-48260000D03*
%TO.P,,185*%
X110744000Y-40640000D03*
%TO.P,,186*%
%TO.N,GND*%
X110744000Y-48260000D03*
%TO.P,,187*%
%TO.N,PWMF*%
X114808000Y-40640000D03*
%TO.P,,188*%
%TO.N,ASUM*%
X114808000Y-48260000D03*
D13*
%TO.P,,189*%
%TO.N,AOUT*%
X121920000Y-7620000D03*
%TO.P,,190*%
X121920000Y-10160000D03*
%TO.P,,191*%
%TO.N,GND*%
X121920000Y-12700000D03*
%TO.P,,192*%
%TO.N,AOUT*%
X125730000Y-34290000D03*
%TO.P,,193*%
%TO.N,GND*%
X125730000Y-36830000D03*
D11*
%TO.P,,194*%
%TO.N,+3V3*%
X13970000Y-2540000D03*
%TO.P,,195*%
%TO.N,GND*%
X13970000Y-5080000D03*
%TO.P,,196*%
%TO.N,+3V3*%
X13970000Y-30480000D03*
%TO.P,,197*%
%TO.N,GND*%
X13970000Y-33020000D03*
%TO.P,,198*%
%TO.N,+5V*%
X29210000Y-2540000D03*
%TO.P,,199*%
%TO.N,GND*%
X29210000Y-5080000D03*
%TO.P,,200*%
%TO.N,+5V*%
X29210000Y-30480000D03*
%TO.P,,201*%
%TO.N,GND*%
X29210000Y-33020000D03*
%TO.P,,202*%
%TO.N,+5V*%
X29210000Y-57150000D03*
%TO.P,,203*%
%TO.N,GND*%
X29210000Y-59690000D03*
%TO.P,,204*%
%TO.N,+3V3*%
X100330000Y-7620000D03*
%TO.P,,205*%
%TO.N,GND*%
X100330000Y-10160000D03*
%TO.P,,206*%
%TO.N,+5V*%
X58420000Y-55880000D03*
%TO.P,,207*%
%TO.N,GND*%
X58420000Y-58420000D03*
%TO.P,,208*%
%TO.N,+5V*%
X83820000Y-55880000D03*
%TO.P,,209*%
%TO.N,GND*%
X83820000Y-58420000D03*
D14*
%TO.P,,*%
%TO.N,*%
X6350000Y-6350000D03*
X6350000Y-73660000D03*
X128270000Y-6350000D03*
X128270000Y-73660000D03*
%TD*%
D15*
%TO.N,GND*%
X976300Y-24981300D03*
X34989300Y-48260000D03*
X4204800Y-11683400D03*
X117594500Y-14096400D03*
%TO.N,+5V*%
X1025600Y-13652100D03*
%TO.N,IO0*%
X1648300Y-15211300D03*
%TO.N,IO2*%
X35345000Y-43101400D03*
X2563100Y-16178800D03*
%TO.N,IO3*%
X2563100Y-19718400D03*
%TO.N,IO5*%
X37099300Y-50198200D03*
%TO.N,IO6*%
X2103700Y-22860000D03*
%TO.N,IO7*%
X3992800Y-17412900D03*
X10278100Y-23698300D03*
%TO.N,IOA1*%
X1102800Y-39236300D03*
%TO.N,IOA2*%
X2957500Y-40770200D03*
%TO.N,BWR*%
X1665300Y-33412900D03*
%TO.N,IDREQ*%
X15247200Y-44143400D03*
X17849500Y-5612500D03*
X-2279400Y-51034700D03*
%TO.N,BIORES*%
X317500Y-31192200D03*
%TO.N,GP0*%
X40994900Y-20655400D03*
%TO.N,GP1*%
X40430100Y-13822500D03*
%TO.N,GP3*%
X41461500Y-19051600D03*
%TO.N,GP4*%
X31423800Y-30468100D03*
X36994300Y-30611900D03*
X40621400Y-44002800D03*
%TO.N,GP6*%
X40578400Y-42474600D03*
X39079000Y-30771000D03*
X30579400Y-30923000D03*
%TO.N,GP14*%
X26462400Y-60827100D03*
X84479700Y-57150000D03*
%TO.N,BCK*%
X112811400Y-9525000D03*
%TO.N,AOL*%
X118149600Y-9741100D03*
%TO.N,AOR*%
X116434100Y-11835900D03*
%TD*%
%TO.N,GND*%
D16*
X976300Y-24981300D02*
X13551300Y-24981300D01*
X13551300Y-24981300D02*
X16510000Y-27940000D01*
X31750000Y-48260000D02*
X34989300Y-48260000D01*
X67310000Y-49022000D02*
X68882000Y-50594000D01*
X68882000Y-50594000D02*
X78438000Y-50594000D01*
X78438000Y-50594000D02*
X80010000Y-49022000D01*
X110744000Y-48260000D02*
X109627900Y-49376100D01*
X109627900Y-49376100D02*
X99719800Y-49376100D01*
X99719800Y-49376100D02*
X98251600Y-47907900D01*
X98251600Y-47907900D02*
X97323500Y-47907900D01*
X97323500Y-47907900D02*
X96364100Y-48867300D01*
X96364100Y-48867300D02*
X96364100Y-49548900D01*
X96364100Y-49548900D02*
X95758400Y-50154600D01*
X95758400Y-50154600D02*
X93842600Y-50154600D01*
X93842600Y-50154600D02*
X92710000Y-49022000D01*
X31750000Y-53340000D02*
X25907800Y-53340000D01*
X25907800Y-53340000D02*
X24637800Y-54610000D01*
X24637800Y-54610000D02*
X17780000Y-54610000D01*
X17780000Y-54610000D02*
X16510000Y-55880000D01*
X103320100Y-14789900D02*
X102870000Y-15240000D01*
X113046600Y-13335000D02*
X112415100Y-13966500D01*
X112415100Y-13966500D02*
X104143500Y-13966500D01*
X104143500Y-13966500D02*
X103320100Y-14789900D01*
X100330000Y-10160000D02*
X100330000Y-11799900D01*
X100330000Y-11799900D02*
X103320100Y-14789900D01*
X54610000Y-31242000D02*
X50191800Y-26823800D01*
X50191800Y-26823800D02*
X32866200Y-26823800D01*
X32866200Y-26823800D02*
X31750000Y-27940000D01*
X67310000Y-31242000D02*
X66195900Y-30127900D01*
X66195900Y-30127900D02*
X55724100Y-30127900D01*
X55724100Y-30127900D02*
X54610000Y-31242000D01*
X-3949700Y-40005000D02*
X8328800Y-40005000D01*
X8328800Y-40005000D02*
X8963800Y-39370000D01*
X8963800Y-39370000D02*
X16822400Y-39370000D01*
X16822400Y-39370000D02*
X20632400Y-35560000D01*
X20632400Y-35560000D02*
X24130000Y-35560000D01*
X72700Y-11430000D02*
X326100Y-11683400D01*
X326100Y-11683400D02*
X4204800Y-11683400D01*
X13970000Y-33020000D02*
X15240000Y-34290000D01*
X15240000Y-34290000D02*
X22860000Y-34290000D01*
X22860000Y-34290000D02*
X24130000Y-35560000D01*
X24130000Y-35560000D02*
X26670000Y-33020000D01*
X26670000Y-33020000D02*
X29210000Y-33020000D01*
X29210000Y-5080000D02*
X26670000Y-7620000D01*
X26670000Y-7620000D02*
X24130000Y-7620000D01*
X13970000Y-5080000D02*
X15240000Y-6350000D01*
X15240000Y-6350000D02*
X22860000Y-6350000D01*
X22860000Y-6350000D02*
X24130000Y-7620000D01*
X31750000Y-27940000D02*
X31750000Y-25400000D01*
X114148000Y-13335000D02*
X113046600Y-13335000D01*
X67310000Y-49022000D02*
X66182100Y-50149900D01*
X66182100Y-50149900D02*
X55737900Y-50149900D01*
X55737900Y-50149900D02*
X54610000Y-49022000D01*
X80010000Y-31242000D02*
X78895900Y-30127900D01*
X78895900Y-30127900D02*
X68424100Y-30127900D01*
X68424100Y-30127900D02*
X67310000Y-31242000D01*
X92710000Y-31242000D02*
X91595900Y-30127900D01*
X91595900Y-30127900D02*
X81124100Y-30127900D01*
X81124100Y-30127900D02*
X80010000Y-31242000D01*
X115249400Y-13335000D02*
X116010800Y-14096400D01*
X116010800Y-14096400D02*
X117594500Y-14096400D01*
X-3949700Y-11430000D02*
X72700Y-11430000D01*
X114148000Y-13335000D02*
X115249400Y-13335000D01*
%TO.N,+5V*%
X29210000Y-2540000D02*
X27940000Y-3810000D01*
X27940000Y-3810000D02*
X12966300Y-3810000D01*
X12966300Y-3810000D02*
X5671900Y-11104400D01*
X5671900Y-11104400D02*
X5671900Y-11187700D01*
X5671900Y-11187700D02*
X3207500Y-13652100D01*
X3207500Y-13652100D02*
X1025600Y-13652100D01*
X39755700Y-30490700D02*
X39200200Y-29935200D01*
X39200200Y-29935200D02*
X36714100Y-29935200D01*
X36714100Y-29935200D02*
X36621000Y-30028300D01*
X36621000Y-30028300D02*
X31941000Y-30028300D01*
X31941000Y-30028300D02*
X31704100Y-29791400D01*
X31704100Y-29791400D02*
X31143600Y-29791400D01*
X31143600Y-29791400D02*
X30688800Y-30246200D01*
X30688800Y-30246200D02*
X30688800Y-30246300D01*
X30688800Y-30246300D02*
X29443700Y-30246300D01*
X29443700Y-30246300D02*
X29210000Y-30480000D01*
X39370000Y-33020000D02*
X39755700Y-32634300D01*
X39755700Y-32634300D02*
X39755700Y-30490700D01*
X39755700Y-30490700D02*
X40149800Y-30096600D01*
X40149800Y-30096600D02*
X50924600Y-30096600D01*
X50924600Y-30096600D02*
X52070000Y-31242000D01*
X31750000Y-36737300D02*
X31750000Y-35560000D01*
X31750000Y-38100000D02*
X31750000Y-36737300D01*
X31750000Y-36737300D02*
X39848600Y-36737300D01*
X39848600Y-36737300D02*
X40497200Y-36088700D01*
X40497200Y-36088700D02*
X40497200Y-34147200D01*
X40497200Y-34147200D02*
X39370000Y-33020000D01*
X29210000Y-57150000D02*
X4517700Y-57150000D01*
X4517700Y-57150000D02*
X72700Y-52705000D01*
X39370000Y-57150000D02*
X29210000Y-57150000D01*
X58420000Y-55880000D02*
X57150000Y-57150000D01*
X57150000Y-57150000D02*
X39370000Y-57150000D01*
X39370000Y-59690000D02*
X39370000Y-57150000D01*
X29210000Y-2540000D02*
X36830000Y-2540000D01*
X36830000Y-2540000D02*
X39370000Y-5080000D01*
X83820000Y-55880000D02*
X58420000Y-55880000D01*
X-3949700Y-52705000D02*
X72700Y-52705000D01*
%TO.N,+3V3*%
X24130000Y-5080000D02*
X23985800Y-4935800D01*
X23985800Y-4935800D02*
X16654200Y-4935800D01*
X16654200Y-4935800D02*
X16510000Y-5080000D01*
X59690000Y-31242000D02*
X58549700Y-32382300D01*
X58549700Y-32382300D02*
X54095200Y-32382300D01*
X54095200Y-32382300D02*
X53340000Y-31627100D01*
X53340000Y-31627100D02*
X53340000Y-30899700D01*
X53340000Y-30899700D02*
X51780000Y-29339700D01*
X51780000Y-29339700D02*
X27810300Y-29339700D01*
X27810300Y-29339700D02*
X24130000Y-33020000D01*
X24130000Y-33020000D02*
X16510000Y-33020000D01*
X118981300Y-13335000D02*
X118981300Y-13766900D01*
X118981300Y-13766900D02*
X117508200Y-15240000D01*
X117508200Y-15240000D02*
X110490000Y-15240000D01*
X119532000Y-13335000D02*
X118981300Y-13335000D01*
X13970000Y-30480000D02*
X16510000Y-33020000D01*
%TO.N,IO0*%
X1648300Y-15211300D02*
X2287100Y-15211300D01*
X2287100Y-15211300D02*
X9876800Y-7621600D01*
X9876800Y-7621600D02*
X9876800Y-7621500D01*
X9876800Y-7621500D02*
X16508500Y-7621500D01*
X16508500Y-7621500D02*
X16510000Y-7620000D01*
%TO.N,IO1*%
X72700Y-20955000D02*
X2019700Y-19008000D01*
X2019700Y-19008000D02*
X3355000Y-19008000D01*
X3355000Y-19008000D02*
X8408000Y-13955000D01*
X8408000Y-13955000D02*
X16890900Y-13955000D01*
X16890900Y-13955000D02*
X17780000Y-13065900D01*
X17780000Y-13065900D02*
X17780000Y-11583800D01*
X16510000Y-10160000D02*
X17780000Y-11430000D01*
X17780000Y-11430000D02*
X17780000Y-11583800D01*
X39370000Y-12700000D02*
X38253800Y-11583800D01*
X38253800Y-11583800D02*
X17780000Y-11583800D01*
X-3949700Y-20955000D02*
X72700Y-20955000D01*
%TO.N,IO2*%
X16510000Y-12700000D02*
X6041900Y-12700000D01*
X6041900Y-12700000D02*
X2563100Y-16178800D01*
X35345000Y-43101400D02*
X39291400Y-43101400D01*
X39291400Y-43101400D02*
X39370000Y-43180000D01*
%TO.N,IO3*%
X16510000Y-15723300D02*
X12514900Y-19718400D01*
X12514900Y-19718400D02*
X2563100Y-19718400D01*
X39370000Y-17780000D02*
X38100000Y-16510000D01*
X38100000Y-16510000D02*
X17296700Y-16510000D01*
X17296700Y-16510000D02*
X16510000Y-15723300D01*
X16510000Y-15723300D02*
X16510000Y-15240000D01*
%TO.N,IO4*%
X-3949700Y-27305000D02*
X72700Y-27305000D01*
X17662300Y-20759700D02*
X16838700Y-21583300D01*
X16838700Y-21583300D02*
X2421500Y-21583300D01*
X2421500Y-21583300D02*
X1164500Y-22840300D01*
X1164500Y-22840300D02*
X1164500Y-23836200D01*
X1164500Y-23836200D02*
X72700Y-24928000D01*
X72700Y-24928000D02*
X72700Y-27305000D01*
X16510000Y-17780000D02*
X17662300Y-18932300D01*
X17662300Y-18932300D02*
X17662300Y-20759700D01*
X39370000Y-20320000D02*
X38253200Y-21436800D01*
X38253200Y-21436800D02*
X18339400Y-21436800D01*
X18339400Y-21436800D02*
X17662300Y-20759700D01*
%TO.N,IO5*%
X39370000Y-50800000D02*
X37701100Y-50800000D01*
X37701100Y-50800000D02*
X37099300Y-50198200D01*
X16510000Y-20320000D02*
X3044800Y-20320000D01*
X3044800Y-20320000D02*
X72700Y-23292100D01*
X72700Y-23292100D02*
X72700Y-24130000D01*
X-3949700Y-24130000D02*
X72700Y-24130000D01*
%TO.N,IO6*%
X16510000Y-22860000D02*
X17933800Y-24283800D01*
X17933800Y-24283800D02*
X38253800Y-24283800D01*
X38253800Y-24283800D02*
X39370000Y-25400000D01*
X16510000Y-22860000D02*
X2103700Y-22860000D01*
%TO.N,IO7*%
X72700Y-14605000D02*
X72700Y-14645300D01*
X72700Y-14645300D02*
X2840300Y-17412900D01*
X2840300Y-17412900D02*
X3992800Y-17412900D01*
X16510000Y-25400000D02*
X14808300Y-23698300D01*
X14808300Y-23698300D02*
X10278100Y-23698300D01*
X-3949700Y-14605000D02*
X72700Y-14605000D01*
%TO.N,IOA0*%
X16510000Y-35560000D02*
X1342700Y-35560000D01*
X1342700Y-35560000D02*
X72700Y-36830000D01*
X-3949700Y-36830000D02*
X72700Y-36830000D01*
%TO.N,IOA1*%
X16510000Y-38100000D02*
X2239100Y-38100000D01*
X2239100Y-38100000D02*
X1102800Y-39236300D01*
%TO.N,IOA2*%
X16510000Y-40640000D02*
X3087700Y-40640000D01*
X3087700Y-40640000D02*
X2957500Y-40770200D01*
%TO.N,IOA3*%
X-3949700Y-43180000D02*
X16510000Y-43180000D01*
X16510000Y-43180000D02*
X22860000Y-36830000D01*
X22860000Y-36830000D02*
X26038800Y-36830000D01*
X26038800Y-36830000D02*
X28467900Y-34400900D01*
X28467900Y-34400900D02*
X38210900Y-34400900D01*
X38210900Y-34400900D02*
X39370000Y-35560000D01*
%TO.N,BWR*%
X72700Y-33655000D02*
X314800Y-33412900D01*
X314800Y-33412900D02*
X1665300Y-33412900D01*
X-3949700Y-33655000D02*
X72700Y-33655000D01*
%TO.N,IDREQ*%
X-2279400Y-51034700D02*
X8355900Y-51034700D01*
X8355900Y-51034700D02*
X15247200Y-44143400D01*
X31750000Y-5080000D02*
X30592400Y-3922400D01*
X30592400Y-3922400D02*
X28792000Y-3922400D01*
X28792000Y-3922400D02*
X26519000Y-6195400D01*
X26519000Y-6195400D02*
X23669800Y-6195400D01*
X23669800Y-6195400D02*
X23086900Y-5612500D01*
X23086900Y-5612500D02*
X17849500Y-5612500D01*
X39370000Y-7620000D02*
X36830000Y-5080000D01*
X36830000Y-5080000D02*
X31750000Y-5080000D01*
%TO.N,BIORES*%
X72700Y-30480000D02*
X72700Y-30947400D01*
X72700Y-30947400D02*
X317500Y-31192200D01*
X-3949700Y-30480000D02*
X72700Y-30480000D01*
%TO.N,GP0*%
X24130000Y-10160000D02*
X25613500Y-10160000D01*
X25613500Y-10160000D02*
X29314700Y-6458800D01*
X29314700Y-6458800D02*
X33791300Y-6458800D01*
X33791300Y-6458800D02*
X38685500Y-11353000D01*
X38685500Y-11353000D02*
X39656700Y-11353000D01*
X39656700Y-11353000D02*
X42138700Y-13835000D01*
X42138700Y-13835000D02*
X42138700Y-19511600D01*
X42138700Y-19511600D02*
X40994900Y-20655400D01*
%TO.N,GP1*%
X24130000Y-12700000D02*
X25252500Y-13822500D01*
X25252500Y-13822500D02*
X40430100Y-13822500D01*
%TO.N,GP3*%
X24130000Y-17780000D02*
X25401600Y-19051600D01*
X25401600Y-19051600D02*
X41461500Y-19051600D01*
%TO.N,GP4*%
X36994300Y-30611900D02*
X31567600Y-30611900D01*
X31567600Y-30611900D02*
X31423800Y-30468100D01*
X62230000Y-49022000D02*
X57210800Y-44002800D01*
X57210800Y-44002800D02*
X40621400Y-44002800D01*
%TO.N,GP6*%
X30579400Y-30923000D02*
X30945000Y-31288600D01*
X30945000Y-31288600D02*
X38561400Y-31288600D01*
X38561400Y-31288600D02*
X39079000Y-30771000D01*
X40578400Y-42474600D02*
X63302600Y-42474600D01*
X63302600Y-42474600D02*
X69850000Y-49022000D01*
%TO.N,GP8*%
X74930000Y-49022000D02*
X65278000Y-39370000D01*
X65278000Y-39370000D02*
X25400000Y-39370000D01*
X25400000Y-39370000D02*
X24130000Y-38100000D01*
%TO.N,GP9*%
X77470000Y-49022000D02*
X76349700Y-50142300D01*
X76349700Y-50142300D02*
X74463800Y-50142300D01*
X74463800Y-50142300D02*
X73504100Y-49182600D01*
X73504100Y-49182600D02*
X73504100Y-48495800D01*
X73504100Y-48495800D02*
X66789900Y-41781600D01*
X66789900Y-41781600D02*
X25271600Y-41781600D01*
X25271600Y-41781600D02*
X24130000Y-40640000D01*
%TO.N,GP10*%
X24130000Y-43180000D02*
X25545800Y-44595800D01*
X25545800Y-44595800D02*
X40257500Y-44595800D01*
X40257500Y-44595800D02*
X40709200Y-45047500D01*
X40709200Y-45047500D02*
X49730800Y-45047500D01*
X49730800Y-45047500D02*
X53340000Y-48656700D01*
X53340000Y-48656700D02*
X53340000Y-49403900D01*
X53340000Y-49403900D02*
X54981800Y-51045700D01*
X54981800Y-51045700D02*
X80526300Y-51045700D01*
X80526300Y-51045700D02*
X82550000Y-49022000D01*
%TO.N,GP11*%
X24130000Y-45720000D02*
X25532800Y-47122800D01*
X25532800Y-47122800D02*
X45965300Y-47122800D01*
X45965300Y-47122800D02*
X49889700Y-51047200D01*
X49889700Y-51047200D02*
X54025900Y-51047200D01*
X54025900Y-51047200D02*
X54476100Y-51497400D01*
X54476100Y-51497400D02*
X82614600Y-51497400D01*
X82614600Y-51497400D02*
X85090000Y-49022000D01*
%TO.N,GP12*%
X87630000Y-49022000D02*
X84702900Y-51949100D01*
X84702900Y-51949100D02*
X54289000Y-51949100D01*
X54289000Y-51949100D02*
X53838800Y-51498900D01*
X53838800Y-51498900D02*
X49590100Y-51498900D01*
X49590100Y-51498900D02*
X47612700Y-49521500D01*
X47612700Y-49521500D02*
X25391500Y-49521500D01*
X25391500Y-49521500D02*
X24130000Y-48260000D01*
%TO.N,GP13*%
X90170000Y-49022000D02*
X86791200Y-52400800D01*
X86791200Y-52400800D02*
X54101900Y-52400800D01*
X54101900Y-52400800D02*
X53875200Y-52174100D01*
X53875200Y-52174100D02*
X25504100Y-52174100D01*
X25504100Y-52174100D02*
X24130000Y-50800000D01*
%TO.N,GP14*%
X84479700Y-57150000D02*
X61319700Y-57150000D01*
X61319700Y-57150000D02*
X57642600Y-60827100D01*
X57642600Y-60827100D02*
X26462400Y-60827100D01*
%TO.N,GP15*%
X24130000Y-55880000D02*
X25400000Y-54610000D01*
X25400000Y-54610000D02*
X92202000Y-54610000D01*
X92202000Y-54610000D02*
X97790000Y-49022000D01*
%TO.N,BCK*%
X113046600Y-9525000D02*
X112811400Y-9525000D01*
X114148000Y-9525000D02*
X113046600Y-9525000D01*
%TO.N,WS*%
X102870000Y-10160000D02*
X103986200Y-9043800D01*
X103986200Y-9043800D02*
X111295400Y-9043800D01*
X111295400Y-9043800D02*
X113046600Y-10795000D01*
X114148000Y-10795000D02*
X113046600Y-10795000D01*
%TO.N,DIN*%
X113613000Y-12065000D02*
X113126800Y-11578800D01*
X113126800Y-11578800D02*
X103991200Y-11578800D01*
X103991200Y-11578800D02*
X102870000Y-12700000D01*
D17*
X114148000Y-12065000D02*
X113613000Y-12065000D01*
%TO.N,PWM*%
D16*
X106680000Y-40640000D02*
X91948000Y-40640000D01*
X91948000Y-40640000D02*
X82550000Y-31242000D01*
%TO.N,AOL*%
X118981300Y-9525000D02*
X117076300Y-7620000D01*
X117076300Y-7620000D02*
X110490000Y-7620000D01*
X118981300Y-9525000D02*
X118430600Y-9525000D01*
X119532000Y-9525000D02*
X118981300Y-9525000D01*
X118149600Y-9741100D02*
X118214500Y-9741100D01*
X118214500Y-9741100D02*
X118430600Y-9525000D01*
%TO.N,AOR*%
X118430600Y-12065000D02*
X118201500Y-11835900D01*
X118201500Y-11835900D02*
X116434100Y-11835900D01*
X119532000Y-12065000D02*
X118430600Y-12065000D01*
%TO.N,ASUM*%
X113030000Y-26670000D02*
X109220000Y-26670000D01*
%TO.N,AOUT*%
X125730000Y-34290000D02*
X124968000Y-34290000D01*
X124968000Y-34290000D02*
X117348000Y-26670000D01*
%TO.N,PWMF*%
X114808000Y-40640000D02*
X110744000Y-40640000D01*
%TD*%
M02*
