%TF.GenerationSoftware,KiCad,Pcbnew,10.0.6*%
%TF.CreationDate,2026-08-31T06:43:11-04:00*%
%TF.ProjectId,card_routed,63617264-5f72-46f7-9574-65642e6b6963,rev?*%
%TF.SameCoordinates,Original*%
%TF.FileFunction,Legend,Top*%
%TF.FilePolarity,Positive*%
%FSLAX46Y46*%
G04 Gerber Fmt 4.6, Leading zero omitted, Abs format (unit mm)*
G04 Created by KiCad (PCBNEW 10.0.6) date 2026-08-31 06:43:11*
%MOMM*%
%LPD*%
G01*
G04 APERTURE LIST*
%ADD10C,0.150000*%
G04 APERTURE END LIST*
D10*
X17526000Y-3556000D02*
X23114000Y-3556000D01*
X23114000Y-29464000D01*
X17526000Y-29464000D01*
X17526000Y-3556000D01*
X19882295Y-19633809D02*
X20529914Y-19633809D01*
X20529914Y-19633809D02*
X20606104Y-19595714D01*
X20606104Y-19595714D02*
X20644200Y-19557619D01*
X20644200Y-19557619D02*
X20682295Y-19481428D01*
X20682295Y-19481428D02*
X20682295Y-19329047D01*
X20682295Y-19329047D02*
X20644200Y-19252857D01*
X20644200Y-19252857D02*
X20606104Y-19214762D01*
X20606104Y-19214762D02*
X20529914Y-19176666D01*
X20529914Y-19176666D02*
X19882295Y-19176666D01*
X20682295Y-18376667D02*
X20682295Y-18833810D01*
X20682295Y-18605238D02*
X19882295Y-18605238D01*
X19882295Y-18605238D02*
X19996580Y-18681429D01*
X19996580Y-18681429D02*
X20072771Y-18757619D01*
X20072771Y-18757619D02*
X20110866Y-18833810D01*
X20682295Y-17043333D02*
X20682295Y-17424285D01*
X20682295Y-17424285D02*
X19882295Y-17424285D01*
X19882295Y-16890952D02*
X20682295Y-16624285D01*
X20682295Y-16624285D02*
X19882295Y-16357619D01*
X20606104Y-15633809D02*
X20644200Y-15671905D01*
X20644200Y-15671905D02*
X20682295Y-15786190D01*
X20682295Y-15786190D02*
X20682295Y-15862381D01*
X20682295Y-15862381D02*
X20644200Y-15976667D01*
X20644200Y-15976667D02*
X20568009Y-16052857D01*
X20568009Y-16052857D02*
X20491819Y-16090952D01*
X20491819Y-16090952D02*
X20339438Y-16129048D01*
X20339438Y-16129048D02*
X20225152Y-16129048D01*
X20225152Y-16129048D02*
X20072771Y-16090952D01*
X20072771Y-16090952D02*
X19996580Y-16052857D01*
X19996580Y-16052857D02*
X19920390Y-15976667D01*
X19920390Y-15976667D02*
X19882295Y-15862381D01*
X19882295Y-15862381D02*
X19882295Y-15786190D01*
X19882295Y-15786190D02*
X19920390Y-15671905D01*
X19920390Y-15671905D02*
X19958485Y-15633809D01*
X19958485Y-15329048D02*
X19920390Y-15290952D01*
X19920390Y-15290952D02*
X19882295Y-15214762D01*
X19882295Y-15214762D02*
X19882295Y-15024286D01*
X19882295Y-15024286D02*
X19920390Y-14948095D01*
X19920390Y-14948095D02*
X19958485Y-14910000D01*
X19958485Y-14910000D02*
X20034676Y-14871905D01*
X20034676Y-14871905D02*
X20110866Y-14871905D01*
X20110866Y-14871905D02*
X20225152Y-14910000D01*
X20225152Y-14910000D02*
X20682295Y-15367143D01*
X20682295Y-15367143D02*
X20682295Y-14871905D01*
X20148961Y-14186190D02*
X20682295Y-14186190D01*
X19844200Y-14376666D02*
X20415628Y-14567143D01*
X20415628Y-14567143D02*
X20415628Y-14071904D01*
X19882295Y-13386190D02*
X19882295Y-13767142D01*
X19882295Y-13767142D02*
X20263247Y-13805238D01*
X20263247Y-13805238D02*
X20225152Y-13767142D01*
X20225152Y-13767142D02*
X20187057Y-13690952D01*
X20187057Y-13690952D02*
X20187057Y-13500476D01*
X20187057Y-13500476D02*
X20225152Y-13424285D01*
X20225152Y-13424285D02*
X20263247Y-13386190D01*
X20263247Y-13386190D02*
X20339438Y-13348095D01*
X20339438Y-13348095D02*
X20529914Y-13348095D01*
X20529914Y-13348095D02*
X20606104Y-13386190D01*
X20606104Y-13386190D02*
X20644200Y-13424285D01*
X20644200Y-13424285D02*
X20682295Y-13500476D01*
X20682295Y-13500476D02*
X20682295Y-13690952D01*
X20682295Y-13690952D02*
X20644200Y-13767142D01*
X20644200Y-13767142D02*
X20606104Y-13805238D01*
X17526000Y-31496000D02*
X23114000Y-31496000D01*
X23114000Y-57404000D01*
X17526000Y-57404000D01*
X17526000Y-31496000D01*
X19882295Y-47573809D02*
X20529914Y-47573809D01*
X20529914Y-47573809D02*
X20606104Y-47535714D01*
X20606104Y-47535714D02*
X20644200Y-47497619D01*
X20644200Y-47497619D02*
X20682295Y-47421428D01*
X20682295Y-47421428D02*
X20682295Y-47269047D01*
X20682295Y-47269047D02*
X20644200Y-47192857D01*
X20644200Y-47192857D02*
X20606104Y-47154762D01*
X20606104Y-47154762D02*
X20529914Y-47116666D01*
X20529914Y-47116666D02*
X19882295Y-47116666D01*
X19958485Y-46773810D02*
X19920390Y-46735714D01*
X19920390Y-46735714D02*
X19882295Y-46659524D01*
X19882295Y-46659524D02*
X19882295Y-46469048D01*
X19882295Y-46469048D02*
X19920390Y-46392857D01*
X19920390Y-46392857D02*
X19958485Y-46354762D01*
X19958485Y-46354762D02*
X20034676Y-46316667D01*
X20034676Y-46316667D02*
X20110866Y-46316667D01*
X20110866Y-46316667D02*
X20225152Y-46354762D01*
X20225152Y-46354762D02*
X20682295Y-46811905D01*
X20682295Y-46811905D02*
X20682295Y-46316667D01*
X20682295Y-44983333D02*
X20682295Y-45364285D01*
X20682295Y-45364285D02*
X19882295Y-45364285D01*
X19882295Y-44830952D02*
X20682295Y-44564285D01*
X20682295Y-44564285D02*
X19882295Y-44297619D01*
X20606104Y-43573809D02*
X20644200Y-43611905D01*
X20644200Y-43611905D02*
X20682295Y-43726190D01*
X20682295Y-43726190D02*
X20682295Y-43802381D01*
X20682295Y-43802381D02*
X20644200Y-43916667D01*
X20644200Y-43916667D02*
X20568009Y-43992857D01*
X20568009Y-43992857D02*
X20491819Y-44030952D01*
X20491819Y-44030952D02*
X20339438Y-44069048D01*
X20339438Y-44069048D02*
X20225152Y-44069048D01*
X20225152Y-44069048D02*
X20072771Y-44030952D01*
X20072771Y-44030952D02*
X19996580Y-43992857D01*
X19996580Y-43992857D02*
X19920390Y-43916667D01*
X19920390Y-43916667D02*
X19882295Y-43802381D01*
X19882295Y-43802381D02*
X19882295Y-43726190D01*
X19882295Y-43726190D02*
X19920390Y-43611905D01*
X19920390Y-43611905D02*
X19958485Y-43573809D01*
X19958485Y-43269048D02*
X19920390Y-43230952D01*
X19920390Y-43230952D02*
X19882295Y-43154762D01*
X19882295Y-43154762D02*
X19882295Y-42964286D01*
X19882295Y-42964286D02*
X19920390Y-42888095D01*
X19920390Y-42888095D02*
X19958485Y-42850000D01*
X19958485Y-42850000D02*
X20034676Y-42811905D01*
X20034676Y-42811905D02*
X20110866Y-42811905D01*
X20110866Y-42811905D02*
X20225152Y-42850000D01*
X20225152Y-42850000D02*
X20682295Y-43307143D01*
X20682295Y-43307143D02*
X20682295Y-42811905D01*
X20148961Y-42126190D02*
X20682295Y-42126190D01*
X19844200Y-42316666D02*
X20415628Y-42507143D01*
X20415628Y-42507143D02*
X20415628Y-42011904D01*
X19882295Y-41326190D02*
X19882295Y-41707142D01*
X19882295Y-41707142D02*
X20263247Y-41745238D01*
X20263247Y-41745238D02*
X20225152Y-41707142D01*
X20225152Y-41707142D02*
X20187057Y-41630952D01*
X20187057Y-41630952D02*
X20187057Y-41440476D01*
X20187057Y-41440476D02*
X20225152Y-41364285D01*
X20225152Y-41364285D02*
X20263247Y-41326190D01*
X20263247Y-41326190D02*
X20339438Y-41288095D01*
X20339438Y-41288095D02*
X20529914Y-41288095D01*
X20529914Y-41288095D02*
X20606104Y-41326190D01*
X20606104Y-41326190D02*
X20644200Y-41364285D01*
X20644200Y-41364285D02*
X20682295Y-41440476D01*
X20682295Y-41440476D02*
X20682295Y-41630952D01*
X20682295Y-41630952D02*
X20644200Y-41707142D01*
X20644200Y-41707142D02*
X20606104Y-41745238D01*
X32766000Y-3556000D02*
X38354000Y-3556000D01*
X38354000Y-29464000D01*
X32766000Y-29464000D01*
X32766000Y-3556000D01*
X35122295Y-19748094D02*
X35769914Y-19748094D01*
X35769914Y-19748094D02*
X35846104Y-19709999D01*
X35846104Y-19709999D02*
X35884200Y-19671904D01*
X35884200Y-19671904D02*
X35922295Y-19595713D01*
X35922295Y-19595713D02*
X35922295Y-19443332D01*
X35922295Y-19443332D02*
X35884200Y-19367142D01*
X35884200Y-19367142D02*
X35846104Y-19329047D01*
X35846104Y-19329047D02*
X35769914Y-19290951D01*
X35769914Y-19290951D02*
X35122295Y-19290951D01*
X35122295Y-18986190D02*
X35122295Y-18490952D01*
X35122295Y-18490952D02*
X35427057Y-18757618D01*
X35427057Y-18757618D02*
X35427057Y-18643333D01*
X35427057Y-18643333D02*
X35465152Y-18567142D01*
X35465152Y-18567142D02*
X35503247Y-18529047D01*
X35503247Y-18529047D02*
X35579438Y-18490952D01*
X35579438Y-18490952D02*
X35769914Y-18490952D01*
X35769914Y-18490952D02*
X35846104Y-18529047D01*
X35846104Y-18529047D02*
X35884200Y-18567142D01*
X35884200Y-18567142D02*
X35922295Y-18643333D01*
X35922295Y-18643333D02*
X35922295Y-18871904D01*
X35922295Y-18871904D02*
X35884200Y-18948095D01*
X35884200Y-18948095D02*
X35846104Y-18986190D01*
X35922295Y-17538570D02*
X35122295Y-17538570D01*
X35922295Y-17157618D02*
X35122295Y-17157618D01*
X35122295Y-17157618D02*
X35122295Y-16967142D01*
X35122295Y-16967142D02*
X35160390Y-16852856D01*
X35160390Y-16852856D02*
X35236580Y-16776666D01*
X35236580Y-16776666D02*
X35312771Y-16738571D01*
X35312771Y-16738571D02*
X35465152Y-16700475D01*
X35465152Y-16700475D02*
X35579438Y-16700475D01*
X35579438Y-16700475D02*
X35731819Y-16738571D01*
X35731819Y-16738571D02*
X35808009Y-16776666D01*
X35808009Y-16776666D02*
X35884200Y-16852856D01*
X35884200Y-16852856D02*
X35922295Y-16967142D01*
X35922295Y-16967142D02*
X35922295Y-17157618D01*
X35122295Y-15595713D02*
X35122295Y-15519523D01*
X35122295Y-15519523D02*
X35160390Y-15443332D01*
X35160390Y-15443332D02*
X35198485Y-15405237D01*
X35198485Y-15405237D02*
X35274676Y-15367142D01*
X35274676Y-15367142D02*
X35427057Y-15329047D01*
X35427057Y-15329047D02*
X35617533Y-15329047D01*
X35617533Y-15329047D02*
X35769914Y-15367142D01*
X35769914Y-15367142D02*
X35846104Y-15405237D01*
X35846104Y-15405237D02*
X35884200Y-15443332D01*
X35884200Y-15443332D02*
X35922295Y-15519523D01*
X35922295Y-15519523D02*
X35922295Y-15595713D01*
X35922295Y-15595713D02*
X35884200Y-15671904D01*
X35884200Y-15671904D02*
X35846104Y-15709999D01*
X35846104Y-15709999D02*
X35769914Y-15748094D01*
X35769914Y-15748094D02*
X35617533Y-15786190D01*
X35617533Y-15786190D02*
X35427057Y-15786190D01*
X35427057Y-15786190D02*
X35274676Y-15748094D01*
X35274676Y-15748094D02*
X35198485Y-15709999D01*
X35198485Y-15709999D02*
X35160390Y-15671904D01*
X35160390Y-15671904D02*
X35122295Y-15595713D01*
X35922295Y-15062380D02*
X35388961Y-14643332D01*
X35388961Y-15062380D02*
X35922295Y-14643332D01*
X35693723Y-14376666D02*
X35693723Y-13995713D01*
X35922295Y-14452856D02*
X35122295Y-14186189D01*
X35122295Y-14186189D02*
X35922295Y-13919523D01*
X35122295Y-13271904D02*
X35122295Y-13652856D01*
X35122295Y-13652856D02*
X35503247Y-13690952D01*
X35503247Y-13690952D02*
X35465152Y-13652856D01*
X35465152Y-13652856D02*
X35427057Y-13576666D01*
X35427057Y-13576666D02*
X35427057Y-13386190D01*
X35427057Y-13386190D02*
X35465152Y-13309999D01*
X35465152Y-13309999D02*
X35503247Y-13271904D01*
X35503247Y-13271904D02*
X35579438Y-13233809D01*
X35579438Y-13233809D02*
X35769914Y-13233809D01*
X35769914Y-13233809D02*
X35846104Y-13271904D01*
X35846104Y-13271904D02*
X35884200Y-13309999D01*
X35884200Y-13309999D02*
X35922295Y-13386190D01*
X35922295Y-13386190D02*
X35922295Y-13576666D01*
X35922295Y-13576666D02*
X35884200Y-13652856D01*
X35884200Y-13652856D02*
X35846104Y-13690952D01*
X32766000Y-31496000D02*
X38354000Y-31496000D01*
X38354000Y-57404000D01*
X32766000Y-57404000D01*
X32766000Y-31496000D01*
X35122295Y-47821428D02*
X35769914Y-47821428D01*
X35769914Y-47821428D02*
X35846104Y-47783333D01*
X35846104Y-47783333D02*
X35884200Y-47745238D01*
X35884200Y-47745238D02*
X35922295Y-47669047D01*
X35922295Y-47669047D02*
X35922295Y-47516666D01*
X35922295Y-47516666D02*
X35884200Y-47440476D01*
X35884200Y-47440476D02*
X35846104Y-47402381D01*
X35846104Y-47402381D02*
X35769914Y-47364285D01*
X35769914Y-47364285D02*
X35122295Y-47364285D01*
X35388961Y-46640476D02*
X35922295Y-46640476D01*
X35084200Y-46830952D02*
X35655628Y-47021429D01*
X35655628Y-47021429D02*
X35655628Y-46526190D01*
X35884200Y-45650000D02*
X35922295Y-45535714D01*
X35922295Y-45535714D02*
X35922295Y-45345238D01*
X35922295Y-45345238D02*
X35884200Y-45269047D01*
X35884200Y-45269047D02*
X35846104Y-45230952D01*
X35846104Y-45230952D02*
X35769914Y-45192857D01*
X35769914Y-45192857D02*
X35693723Y-45192857D01*
X35693723Y-45192857D02*
X35617533Y-45230952D01*
X35617533Y-45230952D02*
X35579438Y-45269047D01*
X35579438Y-45269047D02*
X35541342Y-45345238D01*
X35541342Y-45345238D02*
X35503247Y-45497619D01*
X35503247Y-45497619D02*
X35465152Y-45573809D01*
X35465152Y-45573809D02*
X35427057Y-45611904D01*
X35427057Y-45611904D02*
X35350866Y-45650000D01*
X35350866Y-45650000D02*
X35274676Y-45650000D01*
X35274676Y-45650000D02*
X35198485Y-45611904D01*
X35198485Y-45611904D02*
X35160390Y-45573809D01*
X35160390Y-45573809D02*
X35122295Y-45497619D01*
X35122295Y-45497619D02*
X35122295Y-45307142D01*
X35122295Y-45307142D02*
X35160390Y-45192857D01*
X35122295Y-44964285D02*
X35122295Y-44507142D01*
X35922295Y-44735714D02*
X35122295Y-44735714D01*
X35122295Y-43478570D02*
X35122295Y-43402380D01*
X35122295Y-43402380D02*
X35160390Y-43326189D01*
X35160390Y-43326189D02*
X35198485Y-43288094D01*
X35198485Y-43288094D02*
X35274676Y-43249999D01*
X35274676Y-43249999D02*
X35427057Y-43211904D01*
X35427057Y-43211904D02*
X35617533Y-43211904D01*
X35617533Y-43211904D02*
X35769914Y-43249999D01*
X35769914Y-43249999D02*
X35846104Y-43288094D01*
X35846104Y-43288094D02*
X35884200Y-43326189D01*
X35884200Y-43326189D02*
X35922295Y-43402380D01*
X35922295Y-43402380D02*
X35922295Y-43478570D01*
X35922295Y-43478570D02*
X35884200Y-43554761D01*
X35884200Y-43554761D02*
X35846104Y-43592856D01*
X35846104Y-43592856D02*
X35769914Y-43630951D01*
X35769914Y-43630951D02*
X35617533Y-43669047D01*
X35617533Y-43669047D02*
X35427057Y-43669047D01*
X35427057Y-43669047D02*
X35274676Y-43630951D01*
X35274676Y-43630951D02*
X35198485Y-43592856D01*
X35198485Y-43592856D02*
X35160390Y-43554761D01*
X35160390Y-43554761D02*
X35122295Y-43478570D01*
X35922295Y-42945237D02*
X35388961Y-42526189D01*
X35388961Y-42945237D02*
X35922295Y-42526189D01*
X35122295Y-41840475D02*
X35122295Y-42221427D01*
X35122295Y-42221427D02*
X35503247Y-42259523D01*
X35503247Y-42259523D02*
X35465152Y-42221427D01*
X35465152Y-42221427D02*
X35427057Y-42145237D01*
X35427057Y-42145237D02*
X35427057Y-41954761D01*
X35427057Y-41954761D02*
X35465152Y-41878570D01*
X35465152Y-41878570D02*
X35503247Y-41840475D01*
X35503247Y-41840475D02*
X35579438Y-41802380D01*
X35579438Y-41802380D02*
X35769914Y-41802380D01*
X35769914Y-41802380D02*
X35846104Y-41840475D01*
X35846104Y-41840475D02*
X35884200Y-41878570D01*
X35884200Y-41878570D02*
X35922295Y-41954761D01*
X35922295Y-41954761D02*
X35922295Y-42145237D01*
X35922295Y-42145237D02*
X35884200Y-42221427D01*
X35884200Y-42221427D02*
X35846104Y-42259523D01*
X35122295Y-41535713D02*
X35122295Y-41002379D01*
X35122295Y-41002379D02*
X35922295Y-41345237D01*
X32766000Y-58166000D02*
X38354000Y-58166000D01*
X38354000Y-78994000D01*
X32766000Y-78994000D01*
X32766000Y-58166000D01*
X35122295Y-71760952D02*
X35769914Y-71760952D01*
X35769914Y-71760952D02*
X35846104Y-71722857D01*
X35846104Y-71722857D02*
X35884200Y-71684762D01*
X35884200Y-71684762D02*
X35922295Y-71608571D01*
X35922295Y-71608571D02*
X35922295Y-71456190D01*
X35922295Y-71456190D02*
X35884200Y-71380000D01*
X35884200Y-71380000D02*
X35846104Y-71341905D01*
X35846104Y-71341905D02*
X35769914Y-71303809D01*
X35769914Y-71303809D02*
X35122295Y-71303809D01*
X35122295Y-70541905D02*
X35122295Y-70922857D01*
X35122295Y-70922857D02*
X35503247Y-70960953D01*
X35503247Y-70960953D02*
X35465152Y-70922857D01*
X35465152Y-70922857D02*
X35427057Y-70846667D01*
X35427057Y-70846667D02*
X35427057Y-70656191D01*
X35427057Y-70656191D02*
X35465152Y-70580000D01*
X35465152Y-70580000D02*
X35503247Y-70541905D01*
X35503247Y-70541905D02*
X35579438Y-70503810D01*
X35579438Y-70503810D02*
X35769914Y-70503810D01*
X35769914Y-70503810D02*
X35846104Y-70541905D01*
X35846104Y-70541905D02*
X35884200Y-70580000D01*
X35884200Y-70580000D02*
X35922295Y-70656191D01*
X35922295Y-70656191D02*
X35922295Y-70846667D01*
X35922295Y-70846667D02*
X35884200Y-70922857D01*
X35884200Y-70922857D02*
X35846104Y-70960953D01*
X35922295Y-69551428D02*
X35122295Y-69551428D01*
X35503247Y-69551428D02*
X35503247Y-69094285D01*
X35922295Y-69094285D02*
X35122295Y-69094285D01*
X35846104Y-68256190D02*
X35884200Y-68294286D01*
X35884200Y-68294286D02*
X35922295Y-68408571D01*
X35922295Y-68408571D02*
X35922295Y-68484762D01*
X35922295Y-68484762D02*
X35884200Y-68599048D01*
X35884200Y-68599048D02*
X35808009Y-68675238D01*
X35808009Y-68675238D02*
X35731819Y-68713333D01*
X35731819Y-68713333D02*
X35579438Y-68751429D01*
X35579438Y-68751429D02*
X35465152Y-68751429D01*
X35465152Y-68751429D02*
X35312771Y-68713333D01*
X35312771Y-68713333D02*
X35236580Y-68675238D01*
X35236580Y-68675238D02*
X35160390Y-68599048D01*
X35160390Y-68599048D02*
X35122295Y-68484762D01*
X35122295Y-68484762D02*
X35122295Y-68408571D01*
X35122295Y-68408571D02*
X35160390Y-68294286D01*
X35160390Y-68294286D02*
X35198485Y-68256190D01*
X35122295Y-68027619D02*
X35122295Y-67570476D01*
X35922295Y-67799048D02*
X35122295Y-67799048D01*
X35922295Y-66884762D02*
X35922295Y-67341905D01*
X35922295Y-67113333D02*
X35122295Y-67113333D01*
X35122295Y-67113333D02*
X35236580Y-67189524D01*
X35236580Y-67189524D02*
X35312771Y-67265714D01*
X35312771Y-67265714D02*
X35350866Y-67341905D01*
X35122295Y-66618095D02*
X35122295Y-66122857D01*
X35122295Y-66122857D02*
X35427057Y-66389523D01*
X35427057Y-66389523D02*
X35427057Y-66275238D01*
X35427057Y-66275238D02*
X35465152Y-66199047D01*
X35465152Y-66199047D02*
X35503247Y-66160952D01*
X35503247Y-66160952D02*
X35579438Y-66122857D01*
X35579438Y-66122857D02*
X35769914Y-66122857D01*
X35769914Y-66122857D02*
X35846104Y-66160952D01*
X35846104Y-66160952D02*
X35884200Y-66199047D01*
X35884200Y-66199047D02*
X35922295Y-66275238D01*
X35922295Y-66275238D02*
X35922295Y-66503809D01*
X35922295Y-66503809D02*
X35884200Y-66580000D01*
X35884200Y-66580000D02*
X35846104Y-66618095D01*
X35465152Y-65665714D02*
X35427057Y-65741904D01*
X35427057Y-65741904D02*
X35388961Y-65779999D01*
X35388961Y-65779999D02*
X35312771Y-65818095D01*
X35312771Y-65818095D02*
X35274676Y-65818095D01*
X35274676Y-65818095D02*
X35198485Y-65779999D01*
X35198485Y-65779999D02*
X35160390Y-65741904D01*
X35160390Y-65741904D02*
X35122295Y-65665714D01*
X35122295Y-65665714D02*
X35122295Y-65513333D01*
X35122295Y-65513333D02*
X35160390Y-65437142D01*
X35160390Y-65437142D02*
X35198485Y-65399047D01*
X35198485Y-65399047D02*
X35274676Y-65360952D01*
X35274676Y-65360952D02*
X35312771Y-65360952D01*
X35312771Y-65360952D02*
X35388961Y-65399047D01*
X35388961Y-65399047D02*
X35427057Y-65437142D01*
X35427057Y-65437142D02*
X35465152Y-65513333D01*
X35465152Y-65513333D02*
X35465152Y-65665714D01*
X35465152Y-65665714D02*
X35503247Y-65741904D01*
X35503247Y-65741904D02*
X35541342Y-65779999D01*
X35541342Y-65779999D02*
X35617533Y-65818095D01*
X35617533Y-65818095D02*
X35769914Y-65818095D01*
X35769914Y-65818095D02*
X35846104Y-65779999D01*
X35846104Y-65779999D02*
X35884200Y-65741904D01*
X35884200Y-65741904D02*
X35922295Y-65665714D01*
X35922295Y-65665714D02*
X35922295Y-65513333D01*
X35922295Y-65513333D02*
X35884200Y-65437142D01*
X35884200Y-65437142D02*
X35846104Y-65399047D01*
X35846104Y-65399047D02*
X35769914Y-65360952D01*
X35769914Y-65360952D02*
X35617533Y-65360952D01*
X35617533Y-65360952D02*
X35541342Y-65399047D01*
X35541342Y-65399047D02*
X35503247Y-65437142D01*
X35503247Y-65437142D02*
X35465152Y-65513333D01*
X103886000Y-6096000D02*
X109474000Y-6096000D01*
X109474000Y-16764000D01*
X103886000Y-16764000D01*
X103886000Y-6096000D01*
X106242295Y-14572857D02*
X106889914Y-14572857D01*
X106889914Y-14572857D02*
X106966104Y-14534762D01*
X106966104Y-14534762D02*
X107004200Y-14496667D01*
X107004200Y-14496667D02*
X107042295Y-14420476D01*
X107042295Y-14420476D02*
X107042295Y-14268095D01*
X107042295Y-14268095D02*
X107004200Y-14191905D01*
X107004200Y-14191905D02*
X106966104Y-14153810D01*
X106966104Y-14153810D02*
X106889914Y-14115714D01*
X106889914Y-14115714D02*
X106242295Y-14115714D01*
X106242295Y-13391905D02*
X106242295Y-13544286D01*
X106242295Y-13544286D02*
X106280390Y-13620477D01*
X106280390Y-13620477D02*
X106318485Y-13658572D01*
X106318485Y-13658572D02*
X106432771Y-13734762D01*
X106432771Y-13734762D02*
X106585152Y-13772858D01*
X106585152Y-13772858D02*
X106889914Y-13772858D01*
X106889914Y-13772858D02*
X106966104Y-13734762D01*
X106966104Y-13734762D02*
X107004200Y-13696667D01*
X107004200Y-13696667D02*
X107042295Y-13620477D01*
X107042295Y-13620477D02*
X107042295Y-13468096D01*
X107042295Y-13468096D02*
X107004200Y-13391905D01*
X107004200Y-13391905D02*
X106966104Y-13353810D01*
X106966104Y-13353810D02*
X106889914Y-13315715D01*
X106889914Y-13315715D02*
X106699438Y-13315715D01*
X106699438Y-13315715D02*
X106623247Y-13353810D01*
X106623247Y-13353810D02*
X106585152Y-13391905D01*
X106585152Y-13391905D02*
X106547057Y-13468096D01*
X106547057Y-13468096D02*
X106547057Y-13620477D01*
X106547057Y-13620477D02*
X106585152Y-13696667D01*
X106585152Y-13696667D02*
X106623247Y-13734762D01*
X106623247Y-13734762D02*
X106699438Y-13772858D01*
X107042295Y-12363333D02*
X106242295Y-12363333D01*
X106242295Y-12363333D02*
X106242295Y-12058571D01*
X106242295Y-12058571D02*
X106280390Y-11982381D01*
X106280390Y-11982381D02*
X106318485Y-11944286D01*
X106318485Y-11944286D02*
X106394676Y-11906190D01*
X106394676Y-11906190D02*
X106508961Y-11906190D01*
X106508961Y-11906190D02*
X106585152Y-11944286D01*
X106585152Y-11944286D02*
X106623247Y-11982381D01*
X106623247Y-11982381D02*
X106661342Y-12058571D01*
X106661342Y-12058571D02*
X106661342Y-12363333D01*
X106242295Y-11677619D02*
X106242295Y-11220476D01*
X107042295Y-11449048D02*
X106242295Y-11449048D01*
X106585152Y-10839524D02*
X106547057Y-10915714D01*
X106547057Y-10915714D02*
X106508961Y-10953809D01*
X106508961Y-10953809D02*
X106432771Y-10991905D01*
X106432771Y-10991905D02*
X106394676Y-10991905D01*
X106394676Y-10991905D02*
X106318485Y-10953809D01*
X106318485Y-10953809D02*
X106280390Y-10915714D01*
X106280390Y-10915714D02*
X106242295Y-10839524D01*
X106242295Y-10839524D02*
X106242295Y-10687143D01*
X106242295Y-10687143D02*
X106280390Y-10610952D01*
X106280390Y-10610952D02*
X106318485Y-10572857D01*
X106318485Y-10572857D02*
X106394676Y-10534762D01*
X106394676Y-10534762D02*
X106432771Y-10534762D01*
X106432771Y-10534762D02*
X106508961Y-10572857D01*
X106508961Y-10572857D02*
X106547057Y-10610952D01*
X106547057Y-10610952D02*
X106585152Y-10687143D01*
X106585152Y-10687143D02*
X106585152Y-10839524D01*
X106585152Y-10839524D02*
X106623247Y-10915714D01*
X106623247Y-10915714D02*
X106661342Y-10953809D01*
X106661342Y-10953809D02*
X106737533Y-10991905D01*
X106737533Y-10991905D02*
X106889914Y-10991905D01*
X106889914Y-10991905D02*
X106966104Y-10953809D01*
X106966104Y-10953809D02*
X107004200Y-10915714D01*
X107004200Y-10915714D02*
X107042295Y-10839524D01*
X107042295Y-10839524D02*
X107042295Y-10687143D01*
X107042295Y-10687143D02*
X107004200Y-10610952D01*
X107004200Y-10610952D02*
X106966104Y-10572857D01*
X106966104Y-10572857D02*
X106889914Y-10534762D01*
X106889914Y-10534762D02*
X106737533Y-10534762D01*
X106737533Y-10534762D02*
X106661342Y-10572857D01*
X106661342Y-10572857D02*
X106623247Y-10610952D01*
X106623247Y-10610952D02*
X106585152Y-10687143D01*
X106318485Y-10230000D02*
X106280390Y-10191904D01*
X106280390Y-10191904D02*
X106242295Y-10115714D01*
X106242295Y-10115714D02*
X106242295Y-9925238D01*
X106242295Y-9925238D02*
X106280390Y-9849047D01*
X106280390Y-9849047D02*
X106318485Y-9810952D01*
X106318485Y-9810952D02*
X106394676Y-9772857D01*
X106394676Y-9772857D02*
X106470866Y-9772857D01*
X106470866Y-9772857D02*
X106585152Y-9810952D01*
X106585152Y-9810952D02*
X107042295Y-10268095D01*
X107042295Y-10268095D02*
X107042295Y-9772857D01*
X107042295Y-9010952D02*
X107042295Y-9468095D01*
X107042295Y-9239523D02*
X106242295Y-9239523D01*
X106242295Y-9239523D02*
X106356580Y-9315714D01*
X106356580Y-9315714D02*
X106432771Y-9391904D01*
X106432771Y-9391904D02*
X106470866Y-9468095D01*
X107042295Y-8249047D02*
X107042295Y-8706190D01*
X107042295Y-8477618D02*
X106242295Y-8477618D01*
X106242295Y-8477618D02*
X106356580Y-8553809D01*
X106356580Y-8553809D02*
X106432771Y-8629999D01*
X106432771Y-8629999D02*
X106470866Y-8706190D01*
X114052476Y-15310295D02*
X114052476Y-15957914D01*
X114052476Y-15957914D02*
X114090571Y-16034104D01*
X114090571Y-16034104D02*
X114128666Y-16072200D01*
X114128666Y-16072200D02*
X114204857Y-16110295D01*
X114204857Y-16110295D02*
X114357238Y-16110295D01*
X114357238Y-16110295D02*
X114433428Y-16072200D01*
X114433428Y-16072200D02*
X114471523Y-16034104D01*
X114471523Y-16034104D02*
X114509619Y-15957914D01*
X114509619Y-15957914D02*
X114509619Y-15310295D01*
X115233428Y-15310295D02*
X115081047Y-15310295D01*
X115081047Y-15310295D02*
X115004856Y-15348390D01*
X115004856Y-15348390D02*
X114966761Y-15386485D01*
X114966761Y-15386485D02*
X114890571Y-15500771D01*
X114890571Y-15500771D02*
X114852475Y-15653152D01*
X114852475Y-15653152D02*
X114852475Y-15957914D01*
X114852475Y-15957914D02*
X114890571Y-16034104D01*
X114890571Y-16034104D02*
X114928666Y-16072200D01*
X114928666Y-16072200D02*
X115004856Y-16110295D01*
X115004856Y-16110295D02*
X115157237Y-16110295D01*
X115157237Y-16110295D02*
X115233428Y-16072200D01*
X115233428Y-16072200D02*
X115271523Y-16034104D01*
X115271523Y-16034104D02*
X115309618Y-15957914D01*
X115309618Y-15957914D02*
X115309618Y-15767438D01*
X115309618Y-15767438D02*
X115271523Y-15691247D01*
X115271523Y-15691247D02*
X115233428Y-15653152D01*
X115233428Y-15653152D02*
X115157237Y-15615057D01*
X115157237Y-15615057D02*
X115004856Y-15615057D01*
X115004856Y-15615057D02*
X114928666Y-15653152D01*
X114928666Y-15653152D02*
X114890571Y-15691247D01*
X114890571Y-15691247D02*
X114852475Y-15767438D01*
X115919142Y-15691247D02*
X116033428Y-15729342D01*
X116033428Y-15729342D02*
X116071523Y-15767438D01*
X116071523Y-15767438D02*
X116109619Y-15843628D01*
X116109619Y-15843628D02*
X116109619Y-15957914D01*
X116109619Y-15957914D02*
X116071523Y-16034104D01*
X116071523Y-16034104D02*
X116033428Y-16072200D01*
X116033428Y-16072200D02*
X115957238Y-16110295D01*
X115957238Y-16110295D02*
X115652476Y-16110295D01*
X115652476Y-16110295D02*
X115652476Y-15310295D01*
X115652476Y-15310295D02*
X115919142Y-15310295D01*
X115919142Y-15310295D02*
X115995333Y-15348390D01*
X115995333Y-15348390D02*
X116033428Y-15386485D01*
X116033428Y-15386485D02*
X116071523Y-15462676D01*
X116071523Y-15462676D02*
X116071523Y-15538866D01*
X116071523Y-15538866D02*
X116033428Y-15615057D01*
X116033428Y-15615057D02*
X115995333Y-15653152D01*
X115995333Y-15653152D02*
X115919142Y-15691247D01*
X115919142Y-15691247D02*
X115652476Y-15691247D01*
X47752000Y-29718000D02*
X99568000Y-29718000D01*
X99568000Y-50546000D01*
X47752000Y-50546000D01*
X47752000Y-29718000D01*
X66088475Y-41602819D02*
X66088475Y-40602819D01*
X66088475Y-40602819D02*
X66469427Y-40602819D01*
X66469427Y-40602819D02*
X66564665Y-40650438D01*
X66564665Y-40650438D02*
X66612284Y-40698057D01*
X66612284Y-40698057D02*
X66659903Y-40793295D01*
X66659903Y-40793295D02*
X66659903Y-40936152D01*
X66659903Y-40936152D02*
X66612284Y-41031390D01*
X66612284Y-41031390D02*
X66564665Y-41079009D01*
X66564665Y-41079009D02*
X66469427Y-41126628D01*
X66469427Y-41126628D02*
X66088475Y-41126628D01*
X67088475Y-41602819D02*
X67088475Y-40602819D01*
X68136093Y-41507580D02*
X68088474Y-41555200D01*
X68088474Y-41555200D02*
X67945617Y-41602819D01*
X67945617Y-41602819D02*
X67850379Y-41602819D01*
X67850379Y-41602819D02*
X67707522Y-41555200D01*
X67707522Y-41555200D02*
X67612284Y-41459961D01*
X67612284Y-41459961D02*
X67564665Y-41364723D01*
X67564665Y-41364723D02*
X67517046Y-41174247D01*
X67517046Y-41174247D02*
X67517046Y-41031390D01*
X67517046Y-41031390D02*
X67564665Y-40840914D01*
X67564665Y-40840914D02*
X67612284Y-40745676D01*
X67612284Y-40745676D02*
X67707522Y-40650438D01*
X67707522Y-40650438D02*
X67850379Y-40602819D01*
X67850379Y-40602819D02*
X67945617Y-40602819D01*
X67945617Y-40602819D02*
X68088474Y-40650438D01*
X68088474Y-40650438D02*
X68136093Y-40698057D01*
X68755141Y-40602819D02*
X68945617Y-40602819D01*
X68945617Y-40602819D02*
X69040855Y-40650438D01*
X69040855Y-40650438D02*
X69136093Y-40745676D01*
X69136093Y-40745676D02*
X69183712Y-40936152D01*
X69183712Y-40936152D02*
X69183712Y-41269485D01*
X69183712Y-41269485D02*
X69136093Y-41459961D01*
X69136093Y-41459961D02*
X69040855Y-41555200D01*
X69040855Y-41555200D02*
X68945617Y-41602819D01*
X68945617Y-41602819D02*
X68755141Y-41602819D01*
X68755141Y-41602819D02*
X68659903Y-41555200D01*
X68659903Y-41555200D02*
X68564665Y-41459961D01*
X68564665Y-41459961D02*
X68517046Y-41269485D01*
X68517046Y-41269485D02*
X68517046Y-40936152D01*
X68517046Y-40936152D02*
X68564665Y-40745676D01*
X68564665Y-40745676D02*
X68659903Y-40650438D01*
X68659903Y-40650438D02*
X68755141Y-40602819D01*
X70278951Y-40602819D02*
X70517046Y-41602819D01*
X70517046Y-41602819D02*
X70707522Y-40888533D01*
X70707522Y-40888533D02*
X70897998Y-41602819D01*
X70897998Y-41602819D02*
X71136094Y-40602819D01*
X72564665Y-41983771D02*
X72517046Y-41936152D01*
X72517046Y-41936152D02*
X72421808Y-41793295D01*
X72421808Y-41793295D02*
X72374189Y-41698057D01*
X72374189Y-41698057D02*
X72326570Y-41555200D01*
X72326570Y-41555200D02*
X72278951Y-41317104D01*
X72278951Y-41317104D02*
X72278951Y-41126628D01*
X72278951Y-41126628D02*
X72326570Y-40888533D01*
X72326570Y-40888533D02*
X72374189Y-40745676D01*
X72374189Y-40745676D02*
X72421808Y-40650438D01*
X72421808Y-40650438D02*
X72517046Y-40507580D01*
X72517046Y-40507580D02*
X72564665Y-40459961D01*
X72897999Y-41555200D02*
X72993237Y-41602819D01*
X72993237Y-41602819D02*
X73183713Y-41602819D01*
X73183713Y-41602819D02*
X73278951Y-41555200D01*
X73278951Y-41555200D02*
X73326570Y-41459961D01*
X73326570Y-41459961D02*
X73326570Y-41412342D01*
X73326570Y-41412342D02*
X73278951Y-41317104D01*
X73278951Y-41317104D02*
X73183713Y-41269485D01*
X73183713Y-41269485D02*
X73040856Y-41269485D01*
X73040856Y-41269485D02*
X72945618Y-41221866D01*
X72945618Y-41221866D02*
X72897999Y-41126628D01*
X72897999Y-41126628D02*
X72897999Y-41079009D01*
X72897999Y-41079009D02*
X72945618Y-40983771D01*
X72945618Y-40983771D02*
X73040856Y-40936152D01*
X73040856Y-40936152D02*
X73183713Y-40936152D01*
X73183713Y-40936152D02*
X73278951Y-40983771D01*
X73897999Y-41602819D02*
X73802761Y-41555200D01*
X73802761Y-41555200D02*
X73755142Y-41507580D01*
X73755142Y-41507580D02*
X73707523Y-41412342D01*
X73707523Y-41412342D02*
X73707523Y-41126628D01*
X73707523Y-41126628D02*
X73755142Y-41031390D01*
X73755142Y-41031390D02*
X73802761Y-40983771D01*
X73802761Y-40983771D02*
X73897999Y-40936152D01*
X73897999Y-40936152D02*
X74040856Y-40936152D01*
X74040856Y-40936152D02*
X74136094Y-40983771D01*
X74136094Y-40983771D02*
X74183713Y-41031390D01*
X74183713Y-41031390D02*
X74231332Y-41126628D01*
X74231332Y-41126628D02*
X74231332Y-41412342D01*
X74231332Y-41412342D02*
X74183713Y-41507580D01*
X74183713Y-41507580D02*
X74136094Y-41555200D01*
X74136094Y-41555200D02*
X74040856Y-41602819D01*
X74040856Y-41602819D02*
X73897999Y-41602819D01*
X75088475Y-41555200D02*
X74993237Y-41602819D01*
X74993237Y-41602819D02*
X74802761Y-41602819D01*
X74802761Y-41602819D02*
X74707523Y-41555200D01*
X74707523Y-41555200D02*
X74659904Y-41507580D01*
X74659904Y-41507580D02*
X74612285Y-41412342D01*
X74612285Y-41412342D02*
X74612285Y-41126628D01*
X74612285Y-41126628D02*
X74659904Y-41031390D01*
X74659904Y-41031390D02*
X74707523Y-40983771D01*
X74707523Y-40983771D02*
X74802761Y-40936152D01*
X74802761Y-40936152D02*
X74993237Y-40936152D01*
X74993237Y-40936152D02*
X75088475Y-40983771D01*
X75517047Y-41602819D02*
X75517047Y-40602819D01*
X75612285Y-41221866D02*
X75897999Y-41602819D01*
X75897999Y-40936152D02*
X75517047Y-41317104D01*
X76707523Y-41555200D02*
X76612285Y-41602819D01*
X76612285Y-41602819D02*
X76421809Y-41602819D01*
X76421809Y-41602819D02*
X76326571Y-41555200D01*
X76326571Y-41555200D02*
X76278952Y-41459961D01*
X76278952Y-41459961D02*
X76278952Y-41079009D01*
X76278952Y-41079009D02*
X76326571Y-40983771D01*
X76326571Y-40983771D02*
X76421809Y-40936152D01*
X76421809Y-40936152D02*
X76612285Y-40936152D01*
X76612285Y-40936152D02*
X76707523Y-40983771D01*
X76707523Y-40983771D02*
X76755142Y-41079009D01*
X76755142Y-41079009D02*
X76755142Y-41174247D01*
X76755142Y-41174247D02*
X76278952Y-41269485D01*
X77040857Y-40936152D02*
X77421809Y-40936152D01*
X77183714Y-40602819D02*
X77183714Y-41459961D01*
X77183714Y-41459961D02*
X77231333Y-41555200D01*
X77231333Y-41555200D02*
X77326571Y-41602819D01*
X77326571Y-41602819D02*
X77421809Y-41602819D01*
X78136095Y-41555200D02*
X78040857Y-41602819D01*
X78040857Y-41602819D02*
X77850381Y-41602819D01*
X77850381Y-41602819D02*
X77755143Y-41555200D01*
X77755143Y-41555200D02*
X77707524Y-41459961D01*
X77707524Y-41459961D02*
X77707524Y-41079009D01*
X77707524Y-41079009D02*
X77755143Y-40983771D01*
X77755143Y-40983771D02*
X77850381Y-40936152D01*
X77850381Y-40936152D02*
X78040857Y-40936152D01*
X78040857Y-40936152D02*
X78136095Y-40983771D01*
X78136095Y-40983771D02*
X78183714Y-41079009D01*
X78183714Y-41079009D02*
X78183714Y-41174247D01*
X78183714Y-41174247D02*
X77707524Y-41269485D01*
X79040857Y-41602819D02*
X79040857Y-40602819D01*
X79040857Y-41555200D02*
X78945619Y-41602819D01*
X78945619Y-41602819D02*
X78755143Y-41602819D01*
X78755143Y-41602819D02*
X78659905Y-41555200D01*
X78659905Y-41555200D02*
X78612286Y-41507580D01*
X78612286Y-41507580D02*
X78564667Y-41412342D01*
X78564667Y-41412342D02*
X78564667Y-41126628D01*
X78564667Y-41126628D02*
X78612286Y-41031390D01*
X78612286Y-41031390D02*
X78659905Y-40983771D01*
X78659905Y-40983771D02*
X78755143Y-40936152D01*
X78755143Y-40936152D02*
X78945619Y-40936152D01*
X78945619Y-40936152D02*
X79040857Y-40983771D01*
X79421810Y-41983771D02*
X79469429Y-41936152D01*
X79469429Y-41936152D02*
X79564667Y-41793295D01*
X79564667Y-41793295D02*
X79612286Y-41698057D01*
X79612286Y-41698057D02*
X79659905Y-41555200D01*
X79659905Y-41555200D02*
X79707524Y-41317104D01*
X79707524Y-41317104D02*
X79707524Y-41126628D01*
X79707524Y-41126628D02*
X79659905Y-40888533D01*
X79659905Y-40888533D02*
X79612286Y-40745676D01*
X79612286Y-40745676D02*
X79564667Y-40650438D01*
X79564667Y-40650438D02*
X79469429Y-40507580D01*
X79469429Y-40507580D02*
X79421810Y-40459961D01*
X87712857Y-28073723D02*
X88093810Y-28073723D01*
X87636667Y-28302295D02*
X87903334Y-27502295D01*
X87903334Y-27502295D02*
X88170000Y-28302295D01*
X88436667Y-28302295D02*
X88436667Y-27502295D01*
X88436667Y-27502295D02*
X88893810Y-28302295D01*
X88893810Y-28302295D02*
X88893810Y-27502295D01*
X89160476Y-27502295D02*
X89617619Y-27502295D01*
X89389047Y-28302295D02*
X89389047Y-27502295D01*
X89884286Y-27883247D02*
X90150952Y-27883247D01*
X90265238Y-28302295D02*
X89884286Y-28302295D01*
X89884286Y-28302295D02*
X89884286Y-27502295D01*
X89884286Y-27502295D02*
X90265238Y-27502295D01*
X90608096Y-28302295D02*
X90608096Y-27502295D01*
X90608096Y-27502295D02*
X91065239Y-28302295D01*
X91065239Y-28302295D02*
X91065239Y-27502295D01*
X91446191Y-28302295D02*
X91446191Y-27502295D01*
X91446191Y-27502295D02*
X91903334Y-28302295D01*
X91903334Y-28302295D02*
X91903334Y-27502295D01*
X92246190Y-28073723D02*
X92627143Y-28073723D01*
X92170000Y-28302295D02*
X92436667Y-27502295D01*
X92436667Y-27502295D02*
X92703333Y-28302295D01*
X104260667Y-20682295D02*
X103994000Y-20301342D01*
X103803524Y-20682295D02*
X103803524Y-19882295D01*
X103803524Y-19882295D02*
X104108286Y-19882295D01*
X104108286Y-19882295D02*
X104184476Y-19920390D01*
X104184476Y-19920390D02*
X104222571Y-19958485D01*
X104222571Y-19958485D02*
X104260667Y-20034676D01*
X104260667Y-20034676D02*
X104260667Y-20148961D01*
X104260667Y-20148961D02*
X104222571Y-20225152D01*
X104222571Y-20225152D02*
X104184476Y-20263247D01*
X104184476Y-20263247D02*
X104108286Y-20301342D01*
X104108286Y-20301342D02*
X103803524Y-20301342D01*
X104946381Y-19882295D02*
X104794000Y-19882295D01*
X104794000Y-19882295D02*
X104717809Y-19920390D01*
X104717809Y-19920390D02*
X104679714Y-19958485D01*
X104679714Y-19958485D02*
X104603524Y-20072771D01*
X104603524Y-20072771D02*
X104565428Y-20225152D01*
X104565428Y-20225152D02*
X104565428Y-20529914D01*
X104565428Y-20529914D02*
X104603524Y-20606104D01*
X104603524Y-20606104D02*
X104641619Y-20644200D01*
X104641619Y-20644200D02*
X104717809Y-20682295D01*
X104717809Y-20682295D02*
X104870190Y-20682295D01*
X104870190Y-20682295D02*
X104946381Y-20644200D01*
X104946381Y-20644200D02*
X104984476Y-20606104D01*
X104984476Y-20606104D02*
X105022571Y-20529914D01*
X105022571Y-20529914D02*
X105022571Y-20339438D01*
X105022571Y-20339438D02*
X104984476Y-20263247D01*
X104984476Y-20263247D02*
X104946381Y-20225152D01*
X104946381Y-20225152D02*
X104870190Y-20187057D01*
X104870190Y-20187057D02*
X104717809Y-20187057D01*
X104717809Y-20187057D02*
X104641619Y-20225152D01*
X104641619Y-20225152D02*
X104603524Y-20263247D01*
X104603524Y-20263247D02*
X104565428Y-20339438D01*
X111753714Y-20606104D02*
X111715618Y-20644200D01*
X111715618Y-20644200D02*
X111601333Y-20682295D01*
X111601333Y-20682295D02*
X111525142Y-20682295D01*
X111525142Y-20682295D02*
X111410856Y-20644200D01*
X111410856Y-20644200D02*
X111334666Y-20568009D01*
X111334666Y-20568009D02*
X111296571Y-20491819D01*
X111296571Y-20491819D02*
X111258475Y-20339438D01*
X111258475Y-20339438D02*
X111258475Y-20225152D01*
X111258475Y-20225152D02*
X111296571Y-20072771D01*
X111296571Y-20072771D02*
X111334666Y-19996580D01*
X111334666Y-19996580D02*
X111410856Y-19920390D01*
X111410856Y-19920390D02*
X111525142Y-19882295D01*
X111525142Y-19882295D02*
X111601333Y-19882295D01*
X111601333Y-19882295D02*
X111715618Y-19920390D01*
X111715618Y-19920390D02*
X111753714Y-19958485D01*
X112515618Y-20682295D02*
X112058475Y-20682295D01*
X112287047Y-20682295D02*
X112287047Y-19882295D01*
X112287047Y-19882295D02*
X112210856Y-19996580D01*
X112210856Y-19996580D02*
X112134666Y-20072771D01*
X112134666Y-20072771D02*
X112058475Y-20110866D01*
X113277523Y-20682295D02*
X112820380Y-20682295D01*
X113048952Y-20682295D02*
X113048952Y-19882295D01*
X113048952Y-19882295D02*
X112972761Y-19996580D01*
X112972761Y-19996580D02*
X112896571Y-20072771D01*
X112896571Y-20072771D02*
X112820380Y-20110866D01*
X104260667Y-26956104D02*
X104222571Y-26994200D01*
X104222571Y-26994200D02*
X104108286Y-27032295D01*
X104108286Y-27032295D02*
X104032095Y-27032295D01*
X104032095Y-27032295D02*
X103917809Y-26994200D01*
X103917809Y-26994200D02*
X103841619Y-26918009D01*
X103841619Y-26918009D02*
X103803524Y-26841819D01*
X103803524Y-26841819D02*
X103765428Y-26689438D01*
X103765428Y-26689438D02*
X103765428Y-26575152D01*
X103765428Y-26575152D02*
X103803524Y-26422771D01*
X103803524Y-26422771D02*
X103841619Y-26346580D01*
X103841619Y-26346580D02*
X103917809Y-26270390D01*
X103917809Y-26270390D02*
X104032095Y-26232295D01*
X104032095Y-26232295D02*
X104108286Y-26232295D01*
X104108286Y-26232295D02*
X104222571Y-26270390D01*
X104222571Y-26270390D02*
X104260667Y-26308485D01*
X104641619Y-27032295D02*
X104794000Y-27032295D01*
X104794000Y-27032295D02*
X104870190Y-26994200D01*
X104870190Y-26994200D02*
X104908286Y-26956104D01*
X104908286Y-26956104D02*
X104984476Y-26841819D01*
X104984476Y-26841819D02*
X105022571Y-26689438D01*
X105022571Y-26689438D02*
X105022571Y-26384676D01*
X105022571Y-26384676D02*
X104984476Y-26308485D01*
X104984476Y-26308485D02*
X104946381Y-26270390D01*
X104946381Y-26270390D02*
X104870190Y-26232295D01*
X104870190Y-26232295D02*
X104717809Y-26232295D01*
X104717809Y-26232295D02*
X104641619Y-26270390D01*
X104641619Y-26270390D02*
X104603524Y-26308485D01*
X104603524Y-26308485D02*
X104565428Y-26384676D01*
X104565428Y-26384676D02*
X104565428Y-26575152D01*
X104565428Y-26575152D02*
X104603524Y-26651342D01*
X104603524Y-26651342D02*
X104641619Y-26689438D01*
X104641619Y-26689438D02*
X104717809Y-26727533D01*
X104717809Y-26727533D02*
X104870190Y-26727533D01*
X104870190Y-26727533D02*
X104946381Y-26689438D01*
X104946381Y-26689438D02*
X104984476Y-26651342D01*
X104984476Y-26651342D02*
X105022571Y-26575152D01*
X111753714Y-26956104D02*
X111715618Y-26994200D01*
X111715618Y-26994200D02*
X111601333Y-27032295D01*
X111601333Y-27032295D02*
X111525142Y-27032295D01*
X111525142Y-27032295D02*
X111410856Y-26994200D01*
X111410856Y-26994200D02*
X111334666Y-26918009D01*
X111334666Y-26918009D02*
X111296571Y-26841819D01*
X111296571Y-26841819D02*
X111258475Y-26689438D01*
X111258475Y-26689438D02*
X111258475Y-26575152D01*
X111258475Y-26575152D02*
X111296571Y-26422771D01*
X111296571Y-26422771D02*
X111334666Y-26346580D01*
X111334666Y-26346580D02*
X111410856Y-26270390D01*
X111410856Y-26270390D02*
X111525142Y-26232295D01*
X111525142Y-26232295D02*
X111601333Y-26232295D01*
X111601333Y-26232295D02*
X111715618Y-26270390D01*
X111715618Y-26270390D02*
X111753714Y-26308485D01*
X112515618Y-27032295D02*
X112058475Y-27032295D01*
X112287047Y-27032295D02*
X112287047Y-26232295D01*
X112287047Y-26232295D02*
X112210856Y-26346580D01*
X112210856Y-26346580D02*
X112134666Y-26422771D01*
X112134666Y-26422771D02*
X112058475Y-26460866D01*
X112820380Y-26308485D02*
X112858476Y-26270390D01*
X112858476Y-26270390D02*
X112934666Y-26232295D01*
X112934666Y-26232295D02*
X113125142Y-26232295D01*
X113125142Y-26232295D02*
X113201333Y-26270390D01*
X113201333Y-26270390D02*
X113239428Y-26308485D01*
X113239428Y-26308485D02*
X113277523Y-26384676D01*
X113277523Y-26384676D02*
X113277523Y-26460866D01*
X113277523Y-26460866D02*
X113239428Y-26575152D01*
X113239428Y-26575152D02*
X112782285Y-27032295D01*
X112782285Y-27032295D02*
X113277523Y-27032295D01*
X106546667Y-50654295D02*
X106280000Y-50273342D01*
X106089524Y-50654295D02*
X106089524Y-49854295D01*
X106089524Y-49854295D02*
X106394286Y-49854295D01*
X106394286Y-49854295D02*
X106470476Y-49892390D01*
X106470476Y-49892390D02*
X106508571Y-49930485D01*
X106508571Y-49930485D02*
X106546667Y-50006676D01*
X106546667Y-50006676D02*
X106546667Y-50120961D01*
X106546667Y-50120961D02*
X106508571Y-50197152D01*
X106508571Y-50197152D02*
X106470476Y-50235247D01*
X106470476Y-50235247D02*
X106394286Y-50273342D01*
X106394286Y-50273342D02*
X106089524Y-50273342D01*
X107232381Y-50120961D02*
X107232381Y-50654295D01*
X107041905Y-49816200D02*
X106851428Y-50387628D01*
X106851428Y-50387628D02*
X107346667Y-50387628D01*
X110229714Y-50578104D02*
X110191618Y-50616200D01*
X110191618Y-50616200D02*
X110077333Y-50654295D01*
X110077333Y-50654295D02*
X110001142Y-50654295D01*
X110001142Y-50654295D02*
X109886856Y-50616200D01*
X109886856Y-50616200D02*
X109810666Y-50540009D01*
X109810666Y-50540009D02*
X109772571Y-50463819D01*
X109772571Y-50463819D02*
X109734475Y-50311438D01*
X109734475Y-50311438D02*
X109734475Y-50197152D01*
X109734475Y-50197152D02*
X109772571Y-50044771D01*
X109772571Y-50044771D02*
X109810666Y-49968580D01*
X109810666Y-49968580D02*
X109886856Y-49892390D01*
X109886856Y-49892390D02*
X110001142Y-49854295D01*
X110001142Y-49854295D02*
X110077333Y-49854295D01*
X110077333Y-49854295D02*
X110191618Y-49892390D01*
X110191618Y-49892390D02*
X110229714Y-49930485D01*
X110991618Y-50654295D02*
X110534475Y-50654295D01*
X110763047Y-50654295D02*
X110763047Y-49854295D01*
X110763047Y-49854295D02*
X110686856Y-49968580D01*
X110686856Y-49968580D02*
X110610666Y-50044771D01*
X110610666Y-50044771D02*
X110534475Y-50082866D01*
X111486857Y-49854295D02*
X111563047Y-49854295D01*
X111563047Y-49854295D02*
X111639238Y-49892390D01*
X111639238Y-49892390D02*
X111677333Y-49930485D01*
X111677333Y-49930485D02*
X111715428Y-50006676D01*
X111715428Y-50006676D02*
X111753523Y-50159057D01*
X111753523Y-50159057D02*
X111753523Y-50349533D01*
X111753523Y-50349533D02*
X111715428Y-50501914D01*
X111715428Y-50501914D02*
X111677333Y-50578104D01*
X111677333Y-50578104D02*
X111639238Y-50616200D01*
X111639238Y-50616200D02*
X111563047Y-50654295D01*
X111563047Y-50654295D02*
X111486857Y-50654295D01*
X111486857Y-50654295D02*
X111410666Y-50616200D01*
X111410666Y-50616200D02*
X111372571Y-50578104D01*
X111372571Y-50578104D02*
X111334476Y-50501914D01*
X111334476Y-50501914D02*
X111296380Y-50349533D01*
X111296380Y-50349533D02*
X111296380Y-50159057D01*
X111296380Y-50159057D02*
X111334476Y-50006676D01*
X111334476Y-50006676D02*
X111372571Y-49930485D01*
X111372571Y-49930485D02*
X111410666Y-49892390D01*
X111410666Y-49892390D02*
X111486857Y-49854295D01*
X114293714Y-50578104D02*
X114255618Y-50616200D01*
X114255618Y-50616200D02*
X114141333Y-50654295D01*
X114141333Y-50654295D02*
X114065142Y-50654295D01*
X114065142Y-50654295D02*
X113950856Y-50616200D01*
X113950856Y-50616200D02*
X113874666Y-50540009D01*
X113874666Y-50540009D02*
X113836571Y-50463819D01*
X113836571Y-50463819D02*
X113798475Y-50311438D01*
X113798475Y-50311438D02*
X113798475Y-50197152D01*
X113798475Y-50197152D02*
X113836571Y-50044771D01*
X113836571Y-50044771D02*
X113874666Y-49968580D01*
X113874666Y-49968580D02*
X113950856Y-49892390D01*
X113950856Y-49892390D02*
X114065142Y-49854295D01*
X114065142Y-49854295D02*
X114141333Y-49854295D01*
X114141333Y-49854295D02*
X114255618Y-49892390D01*
X114255618Y-49892390D02*
X114293714Y-49930485D01*
X115055618Y-50654295D02*
X114598475Y-50654295D01*
X114827047Y-50654295D02*
X114827047Y-49854295D01*
X114827047Y-49854295D02*
X114750856Y-49968580D01*
X114750856Y-49968580D02*
X114674666Y-50044771D01*
X114674666Y-50044771D02*
X114598475Y-50082866D01*
X115322285Y-49854295D02*
X115817523Y-49854295D01*
X115817523Y-49854295D02*
X115550857Y-50159057D01*
X115550857Y-50159057D02*
X115665142Y-50159057D01*
X115665142Y-50159057D02*
X115741333Y-50197152D01*
X115741333Y-50197152D02*
X115779428Y-50235247D01*
X115779428Y-50235247D02*
X115817523Y-50311438D01*
X115817523Y-50311438D02*
X115817523Y-50501914D01*
X115817523Y-50501914D02*
X115779428Y-50578104D01*
X115779428Y-50578104D02*
X115741333Y-50616200D01*
X115741333Y-50616200D02*
X115665142Y-50654295D01*
X115665142Y-50654295D02*
X115436571Y-50654295D01*
X115436571Y-50654295D02*
X115360380Y-50616200D01*
X115360380Y-50616200D02*
X115322285Y-50578104D01*
X118230667Y-50654295D02*
X117964000Y-50273342D01*
X117773524Y-50654295D02*
X117773524Y-49854295D01*
X117773524Y-49854295D02*
X118078286Y-49854295D01*
X118078286Y-49854295D02*
X118154476Y-49892390D01*
X118154476Y-49892390D02*
X118192571Y-49930485D01*
X118192571Y-49930485D02*
X118230667Y-50006676D01*
X118230667Y-50006676D02*
X118230667Y-50120961D01*
X118230667Y-50120961D02*
X118192571Y-50197152D01*
X118192571Y-50197152D02*
X118154476Y-50235247D01*
X118154476Y-50235247D02*
X118078286Y-50273342D01*
X118078286Y-50273342D02*
X117773524Y-50273342D01*
X118954476Y-49854295D02*
X118573524Y-49854295D01*
X118573524Y-49854295D02*
X118535428Y-50235247D01*
X118535428Y-50235247D02*
X118573524Y-50197152D01*
X118573524Y-50197152D02*
X118649714Y-50159057D01*
X118649714Y-50159057D02*
X118840190Y-50159057D01*
X118840190Y-50159057D02*
X118916381Y-50197152D01*
X118916381Y-50197152D02*
X118954476Y-50235247D01*
X118954476Y-50235247D02*
X118992571Y-50311438D01*
X118992571Y-50311438D02*
X118992571Y-50501914D01*
X118992571Y-50501914D02*
X118954476Y-50578104D01*
X118954476Y-50578104D02*
X118916381Y-50616200D01*
X118916381Y-50616200D02*
X118840190Y-50654295D01*
X118840190Y-50654295D02*
X118649714Y-50654295D01*
X118649714Y-50654295D02*
X118573524Y-50616200D01*
X118573524Y-50616200D02*
X118535428Y-50578104D01*
X119989904Y-4642295D02*
X119989904Y-5213723D01*
X119989904Y-5213723D02*
X119951809Y-5328009D01*
X119951809Y-5328009D02*
X119875618Y-5404200D01*
X119875618Y-5404200D02*
X119761333Y-5442295D01*
X119761333Y-5442295D02*
X119685142Y-5442295D01*
X120789904Y-5442295D02*
X120332761Y-5442295D01*
X120561333Y-5442295D02*
X120561333Y-4642295D01*
X120561333Y-4642295D02*
X120485142Y-4756580D01*
X120485142Y-4756580D02*
X120408952Y-4832771D01*
X120408952Y-4832771D02*
X120332761Y-4870866D01*
X121666095Y-4642295D02*
X122161333Y-4642295D01*
X122161333Y-4642295D02*
X121894667Y-4947057D01*
X121894667Y-4947057D02*
X122008952Y-4947057D01*
X122008952Y-4947057D02*
X122085143Y-4985152D01*
X122085143Y-4985152D02*
X122123238Y-5023247D01*
X122123238Y-5023247D02*
X122161333Y-5099438D01*
X122161333Y-5099438D02*
X122161333Y-5289914D01*
X122161333Y-5289914D02*
X122123238Y-5366104D01*
X122123238Y-5366104D02*
X122085143Y-5404200D01*
X122085143Y-5404200D02*
X122008952Y-5442295D01*
X122008952Y-5442295D02*
X121780381Y-5442295D01*
X121780381Y-5442295D02*
X121704190Y-5404200D01*
X121704190Y-5404200D02*
X121666095Y-5366104D01*
X122504191Y-5366104D02*
X122542286Y-5404200D01*
X122542286Y-5404200D02*
X122504191Y-5442295D01*
X122504191Y-5442295D02*
X122466095Y-5404200D01*
X122466095Y-5404200D02*
X122504191Y-5366104D01*
X122504191Y-5366104D02*
X122504191Y-5442295D01*
X123266095Y-4642295D02*
X122885143Y-4642295D01*
X122885143Y-4642295D02*
X122847047Y-5023247D01*
X122847047Y-5023247D02*
X122885143Y-4985152D01*
X122885143Y-4985152D02*
X122961333Y-4947057D01*
X122961333Y-4947057D02*
X123151809Y-4947057D01*
X123151809Y-4947057D02*
X123228000Y-4985152D01*
X123228000Y-4985152D02*
X123266095Y-5023247D01*
X123266095Y-5023247D02*
X123304190Y-5099438D01*
X123304190Y-5099438D02*
X123304190Y-5289914D01*
X123304190Y-5289914D02*
X123266095Y-5366104D01*
X123266095Y-5366104D02*
X123228000Y-5404200D01*
X123228000Y-5404200D02*
X123151809Y-5442295D01*
X123151809Y-5442295D02*
X122961333Y-5442295D01*
X122961333Y-5442295D02*
X122885143Y-5404200D01*
X122885143Y-5404200D02*
X122847047Y-5366104D01*
X123647048Y-5442295D02*
X123647048Y-4642295D01*
X123647048Y-4642295D02*
X123913714Y-5213723D01*
X123913714Y-5213723D02*
X124180381Y-4642295D01*
X124180381Y-4642295D02*
X124180381Y-5442295D01*
X124561334Y-5442295D02*
X124561334Y-4642295D01*
X124561334Y-4642295D02*
X124828000Y-5213723D01*
X124828000Y-5213723D02*
X125094667Y-4642295D01*
X125094667Y-4642295D02*
X125094667Y-5442295D01*
X113354285Y-32074295D02*
X113354285Y-32645723D01*
X113354285Y-32645723D02*
X113316190Y-32760009D01*
X113316190Y-32760009D02*
X113239999Y-32836200D01*
X113239999Y-32836200D02*
X113125714Y-32874295D01*
X113125714Y-32874295D02*
X113049523Y-32874295D01*
X113697142Y-32150485D02*
X113735238Y-32112390D01*
X113735238Y-32112390D02*
X113811428Y-32074295D01*
X113811428Y-32074295D02*
X114001904Y-32074295D01*
X114001904Y-32074295D02*
X114078095Y-32112390D01*
X114078095Y-32112390D02*
X114116190Y-32150485D01*
X114116190Y-32150485D02*
X114154285Y-32226676D01*
X114154285Y-32226676D02*
X114154285Y-32302866D01*
X114154285Y-32302866D02*
X114116190Y-32417152D01*
X114116190Y-32417152D02*
X113659047Y-32874295D01*
X113659047Y-32874295D02*
X114154285Y-32874295D01*
X115068571Y-32836200D02*
X115182857Y-32874295D01*
X115182857Y-32874295D02*
X115373333Y-32874295D01*
X115373333Y-32874295D02*
X115449524Y-32836200D01*
X115449524Y-32836200D02*
X115487619Y-32798104D01*
X115487619Y-32798104D02*
X115525714Y-32721914D01*
X115525714Y-32721914D02*
X115525714Y-32645723D01*
X115525714Y-32645723D02*
X115487619Y-32569533D01*
X115487619Y-32569533D02*
X115449524Y-32531438D01*
X115449524Y-32531438D02*
X115373333Y-32493342D01*
X115373333Y-32493342D02*
X115220952Y-32455247D01*
X115220952Y-32455247D02*
X115144762Y-32417152D01*
X115144762Y-32417152D02*
X115106667Y-32379057D01*
X115106667Y-32379057D02*
X115068571Y-32302866D01*
X115068571Y-32302866D02*
X115068571Y-32226676D01*
X115068571Y-32226676D02*
X115106667Y-32150485D01*
X115106667Y-32150485D02*
X115144762Y-32112390D01*
X115144762Y-32112390D02*
X115220952Y-32074295D01*
X115220952Y-32074295D02*
X115411429Y-32074295D01*
X115411429Y-32074295D02*
X115525714Y-32112390D01*
X115868572Y-32874295D02*
X115868572Y-32074295D01*
X115868572Y-32074295D02*
X116173334Y-32074295D01*
X116173334Y-32074295D02*
X116249524Y-32112390D01*
X116249524Y-32112390D02*
X116287619Y-32150485D01*
X116287619Y-32150485D02*
X116325715Y-32226676D01*
X116325715Y-32226676D02*
X116325715Y-32340961D01*
X116325715Y-32340961D02*
X116287619Y-32417152D01*
X116287619Y-32417152D02*
X116249524Y-32455247D01*
X116249524Y-32455247D02*
X116173334Y-32493342D01*
X116173334Y-32493342D02*
X115868572Y-32493342D01*
X116668572Y-32874295D02*
X116668572Y-32074295D01*
X117125715Y-32874295D02*
X116782857Y-32417152D01*
X117125715Y-32074295D02*
X116668572Y-32531438D01*
X117925715Y-32874295D02*
X117659048Y-32493342D01*
X117468572Y-32874295D02*
X117468572Y-32074295D01*
X117468572Y-32074295D02*
X117773334Y-32074295D01*
X117773334Y-32074295D02*
X117849524Y-32112390D01*
X117849524Y-32112390D02*
X117887619Y-32150485D01*
X117887619Y-32150485D02*
X117925715Y-32226676D01*
X117925715Y-32226676D02*
X117925715Y-32340961D01*
X117925715Y-32340961D02*
X117887619Y-32417152D01*
X117887619Y-32417152D02*
X117849524Y-32455247D01*
X117849524Y-32455247D02*
X117773334Y-32493342D01*
X117773334Y-32493342D02*
X117468572Y-32493342D01*
X118878096Y-32874295D02*
X118878096Y-32074295D01*
X118878096Y-32074295D02*
X119144762Y-32645723D01*
X119144762Y-32645723D02*
X119411429Y-32074295D01*
X119411429Y-32074295D02*
X119411429Y-32874295D01*
X119792382Y-32874295D02*
X119792382Y-32074295D01*
X120097143Y-32074295D02*
X120630477Y-32874295D01*
X120630477Y-32074295D02*
X120097143Y-32874295D01*
X15360667Y-4096104D02*
X15322571Y-4134200D01*
X15322571Y-4134200D02*
X15208286Y-4172295D01*
X15208286Y-4172295D02*
X15132095Y-4172295D01*
X15132095Y-4172295D02*
X15017809Y-4134200D01*
X15017809Y-4134200D02*
X14941619Y-4058009D01*
X14941619Y-4058009D02*
X14903524Y-3981819D01*
X14903524Y-3981819D02*
X14865428Y-3829438D01*
X14865428Y-3829438D02*
X14865428Y-3715152D01*
X14865428Y-3715152D02*
X14903524Y-3562771D01*
X14903524Y-3562771D02*
X14941619Y-3486580D01*
X14941619Y-3486580D02*
X15017809Y-3410390D01*
X15017809Y-3410390D02*
X15132095Y-3372295D01*
X15132095Y-3372295D02*
X15208286Y-3372295D01*
X15208286Y-3372295D02*
X15322571Y-3410390D01*
X15322571Y-3410390D02*
X15360667Y-3448485D01*
X16122571Y-4172295D02*
X15665428Y-4172295D01*
X15894000Y-4172295D02*
X15894000Y-3372295D01*
X15894000Y-3372295D02*
X15817809Y-3486580D01*
X15817809Y-3486580D02*
X15741619Y-3562771D01*
X15741619Y-3562771D02*
X15665428Y-3600866D01*
X15360667Y-32036104D02*
X15322571Y-32074200D01*
X15322571Y-32074200D02*
X15208286Y-32112295D01*
X15208286Y-32112295D02*
X15132095Y-32112295D01*
X15132095Y-32112295D02*
X15017809Y-32074200D01*
X15017809Y-32074200D02*
X14941619Y-31998009D01*
X14941619Y-31998009D02*
X14903524Y-31921819D01*
X14903524Y-31921819D02*
X14865428Y-31769438D01*
X14865428Y-31769438D02*
X14865428Y-31655152D01*
X14865428Y-31655152D02*
X14903524Y-31502771D01*
X14903524Y-31502771D02*
X14941619Y-31426580D01*
X14941619Y-31426580D02*
X15017809Y-31350390D01*
X15017809Y-31350390D02*
X15132095Y-31312295D01*
X15132095Y-31312295D02*
X15208286Y-31312295D01*
X15208286Y-31312295D02*
X15322571Y-31350390D01*
X15322571Y-31350390D02*
X15360667Y-31388485D01*
X15665428Y-31388485D02*
X15703524Y-31350390D01*
X15703524Y-31350390D02*
X15779714Y-31312295D01*
X15779714Y-31312295D02*
X15970190Y-31312295D01*
X15970190Y-31312295D02*
X16046381Y-31350390D01*
X16046381Y-31350390D02*
X16084476Y-31388485D01*
X16084476Y-31388485D02*
X16122571Y-31464676D01*
X16122571Y-31464676D02*
X16122571Y-31540866D01*
X16122571Y-31540866D02*
X16084476Y-31655152D01*
X16084476Y-31655152D02*
X15627333Y-32112295D01*
X15627333Y-32112295D02*
X16122571Y-32112295D01*
X30600667Y-4096104D02*
X30562571Y-4134200D01*
X30562571Y-4134200D02*
X30448286Y-4172295D01*
X30448286Y-4172295D02*
X30372095Y-4172295D01*
X30372095Y-4172295D02*
X30257809Y-4134200D01*
X30257809Y-4134200D02*
X30181619Y-4058009D01*
X30181619Y-4058009D02*
X30143524Y-3981819D01*
X30143524Y-3981819D02*
X30105428Y-3829438D01*
X30105428Y-3829438D02*
X30105428Y-3715152D01*
X30105428Y-3715152D02*
X30143524Y-3562771D01*
X30143524Y-3562771D02*
X30181619Y-3486580D01*
X30181619Y-3486580D02*
X30257809Y-3410390D01*
X30257809Y-3410390D02*
X30372095Y-3372295D01*
X30372095Y-3372295D02*
X30448286Y-3372295D01*
X30448286Y-3372295D02*
X30562571Y-3410390D01*
X30562571Y-3410390D02*
X30600667Y-3448485D01*
X30867333Y-3372295D02*
X31362571Y-3372295D01*
X31362571Y-3372295D02*
X31095905Y-3677057D01*
X31095905Y-3677057D02*
X31210190Y-3677057D01*
X31210190Y-3677057D02*
X31286381Y-3715152D01*
X31286381Y-3715152D02*
X31324476Y-3753247D01*
X31324476Y-3753247D02*
X31362571Y-3829438D01*
X31362571Y-3829438D02*
X31362571Y-4019914D01*
X31362571Y-4019914D02*
X31324476Y-4096104D01*
X31324476Y-4096104D02*
X31286381Y-4134200D01*
X31286381Y-4134200D02*
X31210190Y-4172295D01*
X31210190Y-4172295D02*
X30981619Y-4172295D01*
X30981619Y-4172295D02*
X30905428Y-4134200D01*
X30905428Y-4134200D02*
X30867333Y-4096104D01*
X30600667Y-32036104D02*
X30562571Y-32074200D01*
X30562571Y-32074200D02*
X30448286Y-32112295D01*
X30448286Y-32112295D02*
X30372095Y-32112295D01*
X30372095Y-32112295D02*
X30257809Y-32074200D01*
X30257809Y-32074200D02*
X30181619Y-31998009D01*
X30181619Y-31998009D02*
X30143524Y-31921819D01*
X30143524Y-31921819D02*
X30105428Y-31769438D01*
X30105428Y-31769438D02*
X30105428Y-31655152D01*
X30105428Y-31655152D02*
X30143524Y-31502771D01*
X30143524Y-31502771D02*
X30181619Y-31426580D01*
X30181619Y-31426580D02*
X30257809Y-31350390D01*
X30257809Y-31350390D02*
X30372095Y-31312295D01*
X30372095Y-31312295D02*
X30448286Y-31312295D01*
X30448286Y-31312295D02*
X30562571Y-31350390D01*
X30562571Y-31350390D02*
X30600667Y-31388485D01*
X31286381Y-31578961D02*
X31286381Y-32112295D01*
X31095905Y-31274200D02*
X30905428Y-31845628D01*
X30905428Y-31845628D02*
X31400667Y-31845628D01*
X30600667Y-58706104D02*
X30562571Y-58744200D01*
X30562571Y-58744200D02*
X30448286Y-58782295D01*
X30448286Y-58782295D02*
X30372095Y-58782295D01*
X30372095Y-58782295D02*
X30257809Y-58744200D01*
X30257809Y-58744200D02*
X30181619Y-58668009D01*
X30181619Y-58668009D02*
X30143524Y-58591819D01*
X30143524Y-58591819D02*
X30105428Y-58439438D01*
X30105428Y-58439438D02*
X30105428Y-58325152D01*
X30105428Y-58325152D02*
X30143524Y-58172771D01*
X30143524Y-58172771D02*
X30181619Y-58096580D01*
X30181619Y-58096580D02*
X30257809Y-58020390D01*
X30257809Y-58020390D02*
X30372095Y-57982295D01*
X30372095Y-57982295D02*
X30448286Y-57982295D01*
X30448286Y-57982295D02*
X30562571Y-58020390D01*
X30562571Y-58020390D02*
X30600667Y-58058485D01*
X31324476Y-57982295D02*
X30943524Y-57982295D01*
X30943524Y-57982295D02*
X30905428Y-58363247D01*
X30905428Y-58363247D02*
X30943524Y-58325152D01*
X30943524Y-58325152D02*
X31019714Y-58287057D01*
X31019714Y-58287057D02*
X31210190Y-58287057D01*
X31210190Y-58287057D02*
X31286381Y-58325152D01*
X31286381Y-58325152D02*
X31324476Y-58363247D01*
X31324476Y-58363247D02*
X31362571Y-58439438D01*
X31362571Y-58439438D02*
X31362571Y-58629914D01*
X31362571Y-58629914D02*
X31324476Y-58706104D01*
X31324476Y-58706104D02*
X31286381Y-58744200D01*
X31286381Y-58744200D02*
X31210190Y-58782295D01*
X31210190Y-58782295D02*
X31019714Y-58782295D01*
X31019714Y-58782295D02*
X30943524Y-58744200D01*
X30943524Y-58744200D02*
X30905428Y-58706104D01*
X97656667Y-9176104D02*
X97618571Y-9214200D01*
X97618571Y-9214200D02*
X97504286Y-9252295D01*
X97504286Y-9252295D02*
X97428095Y-9252295D01*
X97428095Y-9252295D02*
X97313809Y-9214200D01*
X97313809Y-9214200D02*
X97237619Y-9138009D01*
X97237619Y-9138009D02*
X97199524Y-9061819D01*
X97199524Y-9061819D02*
X97161428Y-8909438D01*
X97161428Y-8909438D02*
X97161428Y-8795152D01*
X97161428Y-8795152D02*
X97199524Y-8642771D01*
X97199524Y-8642771D02*
X97237619Y-8566580D01*
X97237619Y-8566580D02*
X97313809Y-8490390D01*
X97313809Y-8490390D02*
X97428095Y-8452295D01*
X97428095Y-8452295D02*
X97504286Y-8452295D01*
X97504286Y-8452295D02*
X97618571Y-8490390D01*
X97618571Y-8490390D02*
X97656667Y-8528485D01*
X98342381Y-8452295D02*
X98190000Y-8452295D01*
X98190000Y-8452295D02*
X98113809Y-8490390D01*
X98113809Y-8490390D02*
X98075714Y-8528485D01*
X98075714Y-8528485D02*
X97999524Y-8642771D01*
X97999524Y-8642771D02*
X97961428Y-8795152D01*
X97961428Y-8795152D02*
X97961428Y-9099914D01*
X97961428Y-9099914D02*
X97999524Y-9176104D01*
X97999524Y-9176104D02*
X98037619Y-9214200D01*
X98037619Y-9214200D02*
X98113809Y-9252295D01*
X98113809Y-9252295D02*
X98266190Y-9252295D01*
X98266190Y-9252295D02*
X98342381Y-9214200D01*
X98342381Y-9214200D02*
X98380476Y-9176104D01*
X98380476Y-9176104D02*
X98418571Y-9099914D01*
X98418571Y-9099914D02*
X98418571Y-8909438D01*
X98418571Y-8909438D02*
X98380476Y-8833247D01*
X98380476Y-8833247D02*
X98342381Y-8795152D01*
X98342381Y-8795152D02*
X98266190Y-8757057D01*
X98266190Y-8757057D02*
X98113809Y-8757057D01*
X98113809Y-8757057D02*
X98037619Y-8795152D01*
X98037619Y-8795152D02*
X97999524Y-8833247D01*
X97999524Y-8833247D02*
X97961428Y-8909438D01*
X59810667Y-57436104D02*
X59772571Y-57474200D01*
X59772571Y-57474200D02*
X59658286Y-57512295D01*
X59658286Y-57512295D02*
X59582095Y-57512295D01*
X59582095Y-57512295D02*
X59467809Y-57474200D01*
X59467809Y-57474200D02*
X59391619Y-57398009D01*
X59391619Y-57398009D02*
X59353524Y-57321819D01*
X59353524Y-57321819D02*
X59315428Y-57169438D01*
X59315428Y-57169438D02*
X59315428Y-57055152D01*
X59315428Y-57055152D02*
X59353524Y-56902771D01*
X59353524Y-56902771D02*
X59391619Y-56826580D01*
X59391619Y-56826580D02*
X59467809Y-56750390D01*
X59467809Y-56750390D02*
X59582095Y-56712295D01*
X59582095Y-56712295D02*
X59658286Y-56712295D01*
X59658286Y-56712295D02*
X59772571Y-56750390D01*
X59772571Y-56750390D02*
X59810667Y-56788485D01*
X60077333Y-56712295D02*
X60610667Y-56712295D01*
X60610667Y-56712295D02*
X60267809Y-57512295D01*
X85210667Y-57436104D02*
X85172571Y-57474200D01*
X85172571Y-57474200D02*
X85058286Y-57512295D01*
X85058286Y-57512295D02*
X84982095Y-57512295D01*
X84982095Y-57512295D02*
X84867809Y-57474200D01*
X84867809Y-57474200D02*
X84791619Y-57398009D01*
X84791619Y-57398009D02*
X84753524Y-57321819D01*
X84753524Y-57321819D02*
X84715428Y-57169438D01*
X84715428Y-57169438D02*
X84715428Y-57055152D01*
X84715428Y-57055152D02*
X84753524Y-56902771D01*
X84753524Y-56902771D02*
X84791619Y-56826580D01*
X84791619Y-56826580D02*
X84867809Y-56750390D01*
X84867809Y-56750390D02*
X84982095Y-56712295D01*
X84982095Y-56712295D02*
X85058286Y-56712295D01*
X85058286Y-56712295D02*
X85172571Y-56750390D01*
X85172571Y-56750390D02*
X85210667Y-56788485D01*
X85667809Y-57055152D02*
X85591619Y-57017057D01*
X85591619Y-57017057D02*
X85553524Y-56978961D01*
X85553524Y-56978961D02*
X85515428Y-56902771D01*
X85515428Y-56902771D02*
X85515428Y-56864676D01*
X85515428Y-56864676D02*
X85553524Y-56788485D01*
X85553524Y-56788485D02*
X85591619Y-56750390D01*
X85591619Y-56750390D02*
X85667809Y-56712295D01*
X85667809Y-56712295D02*
X85820190Y-56712295D01*
X85820190Y-56712295D02*
X85896381Y-56750390D01*
X85896381Y-56750390D02*
X85934476Y-56788485D01*
X85934476Y-56788485D02*
X85972571Y-56864676D01*
X85972571Y-56864676D02*
X85972571Y-56902771D01*
X85972571Y-56902771D02*
X85934476Y-56978961D01*
X85934476Y-56978961D02*
X85896381Y-57017057D01*
X85896381Y-57017057D02*
X85820190Y-57055152D01*
X85820190Y-57055152D02*
X85667809Y-57055152D01*
X85667809Y-57055152D02*
X85591619Y-57093247D01*
X85591619Y-57093247D02*
X85553524Y-57131342D01*
X85553524Y-57131342D02*
X85515428Y-57207533D01*
X85515428Y-57207533D02*
X85515428Y-57359914D01*
X85515428Y-57359914D02*
X85553524Y-57436104D01*
X85553524Y-57436104D02*
X85591619Y-57474200D01*
X85591619Y-57474200D02*
X85667809Y-57512295D01*
X85667809Y-57512295D02*
X85820190Y-57512295D01*
X85820190Y-57512295D02*
X85896381Y-57474200D01*
X85896381Y-57474200D02*
X85934476Y-57436104D01*
X85934476Y-57436104D02*
X85972571Y-57359914D01*
X85972571Y-57359914D02*
X85972571Y-57207533D01*
X85972571Y-57207533D02*
X85934476Y-57131342D01*
X85934476Y-57131342D02*
X85896381Y-57093247D01*
X85896381Y-57093247D02*
X85820190Y-57055152D01*
X36491425Y-2994819D02*
X36491425Y-1994819D01*
X36491425Y-1994819D02*
X37062853Y-2994819D01*
X37062853Y-2994819D02*
X37062853Y-1994819D01*
X37491425Y-2947200D02*
X37634282Y-2994819D01*
X37634282Y-2994819D02*
X37872377Y-2994819D01*
X37872377Y-2994819D02*
X37967615Y-2947200D01*
X37967615Y-2947200D02*
X38015234Y-2899580D01*
X38015234Y-2899580D02*
X38062853Y-2804342D01*
X38062853Y-2804342D02*
X38062853Y-2709104D01*
X38062853Y-2709104D02*
X38015234Y-2613866D01*
X38015234Y-2613866D02*
X37967615Y-2566247D01*
X37967615Y-2566247D02*
X37872377Y-2518628D01*
X37872377Y-2518628D02*
X37681901Y-2471009D01*
X37681901Y-2471009D02*
X37586663Y-2423390D01*
X37586663Y-2423390D02*
X37539044Y-2375771D01*
X37539044Y-2375771D02*
X37491425Y-2280533D01*
X37491425Y-2280533D02*
X37491425Y-2185295D01*
X37491425Y-2185295D02*
X37539044Y-2090057D01*
X37539044Y-2090057D02*
X37586663Y-2042438D01*
X37586663Y-2042438D02*
X37681901Y-1994819D01*
X37681901Y-1994819D02*
X37919996Y-1994819D01*
X37919996Y-1994819D02*
X38062853Y-2042438D01*
X38491425Y-2613866D02*
X39253330Y-2613866D01*
X39634282Y-1994819D02*
X39872377Y-2994819D01*
X39872377Y-2994819D02*
X40062853Y-2280533D01*
X40062853Y-2280533D02*
X40253329Y-2994819D01*
X40253329Y-2994819D02*
X40491425Y-1994819D01*
X40824758Y-2947200D02*
X40967615Y-2994819D01*
X40967615Y-2994819D02*
X41205710Y-2994819D01*
X41205710Y-2994819D02*
X41300948Y-2947200D01*
X41300948Y-2947200D02*
X41348567Y-2899580D01*
X41348567Y-2899580D02*
X41396186Y-2804342D01*
X41396186Y-2804342D02*
X41396186Y-2709104D01*
X41396186Y-2709104D02*
X41348567Y-2613866D01*
X41348567Y-2613866D02*
X41300948Y-2566247D01*
X41300948Y-2566247D02*
X41205710Y-2518628D01*
X41205710Y-2518628D02*
X41015234Y-2471009D01*
X41015234Y-2471009D02*
X40919996Y-2423390D01*
X40919996Y-2423390D02*
X40872377Y-2375771D01*
X40872377Y-2375771D02*
X40824758Y-2280533D01*
X40824758Y-2280533D02*
X40824758Y-2185295D01*
X40824758Y-2185295D02*
X40872377Y-2090057D01*
X40872377Y-2090057D02*
X40919996Y-2042438D01*
X40919996Y-2042438D02*
X41015234Y-1994819D01*
X41015234Y-1994819D02*
X41253329Y-1994819D01*
X41253329Y-1994819D02*
X41396186Y-2042438D01*
X42348567Y-2042438D02*
X42253329Y-1994819D01*
X42253329Y-1994819D02*
X42110472Y-1994819D01*
X42110472Y-1994819D02*
X41967615Y-2042438D01*
X41967615Y-2042438D02*
X41872377Y-2137676D01*
X41872377Y-2137676D02*
X41824758Y-2232914D01*
X41824758Y-2232914D02*
X41777139Y-2423390D01*
X41777139Y-2423390D02*
X41777139Y-2566247D01*
X41777139Y-2566247D02*
X41824758Y-2756723D01*
X41824758Y-2756723D02*
X41872377Y-2851961D01*
X41872377Y-2851961D02*
X41967615Y-2947200D01*
X41967615Y-2947200D02*
X42110472Y-2994819D01*
X42110472Y-2994819D02*
X42205710Y-2994819D01*
X42205710Y-2994819D02*
X42348567Y-2947200D01*
X42348567Y-2947200D02*
X42396186Y-2899580D01*
X42396186Y-2899580D02*
X42396186Y-2566247D01*
X42396186Y-2566247D02*
X42205710Y-2566247D01*
X43491425Y-2328152D02*
X43729520Y-2994819D01*
X43729520Y-2994819D02*
X43967615Y-2328152D01*
X44872377Y-2994819D02*
X44300949Y-2994819D01*
X44586663Y-2994819D02*
X44586663Y-1994819D01*
X44586663Y-1994819D02*
X44491425Y-2137676D01*
X44491425Y-2137676D02*
X44396187Y-2232914D01*
X44396187Y-2232914D02*
X44300949Y-2280533D01*
X46062854Y-2613866D02*
X46824759Y-2613866D01*
X48062854Y-2994819D02*
X48062854Y-1994819D01*
X48062854Y-1994819D02*
X48634282Y-2994819D01*
X48634282Y-2994819D02*
X48634282Y-1994819D01*
X49253330Y-2994819D02*
X49158092Y-2947200D01*
X49158092Y-2947200D02*
X49110473Y-2899580D01*
X49110473Y-2899580D02*
X49062854Y-2804342D01*
X49062854Y-2804342D02*
X49062854Y-2518628D01*
X49062854Y-2518628D02*
X49110473Y-2423390D01*
X49110473Y-2423390D02*
X49158092Y-2375771D01*
X49158092Y-2375771D02*
X49253330Y-2328152D01*
X49253330Y-2328152D02*
X49396187Y-2328152D01*
X49396187Y-2328152D02*
X49491425Y-2375771D01*
X49491425Y-2375771D02*
X49539044Y-2423390D01*
X49539044Y-2423390D02*
X49586663Y-2518628D01*
X49586663Y-2518628D02*
X49586663Y-2804342D01*
X49586663Y-2804342D02*
X49539044Y-2899580D01*
X49539044Y-2899580D02*
X49491425Y-2947200D01*
X49491425Y-2947200D02*
X49396187Y-2994819D01*
X49396187Y-2994819D02*
X49253330Y-2994819D01*
X50015235Y-2994819D02*
X50015235Y-2328152D01*
X50015235Y-2518628D02*
X50062854Y-2423390D01*
X50062854Y-2423390D02*
X50110473Y-2375771D01*
X50110473Y-2375771D02*
X50205711Y-2328152D01*
X50205711Y-2328152D02*
X50300949Y-2328152D01*
X50491426Y-2328152D02*
X50872378Y-2328152D01*
X50634283Y-1994819D02*
X50634283Y-2851961D01*
X50634283Y-2851961D02*
X50681902Y-2947200D01*
X50681902Y-2947200D02*
X50777140Y-2994819D01*
X50777140Y-2994819D02*
X50872378Y-2994819D01*
X51205712Y-2994819D02*
X51205712Y-1994819D01*
X51634283Y-2994819D02*
X51634283Y-2471009D01*
X51634283Y-2471009D02*
X51586664Y-2375771D01*
X51586664Y-2375771D02*
X51491426Y-2328152D01*
X51491426Y-2328152D02*
X51348569Y-2328152D01*
X51348569Y-2328152D02*
X51253331Y-2375771D01*
X51253331Y-2375771D02*
X51205712Y-2423390D01*
X52062855Y-2947200D02*
X52205712Y-2994819D01*
X52205712Y-2994819D02*
X52443807Y-2994819D01*
X52443807Y-2994819D02*
X52539045Y-2947200D01*
X52539045Y-2947200D02*
X52586664Y-2899580D01*
X52586664Y-2899580D02*
X52634283Y-2804342D01*
X52634283Y-2804342D02*
X52634283Y-2709104D01*
X52634283Y-2709104D02*
X52586664Y-2613866D01*
X52586664Y-2613866D02*
X52539045Y-2566247D01*
X52539045Y-2566247D02*
X52443807Y-2518628D01*
X52443807Y-2518628D02*
X52253331Y-2471009D01*
X52253331Y-2471009D02*
X52158093Y-2423390D01*
X52158093Y-2423390D02*
X52110474Y-2375771D01*
X52110474Y-2375771D02*
X52062855Y-2280533D01*
X52062855Y-2280533D02*
X52062855Y-2185295D01*
X52062855Y-2185295D02*
X52110474Y-2090057D01*
X52110474Y-2090057D02*
X52158093Y-2042438D01*
X52158093Y-2042438D02*
X52253331Y-1994819D01*
X52253331Y-1994819D02*
X52491426Y-1994819D01*
X52491426Y-1994819D02*
X52634283Y-2042438D01*
X52919998Y-2328152D02*
X53300950Y-2328152D01*
X53062855Y-1994819D02*
X53062855Y-2851961D01*
X53062855Y-2851961D02*
X53110474Y-2947200D01*
X53110474Y-2947200D02*
X53205712Y-2994819D01*
X53205712Y-2994819D02*
X53300950Y-2994819D01*
X54062855Y-2994819D02*
X54062855Y-2471009D01*
X54062855Y-2471009D02*
X54015236Y-2375771D01*
X54015236Y-2375771D02*
X53919998Y-2328152D01*
X53919998Y-2328152D02*
X53729522Y-2328152D01*
X53729522Y-2328152D02*
X53634284Y-2375771D01*
X54062855Y-2947200D02*
X53967617Y-2994819D01*
X53967617Y-2994819D02*
X53729522Y-2994819D01*
X53729522Y-2994819D02*
X53634284Y-2947200D01*
X53634284Y-2947200D02*
X53586665Y-2851961D01*
X53586665Y-2851961D02*
X53586665Y-2756723D01*
X53586665Y-2756723D02*
X53634284Y-2661485D01*
X53634284Y-2661485D02*
X53729522Y-2613866D01*
X53729522Y-2613866D02*
X53967617Y-2613866D01*
X53967617Y-2613866D02*
X54062855Y-2566247D01*
X54539046Y-2994819D02*
X54539046Y-2328152D01*
X54539046Y-2518628D02*
X54586665Y-2423390D01*
X54586665Y-2423390D02*
X54634284Y-2375771D01*
X54634284Y-2375771D02*
X54729522Y-2328152D01*
X54729522Y-2328152D02*
X54824760Y-2328152D01*
X55872380Y-2709104D02*
X56348570Y-2709104D01*
X55777142Y-2994819D02*
X56110475Y-1994819D01*
X56110475Y-1994819D02*
X56443808Y-2994819D01*
X57205713Y-2994819D02*
X57205713Y-1994819D01*
X57205713Y-2947200D02*
X57110475Y-2994819D01*
X57110475Y-2994819D02*
X56919999Y-2994819D01*
X56919999Y-2994819D02*
X56824761Y-2947200D01*
X56824761Y-2947200D02*
X56777142Y-2899580D01*
X56777142Y-2899580D02*
X56729523Y-2804342D01*
X56729523Y-2804342D02*
X56729523Y-2518628D01*
X56729523Y-2518628D02*
X56777142Y-2423390D01*
X56777142Y-2423390D02*
X56824761Y-2375771D01*
X56824761Y-2375771D02*
X56919999Y-2328152D01*
X56919999Y-2328152D02*
X57110475Y-2328152D01*
X57110475Y-2328152D02*
X57205713Y-2375771D01*
X57586666Y-2328152D02*
X57824761Y-2994819D01*
X57824761Y-2994819D02*
X58062856Y-2328152D01*
X58872380Y-2994819D02*
X58872380Y-2471009D01*
X58872380Y-2471009D02*
X58824761Y-2375771D01*
X58824761Y-2375771D02*
X58729523Y-2328152D01*
X58729523Y-2328152D02*
X58539047Y-2328152D01*
X58539047Y-2328152D02*
X58443809Y-2375771D01*
X58872380Y-2947200D02*
X58777142Y-2994819D01*
X58777142Y-2994819D02*
X58539047Y-2994819D01*
X58539047Y-2994819D02*
X58443809Y-2947200D01*
X58443809Y-2947200D02*
X58396190Y-2851961D01*
X58396190Y-2851961D02*
X58396190Y-2756723D01*
X58396190Y-2756723D02*
X58443809Y-2661485D01*
X58443809Y-2661485D02*
X58539047Y-2613866D01*
X58539047Y-2613866D02*
X58777142Y-2613866D01*
X58777142Y-2613866D02*
X58872380Y-2566247D01*
X59348571Y-2328152D02*
X59348571Y-2994819D01*
X59348571Y-2423390D02*
X59396190Y-2375771D01*
X59396190Y-2375771D02*
X59491428Y-2328152D01*
X59491428Y-2328152D02*
X59634285Y-2328152D01*
X59634285Y-2328152D02*
X59729523Y-2375771D01*
X59729523Y-2375771D02*
X59777142Y-2471009D01*
X59777142Y-2471009D02*
X59777142Y-2994819D01*
X60110476Y-2328152D02*
X60491428Y-2328152D01*
X60253333Y-1994819D02*
X60253333Y-2851961D01*
X60253333Y-2851961D02*
X60300952Y-2947200D01*
X60300952Y-2947200D02*
X60396190Y-2994819D01*
X60396190Y-2994819D02*
X60491428Y-2994819D01*
X61253333Y-2994819D02*
X61253333Y-2471009D01*
X61253333Y-2471009D02*
X61205714Y-2375771D01*
X61205714Y-2375771D02*
X61110476Y-2328152D01*
X61110476Y-2328152D02*
X60920000Y-2328152D01*
X60920000Y-2328152D02*
X60824762Y-2375771D01*
X61253333Y-2947200D02*
X61158095Y-2994819D01*
X61158095Y-2994819D02*
X60920000Y-2994819D01*
X60920000Y-2994819D02*
X60824762Y-2947200D01*
X60824762Y-2947200D02*
X60777143Y-2851961D01*
X60777143Y-2851961D02*
X60777143Y-2756723D01*
X60777143Y-2756723D02*
X60824762Y-2661485D01*
X60824762Y-2661485D02*
X60920000Y-2613866D01*
X60920000Y-2613866D02*
X61158095Y-2613866D01*
X61158095Y-2613866D02*
X61253333Y-2566247D01*
X62158095Y-2328152D02*
X62158095Y-3137676D01*
X62158095Y-3137676D02*
X62110476Y-3232914D01*
X62110476Y-3232914D02*
X62062857Y-3280533D01*
X62062857Y-3280533D02*
X61967619Y-3328152D01*
X61967619Y-3328152D02*
X61824762Y-3328152D01*
X61824762Y-3328152D02*
X61729524Y-3280533D01*
X62158095Y-2947200D02*
X62062857Y-2994819D01*
X62062857Y-2994819D02*
X61872381Y-2994819D01*
X61872381Y-2994819D02*
X61777143Y-2947200D01*
X61777143Y-2947200D02*
X61729524Y-2899580D01*
X61729524Y-2899580D02*
X61681905Y-2804342D01*
X61681905Y-2804342D02*
X61681905Y-2518628D01*
X61681905Y-2518628D02*
X61729524Y-2423390D01*
X61729524Y-2423390D02*
X61777143Y-2375771D01*
X61777143Y-2375771D02*
X61872381Y-2328152D01*
X61872381Y-2328152D02*
X62062857Y-2328152D01*
X62062857Y-2328152D02*
X62158095Y-2375771D01*
X63015238Y-2947200D02*
X62920000Y-2994819D01*
X62920000Y-2994819D02*
X62729524Y-2994819D01*
X62729524Y-2994819D02*
X62634286Y-2947200D01*
X62634286Y-2947200D02*
X62586667Y-2851961D01*
X62586667Y-2851961D02*
X62586667Y-2471009D01*
X62586667Y-2471009D02*
X62634286Y-2375771D01*
X62634286Y-2375771D02*
X62729524Y-2328152D01*
X62729524Y-2328152D02*
X62920000Y-2328152D01*
X62920000Y-2328152D02*
X63015238Y-2375771D01*
X63015238Y-2375771D02*
X63062857Y-2471009D01*
X63062857Y-2471009D02*
X63062857Y-2566247D01*
X63062857Y-2566247D02*
X62586667Y-2661485D01*
X64158096Y-2328152D02*
X64348572Y-2994819D01*
X64348572Y-2994819D02*
X64539048Y-2518628D01*
X64539048Y-2518628D02*
X64729524Y-2994819D01*
X64729524Y-2994819D02*
X64920000Y-2328152D01*
X65729524Y-2994819D02*
X65729524Y-2471009D01*
X65729524Y-2471009D02*
X65681905Y-2375771D01*
X65681905Y-2375771D02*
X65586667Y-2328152D01*
X65586667Y-2328152D02*
X65396191Y-2328152D01*
X65396191Y-2328152D02*
X65300953Y-2375771D01*
X65729524Y-2947200D02*
X65634286Y-2994819D01*
X65634286Y-2994819D02*
X65396191Y-2994819D01*
X65396191Y-2994819D02*
X65300953Y-2947200D01*
X65300953Y-2947200D02*
X65253334Y-2851961D01*
X65253334Y-2851961D02*
X65253334Y-2756723D01*
X65253334Y-2756723D02*
X65300953Y-2661485D01*
X65300953Y-2661485D02*
X65396191Y-2613866D01*
X65396191Y-2613866D02*
X65634286Y-2613866D01*
X65634286Y-2613866D02*
X65729524Y-2566247D01*
X66110477Y-2328152D02*
X66348572Y-2994819D01*
X66348572Y-2994819D02*
X66586667Y-2328152D01*
X67348572Y-2947200D02*
X67253334Y-2994819D01*
X67253334Y-2994819D02*
X67062858Y-2994819D01*
X67062858Y-2994819D02*
X66967620Y-2947200D01*
X66967620Y-2947200D02*
X66920001Y-2851961D01*
X66920001Y-2851961D02*
X66920001Y-2471009D01*
X66920001Y-2471009D02*
X66967620Y-2375771D01*
X66967620Y-2375771D02*
X67062858Y-2328152D01*
X67062858Y-2328152D02*
X67253334Y-2328152D01*
X67253334Y-2328152D02*
X67348572Y-2375771D01*
X67348572Y-2375771D02*
X67396191Y-2471009D01*
X67396191Y-2471009D02*
X67396191Y-2566247D01*
X67396191Y-2566247D02*
X66920001Y-2661485D01*
X67681906Y-2328152D02*
X68062858Y-2328152D01*
X67824763Y-1994819D02*
X67824763Y-2851961D01*
X67824763Y-2851961D02*
X67872382Y-2947200D01*
X67872382Y-2947200D02*
X67967620Y-2994819D01*
X67967620Y-2994819D02*
X68062858Y-2994819D01*
X68824763Y-2994819D02*
X68824763Y-2471009D01*
X68824763Y-2471009D02*
X68777144Y-2375771D01*
X68777144Y-2375771D02*
X68681906Y-2328152D01*
X68681906Y-2328152D02*
X68491430Y-2328152D01*
X68491430Y-2328152D02*
X68396192Y-2375771D01*
X68824763Y-2947200D02*
X68729525Y-2994819D01*
X68729525Y-2994819D02*
X68491430Y-2994819D01*
X68491430Y-2994819D02*
X68396192Y-2947200D01*
X68396192Y-2947200D02*
X68348573Y-2851961D01*
X68348573Y-2851961D02*
X68348573Y-2756723D01*
X68348573Y-2756723D02*
X68396192Y-2661485D01*
X68396192Y-2661485D02*
X68491430Y-2613866D01*
X68491430Y-2613866D02*
X68729525Y-2613866D01*
X68729525Y-2613866D02*
X68824763Y-2566247D01*
X69300954Y-2994819D02*
X69300954Y-1994819D01*
X69300954Y-2375771D02*
X69396192Y-2328152D01*
X69396192Y-2328152D02*
X69586668Y-2328152D01*
X69586668Y-2328152D02*
X69681906Y-2375771D01*
X69681906Y-2375771D02*
X69729525Y-2423390D01*
X69729525Y-2423390D02*
X69777144Y-2518628D01*
X69777144Y-2518628D02*
X69777144Y-2804342D01*
X69777144Y-2804342D02*
X69729525Y-2899580D01*
X69729525Y-2899580D02*
X69681906Y-2947200D01*
X69681906Y-2947200D02*
X69586668Y-2994819D01*
X69586668Y-2994819D02*
X69396192Y-2994819D01*
X69396192Y-2994819D02*
X69300954Y-2947200D01*
X70348573Y-2994819D02*
X70253335Y-2947200D01*
X70253335Y-2947200D02*
X70205716Y-2851961D01*
X70205716Y-2851961D02*
X70205716Y-1994819D01*
X71110478Y-2947200D02*
X71015240Y-2994819D01*
X71015240Y-2994819D02*
X70824764Y-2994819D01*
X70824764Y-2994819D02*
X70729526Y-2947200D01*
X70729526Y-2947200D02*
X70681907Y-2851961D01*
X70681907Y-2851961D02*
X70681907Y-2471009D01*
X70681907Y-2471009D02*
X70729526Y-2375771D01*
X70729526Y-2375771D02*
X70824764Y-2328152D01*
X70824764Y-2328152D02*
X71015240Y-2328152D01*
X71015240Y-2328152D02*
X71110478Y-2375771D01*
X71110478Y-2375771D02*
X71158097Y-2471009D01*
X71158097Y-2471009D02*
X71158097Y-2566247D01*
X71158097Y-2566247D02*
X70681907Y-2661485D01*
X72300955Y-2947200D02*
X72396193Y-2994819D01*
X72396193Y-2994819D02*
X72586669Y-2994819D01*
X72586669Y-2994819D02*
X72681907Y-2947200D01*
X72681907Y-2947200D02*
X72729526Y-2851961D01*
X72729526Y-2851961D02*
X72729526Y-2804342D01*
X72729526Y-2804342D02*
X72681907Y-2709104D01*
X72681907Y-2709104D02*
X72586669Y-2661485D01*
X72586669Y-2661485D02*
X72443812Y-2661485D01*
X72443812Y-2661485D02*
X72348574Y-2613866D01*
X72348574Y-2613866D02*
X72300955Y-2518628D01*
X72300955Y-2518628D02*
X72300955Y-2471009D01*
X72300955Y-2471009D02*
X72348574Y-2375771D01*
X72348574Y-2375771D02*
X72443812Y-2328152D01*
X72443812Y-2328152D02*
X72586669Y-2328152D01*
X72586669Y-2328152D02*
X72681907Y-2375771D01*
X73300955Y-2994819D02*
X73205717Y-2947200D01*
X73205717Y-2947200D02*
X73158098Y-2899580D01*
X73158098Y-2899580D02*
X73110479Y-2804342D01*
X73110479Y-2804342D02*
X73110479Y-2518628D01*
X73110479Y-2518628D02*
X73158098Y-2423390D01*
X73158098Y-2423390D02*
X73205717Y-2375771D01*
X73205717Y-2375771D02*
X73300955Y-2328152D01*
X73300955Y-2328152D02*
X73443812Y-2328152D01*
X73443812Y-2328152D02*
X73539050Y-2375771D01*
X73539050Y-2375771D02*
X73586669Y-2423390D01*
X73586669Y-2423390D02*
X73634288Y-2518628D01*
X73634288Y-2518628D02*
X73634288Y-2804342D01*
X73634288Y-2804342D02*
X73586669Y-2899580D01*
X73586669Y-2899580D02*
X73539050Y-2947200D01*
X73539050Y-2947200D02*
X73443812Y-2994819D01*
X73443812Y-2994819D02*
X73300955Y-2994819D01*
X74491431Y-2328152D02*
X74491431Y-2994819D01*
X74062860Y-2328152D02*
X74062860Y-2851961D01*
X74062860Y-2851961D02*
X74110479Y-2947200D01*
X74110479Y-2947200D02*
X74205717Y-2994819D01*
X74205717Y-2994819D02*
X74348574Y-2994819D01*
X74348574Y-2994819D02*
X74443812Y-2947200D01*
X74443812Y-2947200D02*
X74491431Y-2899580D01*
X74967622Y-2328152D02*
X74967622Y-2994819D01*
X74967622Y-2423390D02*
X75015241Y-2375771D01*
X75015241Y-2375771D02*
X75110479Y-2328152D01*
X75110479Y-2328152D02*
X75253336Y-2328152D01*
X75253336Y-2328152D02*
X75348574Y-2375771D01*
X75348574Y-2375771D02*
X75396193Y-2471009D01*
X75396193Y-2471009D02*
X75396193Y-2994819D01*
X76300955Y-2994819D02*
X76300955Y-1994819D01*
X76300955Y-2947200D02*
X76205717Y-2994819D01*
X76205717Y-2994819D02*
X76015241Y-2994819D01*
X76015241Y-2994819D02*
X75920003Y-2947200D01*
X75920003Y-2947200D02*
X75872384Y-2899580D01*
X75872384Y-2899580D02*
X75824765Y-2804342D01*
X75824765Y-2804342D02*
X75824765Y-2518628D01*
X75824765Y-2518628D02*
X75872384Y-2423390D01*
X75872384Y-2423390D02*
X75920003Y-2375771D01*
X75920003Y-2375771D02*
X76015241Y-2328152D01*
X76015241Y-2328152D02*
X76205717Y-2328152D01*
X76205717Y-2328152D02*
X76300955Y-2375771D01*
X77967622Y-2947200D02*
X77872384Y-2994819D01*
X77872384Y-2994819D02*
X77681908Y-2994819D01*
X77681908Y-2994819D02*
X77586670Y-2947200D01*
X77586670Y-2947200D02*
X77539051Y-2899580D01*
X77539051Y-2899580D02*
X77491432Y-2804342D01*
X77491432Y-2804342D02*
X77491432Y-2518628D01*
X77491432Y-2518628D02*
X77539051Y-2423390D01*
X77539051Y-2423390D02*
X77586670Y-2375771D01*
X77586670Y-2375771D02*
X77681908Y-2328152D01*
X77681908Y-2328152D02*
X77872384Y-2328152D01*
X77872384Y-2328152D02*
X77967622Y-2375771D01*
X78824765Y-2994819D02*
X78824765Y-2471009D01*
X78824765Y-2471009D02*
X78777146Y-2375771D01*
X78777146Y-2375771D02*
X78681908Y-2328152D01*
X78681908Y-2328152D02*
X78491432Y-2328152D01*
X78491432Y-2328152D02*
X78396194Y-2375771D01*
X78824765Y-2947200D02*
X78729527Y-2994819D01*
X78729527Y-2994819D02*
X78491432Y-2994819D01*
X78491432Y-2994819D02*
X78396194Y-2947200D01*
X78396194Y-2947200D02*
X78348575Y-2851961D01*
X78348575Y-2851961D02*
X78348575Y-2756723D01*
X78348575Y-2756723D02*
X78396194Y-2661485D01*
X78396194Y-2661485D02*
X78491432Y-2613866D01*
X78491432Y-2613866D02*
X78729527Y-2613866D01*
X78729527Y-2613866D02*
X78824765Y-2566247D01*
X79300956Y-2994819D02*
X79300956Y-2328152D01*
X79300956Y-2518628D02*
X79348575Y-2423390D01*
X79348575Y-2423390D02*
X79396194Y-2375771D01*
X79396194Y-2375771D02*
X79491432Y-2328152D01*
X79491432Y-2328152D02*
X79586670Y-2328152D01*
X80348575Y-2994819D02*
X80348575Y-1994819D01*
X80348575Y-2947200D02*
X80253337Y-2994819D01*
X80253337Y-2994819D02*
X80062861Y-2994819D01*
X80062861Y-2994819D02*
X79967623Y-2947200D01*
X79967623Y-2947200D02*
X79920004Y-2899580D01*
X79920004Y-2899580D02*
X79872385Y-2804342D01*
X79872385Y-2804342D02*
X79872385Y-2518628D01*
X79872385Y-2518628D02*
X79920004Y-2423390D01*
X79920004Y-2423390D02*
X79967623Y-2375771D01*
X79967623Y-2375771D02*
X80062861Y-2328152D01*
X80062861Y-2328152D02*
X80253337Y-2328152D01*
X80253337Y-2328152D02*
X80348575Y-2375771D01*
X48381903Y-6458295D02*
X48381903Y-5658295D01*
X48381903Y-5963057D02*
X48458093Y-5924961D01*
X48458093Y-5924961D02*
X48610474Y-5924961D01*
X48610474Y-5924961D02*
X48686665Y-5963057D01*
X48686665Y-5963057D02*
X48724760Y-6001152D01*
X48724760Y-6001152D02*
X48762855Y-6077342D01*
X48762855Y-6077342D02*
X48762855Y-6305914D01*
X48762855Y-6305914D02*
X48724760Y-6382104D01*
X48724760Y-6382104D02*
X48686665Y-6420200D01*
X48686665Y-6420200D02*
X48610474Y-6458295D01*
X48610474Y-6458295D02*
X48458093Y-6458295D01*
X48458093Y-6458295D02*
X48381903Y-6420200D01*
X49219998Y-6458295D02*
X49143808Y-6420200D01*
X49143808Y-6420200D02*
X49105713Y-6382104D01*
X49105713Y-6382104D02*
X49067617Y-6305914D01*
X49067617Y-6305914D02*
X49067617Y-6077342D01*
X49067617Y-6077342D02*
X49105713Y-6001152D01*
X49105713Y-6001152D02*
X49143808Y-5963057D01*
X49143808Y-5963057D02*
X49219998Y-5924961D01*
X49219998Y-5924961D02*
X49334284Y-5924961D01*
X49334284Y-5924961D02*
X49410475Y-5963057D01*
X49410475Y-5963057D02*
X49448570Y-6001152D01*
X49448570Y-6001152D02*
X49486665Y-6077342D01*
X49486665Y-6077342D02*
X49486665Y-6305914D01*
X49486665Y-6305914D02*
X49448570Y-6382104D01*
X49448570Y-6382104D02*
X49410475Y-6420200D01*
X49410475Y-6420200D02*
X49334284Y-6458295D01*
X49334284Y-6458295D02*
X49219998Y-6458295D01*
X50172380Y-6458295D02*
X50172380Y-6039247D01*
X50172380Y-6039247D02*
X50134285Y-5963057D01*
X50134285Y-5963057D02*
X50058094Y-5924961D01*
X50058094Y-5924961D02*
X49905713Y-5924961D01*
X49905713Y-5924961D02*
X49829523Y-5963057D01*
X50172380Y-6420200D02*
X50096189Y-6458295D01*
X50096189Y-6458295D02*
X49905713Y-6458295D01*
X49905713Y-6458295D02*
X49829523Y-6420200D01*
X49829523Y-6420200D02*
X49791427Y-6344009D01*
X49791427Y-6344009D02*
X49791427Y-6267819D01*
X49791427Y-6267819D02*
X49829523Y-6191628D01*
X49829523Y-6191628D02*
X49905713Y-6153533D01*
X49905713Y-6153533D02*
X50096189Y-6153533D01*
X50096189Y-6153533D02*
X50172380Y-6115438D01*
X50553333Y-6458295D02*
X50553333Y-5924961D01*
X50553333Y-6077342D02*
X50591428Y-6001152D01*
X50591428Y-6001152D02*
X50629523Y-5963057D01*
X50629523Y-5963057D02*
X50705714Y-5924961D01*
X50705714Y-5924961D02*
X50781904Y-5924961D01*
X51391428Y-6458295D02*
X51391428Y-5658295D01*
X51391428Y-6420200D02*
X51315237Y-6458295D01*
X51315237Y-6458295D02*
X51162856Y-6458295D01*
X51162856Y-6458295D02*
X51086666Y-6420200D01*
X51086666Y-6420200D02*
X51048571Y-6382104D01*
X51048571Y-6382104D02*
X51010475Y-6305914D01*
X51010475Y-6305914D02*
X51010475Y-6077342D01*
X51010475Y-6077342D02*
X51048571Y-6001152D01*
X51048571Y-6001152D02*
X51086666Y-5963057D01*
X51086666Y-5963057D02*
X51162856Y-5924961D01*
X51162856Y-5924961D02*
X51315237Y-5924961D01*
X51315237Y-5924961D02*
X51391428Y-5963057D01*
X52381905Y-6458295D02*
X52381905Y-5658295D01*
X52762857Y-6458295D02*
X52762857Y-5658295D01*
X52762857Y-5658295D02*
X52953333Y-5658295D01*
X52953333Y-5658295D02*
X53067619Y-5696390D01*
X53067619Y-5696390D02*
X53143809Y-5772580D01*
X53143809Y-5772580D02*
X53181904Y-5848771D01*
X53181904Y-5848771D02*
X53220000Y-6001152D01*
X53220000Y-6001152D02*
X53220000Y-6115438D01*
X53220000Y-6115438D02*
X53181904Y-6267819D01*
X53181904Y-6267819D02*
X53143809Y-6344009D01*
X53143809Y-6344009D02*
X53067619Y-6420200D01*
X53067619Y-6420200D02*
X52953333Y-6458295D01*
X52953333Y-6458295D02*
X52762857Y-6458295D01*
X54324762Y-5658295D02*
X54400952Y-5658295D01*
X54400952Y-5658295D02*
X54477143Y-5696390D01*
X54477143Y-5696390D02*
X54515238Y-5734485D01*
X54515238Y-5734485D02*
X54553333Y-5810676D01*
X54553333Y-5810676D02*
X54591428Y-5963057D01*
X54591428Y-5963057D02*
X54591428Y-6153533D01*
X54591428Y-6153533D02*
X54553333Y-6305914D01*
X54553333Y-6305914D02*
X54515238Y-6382104D01*
X54515238Y-6382104D02*
X54477143Y-6420200D01*
X54477143Y-6420200D02*
X54400952Y-6458295D01*
X54400952Y-6458295D02*
X54324762Y-6458295D01*
X54324762Y-6458295D02*
X54248571Y-6420200D01*
X54248571Y-6420200D02*
X54210476Y-6382104D01*
X54210476Y-6382104D02*
X54172381Y-6305914D01*
X54172381Y-6305914D02*
X54134285Y-6153533D01*
X54134285Y-6153533D02*
X54134285Y-5963057D01*
X54134285Y-5963057D02*
X54172381Y-5810676D01*
X54172381Y-5810676D02*
X54210476Y-5734485D01*
X54210476Y-5734485D02*
X54248571Y-5696390D01*
X54248571Y-5696390D02*
X54324762Y-5658295D01*
X54858095Y-6458295D02*
X55277143Y-5924961D01*
X54858095Y-5924961D02*
X55277143Y-6458295D01*
X55543809Y-6229723D02*
X55924762Y-6229723D01*
X55467619Y-6458295D02*
X55734286Y-5658295D01*
X55734286Y-5658295D02*
X56000952Y-6458295D01*
X56648571Y-5658295D02*
X56267619Y-5658295D01*
X56267619Y-5658295D02*
X56229523Y-6039247D01*
X56229523Y-6039247D02*
X56267619Y-6001152D01*
X56267619Y-6001152D02*
X56343809Y-5963057D01*
X56343809Y-5963057D02*
X56534285Y-5963057D01*
X56534285Y-5963057D02*
X56610476Y-6001152D01*
X56610476Y-6001152D02*
X56648571Y-6039247D01*
X56648571Y-6039247D02*
X56686666Y-6115438D01*
X56686666Y-6115438D02*
X56686666Y-6305914D01*
X56686666Y-6305914D02*
X56648571Y-6382104D01*
X56648571Y-6382104D02*
X56610476Y-6420200D01*
X56610476Y-6420200D02*
X56534285Y-6458295D01*
X56534285Y-6458295D02*
X56343809Y-6458295D01*
X56343809Y-6458295D02*
X56267619Y-6420200D01*
X56267619Y-6420200D02*
X56229523Y-6382104D01*
X57639048Y-6153533D02*
X58248572Y-6153533D01*
X59200952Y-6420200D02*
X59277143Y-6458295D01*
X59277143Y-6458295D02*
X59429524Y-6458295D01*
X59429524Y-6458295D02*
X59505714Y-6420200D01*
X59505714Y-6420200D02*
X59543810Y-6344009D01*
X59543810Y-6344009D02*
X59543810Y-6305914D01*
X59543810Y-6305914D02*
X59505714Y-6229723D01*
X59505714Y-6229723D02*
X59429524Y-6191628D01*
X59429524Y-6191628D02*
X59315238Y-6191628D01*
X59315238Y-6191628D02*
X59239048Y-6153533D01*
X59239048Y-6153533D02*
X59200952Y-6077342D01*
X59200952Y-6077342D02*
X59200952Y-6039247D01*
X59200952Y-6039247D02*
X59239048Y-5963057D01*
X59239048Y-5963057D02*
X59315238Y-5924961D01*
X59315238Y-5924961D02*
X59429524Y-5924961D01*
X59429524Y-5924961D02*
X59505714Y-5963057D01*
X59886667Y-5924961D02*
X59886667Y-6724961D01*
X59886667Y-5963057D02*
X59962857Y-5924961D01*
X59962857Y-5924961D02*
X60115238Y-5924961D01*
X60115238Y-5924961D02*
X60191429Y-5963057D01*
X60191429Y-5963057D02*
X60229524Y-6001152D01*
X60229524Y-6001152D02*
X60267619Y-6077342D01*
X60267619Y-6077342D02*
X60267619Y-6305914D01*
X60267619Y-6305914D02*
X60229524Y-6382104D01*
X60229524Y-6382104D02*
X60191429Y-6420200D01*
X60191429Y-6420200D02*
X60115238Y-6458295D01*
X60115238Y-6458295D02*
X59962857Y-6458295D01*
X59962857Y-6458295D02*
X59886667Y-6420200D01*
X60915239Y-6420200D02*
X60839048Y-6458295D01*
X60839048Y-6458295D02*
X60686667Y-6458295D01*
X60686667Y-6458295D02*
X60610477Y-6420200D01*
X60610477Y-6420200D02*
X60572381Y-6344009D01*
X60572381Y-6344009D02*
X60572381Y-6039247D01*
X60572381Y-6039247D02*
X60610477Y-5963057D01*
X60610477Y-5963057D02*
X60686667Y-5924961D01*
X60686667Y-5924961D02*
X60839048Y-5924961D01*
X60839048Y-5924961D02*
X60915239Y-5963057D01*
X60915239Y-5963057D02*
X60953334Y-6039247D01*
X60953334Y-6039247D02*
X60953334Y-6115438D01*
X60953334Y-6115438D02*
X60572381Y-6191628D01*
X61639048Y-6420200D02*
X61562857Y-6458295D01*
X61562857Y-6458295D02*
X61410476Y-6458295D01*
X61410476Y-6458295D02*
X61334286Y-6420200D01*
X61334286Y-6420200D02*
X61296191Y-6382104D01*
X61296191Y-6382104D02*
X61258095Y-6305914D01*
X61258095Y-6305914D02*
X61258095Y-6077342D01*
X61258095Y-6077342D02*
X61296191Y-6001152D01*
X61296191Y-6001152D02*
X61334286Y-5963057D01*
X61334286Y-5963057D02*
X61410476Y-5924961D01*
X61410476Y-5924961D02*
X61562857Y-5924961D01*
X61562857Y-5924961D02*
X61639048Y-5963057D01*
X62591429Y-6458295D02*
X62591429Y-5658295D01*
X62591429Y-5658295D02*
X63048572Y-6458295D01*
X63048572Y-6458295D02*
X63048572Y-5658295D01*
X63391428Y-6420200D02*
X63505714Y-6458295D01*
X63505714Y-6458295D02*
X63696190Y-6458295D01*
X63696190Y-6458295D02*
X63772381Y-6420200D01*
X63772381Y-6420200D02*
X63810476Y-6382104D01*
X63810476Y-6382104D02*
X63848571Y-6305914D01*
X63848571Y-6305914D02*
X63848571Y-6229723D01*
X63848571Y-6229723D02*
X63810476Y-6153533D01*
X63810476Y-6153533D02*
X63772381Y-6115438D01*
X63772381Y-6115438D02*
X63696190Y-6077342D01*
X63696190Y-6077342D02*
X63543809Y-6039247D01*
X63543809Y-6039247D02*
X63467619Y-6001152D01*
X63467619Y-6001152D02*
X63429524Y-5963057D01*
X63429524Y-5963057D02*
X63391428Y-5886866D01*
X63391428Y-5886866D02*
X63391428Y-5810676D01*
X63391428Y-5810676D02*
X63429524Y-5734485D01*
X63429524Y-5734485D02*
X63467619Y-5696390D01*
X63467619Y-5696390D02*
X63543809Y-5658295D01*
X63543809Y-5658295D02*
X63734286Y-5658295D01*
X63734286Y-5658295D02*
X63848571Y-5696390D01*
X64115238Y-5658295D02*
X64305714Y-6458295D01*
X64305714Y-6458295D02*
X64458095Y-5886866D01*
X64458095Y-5886866D02*
X64610476Y-6458295D01*
X64610476Y-6458295D02*
X64800953Y-5658295D01*
X65067619Y-6420200D02*
X65181905Y-6458295D01*
X65181905Y-6458295D02*
X65372381Y-6458295D01*
X65372381Y-6458295D02*
X65448572Y-6420200D01*
X65448572Y-6420200D02*
X65486667Y-6382104D01*
X65486667Y-6382104D02*
X65524762Y-6305914D01*
X65524762Y-6305914D02*
X65524762Y-6229723D01*
X65524762Y-6229723D02*
X65486667Y-6153533D01*
X65486667Y-6153533D02*
X65448572Y-6115438D01*
X65448572Y-6115438D02*
X65372381Y-6077342D01*
X65372381Y-6077342D02*
X65220000Y-6039247D01*
X65220000Y-6039247D02*
X65143810Y-6001152D01*
X65143810Y-6001152D02*
X65105715Y-5963057D01*
X65105715Y-5963057D02*
X65067619Y-5886866D01*
X65067619Y-5886866D02*
X65067619Y-5810676D01*
X65067619Y-5810676D02*
X65105715Y-5734485D01*
X65105715Y-5734485D02*
X65143810Y-5696390D01*
X65143810Y-5696390D02*
X65220000Y-5658295D01*
X65220000Y-5658295D02*
X65410477Y-5658295D01*
X65410477Y-5658295D02*
X65524762Y-5696390D01*
X66286667Y-5696390D02*
X66210477Y-5658295D01*
X66210477Y-5658295D02*
X66096191Y-5658295D01*
X66096191Y-5658295D02*
X65981905Y-5696390D01*
X65981905Y-5696390D02*
X65905715Y-5772580D01*
X65905715Y-5772580D02*
X65867620Y-5848771D01*
X65867620Y-5848771D02*
X65829524Y-6001152D01*
X65829524Y-6001152D02*
X65829524Y-6115438D01*
X65829524Y-6115438D02*
X65867620Y-6267819D01*
X65867620Y-6267819D02*
X65905715Y-6344009D01*
X65905715Y-6344009D02*
X65981905Y-6420200D01*
X65981905Y-6420200D02*
X66096191Y-6458295D01*
X66096191Y-6458295D02*
X66172382Y-6458295D01*
X66172382Y-6458295D02*
X66286667Y-6420200D01*
X66286667Y-6420200D02*
X66324763Y-6382104D01*
X66324763Y-6382104D02*
X66324763Y-6115438D01*
X66324763Y-6115438D02*
X66172382Y-6115438D01*
X66667620Y-6382104D02*
X66705715Y-6420200D01*
X66705715Y-6420200D02*
X66667620Y-6458295D01*
X66667620Y-6458295D02*
X66629524Y-6420200D01*
X66629524Y-6420200D02*
X66667620Y-6382104D01*
X66667620Y-6382104D02*
X66667620Y-6458295D01*
X67048572Y-6458295D02*
X67048572Y-5924961D01*
X67048572Y-6001152D02*
X67086667Y-5963057D01*
X67086667Y-5963057D02*
X67162857Y-5924961D01*
X67162857Y-5924961D02*
X67277143Y-5924961D01*
X67277143Y-5924961D02*
X67353334Y-5963057D01*
X67353334Y-5963057D02*
X67391429Y-6039247D01*
X67391429Y-6039247D02*
X67391429Y-6458295D01*
X67391429Y-6039247D02*
X67429524Y-5963057D01*
X67429524Y-5963057D02*
X67505715Y-5924961D01*
X67505715Y-5924961D02*
X67620000Y-5924961D01*
X67620000Y-5924961D02*
X67696191Y-5963057D01*
X67696191Y-5963057D02*
X67734286Y-6039247D01*
X67734286Y-6039247D02*
X67734286Y-6458295D01*
X68458096Y-6458295D02*
X68458096Y-5658295D01*
X68458096Y-6420200D02*
X68381905Y-6458295D01*
X68381905Y-6458295D02*
X68229524Y-6458295D01*
X68229524Y-6458295D02*
X68153334Y-6420200D01*
X68153334Y-6420200D02*
X68115239Y-6382104D01*
X68115239Y-6382104D02*
X68077143Y-6305914D01*
X68077143Y-6305914D02*
X68077143Y-6077342D01*
X68077143Y-6077342D02*
X68115239Y-6001152D01*
X68115239Y-6001152D02*
X68153334Y-5963057D01*
X68153334Y-5963057D02*
X68229524Y-5924961D01*
X68229524Y-5924961D02*
X68381905Y-5924961D01*
X68381905Y-5924961D02*
X68458096Y-5963057D01*
X59072857Y-76938842D02*
X58987142Y-76895985D01*
X58987142Y-76895985D02*
X58815714Y-76895985D01*
X58815714Y-76895985D02*
X58730000Y-76938842D01*
X58730000Y-76938842D02*
X58644285Y-77024557D01*
X58644285Y-77024557D02*
X58601428Y-77110271D01*
X58601428Y-77110271D02*
X58601428Y-77281700D01*
X58601428Y-77281700D02*
X58644285Y-77367414D01*
X58644285Y-77367414D02*
X58730000Y-77453128D01*
X58730000Y-77453128D02*
X58815714Y-77495985D01*
X58815714Y-77495985D02*
X58987142Y-77495985D01*
X58987142Y-77495985D02*
X59072857Y-77453128D01*
X58901428Y-76595985D02*
X58687142Y-76638842D01*
X58687142Y-76638842D02*
X58472857Y-76767414D01*
X58472857Y-76767414D02*
X58344285Y-76981700D01*
X58344285Y-76981700D02*
X58301428Y-77195985D01*
X58301428Y-77195985D02*
X58344285Y-77410271D01*
X58344285Y-77410271D02*
X58472857Y-77624557D01*
X58472857Y-77624557D02*
X58687142Y-77753128D01*
X58687142Y-77753128D02*
X58901428Y-77795985D01*
X58901428Y-77795985D02*
X59115714Y-77753128D01*
X59115714Y-77753128D02*
X59330000Y-77624557D01*
X59330000Y-77624557D02*
X59458571Y-77410271D01*
X59458571Y-77410271D02*
X59501428Y-77195985D01*
X59501428Y-77195985D02*
X59458571Y-76981700D01*
X59458571Y-76981700D02*
X59330000Y-76767414D01*
X59330000Y-76767414D02*
X59115714Y-76638842D01*
X59115714Y-76638842D02*
X58901428Y-76595985D01*
X60529999Y-76810271D02*
X60572856Y-76767414D01*
X60572856Y-76767414D02*
X60658571Y-76724557D01*
X60658571Y-76724557D02*
X60872856Y-76724557D01*
X60872856Y-76724557D02*
X60958571Y-76767414D01*
X60958571Y-76767414D02*
X61001428Y-76810271D01*
X61001428Y-76810271D02*
X61044285Y-76895985D01*
X61044285Y-76895985D02*
X61044285Y-76981700D01*
X61044285Y-76981700D02*
X61001428Y-77110271D01*
X61001428Y-77110271D02*
X60487142Y-77624557D01*
X60487142Y-77624557D02*
X61044285Y-77624557D01*
X61601428Y-76724557D02*
X61687142Y-76724557D01*
X61687142Y-76724557D02*
X61772856Y-76767414D01*
X61772856Y-76767414D02*
X61815714Y-76810271D01*
X61815714Y-76810271D02*
X61858571Y-76895985D01*
X61858571Y-76895985D02*
X61901428Y-77067414D01*
X61901428Y-77067414D02*
X61901428Y-77281700D01*
X61901428Y-77281700D02*
X61858571Y-77453128D01*
X61858571Y-77453128D02*
X61815714Y-77538842D01*
X61815714Y-77538842D02*
X61772856Y-77581700D01*
X61772856Y-77581700D02*
X61687142Y-77624557D01*
X61687142Y-77624557D02*
X61601428Y-77624557D01*
X61601428Y-77624557D02*
X61515714Y-77581700D01*
X61515714Y-77581700D02*
X61472856Y-77538842D01*
X61472856Y-77538842D02*
X61429999Y-77453128D01*
X61429999Y-77453128D02*
X61387142Y-77281700D01*
X61387142Y-77281700D02*
X61387142Y-77067414D01*
X61387142Y-77067414D02*
X61429999Y-76895985D01*
X61429999Y-76895985D02*
X61472856Y-76810271D01*
X61472856Y-76810271D02*
X61515714Y-76767414D01*
X61515714Y-76767414D02*
X61601428Y-76724557D01*
X62244285Y-76810271D02*
X62287142Y-76767414D01*
X62287142Y-76767414D02*
X62372857Y-76724557D01*
X62372857Y-76724557D02*
X62587142Y-76724557D01*
X62587142Y-76724557D02*
X62672857Y-76767414D01*
X62672857Y-76767414D02*
X62715714Y-76810271D01*
X62715714Y-76810271D02*
X62758571Y-76895985D01*
X62758571Y-76895985D02*
X62758571Y-76981700D01*
X62758571Y-76981700D02*
X62715714Y-77110271D01*
X62715714Y-77110271D02*
X62201428Y-77624557D01*
X62201428Y-77624557D02*
X62758571Y-77624557D01*
X63530000Y-76724557D02*
X63358571Y-76724557D01*
X63358571Y-76724557D02*
X63272857Y-76767414D01*
X63272857Y-76767414D02*
X63230000Y-76810271D01*
X63230000Y-76810271D02*
X63144285Y-76938842D01*
X63144285Y-76938842D02*
X63101428Y-77110271D01*
X63101428Y-77110271D02*
X63101428Y-77453128D01*
X63101428Y-77453128D02*
X63144285Y-77538842D01*
X63144285Y-77538842D02*
X63187142Y-77581700D01*
X63187142Y-77581700D02*
X63272857Y-77624557D01*
X63272857Y-77624557D02*
X63444285Y-77624557D01*
X63444285Y-77624557D02*
X63530000Y-77581700D01*
X63530000Y-77581700D02*
X63572857Y-77538842D01*
X63572857Y-77538842D02*
X63615714Y-77453128D01*
X63615714Y-77453128D02*
X63615714Y-77238842D01*
X63615714Y-77238842D02*
X63572857Y-77153128D01*
X63572857Y-77153128D02*
X63530000Y-77110271D01*
X63530000Y-77110271D02*
X63444285Y-77067414D01*
X63444285Y-77067414D02*
X63272857Y-77067414D01*
X63272857Y-77067414D02*
X63187142Y-77110271D01*
X63187142Y-77110271D02*
X63144285Y-77153128D01*
X63144285Y-77153128D02*
X63101428Y-77238842D01*
X64687142Y-77624557D02*
X64687142Y-76724557D01*
X64687142Y-76724557D02*
X64901428Y-76724557D01*
X64901428Y-76724557D02*
X65029999Y-76767414D01*
X65029999Y-76767414D02*
X65115714Y-76853128D01*
X65115714Y-76853128D02*
X65158571Y-76938842D01*
X65158571Y-76938842D02*
X65201428Y-77110271D01*
X65201428Y-77110271D02*
X65201428Y-77238842D01*
X65201428Y-77238842D02*
X65158571Y-77410271D01*
X65158571Y-77410271D02*
X65115714Y-77495985D01*
X65115714Y-77495985D02*
X65029999Y-77581700D01*
X65029999Y-77581700D02*
X64901428Y-77624557D01*
X64901428Y-77624557D02*
X64687142Y-77624557D01*
X65972857Y-77624557D02*
X65972857Y-77153128D01*
X65972857Y-77153128D02*
X65929999Y-77067414D01*
X65929999Y-77067414D02*
X65844285Y-77024557D01*
X65844285Y-77024557D02*
X65672857Y-77024557D01*
X65672857Y-77024557D02*
X65587142Y-77067414D01*
X65972857Y-77581700D02*
X65887142Y-77624557D01*
X65887142Y-77624557D02*
X65672857Y-77624557D01*
X65672857Y-77624557D02*
X65587142Y-77581700D01*
X65587142Y-77581700D02*
X65544285Y-77495985D01*
X65544285Y-77495985D02*
X65544285Y-77410271D01*
X65544285Y-77410271D02*
X65587142Y-77324557D01*
X65587142Y-77324557D02*
X65672857Y-77281700D01*
X65672857Y-77281700D02*
X65887142Y-77281700D01*
X65887142Y-77281700D02*
X65972857Y-77238842D01*
X66315714Y-77024557D02*
X66530000Y-77624557D01*
X66530000Y-77624557D02*
X66744285Y-77024557D01*
X67087142Y-77624557D02*
X67087142Y-77024557D01*
X67087142Y-76724557D02*
X67044285Y-76767414D01*
X67044285Y-76767414D02*
X67087142Y-76810271D01*
X67087142Y-76810271D02*
X67129999Y-76767414D01*
X67129999Y-76767414D02*
X67087142Y-76724557D01*
X67087142Y-76724557D02*
X67087142Y-76810271D01*
X67901428Y-77624557D02*
X67901428Y-76724557D01*
X67901428Y-77581700D02*
X67815713Y-77624557D01*
X67815713Y-77624557D02*
X67644285Y-77624557D01*
X67644285Y-77624557D02*
X67558570Y-77581700D01*
X67558570Y-77581700D02*
X67515713Y-77538842D01*
X67515713Y-77538842D02*
X67472856Y-77453128D01*
X67472856Y-77453128D02*
X67472856Y-77195985D01*
X67472856Y-77195985D02*
X67515713Y-77110271D01*
X67515713Y-77110271D02*
X67558570Y-77067414D01*
X67558570Y-77067414D02*
X67644285Y-77024557D01*
X67644285Y-77024557D02*
X67815713Y-77024557D01*
X67815713Y-77024557D02*
X67901428Y-77067414D01*
X68887142Y-76724557D02*
X69401428Y-76724557D01*
X69144285Y-77624557D02*
X69144285Y-76724557D01*
X69701427Y-77624557D02*
X69701427Y-77024557D01*
X69701427Y-77195985D02*
X69744284Y-77110271D01*
X69744284Y-77110271D02*
X69787142Y-77067414D01*
X69787142Y-77067414D02*
X69872856Y-77024557D01*
X69872856Y-77024557D02*
X69958570Y-77024557D01*
X70387142Y-77624557D02*
X70301427Y-77581700D01*
X70301427Y-77581700D02*
X70258570Y-77538842D01*
X70258570Y-77538842D02*
X70215713Y-77453128D01*
X70215713Y-77453128D02*
X70215713Y-77195985D01*
X70215713Y-77195985D02*
X70258570Y-77110271D01*
X70258570Y-77110271D02*
X70301427Y-77067414D01*
X70301427Y-77067414D02*
X70387142Y-77024557D01*
X70387142Y-77024557D02*
X70515713Y-77024557D01*
X70515713Y-77024557D02*
X70601427Y-77067414D01*
X70601427Y-77067414D02*
X70644285Y-77110271D01*
X70644285Y-77110271D02*
X70687142Y-77195985D01*
X70687142Y-77195985D02*
X70687142Y-77453128D01*
X70687142Y-77453128D02*
X70644285Y-77538842D01*
X70644285Y-77538842D02*
X70601427Y-77581700D01*
X70601427Y-77581700D02*
X70515713Y-77624557D01*
X70515713Y-77624557D02*
X70387142Y-77624557D01*
X70987142Y-77024557D02*
X71201428Y-77624557D01*
X71415713Y-77024557D02*
X71201428Y-77624557D01*
X71201428Y-77624557D02*
X71115713Y-77838842D01*
X71115713Y-77838842D02*
X71072856Y-77881700D01*
X71072856Y-77881700D02*
X70987142Y-77924557D01*
X71801427Y-77581700D02*
X71801427Y-77624557D01*
X71801427Y-77624557D02*
X71758570Y-77710271D01*
X71758570Y-77710271D02*
X71715713Y-77753128D01*
X72872855Y-77624557D02*
X72872855Y-77024557D01*
X72872855Y-76724557D02*
X72829998Y-76767414D01*
X72829998Y-76767414D02*
X72872855Y-76810271D01*
X72872855Y-76810271D02*
X72915712Y-76767414D01*
X72915712Y-76767414D02*
X72872855Y-76724557D01*
X72872855Y-76724557D02*
X72872855Y-76810271D01*
X73301426Y-77024557D02*
X73301426Y-77624557D01*
X73301426Y-77110271D02*
X73344283Y-77067414D01*
X73344283Y-77067414D02*
X73429998Y-77024557D01*
X73429998Y-77024557D02*
X73558569Y-77024557D01*
X73558569Y-77024557D02*
X73644283Y-77067414D01*
X73644283Y-77067414D02*
X73687141Y-77153128D01*
X73687141Y-77153128D02*
X73687141Y-77624557D01*
X74801426Y-77624557D02*
X74801426Y-77024557D01*
X74801426Y-77110271D02*
X74844283Y-77067414D01*
X74844283Y-77067414D02*
X74929998Y-77024557D01*
X74929998Y-77024557D02*
X75058569Y-77024557D01*
X75058569Y-77024557D02*
X75144283Y-77067414D01*
X75144283Y-77067414D02*
X75187141Y-77153128D01*
X75187141Y-77153128D02*
X75187141Y-77624557D01*
X75187141Y-77153128D02*
X75229998Y-77067414D01*
X75229998Y-77067414D02*
X75315712Y-77024557D01*
X75315712Y-77024557D02*
X75444283Y-77024557D01*
X75444283Y-77024557D02*
X75529998Y-77067414D01*
X75529998Y-77067414D02*
X75572855Y-77153128D01*
X75572855Y-77153128D02*
X75572855Y-77624557D01*
X76344283Y-77581700D02*
X76258569Y-77624557D01*
X76258569Y-77624557D02*
X76087141Y-77624557D01*
X76087141Y-77624557D02*
X76001426Y-77581700D01*
X76001426Y-77581700D02*
X75958569Y-77495985D01*
X75958569Y-77495985D02*
X75958569Y-77153128D01*
X75958569Y-77153128D02*
X76001426Y-77067414D01*
X76001426Y-77067414D02*
X76087141Y-77024557D01*
X76087141Y-77024557D02*
X76258569Y-77024557D01*
X76258569Y-77024557D02*
X76344283Y-77067414D01*
X76344283Y-77067414D02*
X76387141Y-77153128D01*
X76387141Y-77153128D02*
X76387141Y-77238842D01*
X76387141Y-77238842D02*
X75958569Y-77324557D01*
X76772855Y-77624557D02*
X76772855Y-77024557D01*
X76772855Y-77110271D02*
X76815712Y-77067414D01*
X76815712Y-77067414D02*
X76901427Y-77024557D01*
X76901427Y-77024557D02*
X77029998Y-77024557D01*
X77029998Y-77024557D02*
X77115712Y-77067414D01*
X77115712Y-77067414D02*
X77158570Y-77153128D01*
X77158570Y-77153128D02*
X77158570Y-77624557D01*
X77158570Y-77153128D02*
X77201427Y-77067414D01*
X77201427Y-77067414D02*
X77287141Y-77024557D01*
X77287141Y-77024557D02*
X77415712Y-77024557D01*
X77415712Y-77024557D02*
X77501427Y-77067414D01*
X77501427Y-77067414D02*
X77544284Y-77153128D01*
X77544284Y-77153128D02*
X77544284Y-77624557D01*
X78101427Y-77624557D02*
X78015712Y-77581700D01*
X78015712Y-77581700D02*
X77972855Y-77538842D01*
X77972855Y-77538842D02*
X77929998Y-77453128D01*
X77929998Y-77453128D02*
X77929998Y-77195985D01*
X77929998Y-77195985D02*
X77972855Y-77110271D01*
X77972855Y-77110271D02*
X78015712Y-77067414D01*
X78015712Y-77067414D02*
X78101427Y-77024557D01*
X78101427Y-77024557D02*
X78229998Y-77024557D01*
X78229998Y-77024557D02*
X78315712Y-77067414D01*
X78315712Y-77067414D02*
X78358570Y-77110271D01*
X78358570Y-77110271D02*
X78401427Y-77195985D01*
X78401427Y-77195985D02*
X78401427Y-77453128D01*
X78401427Y-77453128D02*
X78358570Y-77538842D01*
X78358570Y-77538842D02*
X78315712Y-77581700D01*
X78315712Y-77581700D02*
X78229998Y-77624557D01*
X78229998Y-77624557D02*
X78101427Y-77624557D01*
X78787141Y-77624557D02*
X78787141Y-77024557D01*
X78787141Y-77195985D02*
X78829998Y-77110271D01*
X78829998Y-77110271D02*
X78872856Y-77067414D01*
X78872856Y-77067414D02*
X78958570Y-77024557D01*
X78958570Y-77024557D02*
X79044284Y-77024557D01*
X79258570Y-77024557D02*
X79472856Y-77624557D01*
X79687141Y-77024557D02*
X79472856Y-77624557D01*
X79472856Y-77624557D02*
X79387141Y-77838842D01*
X79387141Y-77838842D02*
X79344284Y-77881700D01*
X79344284Y-77881700D02*
X79258570Y-77924557D01*
X80844284Y-77624557D02*
X80758569Y-77581700D01*
X80758569Y-77581700D02*
X80715712Y-77538842D01*
X80715712Y-77538842D02*
X80672855Y-77453128D01*
X80672855Y-77453128D02*
X80672855Y-77195985D01*
X80672855Y-77195985D02*
X80715712Y-77110271D01*
X80715712Y-77110271D02*
X80758569Y-77067414D01*
X80758569Y-77067414D02*
X80844284Y-77024557D01*
X80844284Y-77024557D02*
X80972855Y-77024557D01*
X80972855Y-77024557D02*
X81058569Y-77067414D01*
X81058569Y-77067414D02*
X81101427Y-77110271D01*
X81101427Y-77110271D02*
X81144284Y-77195985D01*
X81144284Y-77195985D02*
X81144284Y-77453128D01*
X81144284Y-77453128D02*
X81101427Y-77538842D01*
X81101427Y-77538842D02*
X81058569Y-77581700D01*
X81058569Y-77581700D02*
X80972855Y-77624557D01*
X80972855Y-77624557D02*
X80844284Y-77624557D01*
X81401427Y-77024557D02*
X81744284Y-77024557D01*
X81529998Y-77624557D02*
X81529998Y-76853128D01*
X81529998Y-76853128D02*
X81572855Y-76767414D01*
X81572855Y-76767414D02*
X81658570Y-76724557D01*
X81658570Y-76724557D02*
X81744284Y-76724557D01*
X82687141Y-77581700D02*
X82815713Y-77624557D01*
X82815713Y-77624557D02*
X83029998Y-77624557D01*
X83029998Y-77624557D02*
X83115713Y-77581700D01*
X83115713Y-77581700D02*
X83158570Y-77538842D01*
X83158570Y-77538842D02*
X83201427Y-77453128D01*
X83201427Y-77453128D02*
X83201427Y-77367414D01*
X83201427Y-77367414D02*
X83158570Y-77281700D01*
X83158570Y-77281700D02*
X83115713Y-77238842D01*
X83115713Y-77238842D02*
X83029998Y-77195985D01*
X83029998Y-77195985D02*
X82858570Y-77153128D01*
X82858570Y-77153128D02*
X82772855Y-77110271D01*
X82772855Y-77110271D02*
X82729998Y-77067414D01*
X82729998Y-77067414D02*
X82687141Y-76981700D01*
X82687141Y-76981700D02*
X82687141Y-76895985D01*
X82687141Y-76895985D02*
X82729998Y-76810271D01*
X82729998Y-76810271D02*
X82772855Y-76767414D01*
X82772855Y-76767414D02*
X82858570Y-76724557D01*
X82858570Y-76724557D02*
X83072855Y-76724557D01*
X83072855Y-76724557D02*
X83201427Y-76767414D01*
X83458570Y-77024557D02*
X83801427Y-77024557D01*
X83587141Y-76724557D02*
X83587141Y-77495985D01*
X83587141Y-77495985D02*
X83629998Y-77581700D01*
X83629998Y-77581700D02*
X83715713Y-77624557D01*
X83715713Y-77624557D02*
X83801427Y-77624557D01*
X84444284Y-77581700D02*
X84358570Y-77624557D01*
X84358570Y-77624557D02*
X84187142Y-77624557D01*
X84187142Y-77624557D02*
X84101427Y-77581700D01*
X84101427Y-77581700D02*
X84058570Y-77495985D01*
X84058570Y-77495985D02*
X84058570Y-77153128D01*
X84058570Y-77153128D02*
X84101427Y-77067414D01*
X84101427Y-77067414D02*
X84187142Y-77024557D01*
X84187142Y-77024557D02*
X84358570Y-77024557D01*
X84358570Y-77024557D02*
X84444284Y-77067414D01*
X84444284Y-77067414D02*
X84487142Y-77153128D01*
X84487142Y-77153128D02*
X84487142Y-77238842D01*
X84487142Y-77238842D02*
X84058570Y-77324557D01*
X84872856Y-77024557D02*
X84872856Y-77924557D01*
X84872856Y-77067414D02*
X84958571Y-77024557D01*
X84958571Y-77024557D02*
X85129999Y-77024557D01*
X85129999Y-77024557D02*
X85215713Y-77067414D01*
X85215713Y-77067414D02*
X85258571Y-77110271D01*
X85258571Y-77110271D02*
X85301428Y-77195985D01*
X85301428Y-77195985D02*
X85301428Y-77453128D01*
X85301428Y-77453128D02*
X85258571Y-77538842D01*
X85258571Y-77538842D02*
X85215713Y-77581700D01*
X85215713Y-77581700D02*
X85129999Y-77624557D01*
X85129999Y-77624557D02*
X84958571Y-77624557D01*
X84958571Y-77624557D02*
X84872856Y-77581700D01*
X85687142Y-77624557D02*
X85687142Y-76724557D01*
X86072857Y-77624557D02*
X86072857Y-77153128D01*
X86072857Y-77153128D02*
X86029999Y-77067414D01*
X86029999Y-77067414D02*
X85944285Y-77024557D01*
X85944285Y-77024557D02*
X85815714Y-77024557D01*
X85815714Y-77024557D02*
X85729999Y-77067414D01*
X85729999Y-77067414D02*
X85687142Y-77110271D01*
X86844285Y-77581700D02*
X86758571Y-77624557D01*
X86758571Y-77624557D02*
X86587143Y-77624557D01*
X86587143Y-77624557D02*
X86501428Y-77581700D01*
X86501428Y-77581700D02*
X86458571Y-77495985D01*
X86458571Y-77495985D02*
X86458571Y-77153128D01*
X86458571Y-77153128D02*
X86501428Y-77067414D01*
X86501428Y-77067414D02*
X86587143Y-77024557D01*
X86587143Y-77024557D02*
X86758571Y-77024557D01*
X86758571Y-77024557D02*
X86844285Y-77067414D01*
X86844285Y-77067414D02*
X86887143Y-77153128D01*
X86887143Y-77153128D02*
X86887143Y-77238842D01*
X86887143Y-77238842D02*
X86458571Y-77324557D01*
X87272857Y-77024557D02*
X87272857Y-77624557D01*
X87272857Y-77110271D02*
X87315714Y-77067414D01*
X87315714Y-77067414D02*
X87401429Y-77024557D01*
X87401429Y-77024557D02*
X87530000Y-77024557D01*
X87530000Y-77024557D02*
X87615714Y-77067414D01*
X87615714Y-77067414D02*
X87658572Y-77153128D01*
X87658572Y-77153128D02*
X87658572Y-77624557D01*
X88644286Y-76724557D02*
X89158572Y-76724557D01*
X88901429Y-77624557D02*
X88901429Y-76724557D01*
X89458571Y-77624557D02*
X89458571Y-77024557D01*
X89458571Y-77195985D02*
X89501428Y-77110271D01*
X89501428Y-77110271D02*
X89544286Y-77067414D01*
X89544286Y-77067414D02*
X89630000Y-77024557D01*
X89630000Y-77024557D02*
X89715714Y-77024557D01*
X90144286Y-77624557D02*
X90058571Y-77581700D01*
X90058571Y-77581700D02*
X90015714Y-77538842D01*
X90015714Y-77538842D02*
X89972857Y-77453128D01*
X89972857Y-77453128D02*
X89972857Y-77195985D01*
X89972857Y-77195985D02*
X90015714Y-77110271D01*
X90015714Y-77110271D02*
X90058571Y-77067414D01*
X90058571Y-77067414D02*
X90144286Y-77024557D01*
X90144286Y-77024557D02*
X90272857Y-77024557D01*
X90272857Y-77024557D02*
X90358571Y-77067414D01*
X90358571Y-77067414D02*
X90401429Y-77110271D01*
X90401429Y-77110271D02*
X90444286Y-77195985D01*
X90444286Y-77195985D02*
X90444286Y-77453128D01*
X90444286Y-77453128D02*
X90401429Y-77538842D01*
X90401429Y-77538842D02*
X90358571Y-77581700D01*
X90358571Y-77581700D02*
X90272857Y-77624557D01*
X90272857Y-77624557D02*
X90144286Y-77624557D01*
X90744286Y-77024557D02*
X90958572Y-77624557D01*
X91172857Y-77024557D02*
X90958572Y-77624557D01*
X90958572Y-77624557D02*
X90872857Y-77838842D01*
X90872857Y-77838842D02*
X90830000Y-77881700D01*
X90830000Y-77881700D02*
X90744286Y-77924557D01*
X91515714Y-77538842D02*
X91558571Y-77581700D01*
X91558571Y-77581700D02*
X91515714Y-77624557D01*
X91515714Y-77624557D02*
X91472857Y-77581700D01*
X91472857Y-77581700D02*
X91515714Y-77538842D01*
X91515714Y-77538842D02*
X91515714Y-77624557D01*
M02*
