%TF.GenerationSoftware,KiCad,Pcbnew,10.0.6*%
%TF.CreationDate,2026-08-31T06:43:11-04:00*%
%TF.ProjectId,card_routed,63617264-5f72-46f7-9574-65642e6b6963,rev?*%
%TF.SameCoordinates,Original*%
%TF.FileFunction,Copper,L2,Bot*%
%TF.FilePolarity,Positive*%
%FSLAX46Y46*%
G04 Gerber Fmt 4.6, Leading zero omitted, Abs format (unit mm)*
G04 Created by KiCad (PCBNEW 10.0.6) date 2026-08-31 06:43:11*
%MOMM*%
%LPD*%
G01*
G04 APERTURE LIST*
%TA.AperFunction,SMDPad,CuDef*%
%ADD10R,7.391400X2.199600*%
%TD*%
%TA.AperFunction,ComponentPad*%
%ADD11C,1.574800*%
%TD*%
%TA.AperFunction,ComponentPad*%
%ADD12O,2.200000X1.200000*%
%TD*%
%TA.AperFunction,ComponentPad*%
%ADD13O,1.200000X2.200000*%
%TD*%
%TA.AperFunction,ComponentPad*%
%ADD14C,1.701800*%
%TD*%
%TA.AperFunction,WasherPad*%
%ADD15C,3.810000*%
%TD*%
%TA.AperFunction,ViaPad*%
%ADD16C,0.600000*%
%TD*%
%TA.AperFunction,Conductor*%
%ADD17C,0.250000*%
%TD*%
G04 APERTURE END LIST*
D10*
%TO.P,,1*%
%TO.N,GND*%
X-3949700Y-55880000D03*
%TO.P,,3*%
%TO.N,IDREQ*%
X-3949700Y-52705000D03*
%TO.P,,5*%
%TO.N,IOA2*%
X-3949700Y-43180000D03*
%TO.P,,7*%
%TO.N,IOA1*%
X-3949700Y-40005000D03*
%TO.P,,9*%
%TO.N,BRD*%
X-3949700Y-36830000D03*
%TO.P,,11*%
%TO.N,MHZ8*%
X-3949700Y-33655000D03*
%TO.P,,13*%
%TO.N,IO3*%
X-3949700Y-30480000D03*
%TO.P,,15*%
%TO.N,IO2*%
X-3949700Y-27305000D03*
%TO.P,,17*%
%TO.N,GND*%
X-3949700Y-24130000D03*
%TO.P,,19*%
%TO.N,IO6*%
X-3949700Y-20955000D03*
%TO.P,,20*%
%TO.N,IO0*%
X-3949700Y-17780000D03*
%TO.P,,22*%
%TO.N,+5V*%
X-3949700Y-14605000D03*
%TO.P,,24*%
%TO.N,SEL*%
X-3949700Y-11430000D03*
D11*
%TO.P,,25*%
%TO.N,+3V3*%
X16510000Y-5080000D03*
%TO.P,,26*%
X24130000Y-5080000D03*
%TO.P,,27*%
%TO.N,IO0*%
X16510000Y-7620000D03*
%TO.P,,28*%
%TO.N,GND*%
X24130000Y-7620000D03*
%TO.P,,29*%
%TO.N,IO1*%
X16510000Y-10160000D03*
%TO.P,,30*%
%TO.N,GP0*%
X24130000Y-10160000D03*
%TO.P,,31*%
%TO.N,IO2*%
X16510000Y-12700000D03*
%TO.P,,32*%
%TO.N,GP1*%
X24130000Y-12700000D03*
%TO.P,,33*%
%TO.N,IO3*%
X16510000Y-15240000D03*
%TO.P,,34*%
%TO.N,GP2*%
X24130000Y-15240000D03*
%TO.P,,35*%
%TO.N,IO4*%
X16510000Y-17780000D03*
%TO.P,,36*%
%TO.N,GP3*%
X24130000Y-17780000D03*
%TO.P,,37*%
%TO.N,IO5*%
X16510000Y-20320000D03*
%TO.P,,38*%
%TO.N,GP4*%
X24130000Y-20320000D03*
%TO.P,,39*%
%TO.N,IO6*%
X16510000Y-22860000D03*
%TO.P,,40*%
%TO.N,GP5*%
X24130000Y-22860000D03*
%TO.P,,41*%
%TO.N,IO7*%
X16510000Y-25400000D03*
%TO.P,,42*%
%TO.N,GP6*%
X24130000Y-25400000D03*
%TO.P,,43*%
%TO.N,GND*%
X16510000Y-27940000D03*
%TO.P,,44*%
%TO.N,GP7*%
X24130000Y-27940000D03*
%TO.P,,45*%
%TO.N,+3V3*%
X16510000Y-33020000D03*
%TO.P,,46*%
X24130000Y-33020000D03*
%TO.P,,47*%
%TO.N,IOA0*%
X16510000Y-35560000D03*
%TO.P,,48*%
%TO.N,GND*%
X24130000Y-35560000D03*
%TO.P,,49*%
%TO.N,IOA1*%
X16510000Y-38100000D03*
%TO.P,,50*%
%TO.N,GP8*%
X24130000Y-38100000D03*
%TO.P,,51*%
%TO.N,IOA2*%
X16510000Y-40640000D03*
%TO.P,,52*%
%TO.N,GP9*%
X24130000Y-40640000D03*
%TO.P,,53*%
%TO.N,IOA3*%
X16510000Y-43180000D03*
%TO.P,,54*%
%TO.N,GP10*%
X24130000Y-43180000D03*
%TO.P,,55*%
%TO.N,SEL*%
X16510000Y-45720000D03*
%TO.P,,56*%
%TO.N,GP11*%
X24130000Y-45720000D03*
%TO.P,,57*%
%TO.N,BWR*%
X16510000Y-48260000D03*
%TO.P,,58*%
%TO.N,GP12*%
X24130000Y-48260000D03*
%TO.P,,59*%
%TO.N,BIORES*%
X16510000Y-50800000D03*
%TO.P,,60*%
%TO.N,GP13*%
X24130000Y-50800000D03*
%TO.P,,61*%
%TO.N,MHZ8*%
X16510000Y-53340000D03*
%TO.P,,62*%
%TO.N,GP14*%
X24130000Y-53340000D03*
%TO.P,,63*%
%TO.N,GND*%
X16510000Y-55880000D03*
%TO.P,,64*%
%TO.N,GP15*%
X24130000Y-55880000D03*
%TO.P,,65*%
%TO.N,IDREQ*%
X31750000Y-5080000D03*
%TO.P,,66*%
%TO.N,+5V*%
X39370000Y-5080000D03*
%TO.P,,67*%
%TO.N,GND*%
X31750000Y-7620000D03*
%TO.P,,68*%
%TO.N,IDREQ*%
X39370000Y-7620000D03*
%TO.P,,69*%
%TO.N,GND*%
X31750000Y-10160000D03*
%TO.P,,70*%
%TO.N,N/C*%
X39370000Y-10160000D03*
%TO.P,,71*%
%TO.N,GND*%
X31750000Y-12700000D03*
%TO.P,,72*%
%TO.N,IO1*%
X39370000Y-12700000D03*
%TO.P,,73*%
%TO.N,GND*%
X31750000Y-15240000D03*
%TO.P,,74*%
%TO.N,N/C*%
X39370000Y-15240000D03*
%TO.P,,75*%
%TO.N,GND*%
X31750000Y-17780000D03*
%TO.P,,76*%
%TO.N,IO3*%
X39370000Y-17780000D03*
%TO.P,,77*%
%TO.N,GND*%
X31750000Y-20320000D03*
%TO.P,,78*%
%TO.N,IO4*%
X39370000Y-20320000D03*
%TO.P,,79*%
%TO.N,GND*%
X31750000Y-22860000D03*
%TO.P,,80*%
%TO.N,N/C*%
X39370000Y-22860000D03*
%TO.P,,81*%
%TO.N,GND*%
X31750000Y-25400000D03*
%TO.P,,82*%
%TO.N,IO6*%
X39370000Y-25400000D03*
%TO.P,,83*%
%TO.N,GND*%
X31750000Y-27940000D03*
%TO.P,,84*%
%TO.N,N/C*%
X39370000Y-27940000D03*
%TO.P,,85*%
%TO.N,RD3*%
X31750000Y-33020000D03*
%TO.P,,86*%
%TO.N,+5V*%
X39370000Y-33020000D03*
%TO.P,,87*%
X31750000Y-35560000D03*
%TO.P,,88*%
%TO.N,IOA3*%
X39370000Y-35560000D03*
%TO.P,,89*%
%TO.N,+5V*%
X31750000Y-38100000D03*
%TO.P,,90*%
%TO.N,IO0*%
X39370000Y-38100000D03*
%TO.P,,91*%
%TO.N,+5V*%
X31750000Y-40640000D03*
%TO.P,,92*%
%TO.N,IO1*%
X39370000Y-40640000D03*
%TO.P,,93*%
%TO.N,GND*%
X31750000Y-43180000D03*
%TO.P,,94*%
%TO.N,IO2*%
X39370000Y-43180000D03*
%TO.P,,95*%
%TO.N,+5V*%
X31750000Y-45720000D03*
%TO.P,,96*%
%TO.N,IO3*%
X39370000Y-45720000D03*
%TO.P,,97*%
%TO.N,GND*%
X31750000Y-48260000D03*
%TO.P,,98*%
%TO.N,IO4*%
X39370000Y-48260000D03*
%TO.P,,99*%
%TO.N,+5V*%
X31750000Y-50800000D03*
%TO.P,,100*%
%TO.N,IO5*%
X39370000Y-50800000D03*
%TO.P,,101*%
%TO.N,GND*%
X31750000Y-53340000D03*
%TO.P,,102*%
%TO.N,IO6*%
X39370000Y-53340000D03*
%TO.P,,103*%
%TO.N,GND*%
X31750000Y-55880000D03*
%TO.P,,104*%
%TO.N,IO7*%
X39370000Y-55880000D03*
%TO.P,,105*%
%TO.N,IOA0*%
X31750000Y-59690000D03*
%TO.P,,106*%
%TO.N,+5V*%
X39370000Y-59690000D03*
%TO.P,,107*%
%TO.N,IOA1*%
X31750000Y-62230000D03*
%TO.P,,108*%
%TO.N,N/C*%
X39370000Y-62230000D03*
%TO.P,,109*%
%TO.N,IOA2*%
X31750000Y-64770000D03*
%TO.P,,110*%
%TO.N,N/C*%
X39370000Y-64770000D03*
%TO.P,,111*%
%TO.N,SEL*%
X31750000Y-67310000D03*
%TO.P,,112*%
%TO.N,N/C*%
X39370000Y-67310000D03*
%TO.P,,113*%
%TO.N,BRD*%
X31750000Y-69850000D03*
%TO.P,,114*%
%TO.N,RD3*%
X39370000Y-69850000D03*
%TO.P,,115*%
%TO.N,+5V*%
X31750000Y-72390000D03*
%TO.P,,116*%
%TO.N,N/C*%
X39370000Y-72390000D03*
%TO.P,,117*%
X31750000Y-74930000D03*
%TO.P,,118*%
X39370000Y-74930000D03*
%TO.P,,119*%
%TO.N,GND*%
X31750000Y-77470000D03*
%TO.P,,120*%
%TO.N,N/C*%
X39370000Y-77470000D03*
%TO.P,,121*%
%TO.N,BCK*%
X102870000Y-7620000D03*
%TO.P,,122*%
%TO.N,RCH*%
X110490000Y-7620000D03*
%TO.P,,123*%
%TO.N,WS*%
X102870000Y-10160000D03*
%TO.P,,124*%
%TO.N,N/C*%
X110490000Y-10160000D03*
%TO.P,,125*%
%TO.N,DIN*%
X102870000Y-12700000D03*
%TO.P,,126*%
%TO.N,LCH*%
X110490000Y-12700000D03*
%TO.P,,127*%
%TO.N,GND*%
X102870000Y-15240000D03*
%TO.P,,128*%
%TO.N,VDDF*%
X110490000Y-15240000D03*
%TO.P,,137*%
%TO.N,GP0*%
X49530000Y-49022000D03*
%TO.P,,138*%
%TO.N,N/C*%
X49530000Y-31242000D03*
%TO.P,,139*%
%TO.N,GP1*%
X52070000Y-49022000D03*
%TO.P,,140*%
%TO.N,+5V*%
X52070000Y-31242000D03*
%TO.P,,141*%
%TO.N,GND*%
X54610000Y-49022000D03*
%TO.P,,142*%
X54610000Y-31242000D03*
%TO.P,,143*%
%TO.N,GP2*%
X57150000Y-49022000D03*
%TO.P,,144*%
%TO.N,N/C*%
X57150000Y-31242000D03*
%TO.P,,145*%
%TO.N,GP3*%
X59690000Y-49022000D03*
%TO.P,,146*%
%TO.N,+3V3*%
X59690000Y-31242000D03*
%TO.P,,147*%
%TO.N,GP4*%
X62230000Y-49022000D03*
%TO.P,,148*%
%TO.N,N/C*%
X62230000Y-31242000D03*
%TO.P,,149*%
%TO.N,GP5*%
X64770000Y-49022000D03*
%TO.P,,150*%
%TO.N,N/C*%
X64770000Y-31242000D03*
%TO.P,,151*%
%TO.N,GND*%
X67310000Y-49022000D03*
%TO.P,,152*%
X67310000Y-31242000D03*
%TO.P,,153*%
%TO.N,GP6*%
X69850000Y-49022000D03*
%TO.P,,154*%
%TO.N,N/C*%
X69850000Y-31242000D03*
%TO.P,,155*%
%TO.N,GP7*%
X72390000Y-49022000D03*
%TO.P,,156*%
%TO.N,N/C*%
X72390000Y-31242000D03*
%TO.P,,157*%
%TO.N,GP8*%
X74930000Y-49022000D03*
%TO.P,,158*%
%TO.N,N/C*%
X74930000Y-31242000D03*
%TO.P,,159*%
%TO.N,GP9*%
X77470000Y-49022000D03*
%TO.P,,160*%
%TO.N,N/C*%
X77470000Y-31242000D03*
%TO.P,,161*%
%TO.N,GND*%
X80010000Y-49022000D03*
%TO.P,,162*%
X80010000Y-31242000D03*
%TO.P,,163*%
%TO.N,GP10*%
X82550000Y-49022000D03*
%TO.P,,164*%
%TO.N,PWM*%
X82550000Y-31242000D03*
%TO.P,,165*%
%TO.N,GP11*%
X85090000Y-49022000D03*
%TO.P,,166*%
%TO.N,DIN*%
X85090000Y-31242000D03*
%TO.P,,167*%
%TO.N,GP12*%
X87630000Y-49022000D03*
%TO.P,,168*%
%TO.N,WS*%
X87630000Y-31242000D03*
%TO.P,,169*%
%TO.N,GP13*%
X90170000Y-49022000D03*
%TO.P,,170*%
%TO.N,BCK*%
X90170000Y-31242000D03*
%TO.P,,171*%
%TO.N,GND*%
X92710000Y-49022000D03*
%TO.P,,172*%
X92710000Y-31242000D03*
%TO.P,,173*%
%TO.N,GP14*%
X95250000Y-49022000D03*
%TO.P,,174*%
%TO.N,N/C*%
X95250000Y-31242000D03*
%TO.P,,175*%
%TO.N,GP15*%
X97790000Y-49022000D03*
%TO.P,,176*%
%TO.N,N/C*%
X97790000Y-31242000D03*
%TO.P,,177*%
%TO.N,+3V3*%
X106680000Y-19050000D03*
%TO.P,,178*%
%TO.N,VDDF*%
X106680000Y-21590000D03*
%TO.P,,179*%
X109728000Y-19050000D03*
%TO.P,,180*%
%TO.N,GND*%
X109728000Y-21590000D03*
%TO.P,,181*%
%TO.N,LCH*%
X106680000Y-25400000D03*
%TO.P,,182*%
%TO.N,AOL_C*%
X106680000Y-27940000D03*
%TO.P,,183*%
%TO.N,RCH*%
X109728000Y-25400000D03*
%TO.P,,184*%
%TO.N,AOR_C*%
X109728000Y-27940000D03*
%TO.P,,185*%
%TO.N,PWM*%
X106680000Y-40640000D03*
%TO.P,,186*%
%TO.N,PWMF*%
X106680000Y-48260000D03*
%TO.P,,187*%
X110744000Y-40640000D03*
%TO.P,,188*%
%TO.N,GND*%
X110744000Y-48260000D03*
%TO.P,,189*%
%TO.N,PWMF*%
X114808000Y-40640000D03*
%TO.P,,190*%
%TO.N,AOL_C*%
X114808000Y-48260000D03*
%TO.P,,191*%
X118364000Y-40640000D03*
%TO.P,,192*%
%TO.N,J2SIG*%
X118364000Y-48260000D03*
D12*
%TO.P,,T*%
%TO.N,AOL_C*%
X119968000Y-10748000D03*
D13*
%TO.P,,S*%
%TO.N,GND*%
X124968000Y-15748000D03*
D12*
%TO.P,,R*%
%TO.N,AOR_C*%
X119968000Y-20748000D03*
D14*
%TO.P,,198*%
%TO.N,J2SIG*%
X126492000Y-34290000D03*
%TO.P,,199*%
%TO.N,GND*%
X126492000Y-36830000D03*
D11*
%TO.P,,200*%
%TO.N,+3V3*%
X13970000Y-2540000D03*
%TO.P,,201*%
%TO.N,GND*%
X13970000Y-5080000D03*
%TO.P,,202*%
%TO.N,+3V3*%
X13970000Y-30480000D03*
%TO.P,,203*%
%TO.N,GND*%
X13970000Y-33020000D03*
%TO.P,,204*%
%TO.N,+5V*%
X29210000Y-2540000D03*
%TO.P,,205*%
%TO.N,GND*%
X29210000Y-5080000D03*
%TO.P,,206*%
%TO.N,+5V*%
X29210000Y-30480000D03*
%TO.P,,207*%
%TO.N,GND*%
X29210000Y-33020000D03*
%TO.P,,208*%
%TO.N,+5V*%
X29210000Y-57150000D03*
%TO.P,,209*%
%TO.N,GND*%
X29210000Y-59690000D03*
%TO.P,,210*%
%TO.N,VDDF*%
X100330000Y-7620000D03*
%TO.P,,211*%
%TO.N,GND*%
X100330000Y-10160000D03*
%TO.P,,212*%
%TO.N,+5V*%
X58420000Y-55880000D03*
%TO.P,,213*%
%TO.N,GND*%
X58420000Y-58420000D03*
%TO.P,,214*%
%TO.N,+5V*%
X83820000Y-55880000D03*
%TO.P,,215*%
%TO.N,GND*%
X83820000Y-58420000D03*
D15*
%TO.P,,*%
%TO.N,*%
X6350000Y-6350000D03*
X6350000Y-73660000D03*
X128270000Y-6350000D03*
X128270000Y-73660000D03*
%TD*%
D16*
%TO.N,GND*%
X2110200Y-24262800D03*
X34635700Y-48260000D03*
X4204800Y-11683400D03*
%TO.N,+5V*%
X35649800Y-45720000D03*
X1025600Y-13652100D03*
%TO.N,IO0*%
X1648300Y-15211300D03*
%TO.N,IO2*%
X30184500Y-31550900D03*
X30482900Y-33654600D03*
X35953700Y-43180000D03*
X3243500Y-16602800D03*
%TO.N,IO3*%
X3244200Y-19563700D03*
X46309400Y-45720000D03*
%TO.N,IO4*%
X45734400Y-47860000D03*
%TO.N,IO6*%
X2213000Y-22860000D03*
%TO.N,IO7*%
X14201400Y-9266100D03*
%TO.N,IOA1*%
X1102800Y-39236300D03*
%TO.N,IOA2*%
X2957500Y-40770200D03*
%TO.N,BWR*%
X1665300Y-33412900D03*
%TO.N,IDREQ*%
X15421900Y-44072000D03*
X-2279400Y-51034700D03*
%TO.N,BIORES*%
X317500Y-31192200D03*
%TO.N,GP0*%
X33025400Y-10783500D03*
%TO.N,GP1*%
X35446400Y-39886200D03*
X35898700Y-40709400D03*
%TO.N,GP2*%
X40559300Y-16429300D03*
%TO.N,GP3*%
X29999000Y-25246400D03*
X43309900Y-26750900D03*
X66605000Y-42667800D03*
%TO.N,GP4*%
X28472700Y-6534400D03*
X37265100Y-3965900D03*
%TO.N,GP5*%
X40785100Y-21461900D03*
X59266300Y-47266200D03*
%TO.N,GP6*%
X42646300Y-27853400D03*
%TO.N,GP7*%
X43615700Y-28184000D03*
%TO.N,GP14*%
X26462400Y-59557500D03*
%TO.N,DIN*%
X92047000Y-27700900D03*
%TO.N,VDDF*%
X116431600Y-13335000D03*
%TD*%
%TO.N,GND*%
D17*
X29210000Y-33020000D02*
X29672400Y-33020000D01*
X29672400Y-33020000D02*
X31750000Y-30942400D01*
X31750000Y-30942400D02*
X31750000Y-27940000D01*
X-3949700Y-24130000D02*
X72700Y-24130000D01*
X2110200Y-24262800D02*
X205500Y-24262800D01*
X205500Y-24262800D02*
X72700Y-24130000D01*
X31750000Y-43180000D02*
X34409800Y-45839800D01*
X34409800Y-45839800D02*
X34409800Y-48034100D01*
X34409800Y-48034100D02*
X34635700Y-48260000D01*
X31750000Y-43180000D02*
X30931700Y-42361700D01*
X30931700Y-42361700D02*
X30931600Y-42361700D01*
X30931600Y-42361700D02*
X30931600Y-42361600D01*
X30931600Y-42361600D02*
X24130000Y-35560000D01*
X31750000Y-53340000D02*
X32874900Y-52215100D01*
X32874900Y-52215100D02*
X32874900Y-49384900D01*
X32874900Y-49384900D02*
X31750000Y-48260000D01*
X31273800Y-57626200D02*
X31750000Y-57150000D01*
X31750000Y-57150000D02*
X31750000Y-55880000D01*
X29210000Y-59690000D02*
X31273800Y-57626200D01*
X31750000Y-77470000D02*
X30587700Y-76307700D01*
X30587700Y-76307700D02*
X30587700Y-71950300D01*
X30587700Y-71950300D02*
X31573900Y-70964100D01*
X31573900Y-70964100D02*
X32274200Y-70964100D01*
X32274200Y-70964100D02*
X32867800Y-70370500D01*
X32867800Y-70370500D02*
X32867800Y-59220300D01*
X32867800Y-59220300D02*
X31273800Y-57626200D01*
X58420000Y-58420000D02*
X54610000Y-54610000D01*
X54610000Y-54610000D02*
X54610000Y-49022000D01*
X92710000Y-47871600D02*
X92710000Y-49022000D01*
X92710000Y-31242000D02*
X92710000Y-47871600D01*
X92710000Y-47871600D02*
X102938500Y-47871600D01*
X102938500Y-47871600D02*
X104441000Y-49374100D01*
X104441000Y-49374100D02*
X109629900Y-49374100D01*
X109629900Y-49374100D02*
X110744000Y-48260000D01*
X-3949700Y-55880000D02*
X16510000Y-55880000D01*
X13970000Y-33020000D02*
X16510000Y-30480000D01*
X16510000Y-30480000D02*
X16510000Y-27940000D01*
X29210000Y-5080000D02*
X31750000Y-7620000D01*
X4204800Y-11683400D02*
X7366600Y-11683400D01*
X7366600Y-11683400D02*
X13970000Y-5080000D01*
X31750000Y-10160000D02*
X31750000Y-7620000D01*
X31750000Y-12700000D02*
X31750000Y-10160000D01*
X31750000Y-15240000D02*
X31750000Y-12700000D01*
X31750000Y-17780000D02*
X31750000Y-15240000D01*
X31750000Y-20320000D02*
X31750000Y-17780000D01*
X31750000Y-22860000D02*
X31750000Y-20320000D01*
X31750000Y-25400000D02*
X31750000Y-22860000D01*
X31750000Y-55880000D02*
X31750000Y-53340000D01*
X126492000Y-36830000D02*
X126492000Y-41727400D01*
X126492000Y-41727400D02*
X118833000Y-49386400D01*
X118833000Y-49386400D02*
X111870400Y-49386400D01*
X111870400Y-49386400D02*
X110744000Y-48260000D01*
X80010000Y-31242000D02*
X80010000Y-49022000D01*
X102870000Y-15240000D02*
X100330000Y-12700000D01*
X100330000Y-12700000D02*
X100330000Y-10160000D01*
X92710000Y-49022000D02*
X92710000Y-49530000D01*
X92710000Y-49530000D02*
X83820000Y-58420000D01*
X124968000Y-15748000D02*
X124968000Y-17174700D01*
X126492000Y-36830000D02*
X127673700Y-35648300D01*
X127673700Y-35648300D02*
X127673700Y-24705400D01*
X127673700Y-24705400D02*
X126218000Y-23249700D01*
X126218000Y-23249700D02*
X126218000Y-18424700D01*
X126218000Y-18424700D02*
X124968000Y-17174700D01*
X83820000Y-58420000D02*
X80010000Y-54610000D01*
X80010000Y-54610000D02*
X80010000Y-49022000D01*
%TO.N,+5V*%
X31750000Y-40640000D02*
X35649800Y-44539800D01*
X35649800Y-44539800D02*
X35649800Y-45720000D01*
X39370000Y-5080000D02*
X37325500Y-7124500D01*
X37325500Y-7124500D02*
X37325500Y-30975500D01*
X37325500Y-30975500D02*
X39370000Y-33020000D01*
X72700Y-14605000D02*
X1025600Y-13652100D01*
X31750000Y-45720000D02*
X30625400Y-46844600D01*
X30625400Y-46844600D02*
X30625400Y-50800000D01*
X31750000Y-72390000D02*
X37942600Y-66197400D01*
X37942600Y-66197400D02*
X37942600Y-61117400D01*
X37942600Y-61117400D02*
X39370000Y-59690000D01*
X31750000Y-40640000D02*
X31750000Y-38100000D01*
X30625400Y-50800000D02*
X31750000Y-50800000D01*
X29210000Y-57150000D02*
X29210000Y-52215400D01*
X29210000Y-52215400D02*
X30625400Y-50800000D01*
X-3949700Y-14605000D02*
X72700Y-14605000D01*
%TO.N,+3V3*%
X16510000Y-5080000D02*
X13066600Y-8523400D01*
X13066600Y-8523400D02*
X13066600Y-29576600D01*
X13066600Y-29576600D02*
X13970000Y-30480000D01*
X13970000Y-2540000D02*
X16510000Y-5080000D01*
%TO.N,IO0*%
X16510000Y-7620000D02*
X20187700Y-3942300D01*
X20187700Y-3942300D02*
X29676100Y-3942300D01*
X29676100Y-3942300D02*
X30635900Y-4902100D01*
X30635900Y-4902100D02*
X30635900Y-5611700D01*
X30635900Y-5611700D02*
X31374200Y-6350000D01*
X31374200Y-6350000D02*
X32118400Y-6350000D01*
X32118400Y-6350000D02*
X36506300Y-10737900D01*
X36506300Y-10737900D02*
X36506300Y-35236300D01*
X36506300Y-35236300D02*
X39370000Y-38100000D01*
X72700Y-17780000D02*
X72700Y-16786900D01*
X72700Y-16786900D02*
X1648300Y-15211300D01*
X-3949700Y-17780000D02*
X72700Y-17780000D01*
%TO.N,IO1*%
X39370000Y-12700000D02*
X37777300Y-14292700D01*
X37777300Y-14292700D02*
X37777300Y-29088900D01*
X37777300Y-29088900D02*
X40528300Y-31839900D01*
X40528300Y-31839900D02*
X40528300Y-39481700D01*
X40528300Y-39481700D02*
X39370000Y-40640000D01*
%TO.N,IO2*%
X30482900Y-33654600D02*
X31118600Y-34290300D01*
X31118600Y-34290300D02*
X32056000Y-34290300D01*
X32056000Y-34290300D02*
X33867700Y-36102000D01*
X33867700Y-36102000D02*
X33867700Y-41094000D01*
X33867700Y-41094000D02*
X35953700Y-43180000D01*
X30184500Y-31550900D02*
X30324100Y-31411300D01*
X30324100Y-31411300D02*
X30324100Y-29990000D01*
X30324100Y-29990000D02*
X24464100Y-24130000D01*
X24464100Y-24130000D02*
X23735400Y-24130000D01*
X23735400Y-24130000D02*
X17937400Y-18332000D01*
X17937400Y-18332000D02*
X17937400Y-14127400D01*
X17937400Y-14127400D02*
X16510000Y-12700000D01*
X72700Y-27305000D02*
X2896800Y-24480900D01*
X2896800Y-24480900D02*
X2896800Y-22372900D01*
X2896800Y-22372900D02*
X2523100Y-21999200D01*
X2523100Y-21999200D02*
X2523100Y-17323200D01*
X2523100Y-17323200D02*
X3243500Y-16602800D01*
X-3949700Y-27305000D02*
X72700Y-27305000D01*
%TO.N,IO3*%
X39370000Y-17780000D02*
X38238500Y-18911500D01*
X38238500Y-18911500D02*
X38238500Y-28905800D01*
X38238500Y-28905800D02*
X46309400Y-36976700D01*
X46309400Y-36976700D02*
X46309400Y-45720000D01*
X72700Y-30480000D02*
X3414700Y-27138000D01*
X3414700Y-27138000D02*
X3414700Y-19734200D01*
X3414700Y-19734200D02*
X3244200Y-19563700D01*
X-3949700Y-30480000D02*
X72700Y-30480000D01*
%TO.N,IO4*%
X39370000Y-20320000D02*
X39370000Y-21003700D01*
X39370000Y-21003700D02*
X40559300Y-22193000D01*
X40559300Y-22193000D02*
X40559300Y-28640100D01*
X40559300Y-28640100D02*
X47037800Y-35118600D01*
X47037800Y-35118600D02*
X47037800Y-46556600D01*
X47037800Y-46556600D02*
X45734400Y-47860000D01*
%TO.N,IO5*%
X16510000Y-20320000D02*
X22860000Y-26670000D01*
X22860000Y-26670000D02*
X24476700Y-26670000D01*
X24476700Y-26670000D02*
X27384600Y-29577900D01*
X27384600Y-29577900D02*
X27384600Y-32812900D01*
X27384600Y-32812900D02*
X31401700Y-36830000D01*
X31401700Y-36830000D02*
X32126200Y-36830000D01*
X32126200Y-36830000D02*
X32965800Y-37669600D01*
X32965800Y-37669600D02*
X32965800Y-41206700D01*
X32965800Y-41206700D02*
X37602700Y-45843600D01*
X37602700Y-45843600D02*
X37602700Y-49032700D01*
X37602700Y-49032700D02*
X39370000Y-50800000D01*
%TO.N,IO6*%
X-3949700Y-20955000D02*
X308000Y-20955000D01*
X308000Y-20955000D02*
X2213000Y-22860000D01*
X16510000Y-22860000D02*
X29349500Y-35699500D01*
X29349500Y-35699500D02*
X29349500Y-39885300D01*
X29349500Y-39885300D02*
X31374200Y-41910000D01*
X31374200Y-41910000D02*
X32119700Y-41910000D01*
X32119700Y-41910000D02*
X34861500Y-44651800D01*
X34861500Y-44651800D02*
X34861500Y-47304500D01*
X34861500Y-47304500D02*
X35312400Y-47755400D01*
X35312400Y-47755400D02*
X35312400Y-49282400D01*
X35312400Y-49282400D02*
X39370000Y-53340000D01*
%TO.N,IO7*%
X16510000Y-25400000D02*
X21829200Y-30719200D01*
X21829200Y-30719200D02*
X21829200Y-34900600D01*
X21829200Y-34900600D02*
X23758600Y-36830000D01*
X23758600Y-36830000D02*
X24441200Y-36830000D01*
X24441200Y-36830000D02*
X29706100Y-42094900D01*
X29706100Y-42094900D02*
X29706100Y-42713300D01*
X29706100Y-42713300D02*
X31442800Y-44450000D01*
X31442800Y-44450000D02*
X32062100Y-44450000D01*
X32062100Y-44450000D02*
X33958100Y-46346000D01*
X33958100Y-46346000D02*
X33958100Y-50468100D01*
X33958100Y-50468100D02*
X39370000Y-55880000D01*
X16510000Y-25400000D02*
X14201400Y-23091400D01*
X14201400Y-23091400D02*
X14201400Y-9266100D01*
%TO.N,IOA0*%
X16510000Y-35560000D02*
X22617600Y-41667600D01*
X22617600Y-41667600D02*
X22617600Y-45791300D01*
X22617600Y-45791300D02*
X23816300Y-46990000D01*
X23816300Y-46990000D02*
X24440300Y-46990000D01*
X24440300Y-46990000D02*
X28049400Y-50599100D01*
X28049400Y-50599100D02*
X28049400Y-60159100D01*
X28049400Y-60159100D02*
X29379400Y-61489100D01*
X29379400Y-61489100D02*
X29950900Y-61489100D01*
X29950900Y-61489100D02*
X31750000Y-59690000D01*
%TO.N,IOA1*%
X16510000Y-38100000D02*
X20265000Y-41855000D01*
X20265000Y-41855000D02*
X20265000Y-46032800D01*
X20265000Y-46032800D02*
X23762200Y-49530000D01*
X23762200Y-49530000D02*
X24435700Y-49530000D01*
X24435700Y-49530000D02*
X27597700Y-52692000D01*
X27597700Y-52692000D02*
X27597700Y-60346200D01*
X27597700Y-60346200D02*
X29192300Y-61940800D01*
X29192300Y-61940800D02*
X31460800Y-61940800D01*
X31460800Y-61940800D02*
X31750000Y-62230000D01*
X72700Y-40005000D02*
X72700Y-40004900D01*
X72700Y-40004900D02*
X334200Y-40004900D01*
X334200Y-40004900D02*
X1102800Y-39236300D01*
X-3949700Y-40005000D02*
X72700Y-40005000D01*
%TO.N,IOA2*%
X72700Y-43180000D02*
X547700Y-43180000D01*
X547700Y-43180000D02*
X2957500Y-40770200D01*
X16510000Y-40640000D02*
X17937400Y-42067400D01*
X17937400Y-42067400D02*
X17937400Y-46188800D01*
X17937400Y-46188800D02*
X23818600Y-52070000D01*
X23818600Y-52070000D02*
X24437700Y-52070000D01*
X24437700Y-52070000D02*
X27146000Y-54778300D01*
X27146000Y-54778300D02*
X27146000Y-60533300D01*
X27146000Y-60533300D02*
X31382700Y-64770000D01*
X31382700Y-64770000D02*
X31750000Y-64770000D01*
X-3949700Y-43180000D02*
X72700Y-43180000D01*
%TO.N,SEL*%
X16510000Y-45720000D02*
X16074600Y-45720000D01*
X16074600Y-45720000D02*
X3923300Y-33568700D01*
X3923300Y-33568700D02*
X3923300Y-15280600D01*
X3923300Y-15280600D02*
X72700Y-11430000D01*
X-3949700Y-11430000D02*
X72700Y-11430000D01*
X16510000Y-45720000D02*
X20320100Y-49530100D01*
X20320100Y-49530100D02*
X20320100Y-55880100D01*
X20320100Y-55880100D02*
X31750000Y-67310000D01*
%TO.N,BWR*%
X16510000Y-48260000D02*
X1665300Y-33415300D01*
X1665300Y-33415300D02*
X1665300Y-33412900D01*
%TO.N,BRD*%
X-3949700Y-36830000D02*
X-346300Y-36830000D01*
X-346300Y-36830000D02*
X1451700Y-38628000D01*
X1451700Y-38628000D02*
X1798000Y-38628000D01*
X1798000Y-38628000D02*
X4933200Y-41763200D01*
X4933200Y-41763200D02*
X4933200Y-43338800D01*
X4933200Y-43338800D02*
X16204400Y-54610000D01*
X16204400Y-54610000D02*
X16824900Y-54610000D01*
X16824900Y-54610000D02*
X31750000Y-69535100D01*
X31750000Y-69535100D02*
X31750000Y-69850000D01*
%TO.N,IDREQ*%
X31750000Y-5080000D02*
X31750000Y-3499100D01*
X31750000Y-3499100D02*
X29647500Y-1396600D01*
X29647500Y-1396600D02*
X21824900Y-1396600D01*
X21824900Y-1396600D02*
X17027400Y-6194100D01*
X17027400Y-6194100D02*
X16280000Y-6194100D01*
X16280000Y-6194100D02*
X13518300Y-8955800D01*
X13518300Y-8955800D02*
X13518300Y-25148000D01*
X13518300Y-25148000D02*
X15113200Y-26742900D01*
X15113200Y-26742900D02*
X15113200Y-30972200D01*
X15113200Y-30972200D02*
X14491300Y-31594100D01*
X14491300Y-31594100D02*
X13785400Y-31594100D01*
X13785400Y-31594100D02*
X12848600Y-32530900D01*
X12848600Y-32530900D02*
X12848600Y-41498700D01*
X12848600Y-41498700D02*
X15421900Y-44072000D01*
X-2279400Y-51034700D02*
X-3949700Y-52705000D01*
%TO.N,BIORES*%
X16510000Y-50800000D02*
X15082600Y-49372600D01*
X15082600Y-49372600D02*
X15082600Y-47787400D01*
X15082600Y-47787400D02*
X317500Y-33022300D01*
X317500Y-33022300D02*
X317500Y-31192200D01*
%TO.N,MHZ8*%
X16510000Y-53340000D02*
X16510000Y-52701200D01*
X16510000Y-52701200D02*
X72700Y-36263900D01*
X72700Y-36263900D02*
X72700Y-33655000D01*
X-3949700Y-33655000D02*
X72700Y-33655000D01*
%TO.N,GP0*%
X33025400Y-10783500D02*
X36054600Y-13812700D01*
X36054600Y-13812700D02*
X36054600Y-38980400D01*
X36054600Y-38980400D02*
X38984200Y-41910000D01*
X38984200Y-41910000D02*
X39716600Y-41910000D01*
X39716600Y-41910000D02*
X44326500Y-46519900D01*
X44326500Y-46519900D02*
X44326500Y-47413400D01*
X44326500Y-47413400D02*
X45935100Y-49022000D01*
X45935100Y-49022000D02*
X49530000Y-49022000D01*
%TO.N,GP1*%
X24130000Y-12700000D02*
X22519300Y-14310700D01*
X22519300Y-14310700D02*
X22519300Y-20333100D01*
X22519300Y-20333100D02*
X23776200Y-21590000D01*
X23776200Y-21590000D02*
X25361400Y-21590000D01*
X25361400Y-21590000D02*
X30441400Y-26670000D01*
X30441400Y-26670000D02*
X32123000Y-26670000D01*
X32123000Y-26670000D02*
X35446400Y-29993400D01*
X35446400Y-29993400D02*
X35446400Y-39886200D01*
X35898700Y-40709400D02*
X35898700Y-41317700D01*
X35898700Y-41317700D02*
X38875100Y-44294100D01*
X38875100Y-44294100D02*
X39654500Y-44294100D01*
X39654500Y-44294100D02*
X45517300Y-50156900D01*
X45517300Y-50156900D02*
X50935100Y-50156900D01*
X50935100Y-50156900D02*
X52070000Y-49022000D01*
%TO.N,GP2*%
X40559300Y-16429300D02*
X41462700Y-17332700D01*
X41462700Y-17332700D02*
X41462700Y-28265900D01*
X41462700Y-28265900D02*
X60812500Y-47615700D01*
X60812500Y-47615700D02*
X60812500Y-49510500D01*
X60812500Y-49510500D02*
X60185100Y-50137900D01*
X60185100Y-50137900D02*
X58265900Y-50137900D01*
X58265900Y-50137900D02*
X57150000Y-49022000D01*
%TO.N,GP3*%
X24130000Y-17780000D02*
X29999000Y-23649000D01*
X29999000Y-23649000D02*
X29999000Y-25246400D01*
X66605000Y-42667800D02*
X56475300Y-32538100D01*
X56475300Y-32538100D02*
X49097100Y-32538100D01*
X49097100Y-32538100D02*
X43309900Y-26750900D01*
%TO.N,GP4*%
X62230000Y-49022000D02*
X62230000Y-48281900D01*
X62230000Y-48281900D02*
X60925100Y-46977000D01*
X60925100Y-46977000D02*
X60812600Y-46977000D01*
X60812600Y-46977000D02*
X41914400Y-28078800D01*
X41914400Y-28078800D02*
X41914400Y-6032600D01*
X41914400Y-6032600D02*
X39847700Y-3965900D01*
X39847700Y-3965900D02*
X37265100Y-3965900D01*
X28472700Y-6534400D02*
X28472700Y-12473000D01*
X28472700Y-12473000D02*
X24435700Y-16510000D01*
X24435700Y-16510000D02*
X23794800Y-16510000D01*
X23794800Y-16510000D02*
X22971000Y-17333800D01*
X22971000Y-17333800D02*
X22971000Y-19161000D01*
X22971000Y-19161000D02*
X24130000Y-20320000D01*
%TO.N,GP5*%
X40785100Y-21461900D02*
X41011000Y-21687800D01*
X41011000Y-21687800D02*
X41011000Y-28453000D01*
X41011000Y-28453000D02*
X49346100Y-36788100D01*
X49346100Y-36788100D02*
X49346100Y-37346000D01*
X49346100Y-37346000D02*
X59266300Y-47266200D01*
%TO.N,GP6*%
X69850000Y-49022000D02*
X56287600Y-35459600D01*
X56287600Y-35459600D02*
X49934100Y-35459600D01*
X49934100Y-35459600D02*
X42646300Y-28171800D01*
X42646300Y-28171800D02*
X42646300Y-27853400D01*
%TO.N,GP7*%
X72390000Y-49022000D02*
X72002300Y-49022000D01*
X72002300Y-49022000D02*
X57261400Y-34281100D01*
X57261400Y-34281100D02*
X49712800Y-34281100D01*
X49712800Y-34281100D02*
X43615700Y-28184000D01*
%TO.N,GP14*%
X24130000Y-53340000D02*
X26462400Y-55672400D01*
X26462400Y-55672400D02*
X26462400Y-59557500D01*
%TO.N,RD3*%
X39370000Y-69850000D02*
X40487100Y-68732900D01*
X40487100Y-68732900D02*
X40487100Y-47757500D01*
X40487100Y-47757500D02*
X39719600Y-46990000D01*
X39719600Y-46990000D02*
X39005000Y-46990000D01*
X39005000Y-46990000D02*
X38199900Y-46184900D01*
X38199900Y-46184900D02*
X38199900Y-44456200D01*
X38199900Y-44456200D02*
X34769700Y-41026000D01*
X34769700Y-41026000D02*
X34769700Y-36039700D01*
X34769700Y-36039700D02*
X31750000Y-33020000D01*
%TO.N,BCK*%
X90170000Y-31242000D02*
X90170000Y-16194500D01*
X90170000Y-16194500D02*
X99864800Y-6499700D01*
X99864800Y-6499700D02*
X101749700Y-6499700D01*
X101749700Y-6499700D02*
X102870000Y-7620000D01*
%TO.N,WS*%
X87630000Y-31242000D02*
X88762200Y-32374200D01*
X88762200Y-32374200D02*
X90636700Y-32374200D01*
X90636700Y-32374200D02*
X91440000Y-31570900D01*
X91440000Y-31570900D02*
X91440000Y-29321600D01*
X91440000Y-29321600D02*
X104453200Y-16308400D01*
X104453200Y-16308400D02*
X104453200Y-11743200D01*
X104453200Y-11743200D02*
X102870000Y-10160000D01*
%TO.N,DIN*%
X92047000Y-27700900D02*
X103996300Y-15751600D01*
X103996300Y-15751600D02*
X103996300Y-13826300D01*
X103996300Y-13826300D02*
X102870000Y-12700000D01*
%TO.N,LCH*%
X106680000Y-25400000D02*
X108361500Y-23718500D01*
X108361500Y-23718500D02*
X108361500Y-21343900D01*
X108361500Y-21343900D02*
X109385400Y-20320000D01*
X109385400Y-20320000D02*
X110055300Y-20320000D01*
X110055300Y-20320000D02*
X111621100Y-18754200D01*
X111621100Y-18754200D02*
X111621100Y-13831100D01*
X111621100Y-13831100D02*
X110490000Y-12700000D01*
%TO.N,RCH*%
X109728000Y-25400000D02*
X109728000Y-23864700D01*
X109728000Y-23864700D02*
X121431300Y-12161400D01*
X121431300Y-12161400D02*
X121431300Y-10328800D01*
X121431300Y-10328800D02*
X118722500Y-7620000D01*
X118722500Y-7620000D02*
X110490000Y-7620000D01*
%TO.N,AOL_C*%
X114808000Y-43101700D02*
X106680000Y-34973700D01*
X106680000Y-34973700D02*
X106680000Y-27940000D01*
X114808000Y-48260000D02*
X114808000Y-43101700D01*
X118364000Y-40640000D02*
X115902300Y-43101700D01*
X115902300Y-43101700D02*
X114808000Y-43101700D01*
X119968000Y-10748000D02*
X119968000Y-12977000D01*
X119968000Y-12977000D02*
X108107400Y-24837600D01*
X108107400Y-24837600D02*
X108107400Y-26512600D01*
X108107400Y-26512600D02*
X106680000Y-27940000D01*
%TO.N,AOR_C*%
X119968000Y-20748000D02*
X118541300Y-20748000D01*
X118541300Y-20748000D02*
X111349300Y-27940000D01*
X111349300Y-27940000D02*
X109728000Y-27940000D01*
%TO.N,VDDF*%
X108845000Y-12748200D02*
X110019300Y-11573900D01*
X110019300Y-11573900D02*
X114670500Y-11573900D01*
X114670500Y-11573900D02*
X116431600Y-13335000D01*
X108845000Y-12748200D02*
X108845000Y-13595000D01*
X108845000Y-13595000D02*
X110490000Y-15240000D01*
X100330000Y-7620000D02*
X101600000Y-8890000D01*
X101600000Y-8890000D02*
X104986800Y-8890000D01*
X104986800Y-8890000D02*
X108845000Y-12748200D01*
X106680000Y-21590000D02*
X109220000Y-19050000D01*
X109220000Y-19050000D02*
X109728000Y-19050000D01*
X109728000Y-19050000D02*
X110490000Y-18288000D01*
X110490000Y-18288000D02*
X110490000Y-15240000D01*
%TO.N,J2SIG*%
X126492000Y-34290000D02*
X118364000Y-42418000D01*
X118364000Y-42418000D02*
X118364000Y-48260000D01*
%TO.N,PWMF*%
X110744000Y-40640000D02*
X106680000Y-44704000D01*
X106680000Y-44704000D02*
X106680000Y-48260000D01*
%TD*%
M02*
