M48
; DRILL file KiCad 10.0.6 date 2026-08-30T22:13:08
; FORMAT={-:-/ absolute / metric / decimal}
; #@! TF.CreationDate,2026-08-30T22:13:08-04:00
; #@! TF.GenerationSoftware,Kicad,Pcbnew,10.0.6
; #@! TF.FileFunction,MixedPlating,1,2
FMAT,2
METRIC
; #@! TA.AperFunction,Plated,PTH,ViaDrill
T1C0.300
; #@! TA.AperFunction,Plated,PTH,ComponentDrill
T2C0.800
; #@! TA.AperFunction,Plated,PTH,ComponentDrill
T3C1.000
; #@! TA.AperFunction,Plated,PTH,ComponentDrill
T4C1.100
; #@! TA.AperFunction,NonPlated,NPTH,ComponentDrill
T5C3.200
%
G90
G05
T1
X-3.262Y-57.54
X0.396Y-29.39
X0.566Y-30.973
X1.005Y-44.112
X1.016Y-25.383
X1.144Y-13.534
X1.235Y-39.105
X1.649Y-15.212
X1.664Y-33.413
X3.071Y-13.935
X3.204Y-21.758
X3.967Y-44.789
X4.205Y-11.683
X5.049Y-36.623
X5.312Y-28.713
X10.38Y-25.383
X12.549Y-25.403
X13.175Y-44.789
X14.782Y-21.758
X22.586Y-28.92
X25.238Y-58.28
X27.637Y-41.841
X30.296Y-60.575
X30.859Y-30.898
X33.661Y-37.652
X34.541Y-48.031
X36.253Y-29.912
X40.282Y-30.437
X41.186Y-8.778
X41.41Y-19.08
X41.919Y-32.39
X42.991Y-21.444
X46.832Y-53.34
X51.631Y-29.223
X63.146Y-63.346
T2
X13.97Y-2.54
X13.97Y-5.08
X13.97Y-30.48
X13.97Y-33.02
X16.51Y-5.08
X16.51Y-7.62
X16.51Y-10.16
X16.51Y-12.7
X16.51Y-15.24
X16.51Y-17.78
X16.51Y-20.32
X16.51Y-22.86
X16.51Y-25.4
X16.51Y-27.94
X16.51Y-33.02
X16.51Y-35.56
X16.51Y-38.1
X16.51Y-40.64
X16.51Y-43.18
X16.51Y-45.72
X16.51Y-48.26
X16.51Y-50.8
X16.51Y-53.34
X16.51Y-55.88
X24.13Y-5.08
X24.13Y-7.62
X24.13Y-10.16
X24.13Y-12.7
X24.13Y-15.24
X24.13Y-17.78
X24.13Y-20.32
X24.13Y-22.86
X24.13Y-25.4
X24.13Y-27.94
X24.13Y-33.02
X24.13Y-35.56
X24.13Y-38.1
X24.13Y-40.64
X24.13Y-43.18
X24.13Y-45.72
X24.13Y-48.26
X24.13Y-50.8
X24.13Y-53.34
X24.13Y-55.88
X29.21Y-2.54
X29.21Y-5.08
X29.21Y-30.48
X29.21Y-33.02
X29.21Y-57.15
X29.21Y-59.69
X31.75Y-5.08
X31.75Y-7.62
X31.75Y-10.16
X31.75Y-12.7
X31.75Y-15.24
X31.75Y-17.78
X31.75Y-20.32
X31.75Y-22.86
X31.75Y-25.4
X31.75Y-27.94
X31.75Y-33.02
X31.75Y-35.56
X31.75Y-38.1
X31.75Y-40.64
X31.75Y-43.18
X31.75Y-45.72
X31.75Y-48.26
X31.75Y-50.8
X31.75Y-53.34
X31.75Y-55.88
X31.75Y-59.69
X31.75Y-62.23
X31.75Y-64.77
X31.75Y-67.31
X31.75Y-69.85
X31.75Y-72.39
X31.75Y-74.93
X31.75Y-77.47
X39.37Y-5.08
X39.37Y-7.62
X39.37Y-10.16
X39.37Y-12.7
X39.37Y-15.24
X39.37Y-17.78
X39.37Y-20.32
X39.37Y-22.86
X39.37Y-25.4
X39.37Y-27.94
X39.37Y-33.02
X39.37Y-35.56
X39.37Y-38.1
X39.37Y-40.64
X39.37Y-43.18
X39.37Y-45.72
X39.37Y-48.26
X39.37Y-50.8
X39.37Y-53.34
X39.37Y-55.88
X39.37Y-59.69
X39.37Y-62.23
X39.37Y-64.77
X39.37Y-67.31
X39.37Y-69.85
X39.37Y-72.39
X39.37Y-74.93
X39.37Y-77.47
X49.53Y-31.242
X49.53Y-49.022
X52.07Y-31.242
X52.07Y-49.022
X54.61Y-31.242
X54.61Y-49.022
X57.15Y-31.242
X57.15Y-49.022
X58.42Y-55.88
X58.42Y-58.42
X59.69Y-31.242
X59.69Y-49.022
X62.23Y-31.242
X62.23Y-49.022
X64.77Y-31.242
X64.77Y-49.022
X67.31Y-31.242
X67.31Y-49.022
X69.85Y-31.242
X69.85Y-49.022
X72.39Y-31.242
X72.39Y-49.022
X74.93Y-31.242
X74.93Y-49.022
X77.47Y-31.242
X77.47Y-49.022
X80.01Y-31.242
X80.01Y-49.022
X82.55Y-31.242
X82.55Y-49.022
X83.82Y-55.88
X83.82Y-58.42
X85.09Y-31.242
X85.09Y-49.022
X87.63Y-31.242
X87.63Y-49.022
X90.17Y-31.242
X90.17Y-49.022
X92.71Y-31.242
X92.71Y-49.022
X95.25Y-31.242
X95.25Y-49.022
X97.79Y-31.242
X97.79Y-49.022
X100.33Y-7.62
X100.33Y-10.16
X100.33Y-37.592
X100.33Y-40.132
X100.33Y-42.672
X102.87Y-7.62
X102.87Y-10.16
X102.87Y-12.7
X102.87Y-15.24
X106.68Y-40.64
X106.68Y-48.26
X109.22Y-19.05
X109.22Y-26.67
X110.49Y-7.62
X110.49Y-10.16
X110.49Y-12.7
X110.49Y-15.24
X110.744Y-40.64
X110.744Y-48.26
X113.03Y-19.05
X113.03Y-26.67
X114.808Y-40.64
X114.808Y-48.26
X117.348Y-19.05
X117.348Y-26.67
T3
X125.73Y-34.29
X125.73Y-36.83
X125.73Y-60.96
X125.73Y-63.5
X125.73Y-66.04
T4
X120.65Y-7.62
X120.65Y-11.43
X120.65Y-15.24
T5
X6.35Y-6.35
X6.35Y-73.66
X128.27Y-6.35
X128.27Y-73.66
M30
