%TF.GenerationSoftware,KiCad,Pcbnew,10.0.6*%
%TF.CreationDate,2026-08-31T06:27:26-04:00*%
%TF.ProjectId,card_routed,63617264-5f72-46f7-9574-65642e6b6963,rev?*%
%TF.SameCoordinates,Original*%
%TF.FileFunction,Soldermask,Bot*%
%TF.FilePolarity,Negative*%
%FSLAX46Y46*%
G04 Gerber Fmt 4.6, Leading zero omitted, Abs format (unit mm)*
G04 Created by KiCad (PCBNEW 10.0.6) date 2026-08-31 06:27:26*
%MOMM*%
%LPD*%
G01*
G04 APERTURE LIST*
G04 Aperture macros list*
%AMRoundRect*
0 Rectangle with rounded corners*
0 $1 Rounding radius*
0 $2 $3 $4 $5 $6 $7 $8 $9 X,Y pos of 4 corners*
0 Add a 4 corners polygon primitive as box body*
4,1,4,$2,$3,$4,$5,$6,$7,$8,$9,$2,$3,0*
0 Add four circle primitives for the rounded corners*
1,1,$1+$1,$2,$3*
1,1,$1+$1,$4,$5*
1,1,$1+$1,$6,$7*
1,1,$1+$1,$8,$9*
0 Add four rect primitives between the rounded corners*
20,1,$1+$1,$2,$3,$4,$5,0*
20,1,$1+$1,$4,$5,$6,$7,0*
20,1,$1+$1,$6,$7,$8,$9,0*
20,1,$1+$1,$8,$9,$2,$3,0*%
G04 Aperture macros list end*
%ADD10RoundRect,0.050000X-3.695700X-1.099800X3.695700X-1.099800X3.695700X1.099800X-3.695700X1.099800X0*%
%ADD11C,1.674800*%
%ADD12C,1.801800*%
%ADD13C,3.910000*%
G04 APERTURE END LIST*
D10*
%TO.C,*%
X-3949700Y-55880000D03*
X-3949700Y-52705000D03*
X-3949700Y-43180000D03*
X-3949700Y-40005000D03*
X-3949700Y-36830000D03*
X-3949700Y-33655000D03*
X-3949700Y-30480000D03*
X-3949700Y-27305000D03*
X-3949700Y-24130000D03*
X-3949700Y-20955000D03*
X-3949700Y-17780000D03*
X-3949700Y-14605000D03*
X-3949700Y-11430000D03*
D11*
X16510000Y-5080000D03*
X24130000Y-5080000D03*
X16510000Y-7620000D03*
X24130000Y-7620000D03*
X16510000Y-10160000D03*
X24130000Y-10160000D03*
X16510000Y-12700000D03*
X24130000Y-12700000D03*
X16510000Y-15240000D03*
X24130000Y-15240000D03*
X16510000Y-17780000D03*
X24130000Y-17780000D03*
X16510000Y-20320000D03*
X24130000Y-20320000D03*
X16510000Y-22860000D03*
X24130000Y-22860000D03*
X16510000Y-25400000D03*
X24130000Y-25400000D03*
X16510000Y-27940000D03*
X24130000Y-27940000D03*
X16510000Y-33020000D03*
X24130000Y-33020000D03*
X16510000Y-35560000D03*
X24130000Y-35560000D03*
X16510000Y-38100000D03*
X24130000Y-38100000D03*
X16510000Y-40640000D03*
X24130000Y-40640000D03*
X16510000Y-43180000D03*
X24130000Y-43180000D03*
X16510000Y-45720000D03*
X24130000Y-45720000D03*
X16510000Y-48260000D03*
X24130000Y-48260000D03*
X16510000Y-50800000D03*
X24130000Y-50800000D03*
X16510000Y-53340000D03*
X24130000Y-53340000D03*
X16510000Y-55880000D03*
X24130000Y-55880000D03*
X31750000Y-5080000D03*
X39370000Y-5080000D03*
X31750000Y-7620000D03*
X39370000Y-7620000D03*
X31750000Y-10160000D03*
X39370000Y-10160000D03*
X31750000Y-12700000D03*
X39370000Y-12700000D03*
X31750000Y-15240000D03*
X39370000Y-15240000D03*
X31750000Y-17780000D03*
X39370000Y-17780000D03*
X31750000Y-20320000D03*
X39370000Y-20320000D03*
X31750000Y-22860000D03*
X39370000Y-22860000D03*
X31750000Y-25400000D03*
X39370000Y-25400000D03*
X31750000Y-27940000D03*
X39370000Y-27940000D03*
X31750000Y-33020000D03*
X39370000Y-33020000D03*
X31750000Y-35560000D03*
X39370000Y-35560000D03*
X31750000Y-38100000D03*
X39370000Y-38100000D03*
X31750000Y-40640000D03*
X39370000Y-40640000D03*
X31750000Y-43180000D03*
X39370000Y-43180000D03*
X31750000Y-45720000D03*
X39370000Y-45720000D03*
X31750000Y-48260000D03*
X39370000Y-48260000D03*
X31750000Y-50800000D03*
X39370000Y-50800000D03*
X31750000Y-53340000D03*
X39370000Y-53340000D03*
X31750000Y-55880000D03*
X39370000Y-55880000D03*
X31750000Y-59690000D03*
X39370000Y-59690000D03*
X31750000Y-62230000D03*
X39370000Y-62230000D03*
X31750000Y-64770000D03*
X39370000Y-64770000D03*
X31750000Y-67310000D03*
X39370000Y-67310000D03*
X31750000Y-69850000D03*
X39370000Y-69850000D03*
X31750000Y-72390000D03*
X39370000Y-72390000D03*
X31750000Y-74930000D03*
X39370000Y-74930000D03*
X31750000Y-77470000D03*
X39370000Y-77470000D03*
X102870000Y-7620000D03*
X110490000Y-7620000D03*
X102870000Y-10160000D03*
X110490000Y-10160000D03*
X102870000Y-12700000D03*
X110490000Y-12700000D03*
X102870000Y-15240000D03*
X110490000Y-15240000D03*
X49530000Y-49022000D03*
X49530000Y-31242000D03*
X52070000Y-49022000D03*
X52070000Y-31242000D03*
X54610000Y-49022000D03*
X54610000Y-31242000D03*
X57150000Y-49022000D03*
X57150000Y-31242000D03*
X59690000Y-49022000D03*
X59690000Y-31242000D03*
X62230000Y-49022000D03*
X62230000Y-31242000D03*
X64770000Y-49022000D03*
X64770000Y-31242000D03*
X67310000Y-49022000D03*
X67310000Y-31242000D03*
X69850000Y-49022000D03*
X69850000Y-31242000D03*
X72390000Y-49022000D03*
X72390000Y-31242000D03*
X74930000Y-49022000D03*
X74930000Y-31242000D03*
X77470000Y-49022000D03*
X77470000Y-31242000D03*
X80010000Y-49022000D03*
X80010000Y-31242000D03*
X82550000Y-49022000D03*
X82550000Y-31242000D03*
X85090000Y-49022000D03*
X85090000Y-31242000D03*
X87630000Y-49022000D03*
X87630000Y-31242000D03*
X90170000Y-49022000D03*
X90170000Y-31242000D03*
X92710000Y-49022000D03*
X92710000Y-31242000D03*
X95250000Y-49022000D03*
X95250000Y-31242000D03*
X97790000Y-49022000D03*
X97790000Y-31242000D03*
X109220000Y-19050000D03*
X109220000Y-26670000D03*
X113030000Y-19050000D03*
X113030000Y-26670000D03*
X117348000Y-19050000D03*
X117348000Y-26670000D03*
X106680000Y-40640000D03*
X106680000Y-48260000D03*
X110744000Y-40640000D03*
X110744000Y-48260000D03*
X114808000Y-40640000D03*
X114808000Y-48260000D03*
D12*
X121920000Y-7620000D03*
X121920000Y-10160000D03*
X121920000Y-12700000D03*
X125730000Y-34290000D03*
X125730000Y-36830000D03*
D11*
X13970000Y-2540000D03*
X13970000Y-5080000D03*
X13970000Y-30480000D03*
X13970000Y-33020000D03*
X29210000Y-2540000D03*
X29210000Y-5080000D03*
X29210000Y-30480000D03*
X29210000Y-33020000D03*
X29210000Y-57150000D03*
X29210000Y-59690000D03*
X100330000Y-7620000D03*
X100330000Y-10160000D03*
X58420000Y-55880000D03*
X58420000Y-58420000D03*
X83820000Y-55880000D03*
X83820000Y-58420000D03*
D13*
X6350000Y-6350000D03*
X6350000Y-73660000D03*
X128270000Y-6350000D03*
X128270000Y-73660000D03*
%TD*%
M02*
