%TF.GenerationSoftware,KiCad,Pcbnew,10.0.6*%
%TF.CreationDate,2026-08-31T06:21:16-04:00*%
%TF.ProjectId,card_routed,63617264-5f72-46f7-9574-65642e6b6963,rev?*%
%TF.SameCoordinates,Original*%
%TF.FileFunction,Copper,L2,Bot*%
%TF.FilePolarity,Positive*%
%FSLAX46Y46*%
G04 Gerber Fmt 4.6, Leading zero omitted, Abs format (unit mm)*
G04 Created by KiCad (PCBNEW 10.0.6) date 2026-08-31 06:21:16*
%MOMM*%
%LPD*%
G01*
G04 APERTURE LIST*
%TA.AperFunction,SMDPad,CuDef*%
%ADD10R,7.391400X2.199600*%
%TD*%
%TA.AperFunction,ComponentPad*%
%ADD11C,1.574800*%
%TD*%
%TA.AperFunction,ComponentPad*%
%ADD12C,1.701800*%
%TD*%
%TA.AperFunction,WasherPad*%
%ADD13C,3.810000*%
%TD*%
%TA.AperFunction,ViaPad*%
%ADD14C,0.600000*%
%TD*%
%TA.AperFunction,Conductor*%
%ADD15C,0.250000*%
%TD*%
G04 APERTURE END LIST*
D10*
%TO.P,,1*%
%TO.N,GND*%
X-3949700Y-55880000D03*
%TO.P,,3*%
%TO.N,IDREQ*%
X-3949700Y-52705000D03*
%TO.P,,5*%
%TO.N,IOA2*%
X-3949700Y-43180000D03*
%TO.P,,7*%
%TO.N,IOA1*%
X-3949700Y-40005000D03*
%TO.P,,9*%
%TO.N,BRD*%
X-3949700Y-36830000D03*
%TO.P,,11*%
%TO.N,MHZ8*%
X-3949700Y-33655000D03*
%TO.P,,13*%
%TO.N,IO3*%
X-3949700Y-30480000D03*
%TO.P,,15*%
%TO.N,IO2*%
X-3949700Y-27305000D03*
%TO.P,,17*%
%TO.N,GND*%
X-3949700Y-24130000D03*
%TO.P,,19*%
%TO.N,IO6*%
X-3949700Y-20955000D03*
%TO.P,,20*%
%TO.N,IO0*%
X-3949700Y-17780000D03*
%TO.P,,22*%
%TO.N,+5V*%
X-3949700Y-14605000D03*
%TO.P,,24*%
%TO.N,SEL*%
X-3949700Y-11430000D03*
D11*
%TO.P,,25*%
%TO.N,+3V3*%
X16510000Y-5080000D03*
%TO.P,,26*%
X24130000Y-5080000D03*
%TO.P,,27*%
%TO.N,IO0*%
X16510000Y-7620000D03*
%TO.P,,28*%
%TO.N,GND*%
X24130000Y-7620000D03*
%TO.P,,29*%
%TO.N,IO1*%
X16510000Y-10160000D03*
%TO.P,,30*%
%TO.N,GP0*%
X24130000Y-10160000D03*
%TO.P,,31*%
%TO.N,IO2*%
X16510000Y-12700000D03*
%TO.P,,32*%
%TO.N,GP1*%
X24130000Y-12700000D03*
%TO.P,,33*%
%TO.N,IO3*%
X16510000Y-15240000D03*
%TO.P,,34*%
%TO.N,GP2*%
X24130000Y-15240000D03*
%TO.P,,35*%
%TO.N,IO4*%
X16510000Y-17780000D03*
%TO.P,,36*%
%TO.N,GP3*%
X24130000Y-17780000D03*
%TO.P,,37*%
%TO.N,IO5*%
X16510000Y-20320000D03*
%TO.P,,38*%
%TO.N,GP4*%
X24130000Y-20320000D03*
%TO.P,,39*%
%TO.N,IO6*%
X16510000Y-22860000D03*
%TO.P,,40*%
%TO.N,GP5*%
X24130000Y-22860000D03*
%TO.P,,41*%
%TO.N,IO7*%
X16510000Y-25400000D03*
%TO.P,,42*%
%TO.N,GP6*%
X24130000Y-25400000D03*
%TO.P,,43*%
%TO.N,GND*%
X16510000Y-27940000D03*
%TO.P,,44*%
%TO.N,GP7*%
X24130000Y-27940000D03*
%TO.P,,45*%
%TO.N,+3V3*%
X16510000Y-33020000D03*
%TO.P,,46*%
X24130000Y-33020000D03*
%TO.P,,47*%
%TO.N,IOA0*%
X16510000Y-35560000D03*
%TO.P,,48*%
%TO.N,GND*%
X24130000Y-35560000D03*
%TO.P,,49*%
%TO.N,IOA1*%
X16510000Y-38100000D03*
%TO.P,,50*%
%TO.N,GP8*%
X24130000Y-38100000D03*
%TO.P,,51*%
%TO.N,IOA2*%
X16510000Y-40640000D03*
%TO.P,,52*%
%TO.N,GP9*%
X24130000Y-40640000D03*
%TO.P,,53*%
%TO.N,IOA3*%
X16510000Y-43180000D03*
%TO.P,,54*%
%TO.N,GP10*%
X24130000Y-43180000D03*
%TO.P,,55*%
%TO.N,SEL*%
X16510000Y-45720000D03*
%TO.P,,56*%
%TO.N,GP11*%
X24130000Y-45720000D03*
%TO.P,,57*%
%TO.N,BWR*%
X16510000Y-48260000D03*
%TO.P,,58*%
%TO.N,GP12*%
X24130000Y-48260000D03*
%TO.P,,59*%
%TO.N,BIORES*%
X16510000Y-50800000D03*
%TO.P,,60*%
%TO.N,GP13*%
X24130000Y-50800000D03*
%TO.P,,61*%
%TO.N,MHZ8*%
X16510000Y-53340000D03*
%TO.P,,62*%
%TO.N,GP14*%
X24130000Y-53340000D03*
%TO.P,,63*%
%TO.N,GND*%
X16510000Y-55880000D03*
%TO.P,,64*%
%TO.N,GP15*%
X24130000Y-55880000D03*
%TO.P,,65*%
%TO.N,IDREQ*%
X31750000Y-5080000D03*
%TO.P,,66*%
%TO.N,+5V*%
X39370000Y-5080000D03*
%TO.P,,67*%
%TO.N,GND*%
X31750000Y-7620000D03*
%TO.P,,68*%
%TO.N,IDREQ*%
X39370000Y-7620000D03*
%TO.P,,69*%
%TO.N,GND*%
X31750000Y-10160000D03*
%TO.P,,70*%
%TO.N,N/C*%
X39370000Y-10160000D03*
%TO.P,,71*%
%TO.N,GND*%
X31750000Y-12700000D03*
%TO.P,,72*%
%TO.N,IO1*%
X39370000Y-12700000D03*
%TO.P,,73*%
%TO.N,GND*%
X31750000Y-15240000D03*
%TO.P,,74*%
%TO.N,N/C*%
X39370000Y-15240000D03*
%TO.P,,75*%
%TO.N,GND*%
X31750000Y-17780000D03*
%TO.P,,76*%
%TO.N,IO3*%
X39370000Y-17780000D03*
%TO.P,,77*%
%TO.N,GND*%
X31750000Y-20320000D03*
%TO.P,,78*%
%TO.N,IO4*%
X39370000Y-20320000D03*
%TO.P,,79*%
%TO.N,GND*%
X31750000Y-22860000D03*
%TO.P,,80*%
%TO.N,N/C*%
X39370000Y-22860000D03*
%TO.P,,81*%
%TO.N,GND*%
X31750000Y-25400000D03*
%TO.P,,82*%
%TO.N,IO6*%
X39370000Y-25400000D03*
%TO.P,,83*%
%TO.N,GND*%
X31750000Y-27940000D03*
%TO.P,,84*%
%TO.N,N/C*%
X39370000Y-27940000D03*
%TO.P,,85*%
%TO.N,RD3*%
X31750000Y-33020000D03*
%TO.P,,86*%
%TO.N,+5V*%
X39370000Y-33020000D03*
%TO.P,,87*%
X31750000Y-35560000D03*
%TO.P,,88*%
%TO.N,IOA3*%
X39370000Y-35560000D03*
%TO.P,,89*%
%TO.N,+5V*%
X31750000Y-38100000D03*
%TO.P,,90*%
%TO.N,IO0*%
X39370000Y-38100000D03*
%TO.P,,91*%
%TO.N,+5V*%
X31750000Y-40640000D03*
%TO.P,,92*%
%TO.N,IO1*%
X39370000Y-40640000D03*
%TO.P,,93*%
%TO.N,GND*%
X31750000Y-43180000D03*
%TO.P,,94*%
%TO.N,IO2*%
X39370000Y-43180000D03*
%TO.P,,95*%
%TO.N,+5V*%
X31750000Y-45720000D03*
%TO.P,,96*%
%TO.N,IO3*%
X39370000Y-45720000D03*
%TO.P,,97*%
%TO.N,GND*%
X31750000Y-48260000D03*
%TO.P,,98*%
%TO.N,IO4*%
X39370000Y-48260000D03*
%TO.P,,99*%
%TO.N,+5V*%
X31750000Y-50800000D03*
%TO.P,,100*%
%TO.N,IO5*%
X39370000Y-50800000D03*
%TO.P,,101*%
%TO.N,GND*%
X31750000Y-53340000D03*
%TO.P,,102*%
%TO.N,IO6*%
X39370000Y-53340000D03*
%TO.P,,103*%
%TO.N,GND*%
X31750000Y-55880000D03*
%TO.P,,104*%
%TO.N,IO7*%
X39370000Y-55880000D03*
%TO.P,,105*%
%TO.N,IOA0*%
X31750000Y-59690000D03*
%TO.P,,106*%
%TO.N,+5V*%
X39370000Y-59690000D03*
%TO.P,,107*%
%TO.N,IOA1*%
X31750000Y-62230000D03*
%TO.P,,108*%
%TO.N,N/C*%
X39370000Y-62230000D03*
%TO.P,,109*%
%TO.N,IOA2*%
X31750000Y-64770000D03*
%TO.P,,110*%
%TO.N,N/C*%
X39370000Y-64770000D03*
%TO.P,,111*%
%TO.N,SEL*%
X31750000Y-67310000D03*
%TO.P,,112*%
%TO.N,N/C*%
X39370000Y-67310000D03*
%TO.P,,113*%
%TO.N,BRD*%
X31750000Y-69850000D03*
%TO.P,,114*%
%TO.N,RD3*%
X39370000Y-69850000D03*
%TO.P,,115*%
%TO.N,+5V*%
X31750000Y-72390000D03*
%TO.P,,116*%
%TO.N,N/C*%
X39370000Y-72390000D03*
%TO.P,,117*%
X31750000Y-74930000D03*
%TO.P,,118*%
X39370000Y-74930000D03*
%TO.P,,119*%
%TO.N,GND*%
X31750000Y-77470000D03*
%TO.P,,120*%
%TO.N,N/C*%
X39370000Y-77470000D03*
%TO.P,,121*%
%TO.N,BCK*%
X102870000Y-7620000D03*
%TO.P,,122*%
%TO.N,AOL*%
X110490000Y-7620000D03*
%TO.P,,123*%
%TO.N,WS*%
X102870000Y-10160000D03*
%TO.P,,124*%
%TO.N,N/C*%
X110490000Y-10160000D03*
%TO.P,,125*%
%TO.N,DIN*%
X102870000Y-12700000D03*
%TO.P,,126*%
%TO.N,AOR*%
X110490000Y-12700000D03*
%TO.P,,127*%
%TO.N,GND*%
X102870000Y-15240000D03*
%TO.P,,128*%
%TO.N,+3V3*%
X110490000Y-15240000D03*
%TO.P,,129*%
%TO.N,GP0*%
X49530000Y-49022000D03*
%TO.P,,130*%
%TO.N,N/C*%
X49530000Y-31242000D03*
%TO.P,,131*%
%TO.N,GP1*%
X52070000Y-49022000D03*
%TO.P,,132*%
%TO.N,+5V*%
X52070000Y-31242000D03*
%TO.P,,133*%
%TO.N,GND*%
X54610000Y-49022000D03*
%TO.P,,134*%
X54610000Y-31242000D03*
%TO.P,,135*%
%TO.N,GP2*%
X57150000Y-49022000D03*
%TO.P,,136*%
%TO.N,N/C*%
X57150000Y-31242000D03*
%TO.P,,137*%
%TO.N,GP3*%
X59690000Y-49022000D03*
%TO.P,,138*%
%TO.N,+3V3*%
X59690000Y-31242000D03*
%TO.P,,139*%
%TO.N,GP4*%
X62230000Y-49022000D03*
%TO.P,,140*%
%TO.N,N/C*%
X62230000Y-31242000D03*
%TO.P,,141*%
%TO.N,GP5*%
X64770000Y-49022000D03*
%TO.P,,142*%
%TO.N,N/C*%
X64770000Y-31242000D03*
%TO.P,,143*%
%TO.N,GND*%
X67310000Y-49022000D03*
%TO.P,,144*%
X67310000Y-31242000D03*
%TO.P,,145*%
%TO.N,GP6*%
X69850000Y-49022000D03*
%TO.P,,146*%
%TO.N,N/C*%
X69850000Y-31242000D03*
%TO.P,,147*%
%TO.N,GP7*%
X72390000Y-49022000D03*
%TO.P,,148*%
%TO.N,N/C*%
X72390000Y-31242000D03*
%TO.P,,149*%
%TO.N,GP8*%
X74930000Y-49022000D03*
%TO.P,,150*%
%TO.N,N/C*%
X74930000Y-31242000D03*
%TO.P,,151*%
%TO.N,GP9*%
X77470000Y-49022000D03*
%TO.P,,152*%
%TO.N,N/C*%
X77470000Y-31242000D03*
%TO.P,,153*%
%TO.N,GND*%
X80010000Y-49022000D03*
%TO.P,,154*%
X80010000Y-31242000D03*
%TO.P,,155*%
%TO.N,GP10*%
X82550000Y-49022000D03*
%TO.P,,156*%
%TO.N,PWM*%
X82550000Y-31242000D03*
%TO.P,,157*%
%TO.N,GP11*%
X85090000Y-49022000D03*
%TO.P,,158*%
%TO.N,DIN*%
X85090000Y-31242000D03*
%TO.P,,159*%
%TO.N,GP12*%
X87630000Y-49022000D03*
%TO.P,,160*%
%TO.N,WS*%
X87630000Y-31242000D03*
%TO.P,,161*%
%TO.N,GP13*%
X90170000Y-49022000D03*
%TO.P,,162*%
%TO.N,BCK*%
X90170000Y-31242000D03*
%TO.P,,163*%
%TO.N,GND*%
X92710000Y-49022000D03*
%TO.P,,164*%
X92710000Y-31242000D03*
%TO.P,,165*%
%TO.N,GP14*%
X95250000Y-49022000D03*
%TO.P,,166*%
%TO.N,N/C*%
X95250000Y-31242000D03*
%TO.P,,167*%
%TO.N,GP15*%
X97790000Y-49022000D03*
%TO.P,,168*%
%TO.N,N/C*%
X97790000Y-31242000D03*
%TO.P,,169*%
%TO.N,AOL*%
X109220000Y-19050000D03*
%TO.P,,170*%
%TO.N,ASUM*%
X109220000Y-26670000D03*
%TO.P,,171*%
%TO.N,AOR*%
X113030000Y-19050000D03*
%TO.P,,172*%
%TO.N,ASUM*%
X113030000Y-26670000D03*
%TO.P,,173*%
X117348000Y-19050000D03*
%TO.P,,174*%
%TO.N,AOUT*%
X117348000Y-26670000D03*
%TO.P,,175*%
%TO.N,PWM*%
X106680000Y-40640000D03*
%TO.P,,176*%
%TO.N,PWMF*%
X106680000Y-48260000D03*
%TO.P,,177*%
X110744000Y-40640000D03*
%TO.P,,178*%
%TO.N,GND*%
X110744000Y-48260000D03*
%TO.P,,179*%
%TO.N,PWMF*%
X114808000Y-40640000D03*
%TO.P,,180*%
%TO.N,ASUM*%
X114808000Y-48260000D03*
D12*
%TO.P,,181*%
%TO.N,AOUT*%
X121920000Y-7620000D03*
%TO.P,,182*%
X121920000Y-10160000D03*
%TO.P,,183*%
%TO.N,GND*%
X121920000Y-12700000D03*
%TO.P,,184*%
%TO.N,AOUT*%
X125730000Y-34290000D03*
%TO.P,,185*%
%TO.N,GND*%
X125730000Y-36830000D03*
D11*
%TO.P,,186*%
%TO.N,+3V3*%
X13970000Y-2540000D03*
%TO.P,,187*%
%TO.N,GND*%
X13970000Y-5080000D03*
%TO.P,,188*%
%TO.N,+3V3*%
X13970000Y-30480000D03*
%TO.P,,189*%
%TO.N,GND*%
X13970000Y-33020000D03*
%TO.P,,190*%
%TO.N,+5V*%
X29210000Y-2540000D03*
%TO.P,,191*%
%TO.N,GND*%
X29210000Y-5080000D03*
%TO.P,,192*%
%TO.N,+5V*%
X29210000Y-30480000D03*
%TO.P,,193*%
%TO.N,GND*%
X29210000Y-33020000D03*
%TO.P,,194*%
%TO.N,+5V*%
X29210000Y-57150000D03*
%TO.P,,195*%
%TO.N,GND*%
X29210000Y-59690000D03*
%TO.P,,196*%
%TO.N,+3V3*%
X100330000Y-7620000D03*
%TO.P,,197*%
%TO.N,GND*%
X100330000Y-10160000D03*
%TO.P,,198*%
%TO.N,+5V*%
X58420000Y-55880000D03*
%TO.P,,199*%
%TO.N,GND*%
X58420000Y-58420000D03*
%TO.P,,200*%
%TO.N,+5V*%
X83820000Y-55880000D03*
%TO.P,,201*%
%TO.N,GND*%
X83820000Y-58420000D03*
D13*
%TO.P,,*%
%TO.N,*%
X6350000Y-6350000D03*
X6350000Y-73660000D03*
X128270000Y-6350000D03*
X128270000Y-73660000D03*
%TD*%
D14*
%TO.N,GND*%
X4204800Y-11683400D03*
X-3262000Y-57540300D03*
%TO.N,+5V*%
X33661500Y-37651600D03*
X40489800Y-30495900D03*
X1025600Y-13652100D03*
%TO.N,+3V3*%
X11534600Y-16823100D03*
X13808800Y-19038000D03*
%TO.N,IO0*%
X1648300Y-15211300D03*
%TO.N,IO3*%
X45123000Y-45720000D03*
%TO.N,IO4*%
X22149600Y-28823900D03*
%TO.N,IO6*%
X46829900Y-53340000D03*
X2426100Y-22536000D03*
%TO.N,IO7*%
X28629700Y-55210300D03*
X4696900Y-16634100D03*
X5888200Y-23507000D03*
%TO.N,IOA1*%
X1234600Y-39104500D03*
%TO.N,IOA2*%
X1003100Y-44110400D03*
%TO.N,SEL*%
X12273100Y-19664000D03*
X3627500Y-19664000D03*
%TO.N,BWR*%
X1663600Y-33412800D03*
%TO.N,IDREQ*%
X12450200Y-44339700D03*
X18250200Y-15691800D03*
X25499600Y-13093600D03*
X30207400Y-6587200D03*
X3966700Y-44788600D03*
%TO.N,BIORES*%
X565800Y-30973100D03*
%TO.N,GP0*%
X44113500Y-9004300D03*
X50623300Y-42005700D03*
X50182800Y-43865500D03*
%TO.N,GP2*%
X47278000Y-14093700D03*
%TO.N,GP4*%
X53975300Y-21487300D03*
%TO.N,GP6*%
X50862400Y-28692200D03*
X56299500Y-41615700D03*
%TO.N,GP7*%
X42302600Y-29411200D03*
%TO.N,GP15*%
X25124000Y-60949200D03*
%TO.N,DIN*%
X92816100Y-27813900D03*
%TD*%
%TO.N,GND*%
D15*
X31750000Y-7620000D02*
X31750000Y-7172800D01*
X31750000Y-7172800D02*
X29657200Y-5080000D01*
X29657200Y-5080000D02*
X29210000Y-5080000D01*
X31750000Y-43180000D02*
X30931700Y-42361700D01*
X30931700Y-42361700D02*
X30931600Y-42361700D01*
X30931600Y-42361700D02*
X30931600Y-42361600D01*
X30931600Y-42361600D02*
X24130000Y-35560000D01*
X58420000Y-58420000D02*
X54610000Y-54610000D01*
X54610000Y-54610000D02*
X54610000Y-49022000D01*
X-3949700Y-24130000D02*
X1795800Y-24130000D01*
X1795800Y-24130000D02*
X4304200Y-21621600D01*
X4304200Y-21621600D02*
X4304200Y-19383700D01*
X4304200Y-19383700D02*
X4020200Y-19099700D01*
X4020200Y-19099700D02*
X4020200Y-11868000D01*
X4020200Y-11868000D02*
X4204800Y-11683400D01*
X13970000Y-33020000D02*
X16510000Y-30480000D01*
X16510000Y-30480000D02*
X16510000Y-27940000D01*
X16510000Y-55880000D02*
X16510000Y-62230000D01*
X16510000Y-62230000D02*
X31750000Y-77470000D01*
X92710000Y-49530000D02*
X83820000Y-58420000D01*
X92710000Y-49022000D02*
X92710000Y-49530000D01*
X92710000Y-49530000D02*
X93321700Y-50141700D01*
X93321700Y-50141700D02*
X108862300Y-50141700D01*
X108862300Y-50141700D02*
X110744000Y-48260000D01*
X-3949700Y-55880000D02*
X72700Y-55880000D01*
X72700Y-55880000D02*
X72700Y-57128200D01*
X72700Y-57128200D02*
X-339300Y-57540200D01*
X-339300Y-57540200D02*
X-3262000Y-57540200D01*
X-3262000Y-57540200D02*
X-3262000Y-57540300D01*
X31750000Y-27940000D02*
X31750000Y-30480000D01*
X31750000Y-30480000D02*
X29210000Y-33020000D01*
X4204800Y-11683400D02*
X7366600Y-11683400D01*
X7366600Y-11683400D02*
X13970000Y-5080000D01*
X31750000Y-43180000D02*
X32914400Y-44344400D01*
X32914400Y-44344400D02*
X32914400Y-47095600D01*
X32914400Y-47095600D02*
X31750000Y-48260000D01*
X31750000Y-10160000D02*
X31750000Y-7620000D01*
X31750000Y-12700000D02*
X31750000Y-10160000D01*
X31750000Y-15240000D02*
X31750000Y-12700000D01*
X31750000Y-17780000D02*
X31750000Y-15240000D01*
X31750000Y-20320000D02*
X31750000Y-17780000D01*
X31750000Y-22860000D02*
X31750000Y-20320000D01*
X31750000Y-25400000D02*
X31750000Y-22860000D01*
X31750000Y-53340000D02*
X32874900Y-52215100D01*
X32874900Y-52215100D02*
X32874900Y-49384900D01*
X32874900Y-49384900D02*
X31750000Y-48260000D01*
X31750000Y-55880000D02*
X31750000Y-53340000D01*
X121920000Y-36830000D02*
X121920000Y-42740500D01*
X121920000Y-42740500D02*
X115267300Y-49393200D01*
X115267300Y-49393200D02*
X111877200Y-49393200D01*
X111877200Y-49393200D02*
X110744000Y-48260000D01*
X121920000Y-12700000D02*
X121920000Y-36830000D01*
X125730000Y-36830000D02*
X121920000Y-36830000D01*
X80010000Y-31242000D02*
X80010000Y-49022000D01*
X102870000Y-15240000D02*
X100330000Y-12700000D01*
X100330000Y-12700000D02*
X100330000Y-10160000D01*
X29210000Y-59690000D02*
X31750000Y-57150000D01*
X31750000Y-57150000D02*
X31750000Y-55880000D01*
X83820000Y-58420000D02*
X80010000Y-54610000D01*
X80010000Y-54610000D02*
X80010000Y-49022000D01*
%TO.N,+5V*%
X39370000Y-5080000D02*
X40963200Y-6673200D01*
X40963200Y-6673200D02*
X40963200Y-30022500D01*
X40963200Y-30022500D02*
X40489800Y-30495900D01*
X52070000Y-31242000D02*
X58420000Y-37592000D01*
X58420000Y-37592000D02*
X58420000Y-55880000D01*
X30625400Y-50800000D02*
X30625400Y-46844600D01*
X30625400Y-46844600D02*
X31750000Y-45720000D01*
X29210000Y-57150000D02*
X30625400Y-55734600D01*
X30625400Y-55734600D02*
X30625400Y-50800000D01*
X40489800Y-30495900D02*
X40489800Y-31900200D01*
X40489800Y-31900200D02*
X39370000Y-33020000D01*
X72700Y-14605000D02*
X1025600Y-13652100D01*
X31750000Y-35560000D02*
X33661500Y-37471500D01*
X33661500Y-37471500D02*
X33661500Y-37651600D01*
X31750000Y-40640000D02*
X31750000Y-38100000D01*
X30625400Y-50800000D02*
X31750000Y-50800000D01*
X31750000Y-72390000D02*
X37942600Y-66197400D01*
X37942600Y-66197400D02*
X37942600Y-61117400D01*
X37942600Y-61117400D02*
X39370000Y-59690000D01*
X-3949700Y-14605000D02*
X72700Y-14605000D01*
%TO.N,+3V3*%
X16510000Y-5080000D02*
X11534600Y-10055400D01*
X11534600Y-10055400D02*
X11534600Y-16823100D01*
X13970000Y-30480000D02*
X13970000Y-19199200D01*
X13970000Y-19199200D02*
X13808800Y-19038000D01*
X104029600Y-8736200D02*
X104029600Y-7164100D01*
X104029600Y-7164100D02*
X102864400Y-5998900D01*
X102864400Y-5998900D02*
X84933100Y-5998900D01*
X84933100Y-5998900D02*
X59690000Y-31242000D01*
X16510000Y-5080000D02*
X13970000Y-2540000D01*
X110490000Y-15240000D02*
X104029600Y-8779600D01*
X104029600Y-8779600D02*
X104029600Y-8736200D01*
X100330000Y-7620000D02*
X101446200Y-8736200D01*
X101446200Y-8736200D02*
X104029600Y-8736200D01*
%TO.N,IO0*%
X39370000Y-38100000D02*
X40484200Y-39214200D01*
X40484200Y-39214200D02*
X40484200Y-41110900D01*
X40484200Y-41110900D02*
X39789900Y-41805200D01*
X39789900Y-41805200D02*
X38914000Y-41805200D01*
X38914000Y-41805200D02*
X36394300Y-39285500D01*
X36394300Y-39285500D02*
X36394300Y-30982200D01*
X36394300Y-30982200D02*
X32082100Y-26670000D01*
X32082100Y-26670000D02*
X31359800Y-26670000D01*
X31359800Y-26670000D02*
X25610200Y-20920400D01*
X25610200Y-20920400D02*
X25610200Y-20144900D01*
X25610200Y-20144900D02*
X24515300Y-19050000D01*
X24515300Y-19050000D02*
X23769200Y-19050000D01*
X23769200Y-19050000D02*
X19830300Y-15111100D01*
X19830300Y-15111100D02*
X19830300Y-10940300D01*
X19830300Y-10940300D02*
X16510000Y-7620000D01*
X72700Y-17780000D02*
X72700Y-16786900D01*
X72700Y-16786900D02*
X1648300Y-15211300D01*
X-3949700Y-17780000D02*
X72700Y-17780000D01*
%TO.N,IO1*%
X39370000Y-40640000D02*
X37297700Y-38567700D01*
X37297700Y-38567700D02*
X37297700Y-14772300D01*
X37297700Y-14772300D02*
X39370000Y-12700000D01*
%TO.N,IO2*%
X16510000Y-12700000D02*
X16510000Y-12804900D01*
X16510000Y-12804900D02*
X9856800Y-19458100D01*
X9856800Y-19458100D02*
X9856800Y-20530500D01*
X9856800Y-20530500D02*
X3082300Y-27305000D01*
X3082300Y-27305000D02*
X72700Y-27305000D01*
X39370000Y-43180000D02*
X35942600Y-39752600D01*
X35942600Y-39752600D02*
X35942600Y-35558000D01*
X35942600Y-35558000D02*
X32234000Y-31849400D01*
X32234000Y-31849400D02*
X31274200Y-31849400D01*
X31274200Y-31849400D02*
X30635900Y-32487700D01*
X30635900Y-32487700D02*
X30635900Y-33238800D01*
X30635900Y-33238800D02*
X29709400Y-34165300D01*
X29709400Y-34165300D02*
X28762000Y-34165300D01*
X28762000Y-34165300D02*
X22560100Y-27963400D01*
X22560100Y-27963400D02*
X22560100Y-19283100D01*
X22560100Y-19283100D02*
X18926900Y-15649900D01*
X18926900Y-15649900D02*
X18926900Y-15116900D01*
X18926900Y-15116900D02*
X16510000Y-12700000D01*
X-3949700Y-27305000D02*
X72700Y-27305000D01*
%TO.N,IO3*%
X16510000Y-15240000D02*
X14993200Y-15240000D01*
X14993200Y-15240000D02*
X11118000Y-19115200D01*
X11118000Y-19115200D02*
X11118000Y-19953600D01*
X11118000Y-19953600D02*
X1513400Y-29558200D01*
X1513400Y-29558200D02*
X994500Y-29558200D01*
X994500Y-29558200D02*
X72700Y-30480000D01*
X39370000Y-17780000D02*
X37749600Y-19400400D01*
X37749600Y-19400400D02*
X37749600Y-35523700D01*
X37749600Y-35523700D02*
X39055900Y-36830000D01*
X39055900Y-36830000D02*
X39677000Y-36830000D01*
X39677000Y-36830000D02*
X45123000Y-42276000D01*
X45123000Y-42276000D02*
X45123000Y-45720000D01*
X-3949700Y-30480000D02*
X72700Y-30480000D01*
%TO.N,IO4*%
X39370000Y-48260000D02*
X32984800Y-41874800D01*
X32984800Y-41874800D02*
X32984800Y-37753900D01*
X32984800Y-37753900D02*
X32216800Y-36985900D01*
X32216800Y-36985900D02*
X30361400Y-36985900D01*
X30361400Y-36985900D02*
X22199400Y-28823900D01*
X22199400Y-28823900D02*
X22149600Y-28823900D01*
X16510000Y-17780000D02*
X21723600Y-22993600D01*
X21723600Y-22993600D02*
X21723600Y-28397900D01*
X21723600Y-28397900D02*
X22149600Y-28823900D01*
%TO.N,IO5*%
X16510000Y-20320000D02*
X20929000Y-24739000D01*
X20929000Y-24739000D02*
X20929000Y-28633300D01*
X20929000Y-28633300D02*
X21796300Y-29500600D01*
X21796300Y-29500600D02*
X22190600Y-29500600D01*
X22190600Y-29500600D02*
X25244100Y-32554100D01*
X25244100Y-32554100D02*
X25244100Y-35779900D01*
X25244100Y-35779900D02*
X31374200Y-41910000D01*
X31374200Y-41910000D02*
X32109300Y-41910000D01*
X32109300Y-41910000D02*
X37942600Y-47743300D01*
X37942600Y-47743300D02*
X37942600Y-49372600D01*
X37942600Y-49372600D02*
X39370000Y-50800000D01*
%TO.N,IO6*%
X46829900Y-53340000D02*
X46829900Y-41439300D01*
X46829900Y-41439300D02*
X39680600Y-34290000D01*
X39680600Y-34290000D02*
X39046900Y-34290000D01*
X39046900Y-34290000D02*
X38221200Y-33464300D01*
X38221200Y-33464300D02*
X38221200Y-31520100D01*
X38221200Y-31520100D02*
X40511500Y-29229800D01*
X40511500Y-29229800D02*
X40511500Y-26541500D01*
X40511500Y-26541500D02*
X39370000Y-25400000D01*
X-3949700Y-20955000D02*
X845100Y-20955000D01*
X845100Y-20955000D02*
X2426100Y-22536000D01*
%TO.N,IO7*%
X28629700Y-55210300D02*
X28629700Y-40943800D01*
X28629700Y-40943800D02*
X24515900Y-36830000D01*
X24515900Y-36830000D02*
X23766600Y-36830000D01*
X23766600Y-36830000D02*
X17937400Y-31000800D01*
X17937400Y-31000800D02*
X17937400Y-26827400D01*
X17937400Y-26827400D02*
X16510000Y-25400000D01*
X4696900Y-16634100D02*
X5888200Y-17825400D01*
X5888200Y-17825400D02*
X5888200Y-23507000D01*
%TO.N,IOA0*%
X16510000Y-35560000D02*
X22617900Y-41667900D01*
X22617900Y-41667900D02*
X22617900Y-45791500D01*
X22617900Y-45791500D02*
X23816400Y-46990000D01*
X23816400Y-46990000D02*
X24440400Y-46990000D01*
X24440400Y-46990000D02*
X27953000Y-50502600D01*
X27953000Y-50502600D02*
X27953000Y-55490500D01*
X27953000Y-55490500D02*
X28049400Y-55586900D01*
X28049400Y-55586900D02*
X28049400Y-60159100D01*
X28049400Y-60159100D02*
X29379400Y-61489100D01*
X29379400Y-61489100D02*
X29950900Y-61489100D01*
X29950900Y-61489100D02*
X31750000Y-59690000D01*
%TO.N,IOA1*%
X16510000Y-38100000D02*
X20265000Y-41855000D01*
X20265000Y-41855000D02*
X20265000Y-46032300D01*
X20265000Y-46032300D02*
X23762700Y-49530000D01*
X23762700Y-49530000D02*
X24435700Y-49530000D01*
X24435700Y-49530000D02*
X27501300Y-52595600D01*
X27501300Y-52595600D02*
X27501300Y-55677600D01*
X27501300Y-55677600D02*
X27597700Y-55774000D01*
X27597700Y-55774000D02*
X27597700Y-60346200D01*
X27597700Y-60346200D02*
X29192300Y-61940800D01*
X29192300Y-61940800D02*
X31460800Y-61940800D01*
X31460800Y-61940800D02*
X31750000Y-62230000D01*
X72700Y-40005000D02*
X72700Y-40004900D01*
X72700Y-40004900D02*
X334200Y-40004900D01*
X334200Y-40004900D02*
X1234600Y-39104500D01*
X-3949700Y-40005000D02*
X72700Y-40005000D01*
%TO.N,IOA2*%
X72700Y-43180000D02*
X1003100Y-44110400D01*
X16510000Y-40640000D02*
X18389100Y-42519100D01*
X18389100Y-42519100D02*
X18389100Y-46638900D01*
X18389100Y-46638900D02*
X23820200Y-52070000D01*
X23820200Y-52070000D02*
X24437700Y-52070000D01*
X24437700Y-52070000D02*
X27049600Y-54681900D01*
X27049600Y-54681900D02*
X27049600Y-60436900D01*
X27049600Y-60436900D02*
X31382700Y-64770000D01*
X31382700Y-64770000D02*
X31750000Y-64770000D01*
X-3949700Y-43180000D02*
X72700Y-43180000D01*
%TO.N,SEL*%
X16510000Y-45720000D02*
X17631500Y-44598500D01*
X17631500Y-44598500D02*
X17631500Y-42669800D01*
X17631500Y-42669800D02*
X17027600Y-42065900D01*
X17027600Y-42065900D02*
X16358600Y-42065900D01*
X16358600Y-42065900D02*
X12273100Y-37980400D01*
X12273100Y-37980400D02*
X12273100Y-19664000D01*
X16510000Y-45720000D02*
X20320100Y-49530100D01*
X20320100Y-49530100D02*
X20320100Y-57156200D01*
X20320100Y-57156200D02*
X30473900Y-67310000D01*
X30473900Y-67310000D02*
X31750000Y-67310000D01*
X-3949700Y-11430000D02*
X72700Y-11430000D01*
X72700Y-11430000D02*
X3101300Y-14458600D01*
X3101300Y-14458600D02*
X3101300Y-19137800D01*
X3101300Y-19137800D02*
X3627500Y-19664000D01*
%TO.N,BWR*%
X1663600Y-33412800D02*
X1663600Y-34510000D01*
X1663600Y-34510000D02*
X15413600Y-48260000D01*
X15413600Y-48260000D02*
X16510000Y-48260000D01*
%TO.N,BRD*%
X31750000Y-69850000D02*
X31750000Y-69535100D01*
X31750000Y-69535100D02*
X16824900Y-54610000D01*
X16824900Y-54610000D02*
X16204400Y-54610000D01*
X16204400Y-54610000D02*
X4004800Y-42410400D01*
X4004800Y-42410400D02*
X4004800Y-40912200D01*
X4004800Y-40912200D02*
X-77400Y-36830000D01*
X-77400Y-36830000D02*
X-3949700Y-36830000D01*
%TO.N,IDREQ*%
X30207400Y-6587200D02*
X30207400Y-8385800D01*
X30207400Y-8385800D02*
X25499600Y-13093600D01*
X18250200Y-15691800D02*
X17541000Y-16401000D01*
X17541000Y-16401000D02*
X14505500Y-16401000D01*
X14505500Y-16401000D02*
X11569700Y-19336800D01*
X11569700Y-19336800D02*
X11569700Y-43459200D01*
X11569700Y-43459200D02*
X12450200Y-44339700D01*
X-3949700Y-52705000D02*
X3966700Y-44788600D01*
%TO.N,BIORES*%
X565800Y-30973100D02*
X565800Y-34855800D01*
X565800Y-34855800D02*
X16510000Y-50800000D01*
%TO.N,MHZ8*%
X16510000Y-53340000D02*
X16510000Y-52701200D01*
X16510000Y-52701200D02*
X72700Y-36263900D01*
X72700Y-36263900D02*
X72700Y-33655000D01*
X-3949700Y-33655000D02*
X72700Y-33655000D01*
%TO.N,GP0*%
X50623300Y-42005700D02*
X50623300Y-41858500D01*
X50623300Y-41858500D02*
X49640000Y-40875200D01*
X49640000Y-40875200D02*
X49640000Y-34324900D01*
X49640000Y-34324900D02*
X47954700Y-32639600D01*
X47954700Y-32639600D02*
X47954700Y-12845500D01*
X47954700Y-12845500D02*
X44113500Y-9004300D01*
X49530000Y-49022000D02*
X50182800Y-48369200D01*
X50182800Y-48369200D02*
X50182800Y-43865500D01*
%TO.N,GP1*%
X52070000Y-49022000D02*
X50906800Y-50185200D01*
X50906800Y-50185200D02*
X49101900Y-50185200D01*
X49101900Y-50185200D02*
X47777400Y-48860700D01*
X47777400Y-48860700D02*
X47777400Y-41431600D01*
X47777400Y-41431600D02*
X41421400Y-35075600D01*
X41421400Y-35075600D02*
X41421400Y-6397200D01*
X41421400Y-6397200D02*
X40850900Y-5826700D01*
X40850900Y-5826700D02*
X40850900Y-4897600D01*
X40850900Y-4897600D02*
X39896200Y-3942900D01*
X39896200Y-3942900D02*
X28723100Y-3942900D01*
X28723100Y-3942900D02*
X25686000Y-6980000D01*
X25686000Y-6980000D02*
X25686000Y-11144000D01*
X25686000Y-11144000D02*
X24130000Y-12700000D01*
%TO.N,GP2*%
X57150000Y-49022000D02*
X50810400Y-42682400D01*
X50810400Y-42682400D02*
X50343100Y-42682400D01*
X50343100Y-42682400D02*
X49946600Y-42285900D01*
X49946600Y-42285900D02*
X49946600Y-41820600D01*
X49946600Y-41820600D02*
X47278000Y-39152000D01*
X47278000Y-39152000D02*
X47278000Y-14093700D01*
%TO.N,GP3*%
X59690000Y-49022000D02*
X59690000Y-38142800D01*
X59690000Y-38142800D02*
X53340000Y-31792800D01*
X53340000Y-31792800D02*
X53340000Y-23683400D01*
X53340000Y-23683400D02*
X49498500Y-19841900D01*
X49498500Y-19841900D02*
X49498500Y-13432300D01*
X49498500Y-13432300D02*
X41354300Y-5288100D01*
X41354300Y-5288100D02*
X41354300Y-4762200D01*
X41354300Y-4762200D02*
X40083300Y-3491200D01*
X40083300Y-3491200D02*
X39444500Y-3491200D01*
X39444500Y-3491200D02*
X37356600Y-1403300D01*
X37356600Y-1403300D02*
X26182600Y-1403300D01*
X26182600Y-1403300D02*
X22975300Y-4610600D01*
X22975300Y-4610600D02*
X22975300Y-16625300D01*
X22975300Y-16625300D02*
X24130000Y-17780000D01*
%TO.N,GP4*%
X53975300Y-21487300D02*
X55919300Y-23431300D01*
X55919300Y-23431300D02*
X55919300Y-33246800D01*
X55919300Y-33246800D02*
X62230000Y-39557500D01*
X62230000Y-39557500D02*
X62230000Y-49022000D01*
%TO.N,GP5*%
X24130000Y-22860000D02*
X23013900Y-21743900D01*
X23013900Y-21743900D02*
X23013900Y-18992400D01*
X23013900Y-18992400D02*
X19378600Y-15357100D01*
X19378600Y-15357100D02*
X19378600Y-11394400D01*
X19378600Y-11394400D02*
X17030100Y-9045900D01*
X17030100Y-9045900D02*
X16301000Y-9045900D01*
X16301000Y-9045900D02*
X15346000Y-8090900D01*
X15346000Y-8090900D02*
X15346000Y-7201200D01*
X15346000Y-7201200D02*
X16041300Y-6505900D01*
X16041300Y-6505900D02*
X17623900Y-6505900D01*
X17623900Y-6505900D02*
X23178200Y-951600D01*
X23178200Y-951600D02*
X38182500Y-951600D01*
X38182500Y-951600D02*
X58420000Y-21189100D01*
X58420000Y-21189100D02*
X58420000Y-32722100D01*
X58420000Y-32722100D02*
X64770000Y-39072100D01*
X64770000Y-39072100D02*
X64770000Y-49022000D01*
%TO.N,GP6*%
X50862400Y-28692200D02*
X50862400Y-36178600D01*
X50862400Y-36178600D02*
X56299500Y-41615700D01*
%TO.N,GP7*%
X42302600Y-29411200D02*
X42302600Y-35280700D01*
X42302600Y-35280700D02*
X50156000Y-43134100D01*
X50156000Y-43134100D02*
X50436800Y-43134100D01*
X50436800Y-43134100D02*
X53340000Y-46037300D01*
X53340000Y-46037300D02*
X53340000Y-54942000D01*
X53340000Y-54942000D02*
X57964600Y-59566600D01*
X57964600Y-59566600D02*
X61845400Y-59566600D01*
X61845400Y-59566600D02*
X72390000Y-49022000D01*
%TO.N,GP15*%
X25124000Y-60949200D02*
X24130000Y-59955200D01*
X24130000Y-59955200D02*
X24130000Y-55880000D01*
%TO.N,RD3*%
X31750000Y-33020000D02*
X35490900Y-36760900D01*
X35490900Y-36760900D02*
X35490900Y-40956800D01*
X35490900Y-40956800D02*
X38984100Y-44450000D01*
X38984100Y-44450000D02*
X39733400Y-44450000D01*
X39733400Y-44450000D02*
X40514500Y-45231100D01*
X40514500Y-45231100D02*
X40514500Y-68705500D01*
X40514500Y-68705500D02*
X39370000Y-69850000D01*
%TO.N,BCK*%
X90170000Y-31242000D02*
X90170000Y-16199300D01*
X90170000Y-16199300D02*
X99918700Y-6450600D01*
X99918700Y-6450600D02*
X101700600Y-6450600D01*
X101700600Y-6450600D02*
X102870000Y-7620000D01*
%TO.N,WS*%
X87630000Y-31242000D02*
X88762200Y-32374200D01*
X88762200Y-32374200D02*
X90636700Y-32374200D01*
X90636700Y-32374200D02*
X91440000Y-31570900D01*
X91440000Y-31570900D02*
X91440000Y-30147000D01*
X91440000Y-30147000D02*
X104453200Y-17133800D01*
X104453200Y-17133800D02*
X104453200Y-11743200D01*
X104453200Y-11743200D02*
X102870000Y-10160000D01*
%TO.N,DIN*%
X92816100Y-27813900D02*
X103996300Y-16633700D01*
X103996300Y-16633700D02*
X103996300Y-13826300D01*
X103996300Y-13826300D02*
X102870000Y-12700000D01*
%TO.N,AOL*%
X109220000Y-19050000D02*
X111616800Y-16653200D01*
X111616800Y-16653200D02*
X111616800Y-14710800D01*
X111616800Y-14710800D02*
X110720100Y-13814100D01*
X110720100Y-13814100D02*
X109972600Y-13814100D01*
X109972600Y-13814100D02*
X109347000Y-13188500D01*
X109347000Y-13188500D02*
X109347000Y-8763000D01*
X109347000Y-8763000D02*
X110490000Y-7620000D01*
%TO.N,AOR*%
X113030000Y-19050000D02*
X113030000Y-15240000D01*
X113030000Y-15240000D02*
X110490000Y-12700000D01*
%TO.N,ASUM*%
X117348000Y-19050000D02*
X113030000Y-23368000D01*
X113030000Y-23368000D02*
X113030000Y-26670000D01*
X114808000Y-48260000D02*
X113030000Y-46482000D01*
X113030000Y-46482000D02*
X113030000Y-26670000D01*
%TO.N,AOUT*%
X121920000Y-10160000D02*
X125730000Y-13970000D01*
X125730000Y-13970000D02*
X125730000Y-34290000D01*
X121920000Y-10160000D02*
X121920000Y-7620000D01*
%TO.N,PWMF*%
X110744000Y-40640000D02*
X106680000Y-44704000D01*
X106680000Y-44704000D02*
X106680000Y-48260000D01*
%TD*%
M02*
