%TF.GenerationSoftware,KiCad,Pcbnew,10.0.6*%
%TF.CreationDate,2026-08-30T22:13:08-04:00*%
%TF.ProjectId,card_routed,63617264-5f72-46f7-9574-65642e6b6963,rev?*%
%TF.SameCoordinates,Original*%
%TF.FileFunction,Copper,L1,Top*%
%TF.FilePolarity,Positive*%
%FSLAX46Y46*%
G04 Gerber Fmt 4.6, Leading zero omitted, Abs format (unit mm)*
G04 Created by KiCad (PCBNEW 10.0.6) date 2026-08-30 22:13:08*
%MOMM*%
%LPD*%
G01*
G04 APERTURE LIST*
%TA.AperFunction,SMDPad,CuDef*%
%ADD10R,7.391400X2.199600*%
%TD*%
%TA.AperFunction,ComponentPad*%
%ADD11C,1.574800*%
%TD*%
%TA.AperFunction,ComponentPad*%
%ADD12C,1.981200*%
%TD*%
%TA.AperFunction,ComponentPad*%
%ADD13C,1.701800*%
%TD*%
%TA.AperFunction,WasherPad*%
%ADD14C,3.810000*%
%TD*%
%TA.AperFunction,ViaPad*%
%ADD15C,0.600000*%
%TD*%
%TA.AperFunction,Conductor*%
%ADD16C,0.250000*%
%TD*%
G04 APERTURE END LIST*
D10*
%TO.P,,2*%
%TO.N,+5V*%
X-3949700Y-52705000D03*
%TO.P,,4*%
%TO.N,IOA3*%
X-3949700Y-43180000D03*
%TO.P,,6*%
%TO.N,GND*%
X-3949700Y-40005000D03*
%TO.P,,8*%
%TO.N,IOA0*%
X-3949700Y-36830000D03*
%TO.P,,10*%
%TO.N,BWR*%
X-3949700Y-33655000D03*
%TO.P,,12*%
%TO.N,BIORES*%
X-3949700Y-30480000D03*
%TO.P,,14*%
%TO.N,IO4*%
X-3949700Y-27305000D03*
%TO.P,,16*%
%TO.N,IO5*%
X-3949700Y-24130000D03*
%TO.P,,18*%
%TO.N,IO1*%
X-3949700Y-20955000D03*
%TO.P,,21*%
%TO.N,IO7*%
X-3949700Y-14605000D03*
%TO.P,,23*%
%TO.N,GND*%
X-3949700Y-11430000D03*
D11*
%TO.P,,25*%
%TO.N,+3V3*%
X16510000Y-5080000D03*
%TO.P,,26*%
X24130000Y-5080000D03*
%TO.P,,27*%
%TO.N,IO0*%
X16510000Y-7620000D03*
%TO.P,,28*%
%TO.N,GND*%
X24130000Y-7620000D03*
%TO.P,,29*%
%TO.N,IO1*%
X16510000Y-10160000D03*
%TO.P,,30*%
%TO.N,GP0*%
X24130000Y-10160000D03*
%TO.P,,31*%
%TO.N,IO2*%
X16510000Y-12700000D03*
%TO.P,,32*%
%TO.N,GP1*%
X24130000Y-12700000D03*
%TO.P,,33*%
%TO.N,IO3*%
X16510000Y-15240000D03*
%TO.P,,34*%
%TO.N,GP2*%
X24130000Y-15240000D03*
%TO.P,,35*%
%TO.N,IO4*%
X16510000Y-17780000D03*
%TO.P,,36*%
%TO.N,GP3*%
X24130000Y-17780000D03*
%TO.P,,37*%
%TO.N,IO5*%
X16510000Y-20320000D03*
%TO.P,,38*%
%TO.N,GP4*%
X24130000Y-20320000D03*
%TO.P,,39*%
%TO.N,IO6*%
X16510000Y-22860000D03*
%TO.P,,40*%
%TO.N,GP5*%
X24130000Y-22860000D03*
%TO.P,,41*%
%TO.N,IO7*%
X16510000Y-25400000D03*
%TO.P,,42*%
%TO.N,GP6*%
X24130000Y-25400000D03*
%TO.P,,43*%
%TO.N,GND*%
X16510000Y-27940000D03*
%TO.P,,44*%
%TO.N,GP7*%
X24130000Y-27940000D03*
%TO.P,,45*%
%TO.N,+3V3*%
X16510000Y-33020000D03*
%TO.P,,46*%
X24130000Y-33020000D03*
%TO.P,,47*%
%TO.N,IOA0*%
X16510000Y-35560000D03*
%TO.P,,48*%
%TO.N,GND*%
X24130000Y-35560000D03*
%TO.P,,49*%
%TO.N,IOA1*%
X16510000Y-38100000D03*
%TO.P,,50*%
%TO.N,GP8*%
X24130000Y-38100000D03*
%TO.P,,51*%
%TO.N,IOA2*%
X16510000Y-40640000D03*
%TO.P,,52*%
%TO.N,GP9*%
X24130000Y-40640000D03*
%TO.P,,53*%
%TO.N,IOA3*%
X16510000Y-43180000D03*
%TO.P,,54*%
%TO.N,GP10*%
X24130000Y-43180000D03*
%TO.P,,55*%
%TO.N,SEL*%
X16510000Y-45720000D03*
%TO.P,,56*%
%TO.N,GP11*%
X24130000Y-45720000D03*
%TO.P,,57*%
%TO.N,BWR*%
X16510000Y-48260000D03*
%TO.P,,58*%
%TO.N,GP12*%
X24130000Y-48260000D03*
%TO.P,,59*%
%TO.N,BIORES*%
X16510000Y-50800000D03*
%TO.P,,60*%
%TO.N,GP13*%
X24130000Y-50800000D03*
%TO.P,,61*%
%TO.N,MHZ8*%
X16510000Y-53340000D03*
%TO.P,,62*%
%TO.N,GP14*%
X24130000Y-53340000D03*
%TO.P,,63*%
%TO.N,GND*%
X16510000Y-55880000D03*
%TO.P,,64*%
%TO.N,GP15*%
X24130000Y-55880000D03*
%TO.P,,65*%
%TO.N,IDREQ*%
X31750000Y-5080000D03*
%TO.P,,66*%
%TO.N,+5V*%
X39370000Y-5080000D03*
%TO.P,,67*%
%TO.N,GND*%
X31750000Y-7620000D03*
%TO.P,,68*%
%TO.N,IDREQ*%
X39370000Y-7620000D03*
%TO.P,,69*%
%TO.N,GND*%
X31750000Y-10160000D03*
%TO.P,,70*%
%TO.N,N/C*%
X39370000Y-10160000D03*
%TO.P,,71*%
%TO.N,GND*%
X31750000Y-12700000D03*
%TO.P,,72*%
%TO.N,IO1*%
X39370000Y-12700000D03*
%TO.P,,73*%
%TO.N,GND*%
X31750000Y-15240000D03*
%TO.P,,74*%
%TO.N,N/C*%
X39370000Y-15240000D03*
%TO.P,,75*%
%TO.N,GND*%
X31750000Y-17780000D03*
%TO.P,,76*%
%TO.N,IO3*%
X39370000Y-17780000D03*
%TO.P,,77*%
%TO.N,GND*%
X31750000Y-20320000D03*
%TO.P,,78*%
%TO.N,IO4*%
X39370000Y-20320000D03*
%TO.P,,79*%
%TO.N,GND*%
X31750000Y-22860000D03*
%TO.P,,80*%
%TO.N,N/C*%
X39370000Y-22860000D03*
%TO.P,,81*%
%TO.N,GND*%
X31750000Y-25400000D03*
%TO.P,,82*%
%TO.N,IO6*%
X39370000Y-25400000D03*
%TO.P,,83*%
%TO.N,GND*%
X31750000Y-27940000D03*
%TO.P,,84*%
%TO.N,N/C*%
X39370000Y-27940000D03*
%TO.P,,85*%
%TO.N,RD3*%
X31750000Y-33020000D03*
%TO.P,,86*%
%TO.N,+5V*%
X39370000Y-33020000D03*
%TO.P,,87*%
X31750000Y-35560000D03*
%TO.P,,88*%
%TO.N,IOA3*%
X39370000Y-35560000D03*
%TO.P,,89*%
%TO.N,+5V*%
X31750000Y-38100000D03*
%TO.P,,90*%
%TO.N,IO0*%
X39370000Y-38100000D03*
%TO.P,,91*%
%TO.N,+5V*%
X31750000Y-40640000D03*
%TO.P,,92*%
%TO.N,IO1*%
X39370000Y-40640000D03*
%TO.P,,93*%
%TO.N,GND*%
X31750000Y-43180000D03*
%TO.P,,94*%
%TO.N,IO2*%
X39370000Y-43180000D03*
%TO.P,,95*%
%TO.N,+5V*%
X31750000Y-45720000D03*
%TO.P,,96*%
%TO.N,IO3*%
X39370000Y-45720000D03*
%TO.P,,97*%
%TO.N,GND*%
X31750000Y-48260000D03*
%TO.P,,98*%
%TO.N,IO4*%
X39370000Y-48260000D03*
%TO.P,,99*%
%TO.N,+5V*%
X31750000Y-50800000D03*
%TO.P,,100*%
%TO.N,IO5*%
X39370000Y-50800000D03*
%TO.P,,101*%
%TO.N,GND*%
X31750000Y-53340000D03*
%TO.P,,102*%
%TO.N,IO6*%
X39370000Y-53340000D03*
%TO.P,,103*%
%TO.N,GND*%
X31750000Y-55880000D03*
%TO.P,,104*%
%TO.N,IO7*%
X39370000Y-55880000D03*
%TO.P,,105*%
%TO.N,IOA0*%
X31750000Y-59690000D03*
%TO.P,,106*%
%TO.N,+5V*%
X39370000Y-59690000D03*
%TO.P,,107*%
%TO.N,IOA1*%
X31750000Y-62230000D03*
%TO.P,,108*%
%TO.N,N/C*%
X39370000Y-62230000D03*
%TO.P,,109*%
%TO.N,IOA2*%
X31750000Y-64770000D03*
%TO.P,,110*%
%TO.N,N/C*%
X39370000Y-64770000D03*
%TO.P,,111*%
%TO.N,SEL*%
X31750000Y-67310000D03*
%TO.P,,112*%
%TO.N,N/C*%
X39370000Y-67310000D03*
%TO.P,,113*%
%TO.N,BRD*%
X31750000Y-69850000D03*
%TO.P,,114*%
%TO.N,RD3*%
X39370000Y-69850000D03*
%TO.P,,115*%
%TO.N,+5V*%
X31750000Y-72390000D03*
%TO.P,,116*%
%TO.N,N/C*%
X39370000Y-72390000D03*
%TO.P,,117*%
X31750000Y-74930000D03*
%TO.P,,118*%
X39370000Y-74930000D03*
%TO.P,,119*%
%TO.N,GND*%
X31750000Y-77470000D03*
%TO.P,,120*%
%TO.N,N/C*%
X39370000Y-77470000D03*
%TO.P,,121*%
%TO.N,BCK*%
X102870000Y-7620000D03*
%TO.P,,122*%
%TO.N,AOL*%
X110490000Y-7620000D03*
%TO.P,,123*%
%TO.N,WS*%
X102870000Y-10160000D03*
%TO.P,,124*%
%TO.N,N/C*%
X110490000Y-10160000D03*
%TO.P,,125*%
%TO.N,DIN*%
X102870000Y-12700000D03*
%TO.P,,126*%
%TO.N,AOR*%
X110490000Y-12700000D03*
%TO.P,,127*%
%TO.N,GND*%
X102870000Y-15240000D03*
%TO.P,,128*%
%TO.N,+3V3*%
X110490000Y-15240000D03*
%TO.P,,129*%
%TO.N,GP0*%
X49530000Y-49022000D03*
%TO.P,,130*%
%TO.N,N/C*%
X49530000Y-31242000D03*
%TO.P,,131*%
%TO.N,GP1*%
X52070000Y-49022000D03*
%TO.P,,132*%
%TO.N,+5V*%
X52070000Y-31242000D03*
%TO.P,,133*%
%TO.N,GND*%
X54610000Y-49022000D03*
%TO.P,,134*%
X54610000Y-31242000D03*
%TO.P,,135*%
%TO.N,GP2*%
X57150000Y-49022000D03*
%TO.P,,136*%
%TO.N,N/C*%
X57150000Y-31242000D03*
%TO.P,,137*%
%TO.N,GP3*%
X59690000Y-49022000D03*
%TO.P,,138*%
%TO.N,+3V3*%
X59690000Y-31242000D03*
%TO.P,,139*%
%TO.N,GP4*%
X62230000Y-49022000D03*
%TO.P,,140*%
%TO.N,N/C*%
X62230000Y-31242000D03*
%TO.P,,141*%
%TO.N,GP5*%
X64770000Y-49022000D03*
%TO.P,,142*%
%TO.N,N/C*%
X64770000Y-31242000D03*
%TO.P,,143*%
%TO.N,GND*%
X67310000Y-49022000D03*
%TO.P,,144*%
X67310000Y-31242000D03*
%TO.P,,145*%
%TO.N,GP6*%
X69850000Y-49022000D03*
%TO.P,,146*%
%TO.N,N/C*%
X69850000Y-31242000D03*
%TO.P,,147*%
%TO.N,GP7*%
X72390000Y-49022000D03*
%TO.P,,148*%
%TO.N,N/C*%
X72390000Y-31242000D03*
%TO.P,,149*%
%TO.N,GP8*%
X74930000Y-49022000D03*
%TO.P,,150*%
%TO.N,N/C*%
X74930000Y-31242000D03*
%TO.P,,151*%
%TO.N,GP9*%
X77470000Y-49022000D03*
%TO.P,,152*%
%TO.N,N/C*%
X77470000Y-31242000D03*
%TO.P,,153*%
%TO.N,GND*%
X80010000Y-49022000D03*
%TO.P,,154*%
X80010000Y-31242000D03*
%TO.P,,155*%
%TO.N,GP10*%
X82550000Y-49022000D03*
%TO.P,,156*%
%TO.N,PWM*%
X82550000Y-31242000D03*
%TO.P,,157*%
%TO.N,GP11*%
X85090000Y-49022000D03*
%TO.P,,158*%
%TO.N,DIN*%
X85090000Y-31242000D03*
%TO.P,,159*%
%TO.N,GP12*%
X87630000Y-49022000D03*
%TO.P,,160*%
%TO.N,WS*%
X87630000Y-31242000D03*
%TO.P,,161*%
%TO.N,GP13*%
X90170000Y-49022000D03*
%TO.P,,162*%
%TO.N,BCK*%
X90170000Y-31242000D03*
%TO.P,,163*%
%TO.N,GND*%
X92710000Y-49022000D03*
%TO.P,,164*%
X92710000Y-31242000D03*
%TO.P,,165*%
%TO.N,GP14*%
X95250000Y-49022000D03*
%TO.P,,166*%
%TO.N,N/C*%
X95250000Y-31242000D03*
%TO.P,,167*%
%TO.N,GP15*%
X97790000Y-49022000D03*
%TO.P,,168*%
%TO.N,N/C*%
X97790000Y-31242000D03*
%TO.P,,169*%
%TO.N,SWCLK*%
X100330000Y-37592000D03*
%TO.P,,170*%
%TO.N,GND*%
X100330000Y-40132000D03*
%TO.P,,171*%
%TO.N,SWDIO*%
X100330000Y-42672000D03*
%TO.P,,172*%
%TO.N,AOL*%
X109220000Y-19050000D03*
%TO.P,,173*%
%TO.N,ASUM*%
X109220000Y-26670000D03*
%TO.P,,174*%
%TO.N,AOR*%
X113030000Y-19050000D03*
%TO.P,,175*%
%TO.N,ASUM*%
X113030000Y-26670000D03*
%TO.P,,176*%
X117348000Y-19050000D03*
%TO.P,,177*%
%TO.N,AOUT*%
X117348000Y-26670000D03*
%TO.P,,178*%
%TO.N,PWM*%
X106680000Y-40640000D03*
%TO.P,,179*%
%TO.N,PWMF*%
X106680000Y-48260000D03*
%TO.P,,180*%
X110744000Y-40640000D03*
%TO.P,,181*%
%TO.N,GND*%
X110744000Y-48260000D03*
%TO.P,,182*%
%TO.N,PWMF*%
X114808000Y-40640000D03*
%TO.P,,183*%
%TO.N,ASUM*%
X114808000Y-48260000D03*
D12*
%TO.P,,184*%
%TO.N,AOUT*%
X120650000Y-7620000D03*
%TO.P,,185*%
X120650000Y-11430000D03*
%TO.P,,186*%
%TO.N,GND*%
X120650000Y-15240000D03*
D13*
%TO.P,,187*%
%TO.N,AOUT*%
X125730000Y-34290000D03*
%TO.P,,188*%
%TO.N,GND*%
X125730000Y-36830000D03*
%TO.P,,189*%
%TO.N,SWCLK*%
X125730000Y-60960000D03*
%TO.P,,190*%
%TO.N,GND*%
X125730000Y-63500000D03*
%TO.P,,191*%
%TO.N,SWDIO*%
X125730000Y-66040000D03*
D11*
%TO.P,,192*%
%TO.N,+3V3*%
X13970000Y-2540000D03*
%TO.P,,193*%
%TO.N,GND*%
X13970000Y-5080000D03*
%TO.P,,194*%
%TO.N,+3V3*%
X13970000Y-30480000D03*
%TO.P,,195*%
%TO.N,GND*%
X13970000Y-33020000D03*
%TO.P,,196*%
%TO.N,+5V*%
X29210000Y-2540000D03*
%TO.P,,197*%
%TO.N,GND*%
X29210000Y-5080000D03*
%TO.P,,198*%
%TO.N,+5V*%
X29210000Y-30480000D03*
%TO.P,,199*%
%TO.N,GND*%
X29210000Y-33020000D03*
%TO.P,,200*%
%TO.N,+5V*%
X29210000Y-57150000D03*
%TO.P,,201*%
%TO.N,GND*%
X29210000Y-59690000D03*
%TO.P,,202*%
%TO.N,+3V3*%
X100330000Y-7620000D03*
%TO.P,,203*%
%TO.N,GND*%
X100330000Y-10160000D03*
%TO.P,,204*%
%TO.N,+5V*%
X58420000Y-55880000D03*
%TO.P,,205*%
%TO.N,GND*%
X58420000Y-58420000D03*
%TO.P,,206*%
%TO.N,+5V*%
X83820000Y-55880000D03*
%TO.P,,207*%
%TO.N,GND*%
X83820000Y-58420000D03*
D14*
%TO.P,,*%
%TO.N,*%
X6350000Y-6350000D03*
X6350000Y-73660000D03*
X128270000Y-6350000D03*
X128270000Y-73660000D03*
%TD*%
D15*
%TO.N,GND*%
X5048800Y-36622800D03*
X34541200Y-48031000D03*
X4204800Y-11683400D03*
X-3262000Y-57540300D03*
%TO.N,+5V*%
X33661500Y-37651600D03*
X40282100Y-30437400D03*
X1143800Y-13533900D03*
%TO.N,IO0*%
X41185600Y-8778500D03*
X1649500Y-15212500D03*
%TO.N,IO2*%
X27636800Y-41840900D03*
X10380400Y-25383000D03*
X1015700Y-25383000D03*
%TO.N,IO3*%
X22585900Y-28920200D03*
X395700Y-29390200D03*
%TO.N,IO6*%
X14781600Y-21757600D03*
X46832000Y-53340000D03*
X3204500Y-21757600D03*
%TO.N,IO7*%
X3070600Y-13935200D03*
X12549300Y-25402600D03*
%TO.N,IOA1*%
X1234600Y-39104500D03*
%TO.N,IOA2*%
X1004600Y-44111900D03*
%TO.N,BWR*%
X1663600Y-33412800D03*
%TO.N,IDREQ*%
X13175300Y-44788600D03*
X5311700Y-28713500D03*
X36252900Y-29911600D03*
X3966700Y-44788600D03*
%TO.N,BIORES*%
X565800Y-30973100D03*
%TO.N,GP1*%
X41410500Y-19080400D03*
%TO.N,GP3*%
X30859400Y-30898000D03*
X41919000Y-32390500D03*
%TO.N,GP4*%
X42991000Y-21443800D03*
%TO.N,GP6*%
X51630900Y-29223000D03*
%TO.N,GP9*%
X30295700Y-60575300D03*
X63145600Y-63346400D03*
%TO.N,GP15*%
X25238000Y-58280300D03*
%TD*%
%TO.N,GND*%
D16*
X5048800Y-36682900D02*
X5048800Y-36622800D01*
X80010000Y-49022000D02*
X77965500Y-51066500D01*
X77965500Y-51066500D02*
X69356600Y-51066500D01*
X69356600Y-51066500D02*
X67312100Y-49022000D01*
X67312100Y-49022000D02*
X67310000Y-49022000D01*
X72700Y-40005000D02*
X72700Y-39285500D01*
X72700Y-39285500D02*
X2675300Y-36682900D01*
X2675300Y-36682900D02*
X5048800Y-36682900D01*
X24130000Y-35560000D02*
X23007100Y-36682900D01*
X23007100Y-36682900D02*
X5048800Y-36682900D01*
X34541200Y-48031000D02*
X31979000Y-48031000D01*
X31979000Y-48031000D02*
X31750000Y-48260000D01*
X54610000Y-31242000D02*
X50193900Y-26825900D01*
X50193900Y-26825900D02*
X32864100Y-26825900D01*
X32864100Y-26825900D02*
X31750000Y-27940000D01*
X103310200Y-14799800D02*
X102870000Y-15240000D01*
X120650000Y-15240000D02*
X119533800Y-14123800D01*
X119533800Y-14123800D02*
X103986200Y-14123800D01*
X103986200Y-14123800D02*
X103310200Y-14799800D01*
X100330000Y-10160000D02*
X100330000Y-11819700D01*
X100330000Y-11819700D02*
X103310200Y-14799800D01*
X-3262000Y-57540300D02*
X14849700Y-57540300D01*
X14849700Y-57540300D02*
X16510000Y-55880000D01*
X-3949700Y-40005000D02*
X72700Y-40005000D01*
X72700Y-11430000D02*
X326100Y-11683400D01*
X326100Y-11683400D02*
X4204800Y-11683400D01*
X13970000Y-33020000D02*
X15240000Y-34290000D01*
X15240000Y-34290000D02*
X22860000Y-34290000D01*
X22860000Y-34290000D02*
X24130000Y-35560000D01*
X24130000Y-35560000D02*
X26670000Y-35560000D01*
X26670000Y-35560000D02*
X29210000Y-33020000D01*
X16510000Y-55880000D02*
X20320000Y-59690000D01*
X20320000Y-59690000D02*
X29210000Y-59690000D01*
X29210000Y-5080000D02*
X26670000Y-7620000D01*
X26670000Y-7620000D02*
X24130000Y-7620000D01*
X13970000Y-5080000D02*
X15240000Y-6350000D01*
X15240000Y-6350000D02*
X22860000Y-6350000D01*
X22860000Y-6350000D02*
X24130000Y-7620000D01*
X31750000Y-27940000D02*
X31750000Y-25400000D01*
X67310000Y-31242000D02*
X66195900Y-30127900D01*
X66195900Y-30127900D02*
X55724100Y-30127900D01*
X55724100Y-30127900D02*
X54610000Y-31242000D01*
X67310000Y-49022000D02*
X66182100Y-50149900D01*
X66182100Y-50149900D02*
X55737900Y-50149900D01*
X55737900Y-50149900D02*
X54610000Y-49022000D01*
X80010000Y-31242000D02*
X78895900Y-30127900D01*
X78895900Y-30127900D02*
X68424100Y-30127900D01*
X68424100Y-30127900D02*
X67310000Y-31242000D01*
X92710000Y-31242000D02*
X91595900Y-30127900D01*
X91595900Y-30127900D02*
X81124100Y-30127900D01*
X81124100Y-30127900D02*
X80010000Y-31242000D01*
X-3949700Y-11430000D02*
X72700Y-11430000D01*
%TO.N,+5V*%
X29210000Y-30480000D02*
X29470200Y-30219800D01*
X29470200Y-30219800D02*
X31674000Y-30219800D01*
X31674000Y-30219800D02*
X32042500Y-30588300D01*
X32042500Y-30588300D02*
X40131200Y-30588300D01*
X40131200Y-30588300D02*
X40282100Y-30437400D01*
X39370000Y-57150000D02*
X29210000Y-57150000D01*
X40282100Y-30437400D02*
X40622900Y-30096600D01*
X40622900Y-30096600D02*
X50924600Y-30096600D01*
X50924600Y-30096600D02*
X52070000Y-31242000D01*
X29210000Y-2540000D02*
X27940000Y-3810000D01*
X27940000Y-3810000D02*
X13049600Y-3810000D01*
X13049600Y-3810000D02*
X3601100Y-13258500D01*
X3601100Y-13258500D02*
X1419200Y-13258500D01*
X1419200Y-13258500D02*
X1143800Y-13533900D01*
X33661500Y-37651600D02*
X32198400Y-37651600D01*
X32198400Y-37651600D02*
X31750000Y-38100000D01*
X72700Y-52705000D02*
X1977700Y-54610000D01*
X1977700Y-54610000D02*
X21284400Y-54610000D01*
X21284400Y-54610000D02*
X23824400Y-57150000D01*
X23824400Y-57150000D02*
X29210000Y-57150000D01*
X31750000Y-35560000D02*
X36830000Y-35560000D01*
X36830000Y-35560000D02*
X39370000Y-33020000D01*
X58420000Y-55880000D02*
X57150000Y-57150000D01*
X57150000Y-57150000D02*
X39370000Y-57150000D01*
X39370000Y-59690000D02*
X39370000Y-57150000D01*
X29210000Y-2540000D02*
X36830000Y-2540000D01*
X36830000Y-2540000D02*
X39370000Y-5080000D01*
X83820000Y-55880000D02*
X58420000Y-55880000D01*
X-3949700Y-52705000D02*
X72700Y-52705000D01*
%TO.N,+3V3*%
X24130000Y-5080000D02*
X16510000Y-5080000D01*
X24130000Y-33020000D02*
X16510000Y-33020000D01*
X13970000Y-30480000D02*
X16510000Y-33020000D01*
%TO.N,IO0*%
X16510000Y-7620000D02*
X10342800Y-7620000D01*
X10342800Y-7620000D02*
X2750300Y-15212500D01*
X2750300Y-15212500D02*
X1649500Y-15212500D01*
X16510000Y-7620000D02*
X17668500Y-8778500D01*
X17668500Y-8778500D02*
X41185600Y-8778500D01*
%TO.N,IO1*%
X72700Y-20955000D02*
X10867700Y-10160000D01*
X10867700Y-10160000D02*
X16510000Y-10160000D01*
X39370000Y-12700000D02*
X38100000Y-11430000D01*
X38100000Y-11430000D02*
X17780000Y-11430000D01*
X17780000Y-11430000D02*
X16510000Y-10160000D01*
X-3949700Y-20955000D02*
X72700Y-20955000D01*
%TO.N,IO2*%
X39370000Y-43180000D02*
X38030900Y-41840900D01*
X38030900Y-41840900D02*
X27636800Y-41840900D01*
X1015700Y-25383000D02*
X10380400Y-25383000D01*
%TO.N,IO3*%
X395700Y-29390200D02*
X5592000Y-29390200D01*
X5592000Y-29390200D02*
X5669500Y-29312700D01*
X5669500Y-29312700D02*
X22193400Y-29312700D01*
X22193400Y-29312700D02*
X22585900Y-28920200D01*
X39370000Y-17780000D02*
X38100000Y-16510000D01*
X38100000Y-16510000D02*
X17780000Y-16510000D01*
X17780000Y-16510000D02*
X16510000Y-15240000D01*
%TO.N,IO4*%
X18488100Y-19170900D02*
X18488100Y-20016900D01*
X18488100Y-20016900D02*
X16915000Y-21590000D01*
X16915000Y-21590000D02*
X16005200Y-21590000D01*
X16005200Y-21590000D02*
X13180900Y-24414300D01*
X13180900Y-24414300D02*
X12580700Y-24414300D01*
X12580700Y-24414300D02*
X9690000Y-27305000D01*
X9690000Y-27305000D02*
X-3949700Y-27305000D01*
X18488100Y-19170900D02*
X17097200Y-17780000D01*
X17097200Y-17780000D02*
X16510000Y-17780000D01*
X18488100Y-19170900D02*
X38220900Y-19170900D01*
X38220900Y-19170900D02*
X39370000Y-20320000D01*
%TO.N,IO5*%
X16510000Y-20320000D02*
X3684800Y-20320000D01*
X3684800Y-20320000D02*
X72700Y-23932100D01*
X72700Y-23932100D02*
X72700Y-24130000D01*
X-3949700Y-24130000D02*
X72700Y-24130000D01*
%TO.N,IO6*%
X14781600Y-21757600D02*
X3204500Y-21757600D01*
X39370000Y-53340000D02*
X46832000Y-53340000D01*
X39370000Y-25400000D02*
X38100000Y-24130000D01*
X38100000Y-24130000D02*
X17780000Y-24130000D01*
X17780000Y-24130000D02*
X16510000Y-22860000D01*
%TO.N,IO7*%
X-3949700Y-14605000D02*
X72700Y-14605000D01*
X3070600Y-13935200D02*
X2667300Y-14338500D01*
X2667300Y-14338500D02*
X339200Y-14338500D01*
X339200Y-14338500D02*
X72700Y-14605000D01*
X16510000Y-25400000D02*
X12551900Y-25400000D01*
X12551900Y-25400000D02*
X12549300Y-25402600D01*
%TO.N,IOA0*%
X16510000Y-35560000D02*
X1342700Y-35560000D01*
X1342700Y-35560000D02*
X72700Y-36830000D01*
X-3949700Y-36830000D02*
X72700Y-36830000D01*
%TO.N,IOA1*%
X1234600Y-39104500D02*
X2239100Y-38100000D01*
X2239100Y-38100000D02*
X16510000Y-38100000D01*
%TO.N,IOA2*%
X16510000Y-40640000D02*
X17641500Y-41771500D01*
X17641500Y-41771500D02*
X17641500Y-43624200D01*
X17641500Y-43624200D02*
X16970500Y-44295200D01*
X16970500Y-44295200D02*
X13638900Y-44295200D01*
X13638900Y-44295200D02*
X13455600Y-44111900D01*
X13455600Y-44111900D02*
X1004600Y-44111900D01*
%TO.N,IOA3*%
X15367600Y-43180000D02*
X16510000Y-43180000D01*
X-3949700Y-43180000D02*
X15367600Y-43180000D01*
X15367600Y-43180000D02*
X15367600Y-40162400D01*
X15367600Y-40162400D02*
X16160000Y-39370000D01*
X16160000Y-39370000D02*
X21284400Y-39370000D01*
X21284400Y-39370000D02*
X23738200Y-36916200D01*
X23738200Y-36916200D02*
X38013800Y-36916200D01*
X38013800Y-36916200D02*
X39370000Y-35560000D01*
%TO.N,BWR*%
X72700Y-33655000D02*
X314900Y-33412800D01*
X314900Y-33412800D02*
X1663600Y-33412800D01*
X-3949700Y-33655000D02*
X72700Y-33655000D01*
%TO.N,IDREQ*%
X13175300Y-44788600D02*
X3966700Y-44788600D01*
X36252900Y-29911600D02*
X36043900Y-29702600D01*
X36043900Y-29702600D02*
X31233700Y-29702600D01*
X31233700Y-29702600D02*
X30098500Y-28567400D01*
X30098500Y-28567400D02*
X28439900Y-28567400D01*
X28439900Y-28567400D02*
X26650000Y-26777500D01*
X26650000Y-26777500D02*
X13632500Y-26777500D01*
X13632500Y-26777500D02*
X11696500Y-28713500D01*
X11696500Y-28713500D02*
X5311700Y-28713500D01*
X39370000Y-7620000D02*
X36830000Y-5080000D01*
X36830000Y-5080000D02*
X31750000Y-5080000D01*
%TO.N,BIORES*%
X565800Y-30973100D02*
X72700Y-30480000D01*
X-3949700Y-30480000D02*
X72700Y-30480000D01*
%TO.N,GP1*%
X24130000Y-12700000D02*
X25400000Y-13970000D01*
X25400000Y-13970000D02*
X39756600Y-13970000D01*
X39756600Y-13970000D02*
X41410500Y-15623900D01*
X41410500Y-15623900D02*
X41410500Y-19080400D01*
%TO.N,GP3*%
X41919000Y-32390500D02*
X40947900Y-31419400D01*
X40947900Y-31419400D02*
X31380800Y-31419400D01*
X31380800Y-31419400D02*
X30859400Y-30898000D01*
%TO.N,GP4*%
X24130000Y-20320000D02*
X25253800Y-21443800D01*
X25253800Y-21443800D02*
X42991000Y-21443800D01*
%TO.N,GP6*%
X24130000Y-25400000D02*
X27569900Y-25400000D01*
X27569900Y-25400000D02*
X31392900Y-29223000D01*
X31392900Y-29223000D02*
X51630900Y-29223000D01*
%TO.N,GP7*%
X24130000Y-27940000D02*
X28061100Y-31871100D01*
X28061100Y-31871100D02*
X40034000Y-31871100D01*
X40034000Y-31871100D02*
X45600400Y-37437500D01*
X45600400Y-37437500D02*
X64963800Y-37437500D01*
X64963800Y-37437500D02*
X76095200Y-48568900D01*
X76095200Y-48568900D02*
X76095200Y-49432500D01*
X76095200Y-49432500D02*
X75367000Y-50160700D01*
X75367000Y-50160700D02*
X73528700Y-50160700D01*
X73528700Y-50160700D02*
X72390000Y-49022000D01*
%TO.N,GP8*%
X74930000Y-49022000D02*
X65213100Y-39305100D01*
X65213100Y-39305100D02*
X25335100Y-39305100D01*
X25335100Y-39305100D02*
X24130000Y-38100000D01*
%TO.N,GP9*%
X63145600Y-63346400D02*
X37172500Y-63346400D01*
X37172500Y-63346400D02*
X34876300Y-61050200D01*
X34876300Y-61050200D02*
X30770600Y-61050200D01*
X30770600Y-61050200D02*
X30295700Y-60575300D01*
%TO.N,GP10*%
X82550000Y-49022000D02*
X80053200Y-51518800D01*
X80053200Y-51518800D02*
X69129900Y-51518800D01*
X69129900Y-51518800D02*
X68904900Y-51293800D01*
X68904900Y-51293800D02*
X68904900Y-51253600D01*
X68904900Y-51253600D02*
X68485600Y-50834300D01*
X68485600Y-50834300D02*
X54773400Y-50834300D01*
X54773400Y-50834300D02*
X53340000Y-49400900D01*
X53340000Y-49400900D02*
X53340000Y-48637700D01*
X53340000Y-48637700D02*
X49179200Y-44476900D01*
X49179200Y-44476900D02*
X25426900Y-44476900D01*
X25426900Y-44476900D02*
X24130000Y-43180000D01*
%TO.N,GP11*%
X24130000Y-45720000D02*
X25525200Y-47115200D01*
X25525200Y-47115200D02*
X45957700Y-47115200D01*
X45957700Y-47115200D02*
X50361300Y-51518800D01*
X50361300Y-51518800D02*
X68491100Y-51518800D01*
X68491100Y-51518800D02*
X68942800Y-51970500D01*
X68942800Y-51970500D02*
X82141500Y-51970500D01*
X82141500Y-51970500D02*
X85090000Y-49022000D01*
%TO.N,GP12*%
X24130000Y-48260000D02*
X25548500Y-49678500D01*
X25548500Y-49678500D02*
X47130900Y-49678500D01*
X47130900Y-49678500D02*
X49422900Y-51970500D01*
X49422900Y-51970500D02*
X68304000Y-51970500D01*
X68304000Y-51970500D02*
X68755700Y-52422200D01*
X68755700Y-52422200D02*
X84229800Y-52422200D01*
X84229800Y-52422200D02*
X87630000Y-49022000D01*
%TO.N,GP13*%
X24130000Y-50800000D02*
X25343700Y-52013700D01*
X25343700Y-52013700D02*
X48827300Y-52013700D01*
X48827300Y-52013700D02*
X49687500Y-52873900D01*
X49687500Y-52873900D02*
X86318100Y-52873900D01*
X86318100Y-52873900D02*
X90170000Y-49022000D01*
%TO.N,GP14*%
X95250000Y-49022000D02*
X89774500Y-54497500D01*
X89774500Y-54497500D02*
X25287500Y-54497500D01*
X25287500Y-54497500D02*
X24130000Y-53340000D01*
%TO.N,GP15*%
X25238000Y-58280300D02*
X34017200Y-58280300D01*
X34017200Y-58280300D02*
X36562100Y-60825200D01*
X36562100Y-60825200D02*
X85986800Y-60825200D01*
X85986800Y-60825200D02*
X97790000Y-49022000D01*
%TO.N,PWM*%
X106680000Y-40640000D02*
X105055900Y-39015900D01*
X105055900Y-39015900D02*
X90323900Y-39015900D01*
X90323900Y-39015900D02*
X82550000Y-31242000D01*
%TO.N,ASUM*%
X113030000Y-26670000D02*
X109220000Y-26670000D01*
%TO.N,AOUT*%
X125730000Y-34290000D02*
X124968000Y-34290000D01*
X124968000Y-34290000D02*
X117348000Y-26670000D01*
%TO.N,PWMF*%
X110744000Y-40640000D02*
X106680000Y-44704000D01*
X106680000Y-44704000D02*
X106680000Y-48260000D01*
X114808000Y-40640000D02*
X110744000Y-40640000D01*
%TD*%
M02*
