%TF.GenerationSoftware,KiCad,Pcbnew,10.0.6*%
%TF.CreationDate,2026-08-31T06:13:10-04:00*%
%TF.ProjectId,card_routed,63617264-5f72-46f7-9574-65642e6b6963,rev?*%
%TF.SameCoordinates,Original*%
%TF.FileFunction,Copper,L1,Top*%
%TF.FilePolarity,Positive*%
%FSLAX46Y46*%
G04 Gerber Fmt 4.6, Leading zero omitted, Abs format (unit mm)*
G04 Created by KiCad (PCBNEW 10.0.6) date 2026-08-31 06:13:10*
%MOMM*%
%LPD*%
G01*
G04 APERTURE LIST*
%TA.AperFunction,SMDPad,CuDef*%
%ADD10R,7.391400X2.199600*%
%TD*%
%TA.AperFunction,ComponentPad*%
%ADD11C,1.574800*%
%TD*%
%TA.AperFunction,ComponentPad*%
%ADD12C,1.981200*%
%TD*%
%TA.AperFunction,ComponentPad*%
%ADD13C,1.701800*%
%TD*%
%TA.AperFunction,WasherPad*%
%ADD14C,3.810000*%
%TD*%
%TA.AperFunction,ViaPad*%
%ADD15C,0.600000*%
%TD*%
%TA.AperFunction,Conductor*%
%ADD16C,0.250000*%
%TD*%
G04 APERTURE END LIST*
D10*
%TO.P,,2*%
%TO.N,+5V*%
X-3949700Y-52705000D03*
%TO.P,,4*%
%TO.N,IOA3*%
X-3949700Y-43180000D03*
%TO.P,,6*%
%TO.N,GND*%
X-3949700Y-40005000D03*
%TO.P,,8*%
%TO.N,IOA0*%
X-3949700Y-36830000D03*
%TO.P,,10*%
%TO.N,BWR*%
X-3949700Y-33655000D03*
%TO.P,,12*%
%TO.N,BIORES*%
X-3949700Y-30480000D03*
%TO.P,,14*%
%TO.N,IO4*%
X-3949700Y-27305000D03*
%TO.P,,16*%
%TO.N,IO5*%
X-3949700Y-24130000D03*
%TO.P,,18*%
%TO.N,IO1*%
X-3949700Y-20955000D03*
%TO.P,,21*%
%TO.N,IO7*%
X-3949700Y-14605000D03*
%TO.P,,23*%
%TO.N,GND*%
X-3949700Y-11430000D03*
D11*
%TO.P,,25*%
%TO.N,+3V3*%
X16510000Y-5080000D03*
%TO.P,,26*%
X24130000Y-5080000D03*
%TO.P,,27*%
%TO.N,IO0*%
X16510000Y-7620000D03*
%TO.P,,28*%
%TO.N,GND*%
X24130000Y-7620000D03*
%TO.P,,29*%
%TO.N,IO1*%
X16510000Y-10160000D03*
%TO.P,,30*%
%TO.N,GP0*%
X24130000Y-10160000D03*
%TO.P,,31*%
%TO.N,IO2*%
X16510000Y-12700000D03*
%TO.P,,32*%
%TO.N,GP1*%
X24130000Y-12700000D03*
%TO.P,,33*%
%TO.N,IO3*%
X16510000Y-15240000D03*
%TO.P,,34*%
%TO.N,GP2*%
X24130000Y-15240000D03*
%TO.P,,35*%
%TO.N,IO4*%
X16510000Y-17780000D03*
%TO.P,,36*%
%TO.N,GP3*%
X24130000Y-17780000D03*
%TO.P,,37*%
%TO.N,IO5*%
X16510000Y-20320000D03*
%TO.P,,38*%
%TO.N,GP4*%
X24130000Y-20320000D03*
%TO.P,,39*%
%TO.N,IO6*%
X16510000Y-22860000D03*
%TO.P,,40*%
%TO.N,GP5*%
X24130000Y-22860000D03*
%TO.P,,41*%
%TO.N,IO7*%
X16510000Y-25400000D03*
%TO.P,,42*%
%TO.N,GP6*%
X24130000Y-25400000D03*
%TO.P,,43*%
%TO.N,GND*%
X16510000Y-27940000D03*
%TO.P,,44*%
%TO.N,GP7*%
X24130000Y-27940000D03*
%TO.P,,45*%
%TO.N,+3V3*%
X16510000Y-33020000D03*
%TO.P,,46*%
X24130000Y-33020000D03*
%TO.P,,47*%
%TO.N,IOA0*%
X16510000Y-35560000D03*
%TO.P,,48*%
%TO.N,GND*%
X24130000Y-35560000D03*
%TO.P,,49*%
%TO.N,IOA1*%
X16510000Y-38100000D03*
%TO.P,,50*%
%TO.N,GP8*%
X24130000Y-38100000D03*
%TO.P,,51*%
%TO.N,IOA2*%
X16510000Y-40640000D03*
%TO.P,,52*%
%TO.N,GP9*%
X24130000Y-40640000D03*
%TO.P,,53*%
%TO.N,IOA3*%
X16510000Y-43180000D03*
%TO.P,,54*%
%TO.N,GP10*%
X24130000Y-43180000D03*
%TO.P,,55*%
%TO.N,SEL*%
X16510000Y-45720000D03*
%TO.P,,56*%
%TO.N,GP11*%
X24130000Y-45720000D03*
%TO.P,,57*%
%TO.N,BWR*%
X16510000Y-48260000D03*
%TO.P,,58*%
%TO.N,GP12*%
X24130000Y-48260000D03*
%TO.P,,59*%
%TO.N,BIORES*%
X16510000Y-50800000D03*
%TO.P,,60*%
%TO.N,GP13*%
X24130000Y-50800000D03*
%TO.P,,61*%
%TO.N,MHZ8*%
X16510000Y-53340000D03*
%TO.P,,62*%
%TO.N,GP14*%
X24130000Y-53340000D03*
%TO.P,,63*%
%TO.N,GND*%
X16510000Y-55880000D03*
%TO.P,,64*%
%TO.N,GP15*%
X24130000Y-55880000D03*
%TO.P,,65*%
%TO.N,IDREQ*%
X31750000Y-5080000D03*
%TO.P,,66*%
%TO.N,+5V*%
X39370000Y-5080000D03*
%TO.P,,67*%
%TO.N,GND*%
X31750000Y-7620000D03*
%TO.P,,68*%
%TO.N,IDREQ*%
X39370000Y-7620000D03*
%TO.P,,69*%
%TO.N,GND*%
X31750000Y-10160000D03*
%TO.P,,70*%
%TO.N,N/C*%
X39370000Y-10160000D03*
%TO.P,,71*%
%TO.N,GND*%
X31750000Y-12700000D03*
%TO.P,,72*%
%TO.N,IO1*%
X39370000Y-12700000D03*
%TO.P,,73*%
%TO.N,GND*%
X31750000Y-15240000D03*
%TO.P,,74*%
%TO.N,N/C*%
X39370000Y-15240000D03*
%TO.P,,75*%
%TO.N,GND*%
X31750000Y-17780000D03*
%TO.P,,76*%
%TO.N,IO3*%
X39370000Y-17780000D03*
%TO.P,,77*%
%TO.N,GND*%
X31750000Y-20320000D03*
%TO.P,,78*%
%TO.N,IO4*%
X39370000Y-20320000D03*
%TO.P,,79*%
%TO.N,GND*%
X31750000Y-22860000D03*
%TO.P,,80*%
%TO.N,N/C*%
X39370000Y-22860000D03*
%TO.P,,81*%
%TO.N,GND*%
X31750000Y-25400000D03*
%TO.P,,82*%
%TO.N,IO6*%
X39370000Y-25400000D03*
%TO.P,,83*%
%TO.N,GND*%
X31750000Y-27940000D03*
%TO.P,,84*%
%TO.N,N/C*%
X39370000Y-27940000D03*
%TO.P,,85*%
%TO.N,RD3*%
X31750000Y-33020000D03*
%TO.P,,86*%
%TO.N,+5V*%
X39370000Y-33020000D03*
%TO.P,,87*%
X31750000Y-35560000D03*
%TO.P,,88*%
%TO.N,IOA3*%
X39370000Y-35560000D03*
%TO.P,,89*%
%TO.N,+5V*%
X31750000Y-38100000D03*
%TO.P,,90*%
%TO.N,IO0*%
X39370000Y-38100000D03*
%TO.P,,91*%
%TO.N,+5V*%
X31750000Y-40640000D03*
%TO.P,,92*%
%TO.N,IO1*%
X39370000Y-40640000D03*
%TO.P,,93*%
%TO.N,GND*%
X31750000Y-43180000D03*
%TO.P,,94*%
%TO.N,IO2*%
X39370000Y-43180000D03*
%TO.P,,95*%
%TO.N,+5V*%
X31750000Y-45720000D03*
%TO.P,,96*%
%TO.N,IO3*%
X39370000Y-45720000D03*
%TO.P,,97*%
%TO.N,GND*%
X31750000Y-48260000D03*
%TO.P,,98*%
%TO.N,IO4*%
X39370000Y-48260000D03*
%TO.P,,99*%
%TO.N,+5V*%
X31750000Y-50800000D03*
%TO.P,,100*%
%TO.N,IO5*%
X39370000Y-50800000D03*
%TO.P,,101*%
%TO.N,GND*%
X31750000Y-53340000D03*
%TO.P,,102*%
%TO.N,IO6*%
X39370000Y-53340000D03*
%TO.P,,103*%
%TO.N,GND*%
X31750000Y-55880000D03*
%TO.P,,104*%
%TO.N,IO7*%
X39370000Y-55880000D03*
%TO.P,,105*%
%TO.N,IOA0*%
X31750000Y-59690000D03*
%TO.P,,106*%
%TO.N,+5V*%
X39370000Y-59690000D03*
%TO.P,,107*%
%TO.N,IOA1*%
X31750000Y-62230000D03*
%TO.P,,108*%
%TO.N,N/C*%
X39370000Y-62230000D03*
%TO.P,,109*%
%TO.N,IOA2*%
X31750000Y-64770000D03*
%TO.P,,110*%
%TO.N,N/C*%
X39370000Y-64770000D03*
%TO.P,,111*%
%TO.N,SEL*%
X31750000Y-67310000D03*
%TO.P,,112*%
%TO.N,N/C*%
X39370000Y-67310000D03*
%TO.P,,113*%
%TO.N,BRD*%
X31750000Y-69850000D03*
%TO.P,,114*%
%TO.N,RD3*%
X39370000Y-69850000D03*
%TO.P,,115*%
%TO.N,+5V*%
X31750000Y-72390000D03*
%TO.P,,116*%
%TO.N,N/C*%
X39370000Y-72390000D03*
%TO.P,,117*%
X31750000Y-74930000D03*
%TO.P,,118*%
X39370000Y-74930000D03*
%TO.P,,119*%
%TO.N,GND*%
X31750000Y-77470000D03*
%TO.P,,120*%
%TO.N,N/C*%
X39370000Y-77470000D03*
%TO.P,,121*%
%TO.N,BCK*%
X102870000Y-7620000D03*
%TO.P,,122*%
%TO.N,AOL*%
X110490000Y-7620000D03*
%TO.P,,123*%
%TO.N,WS*%
X102870000Y-10160000D03*
%TO.P,,124*%
%TO.N,N/C*%
X110490000Y-10160000D03*
%TO.P,,125*%
%TO.N,DIN*%
X102870000Y-12700000D03*
%TO.P,,126*%
%TO.N,AOR*%
X110490000Y-12700000D03*
%TO.P,,127*%
%TO.N,GND*%
X102870000Y-15240000D03*
%TO.P,,128*%
%TO.N,+3V3*%
X110490000Y-15240000D03*
%TO.P,,129*%
%TO.N,GP0*%
X49530000Y-49022000D03*
%TO.P,,130*%
%TO.N,N/C*%
X49530000Y-31242000D03*
%TO.P,,131*%
%TO.N,GP1*%
X52070000Y-49022000D03*
%TO.P,,132*%
%TO.N,+5V*%
X52070000Y-31242000D03*
%TO.P,,133*%
%TO.N,GND*%
X54610000Y-49022000D03*
%TO.P,,134*%
X54610000Y-31242000D03*
%TO.P,,135*%
%TO.N,GP2*%
X57150000Y-49022000D03*
%TO.P,,136*%
%TO.N,N/C*%
X57150000Y-31242000D03*
%TO.P,,137*%
%TO.N,GP3*%
X59690000Y-49022000D03*
%TO.P,,138*%
%TO.N,+3V3*%
X59690000Y-31242000D03*
%TO.P,,139*%
%TO.N,GP4*%
X62230000Y-49022000D03*
%TO.P,,140*%
%TO.N,N/C*%
X62230000Y-31242000D03*
%TO.P,,141*%
%TO.N,GP5*%
X64770000Y-49022000D03*
%TO.P,,142*%
%TO.N,N/C*%
X64770000Y-31242000D03*
%TO.P,,143*%
%TO.N,GND*%
X67310000Y-49022000D03*
%TO.P,,144*%
X67310000Y-31242000D03*
%TO.P,,145*%
%TO.N,GP6*%
X69850000Y-49022000D03*
%TO.P,,146*%
%TO.N,N/C*%
X69850000Y-31242000D03*
%TO.P,,147*%
%TO.N,GP7*%
X72390000Y-49022000D03*
%TO.P,,148*%
%TO.N,N/C*%
X72390000Y-31242000D03*
%TO.P,,149*%
%TO.N,GP8*%
X74930000Y-49022000D03*
%TO.P,,150*%
%TO.N,N/C*%
X74930000Y-31242000D03*
%TO.P,,151*%
%TO.N,GP9*%
X77470000Y-49022000D03*
%TO.P,,152*%
%TO.N,N/C*%
X77470000Y-31242000D03*
%TO.P,,153*%
%TO.N,GND*%
X80010000Y-49022000D03*
%TO.P,,154*%
X80010000Y-31242000D03*
%TO.P,,155*%
%TO.N,GP10*%
X82550000Y-49022000D03*
%TO.P,,156*%
%TO.N,PWM*%
X82550000Y-31242000D03*
%TO.P,,157*%
%TO.N,GP11*%
X85090000Y-49022000D03*
%TO.P,,158*%
%TO.N,DIN*%
X85090000Y-31242000D03*
%TO.P,,159*%
%TO.N,GP12*%
X87630000Y-49022000D03*
%TO.P,,160*%
%TO.N,WS*%
X87630000Y-31242000D03*
%TO.P,,161*%
%TO.N,GP13*%
X90170000Y-49022000D03*
%TO.P,,162*%
%TO.N,BCK*%
X90170000Y-31242000D03*
%TO.P,,163*%
%TO.N,GND*%
X92710000Y-49022000D03*
%TO.P,,164*%
X92710000Y-31242000D03*
%TO.P,,165*%
%TO.N,GP14*%
X95250000Y-49022000D03*
%TO.P,,166*%
%TO.N,N/C*%
X95250000Y-31242000D03*
%TO.P,,167*%
%TO.N,GP15*%
X97790000Y-49022000D03*
%TO.P,,168*%
%TO.N,N/C*%
X97790000Y-31242000D03*
%TO.P,,169*%
%TO.N,AOL*%
X109220000Y-19050000D03*
%TO.P,,170*%
%TO.N,ASUM*%
X109220000Y-26670000D03*
%TO.P,,171*%
%TO.N,AOR*%
X113030000Y-19050000D03*
%TO.P,,172*%
%TO.N,ASUM*%
X113030000Y-26670000D03*
%TO.P,,173*%
X117348000Y-19050000D03*
%TO.P,,174*%
%TO.N,AOUT*%
X117348000Y-26670000D03*
%TO.P,,175*%
%TO.N,PWM*%
X106680000Y-40640000D03*
%TO.P,,176*%
%TO.N,PWMF*%
X106680000Y-48260000D03*
%TO.P,,177*%
X110744000Y-40640000D03*
%TO.P,,178*%
%TO.N,GND*%
X110744000Y-48260000D03*
%TO.P,,179*%
%TO.N,PWMF*%
X114808000Y-40640000D03*
%TO.P,,180*%
%TO.N,ASUM*%
X114808000Y-48260000D03*
D12*
%TO.P,,181*%
%TO.N,AOUT*%
X120650000Y-7620000D03*
%TO.P,,182*%
X120650000Y-11430000D03*
%TO.P,,183*%
%TO.N,GND*%
X120650000Y-15240000D03*
D13*
%TO.P,,184*%
%TO.N,AOUT*%
X125730000Y-34290000D03*
%TO.P,,185*%
%TO.N,GND*%
X125730000Y-36830000D03*
D11*
%TO.P,,186*%
%TO.N,+3V3*%
X13970000Y-2540000D03*
%TO.P,,187*%
%TO.N,GND*%
X13970000Y-5080000D03*
%TO.P,,188*%
%TO.N,+3V3*%
X13970000Y-30480000D03*
%TO.P,,189*%
%TO.N,GND*%
X13970000Y-33020000D03*
%TO.P,,190*%
%TO.N,+5V*%
X29210000Y-2540000D03*
%TO.P,,191*%
%TO.N,GND*%
X29210000Y-5080000D03*
%TO.P,,192*%
%TO.N,+5V*%
X29210000Y-30480000D03*
%TO.P,,193*%
%TO.N,GND*%
X29210000Y-33020000D03*
%TO.P,,194*%
%TO.N,+5V*%
X29210000Y-57150000D03*
%TO.P,,195*%
%TO.N,GND*%
X29210000Y-59690000D03*
%TO.P,,196*%
%TO.N,+3V3*%
X100330000Y-7620000D03*
%TO.P,,197*%
%TO.N,GND*%
X100330000Y-10160000D03*
%TO.P,,198*%
%TO.N,+5V*%
X58420000Y-55880000D03*
%TO.P,,199*%
%TO.N,GND*%
X58420000Y-58420000D03*
%TO.P,,200*%
%TO.N,+5V*%
X83820000Y-55880000D03*
%TO.P,,201*%
%TO.N,GND*%
X83820000Y-58420000D03*
D14*
%TO.P,,*%
%TO.N,*%
X6350000Y-6350000D03*
X6350000Y-73660000D03*
X128270000Y-6350000D03*
X128270000Y-73660000D03*
%TD*%
D15*
%TO.N,GND*%
X4206100Y-11643100D03*
X-3262000Y-57540300D03*
%TO.N,+5V*%
X40490200Y-30268300D03*
X33779400Y-37664500D03*
X1902900Y-12774800D03*
%TO.N,+3V3*%
X27938900Y-31333400D03*
%TO.N,IO0*%
X2984700Y-13874900D03*
%TO.N,IO1*%
X129900Y-19408600D03*
%TO.N,IO2*%
X27812300Y-13817600D03*
%TO.N,IO6*%
X18457000Y-26307800D03*
X29769300Y-55004600D03*
X37694700Y-55188700D03*
X13756900Y-22218700D03*
X2743400Y-22218700D03*
%TO.N,IO7*%
X28629700Y-55210300D03*
X12273100Y-19915300D03*
%TO.N,IOA1*%
X1234600Y-39104500D03*
%TO.N,IOA2*%
X1187900Y-44295200D03*
%TO.N,SEL*%
X12591900Y-18966900D03*
X3975000Y-13844600D03*
%TO.N,BWR*%
X1663600Y-33412800D03*
%TO.N,IDREQ*%
X13800200Y-44990300D03*
X14544900Y-16370800D03*
X2143300Y-46612000D03*
%TO.N,BIORES*%
X565800Y-30973100D03*
%TO.N,GP0*%
X38236000Y-8734100D03*
X50826700Y-42344600D03*
X45212000Y-43549000D03*
%TO.N,GP2*%
X41167000Y-14124000D03*
%TO.N,GP3*%
X55075400Y-34072200D03*
X33048500Y-31732600D03*
%TO.N,GP4*%
X42298900Y-21591600D03*
X58031100Y-46860100D03*
%TO.N,GP5*%
X27578500Y-25894700D03*
X51436300Y-28871900D03*
%TO.N,GP6*%
X52052300Y-29574500D03*
%TO.N,GP7*%
X35913200Y-37701200D03*
%TO.N,GP15*%
X30381300Y-65891000D03*
%TD*%
%TO.N,GND*%
D16*
X54610000Y-31242000D02*
X54610000Y-31012000D01*
X54610000Y-31012000D02*
X50421900Y-26823900D01*
X50421900Y-26823900D02*
X31750000Y-26823900D01*
X29210000Y-59690000D02*
X30326200Y-60806200D01*
X30326200Y-60806200D02*
X56033800Y-60806200D01*
X56033800Y-60806200D02*
X58420000Y-58420000D01*
X67310000Y-31242000D02*
X66195900Y-30127900D01*
X66195900Y-30127900D02*
X55724100Y-30127900D01*
X55724100Y-30127900D02*
X54610000Y-31242000D01*
X31750000Y-26823900D02*
X31750000Y-25400000D01*
X31750000Y-27940000D02*
X31750000Y-26823900D01*
X67310000Y-49022000D02*
X68903400Y-50615400D01*
X68903400Y-50615400D02*
X73103500Y-50615400D01*
X73103500Y-50615400D02*
X73300900Y-50812800D01*
X73300900Y-50812800D02*
X73384900Y-50812800D01*
X73384900Y-50812800D02*
X73639200Y-51067100D01*
X73639200Y-51067100D02*
X77964900Y-51067100D01*
X77964900Y-51067100D02*
X80010000Y-49022000D01*
X29210000Y-5080000D02*
X26670000Y-7620000D01*
X26670000Y-7620000D02*
X24130000Y-7620000D01*
X72700Y-11430000D02*
X285800Y-11643100D01*
X285800Y-11643100D02*
X4206100Y-11643100D01*
X67310000Y-49022000D02*
X66182100Y-50149900D01*
X66182100Y-50149900D02*
X55737900Y-50149900D01*
X55737900Y-50149900D02*
X54610000Y-49022000D01*
X103310200Y-14799800D02*
X102870000Y-15240000D01*
X120650000Y-15240000D02*
X119533800Y-14123800D01*
X119533800Y-14123800D02*
X103986200Y-14123800D01*
X103986200Y-14123800D02*
X103310200Y-14799800D01*
X100330000Y-10160000D02*
X100330000Y-11819700D01*
X100330000Y-11819700D02*
X103310200Y-14799800D01*
X-3262000Y-57540300D02*
X14849700Y-57540300D01*
X14849700Y-57540300D02*
X16510000Y-55880000D01*
X24130000Y-35560000D02*
X22860000Y-36830000D01*
X22860000Y-36830000D02*
X2528200Y-36830000D01*
X2528200Y-36830000D02*
X72700Y-39285500D01*
X72700Y-39285500D02*
X72700Y-40005000D01*
X-3949700Y-40005000D02*
X72700Y-40005000D01*
X13970000Y-33020000D02*
X15240000Y-34290000D01*
X15240000Y-34290000D02*
X22860000Y-34290000D01*
X22860000Y-34290000D02*
X24130000Y-35560000D01*
X24130000Y-35560000D02*
X26670000Y-35560000D01*
X26670000Y-35560000D02*
X29210000Y-33020000D01*
X16510000Y-55880000D02*
X20320000Y-59690000D01*
X20320000Y-59690000D02*
X29210000Y-59690000D01*
X13970000Y-5080000D02*
X15240000Y-6350000D01*
X15240000Y-6350000D02*
X22860000Y-6350000D01*
X22860000Y-6350000D02*
X24130000Y-7620000D01*
X80010000Y-31242000D02*
X78895900Y-30127900D01*
X78895900Y-30127900D02*
X68424100Y-30127900D01*
X68424100Y-30127900D02*
X67310000Y-31242000D01*
X92710000Y-31242000D02*
X91595900Y-30127900D01*
X91595900Y-30127900D02*
X81124100Y-30127900D01*
X81124100Y-30127900D02*
X80010000Y-31242000D01*
X-3949700Y-11430000D02*
X72700Y-11430000D01*
%TO.N,+5V*%
X40490200Y-30268300D02*
X29421700Y-30268300D01*
X29421700Y-30268300D02*
X29210000Y-30480000D01*
X52070000Y-31242000D02*
X50924600Y-30096600D01*
X50924600Y-30096600D02*
X40661900Y-30096600D01*
X40661900Y-30096600D02*
X40490200Y-30268300D01*
X29210000Y-57150000D02*
X29529400Y-57469400D01*
X29529400Y-57469400D02*
X30468300Y-57469400D01*
X30468300Y-57469400D02*
X30898500Y-57899600D01*
X30898500Y-57899600D02*
X34927700Y-57899600D01*
X34927700Y-57899600D02*
X35357900Y-57469400D01*
X35357900Y-57469400D02*
X39370000Y-57469400D01*
X29210000Y-2540000D02*
X27940000Y-3810000D01*
X27940000Y-3810000D02*
X12966300Y-3810000D01*
X12966300Y-3810000D02*
X5671900Y-11104400D01*
X5671900Y-11104400D02*
X5671900Y-11187700D01*
X5671900Y-11187700D02*
X4144900Y-12714700D01*
X4144900Y-12714700D02*
X1963000Y-12714700D01*
X1963000Y-12714700D02*
X1902900Y-12774800D01*
X39370000Y-57469400D02*
X40959400Y-55880000D01*
X40959400Y-55880000D02*
X58420000Y-55880000D01*
X39370000Y-59690000D02*
X39370000Y-57469400D01*
X31750000Y-38100000D02*
X32185500Y-37664500D01*
X32185500Y-37664500D02*
X33779400Y-37664500D01*
X72700Y-52705000D02*
X1977700Y-54610000D01*
X1977700Y-54610000D02*
X21284400Y-54610000D01*
X21284400Y-54610000D02*
X23824400Y-57150000D01*
X23824400Y-57150000D02*
X29210000Y-57150000D01*
X31750000Y-35560000D02*
X36830000Y-35560000D01*
X36830000Y-35560000D02*
X39370000Y-33020000D01*
X29210000Y-2540000D02*
X36830000Y-2540000D01*
X36830000Y-2540000D02*
X39370000Y-5080000D01*
X83820000Y-55880000D02*
X58420000Y-55880000D01*
X-3949700Y-52705000D02*
X72700Y-52705000D01*
%TO.N,+3V3*%
X27938900Y-31645800D02*
X27938900Y-31333400D01*
X24130000Y-33020000D02*
X25504200Y-31645800D01*
X25504200Y-31645800D02*
X27938900Y-31645800D01*
X27938900Y-31645800D02*
X31591000Y-31645800D01*
X31591000Y-31645800D02*
X32230100Y-31006700D01*
X32230100Y-31006700D02*
X47719100Y-31006700D01*
X47719100Y-31006700D02*
X49511200Y-32798800D01*
X49511200Y-32798800D02*
X58133200Y-32798800D01*
X58133200Y-32798800D02*
X59690000Y-31242000D01*
X24130000Y-5080000D02*
X16510000Y-5080000D01*
X24130000Y-33020000D02*
X16510000Y-33020000D01*
X13970000Y-30480000D02*
X16510000Y-33020000D01*
%TO.N,IO0*%
X16510000Y-7620000D02*
X16508500Y-7621500D01*
X16508500Y-7621500D02*
X9876800Y-7621500D01*
X9876800Y-7621500D02*
X9876800Y-7621600D01*
X9876800Y-7621600D02*
X4332000Y-13166400D01*
X4332000Y-13166400D02*
X3693200Y-13166400D01*
X3693200Y-13166400D02*
X2984700Y-13874900D01*
%TO.N,IO1*%
X72700Y-20955000D02*
X72700Y-19465800D01*
X72700Y-19465800D02*
X129900Y-19408600D01*
X39370000Y-12700000D02*
X38100000Y-11430000D01*
X38100000Y-11430000D02*
X17780000Y-11430000D01*
X17780000Y-11430000D02*
X16510000Y-10160000D01*
X-3949700Y-20955000D02*
X72700Y-20955000D01*
%TO.N,IO2*%
X16510000Y-12700000D02*
X17627600Y-13817600D01*
X17627600Y-13817600D02*
X27812300Y-13817600D01*
%TO.N,IO3*%
X39370000Y-17780000D02*
X38100000Y-16510000D01*
X38100000Y-16510000D02*
X17780000Y-16510000D01*
X17780000Y-16510000D02*
X16510000Y-15240000D01*
%TO.N,IO4*%
X18488100Y-19170900D02*
X17097200Y-17780000D01*
X17097200Y-17780000D02*
X16510000Y-17780000D01*
X-3949700Y-27305000D02*
X10290200Y-27305000D01*
X10290200Y-27305000D02*
X16005200Y-21590000D01*
X16005200Y-21590000D02*
X16915000Y-21590000D01*
X16915000Y-21590000D02*
X18488100Y-20016900D01*
X18488100Y-20016900D02*
X18488100Y-19170900D01*
X18488100Y-19170900D02*
X38220900Y-19170900D01*
X38220900Y-19170900D02*
X39370000Y-20320000D01*
%TO.N,IO5*%
X72700Y-24130000D02*
X72700Y-23932300D01*
X72700Y-23932300D02*
X3413000Y-20592000D01*
X3413000Y-20592000D02*
X16238000Y-20592000D01*
X16238000Y-20592000D02*
X16510000Y-20320000D01*
X-3949700Y-24130000D02*
X72700Y-24130000D01*
%TO.N,IO6*%
X18457000Y-24283800D02*
X17033200Y-22860000D01*
X17033200Y-22860000D02*
X16510000Y-22860000D01*
X18457000Y-26307800D02*
X18457000Y-24283800D01*
X39370000Y-25400000D02*
X38253800Y-24283800D01*
X38253800Y-24283800D02*
X18457000Y-24283800D01*
X37694700Y-55188700D02*
X36136100Y-55188700D01*
X36136100Y-55188700D02*
X34328600Y-56996200D01*
X34328600Y-56996200D02*
X31272700Y-56996200D01*
X31272700Y-56996200D02*
X30221300Y-55944800D01*
X30221300Y-55944800D02*
X30221300Y-55308000D01*
X30221300Y-55308000D02*
X29917900Y-55004600D01*
X29917900Y-55004600D02*
X29769300Y-55004600D01*
X13756900Y-22218700D02*
X2743400Y-22218700D01*
%TO.N,IO7*%
X28629700Y-55210300D02*
X29092600Y-55210300D01*
X29092600Y-55210300D02*
X29092600Y-55284800D01*
X29092600Y-55284800D02*
X29489100Y-55681300D01*
X29489100Y-55681300D02*
X29769600Y-55681300D01*
X29769600Y-55681300D02*
X29769600Y-56131900D01*
X29769600Y-56131900D02*
X31085600Y-57447900D01*
X31085600Y-57447900D02*
X34740600Y-57447900D01*
X34740600Y-57447900D02*
X35005200Y-57183300D01*
X35005200Y-57183300D02*
X35005200Y-56996200D01*
X35005200Y-56996200D02*
X38253800Y-56996200D01*
X38253800Y-56996200D02*
X39370000Y-55880000D01*
X72700Y-14605000D02*
X5383000Y-19915300D01*
X5383000Y-19915300D02*
X12273100Y-19915300D01*
X-3949700Y-14605000D02*
X72700Y-14605000D01*
%TO.N,IOA0*%
X16510000Y-35560000D02*
X1342700Y-35560000D01*
X1342700Y-35560000D02*
X72700Y-36830000D01*
X-3949700Y-36830000D02*
X72700Y-36830000D01*
%TO.N,IOA1*%
X1234600Y-39104500D02*
X2239100Y-38100000D01*
X2239100Y-38100000D02*
X16510000Y-38100000D01*
%TO.N,IOA2*%
X16510000Y-40640000D02*
X17641500Y-41771500D01*
X17641500Y-41771500D02*
X17641500Y-43624200D01*
X17641500Y-43624200D02*
X16970500Y-44295200D01*
X16970500Y-44295200D02*
X1187900Y-44295200D01*
%TO.N,IOA3*%
X39370000Y-35560000D02*
X38067300Y-36862700D01*
X38067300Y-36862700D02*
X23791700Y-36862700D01*
X23791700Y-36862700D02*
X21284400Y-39370000D01*
X21284400Y-39370000D02*
X16160000Y-39370000D01*
X16160000Y-39370000D02*
X15367600Y-40162400D01*
X15367600Y-40162400D02*
X15367600Y-43180000D01*
X15367600Y-43180000D02*
X16510000Y-43180000D01*
X-3949700Y-43180000D02*
X15367600Y-43180000D01*
%TO.N,SEL*%
X12591900Y-18966900D02*
X9097300Y-18966900D01*
X9097300Y-18966900D02*
X3975000Y-13844600D01*
%TO.N,BWR*%
X72700Y-33655000D02*
X314900Y-33412800D01*
X314900Y-33412800D02*
X1663600Y-33412800D01*
X-3949700Y-33655000D02*
X72700Y-33655000D01*
%TO.N,IDREQ*%
X31750000Y-5080000D02*
X27940000Y-8890000D01*
X27940000Y-8890000D02*
X16123100Y-8890000D01*
X16123100Y-8890000D02*
X14544900Y-10468200D01*
X14544900Y-10468200D02*
X14544900Y-16370800D01*
X2143300Y-46612000D02*
X12178500Y-46612000D01*
X12178500Y-46612000D02*
X13800200Y-44990300D01*
X39370000Y-7620000D02*
X36830000Y-5080000D01*
X36830000Y-5080000D02*
X31750000Y-5080000D01*
%TO.N,BIORES*%
X565800Y-30973100D02*
X72700Y-30480000D01*
X-3949700Y-30480000D02*
X72700Y-30480000D01*
%TO.N,GP0*%
X24130000Y-10160000D02*
X28628100Y-10160000D01*
X28628100Y-10160000D02*
X30054000Y-8734100D01*
X30054000Y-8734100D02*
X38236000Y-8734100D01*
X45212000Y-43549000D02*
X49622300Y-43549000D01*
X49622300Y-43549000D02*
X50826700Y-42344600D01*
%TO.N,GP2*%
X24130000Y-15240000D02*
X27764300Y-15240000D01*
X27764300Y-15240000D02*
X28880300Y-14124000D01*
X28880300Y-14124000D02*
X41167000Y-14124000D01*
%TO.N,GP3*%
X55075400Y-34072200D02*
X50145800Y-34072200D01*
X50145800Y-34072200D02*
X47806200Y-31732600D01*
X47806200Y-31732600D02*
X33048500Y-31732600D01*
%TO.N,GP4*%
X24130000Y-20320000D02*
X25401600Y-21591600D01*
X25401600Y-21591600D02*
X42298900Y-21591600D01*
X62230000Y-49022000D02*
X60068200Y-46860200D01*
X60068200Y-46860200D02*
X58031100Y-46860200D01*
X58031100Y-46860200D02*
X58031100Y-46860100D01*
%TO.N,GP5*%
X27578500Y-25894700D02*
X30772200Y-29088400D01*
X30772200Y-29088400D02*
X51219800Y-29088400D01*
X51219800Y-29088400D02*
X51436300Y-28871900D01*
%TO.N,GP6*%
X24130000Y-25400000D02*
X26126900Y-25400000D01*
X26126900Y-25400000D02*
X30301400Y-29574500D01*
X30301400Y-29574500D02*
X52052300Y-29574500D01*
%TO.N,GP7*%
X72390000Y-49022000D02*
X72984100Y-49022000D01*
X72984100Y-49022000D02*
X74125800Y-50163700D01*
X74125800Y-50163700D02*
X75364000Y-50163700D01*
X75364000Y-50163700D02*
X76095200Y-49432500D01*
X76095200Y-49432500D02*
X76095200Y-48532100D01*
X76095200Y-48532100D02*
X64541800Y-36978700D01*
X64541800Y-36978700D02*
X38661500Y-36978700D01*
X38661500Y-36978700D02*
X37939000Y-37701200D01*
X37939000Y-37701200D02*
X35913200Y-37701200D01*
%TO.N,GP8*%
X74930000Y-49022000D02*
X65214500Y-39306500D01*
X65214500Y-39306500D02*
X25336500Y-39306500D01*
X25336500Y-39306500D02*
X24130000Y-38100000D01*
%TO.N,GP9*%
X77470000Y-49022000D02*
X75876600Y-50615400D01*
X75876600Y-50615400D02*
X73826300Y-50615400D01*
X73826300Y-50615400D02*
X73374600Y-50163700D01*
X73374600Y-50163700D02*
X69416100Y-50163700D01*
X69416100Y-50163700D02*
X68735900Y-49483500D01*
X68735900Y-49483500D02*
X68735900Y-48834400D01*
X68735900Y-48834400D02*
X61569400Y-41667900D01*
X61569400Y-41667900D02*
X50546500Y-41667900D01*
X50546500Y-41667900D02*
X50148600Y-42065800D01*
X50148600Y-42065800D02*
X25555800Y-42065800D01*
X25555800Y-42065800D02*
X24130000Y-40640000D01*
%TO.N,GP10*%
X24130000Y-43180000D02*
X25478800Y-44528800D01*
X25478800Y-44528800D02*
X49229200Y-44528800D01*
X49229200Y-44528800D02*
X53184100Y-48483700D01*
X53184100Y-48483700D02*
X53184100Y-49236300D01*
X53184100Y-49236300D02*
X54566000Y-50618200D01*
X54566000Y-50618200D02*
X67646100Y-50618200D01*
X67646100Y-50618200D02*
X68096300Y-51068400D01*
X68096300Y-51068400D02*
X72917700Y-51068400D01*
X72917700Y-51068400D02*
X73113800Y-51264500D01*
X73113800Y-51264500D02*
X73197800Y-51264500D01*
X73197800Y-51264500D02*
X73518900Y-51585600D01*
X73518900Y-51585600D02*
X79986400Y-51585600D01*
X79986400Y-51585600D02*
X82550000Y-49022000D01*
%TO.N,GP11*%
X24130000Y-45720000D02*
X25522200Y-47112200D01*
X25522200Y-47112200D02*
X45954700Y-47112200D01*
X45954700Y-47112200D02*
X49912400Y-51069900D01*
X49912400Y-51069900D02*
X67233800Y-51069900D01*
X67233800Y-51069900D02*
X67684000Y-51520100D01*
X67684000Y-51520100D02*
X72730600Y-51520100D01*
X72730600Y-51520100D02*
X73247800Y-52037300D01*
X73247800Y-52037300D02*
X82074700Y-52037300D01*
X82074700Y-52037300D02*
X85090000Y-49022000D01*
%TO.N,GP12*%
X24130000Y-48260000D02*
X25548500Y-49678500D01*
X25548500Y-49678500D02*
X47130900Y-49678500D01*
X47130900Y-49678500D02*
X49422900Y-51970500D01*
X49422900Y-51970500D02*
X67495600Y-51970500D01*
X67495600Y-51970500D02*
X68014100Y-52489000D01*
X68014100Y-52489000D02*
X84163000Y-52489000D01*
X84163000Y-52489000D02*
X87630000Y-49022000D01*
%TO.N,GP13*%
X24130000Y-50800000D02*
X25343700Y-52013700D01*
X25343700Y-52013700D02*
X48827300Y-52013700D01*
X48827300Y-52013700D02*
X49754300Y-52940700D01*
X49754300Y-52940700D02*
X86251300Y-52940700D01*
X86251300Y-52940700D02*
X90170000Y-49022000D01*
%TO.N,GP14*%
X95250000Y-49022000D02*
X89774500Y-54497500D01*
X89774500Y-54497500D02*
X30219200Y-54497500D01*
X30219200Y-54497500D02*
X30049600Y-54327900D01*
X30049600Y-54327900D02*
X29489100Y-54327900D01*
X29489100Y-54327900D02*
X29319500Y-54497500D01*
X29319500Y-54497500D02*
X25287500Y-54497500D01*
X25287500Y-54497500D02*
X24130000Y-53340000D01*
%TO.N,GP15*%
X97790000Y-49022000D02*
X80921000Y-65891000D01*
X80921000Y-65891000D02*
X30381300Y-65891000D01*
%TO.N,PWM*%
X106680000Y-40640000D02*
X91948000Y-40640000D01*
X91948000Y-40640000D02*
X82550000Y-31242000D01*
%TO.N,ASUM*%
X113030000Y-26670000D02*
X109220000Y-26670000D01*
%TO.N,AOUT*%
X125730000Y-34290000D02*
X124968000Y-34290000D01*
X124968000Y-34290000D02*
X117348000Y-26670000D01*
%TO.N,PWMF*%
X114808000Y-40640000D02*
X110744000Y-40640000D01*
%TD*%
M02*
