%TF.GenerationSoftware,KiCad,Pcbnew,10.0.6*%
%TF.CreationDate,2026-08-31T06:38:44-04:00*%
%TF.ProjectId,card_routed,63617264-5f72-46f7-9574-65642e6b6963,rev?*%
%TF.SameCoordinates,Original*%
%TF.FileFunction,Copper,L1,Top*%
%TF.FilePolarity,Positive*%
%FSLAX46Y46*%
G04 Gerber Fmt 4.6, Leading zero omitted, Abs format (unit mm)*
G04 Created by KiCad (PCBNEW 10.0.6) date 2026-08-31 06:38:44*
%MOMM*%
%LPD*%
G01*
G04 APERTURE LIST*
%TA.AperFunction,SMDPad,CuDef*%
%ADD10R,7.391400X2.199600*%
%TD*%
%TA.AperFunction,ComponentPad*%
%ADD11C,1.574800*%
%TD*%
%TA.AperFunction,SMDPad,CuDef*%
%ADD12R,1.549400X0.609600*%
%TD*%
%TA.AperFunction,ComponentPad*%
%ADD13O,2.200000X1.200000*%
%TD*%
%TA.AperFunction,ComponentPad*%
%ADD14O,1.200000X2.200000*%
%TD*%
%TA.AperFunction,ComponentPad*%
%ADD15C,1.701800*%
%TD*%
%TA.AperFunction,WasherPad*%
%ADD16C,3.810000*%
%TD*%
%TA.AperFunction,ViaPad*%
%ADD17C,0.600000*%
%TD*%
%TA.AperFunction,Conductor*%
%ADD18C,0.250000*%
%TD*%
%TA.AperFunction,Conductor*%
%ADD19C,0.200000*%
%TD*%
G04 APERTURE END LIST*
D10*
%TO.P,,2*%
%TO.N,+5V*%
X-3949700Y-52705000D03*
%TO.P,,4*%
%TO.N,IOA3*%
X-3949700Y-43180000D03*
%TO.P,,6*%
%TO.N,GND*%
X-3949700Y-40005000D03*
%TO.P,,8*%
%TO.N,IOA0*%
X-3949700Y-36830000D03*
%TO.P,,10*%
%TO.N,BWR*%
X-3949700Y-33655000D03*
%TO.P,,12*%
%TO.N,BIORES*%
X-3949700Y-30480000D03*
%TO.P,,14*%
%TO.N,IO4*%
X-3949700Y-27305000D03*
%TO.P,,16*%
%TO.N,IO5*%
X-3949700Y-24130000D03*
%TO.P,,18*%
%TO.N,IO1*%
X-3949700Y-20955000D03*
%TO.P,,21*%
%TO.N,IO7*%
X-3949700Y-14605000D03*
%TO.P,,23*%
%TO.N,GND*%
X-3949700Y-11430000D03*
D11*
%TO.P,,25*%
%TO.N,+3V3*%
X16510000Y-5080000D03*
%TO.P,,26*%
X24130000Y-5080000D03*
%TO.P,,27*%
%TO.N,IO0*%
X16510000Y-7620000D03*
%TO.P,,28*%
%TO.N,GND*%
X24130000Y-7620000D03*
%TO.P,,29*%
%TO.N,IO1*%
X16510000Y-10160000D03*
%TO.P,,30*%
%TO.N,GP0*%
X24130000Y-10160000D03*
%TO.P,,31*%
%TO.N,IO2*%
X16510000Y-12700000D03*
%TO.P,,32*%
%TO.N,GP1*%
X24130000Y-12700000D03*
%TO.P,,33*%
%TO.N,IO3*%
X16510000Y-15240000D03*
%TO.P,,34*%
%TO.N,GP2*%
X24130000Y-15240000D03*
%TO.P,,35*%
%TO.N,IO4*%
X16510000Y-17780000D03*
%TO.P,,36*%
%TO.N,GP3*%
X24130000Y-17780000D03*
%TO.P,,37*%
%TO.N,IO5*%
X16510000Y-20320000D03*
%TO.P,,38*%
%TO.N,GP4*%
X24130000Y-20320000D03*
%TO.P,,39*%
%TO.N,IO6*%
X16510000Y-22860000D03*
%TO.P,,40*%
%TO.N,GP5*%
X24130000Y-22860000D03*
%TO.P,,41*%
%TO.N,IO7*%
X16510000Y-25400000D03*
%TO.P,,42*%
%TO.N,GP6*%
X24130000Y-25400000D03*
%TO.P,,43*%
%TO.N,GND*%
X16510000Y-27940000D03*
%TO.P,,44*%
%TO.N,GP7*%
X24130000Y-27940000D03*
%TO.P,,45*%
%TO.N,+3V3*%
X16510000Y-33020000D03*
%TO.P,,46*%
X24130000Y-33020000D03*
%TO.P,,47*%
%TO.N,IOA0*%
X16510000Y-35560000D03*
%TO.P,,48*%
%TO.N,GND*%
X24130000Y-35560000D03*
%TO.P,,49*%
%TO.N,IOA1*%
X16510000Y-38100000D03*
%TO.P,,50*%
%TO.N,GP8*%
X24130000Y-38100000D03*
%TO.P,,51*%
%TO.N,IOA2*%
X16510000Y-40640000D03*
%TO.P,,52*%
%TO.N,GP9*%
X24130000Y-40640000D03*
%TO.P,,53*%
%TO.N,IOA3*%
X16510000Y-43180000D03*
%TO.P,,54*%
%TO.N,GP10*%
X24130000Y-43180000D03*
%TO.P,,55*%
%TO.N,SEL*%
X16510000Y-45720000D03*
%TO.P,,56*%
%TO.N,GP11*%
X24130000Y-45720000D03*
%TO.P,,57*%
%TO.N,BWR*%
X16510000Y-48260000D03*
%TO.P,,58*%
%TO.N,GP12*%
X24130000Y-48260000D03*
%TO.P,,59*%
%TO.N,BIORES*%
X16510000Y-50800000D03*
%TO.P,,60*%
%TO.N,GP13*%
X24130000Y-50800000D03*
%TO.P,,61*%
%TO.N,MHZ8*%
X16510000Y-53340000D03*
%TO.P,,62*%
%TO.N,GP14*%
X24130000Y-53340000D03*
%TO.P,,63*%
%TO.N,GND*%
X16510000Y-55880000D03*
%TO.P,,64*%
%TO.N,GP15*%
X24130000Y-55880000D03*
%TO.P,,65*%
%TO.N,IDREQ*%
X31750000Y-5080000D03*
%TO.P,,66*%
%TO.N,+5V*%
X39370000Y-5080000D03*
%TO.P,,67*%
%TO.N,GND*%
X31750000Y-7620000D03*
%TO.P,,68*%
%TO.N,IDREQ*%
X39370000Y-7620000D03*
%TO.P,,69*%
%TO.N,GND*%
X31750000Y-10160000D03*
%TO.P,,70*%
%TO.N,N/C*%
X39370000Y-10160000D03*
%TO.P,,71*%
%TO.N,GND*%
X31750000Y-12700000D03*
%TO.P,,72*%
%TO.N,IO1*%
X39370000Y-12700000D03*
%TO.P,,73*%
%TO.N,GND*%
X31750000Y-15240000D03*
%TO.P,,74*%
%TO.N,N/C*%
X39370000Y-15240000D03*
%TO.P,,75*%
%TO.N,GND*%
X31750000Y-17780000D03*
%TO.P,,76*%
%TO.N,IO3*%
X39370000Y-17780000D03*
%TO.P,,77*%
%TO.N,GND*%
X31750000Y-20320000D03*
%TO.P,,78*%
%TO.N,IO4*%
X39370000Y-20320000D03*
%TO.P,,79*%
%TO.N,GND*%
X31750000Y-22860000D03*
%TO.P,,80*%
%TO.N,N/C*%
X39370000Y-22860000D03*
%TO.P,,81*%
%TO.N,GND*%
X31750000Y-25400000D03*
%TO.P,,82*%
%TO.N,IO6*%
X39370000Y-25400000D03*
%TO.P,,83*%
%TO.N,GND*%
X31750000Y-27940000D03*
%TO.P,,84*%
%TO.N,N/C*%
X39370000Y-27940000D03*
%TO.P,,85*%
%TO.N,RD3*%
X31750000Y-33020000D03*
%TO.P,,86*%
%TO.N,+5V*%
X39370000Y-33020000D03*
%TO.P,,87*%
X31750000Y-35560000D03*
%TO.P,,88*%
%TO.N,IOA3*%
X39370000Y-35560000D03*
%TO.P,,89*%
%TO.N,+5V*%
X31750000Y-38100000D03*
%TO.P,,90*%
%TO.N,IO0*%
X39370000Y-38100000D03*
%TO.P,,91*%
%TO.N,+5V*%
X31750000Y-40640000D03*
%TO.P,,92*%
%TO.N,IO1*%
X39370000Y-40640000D03*
%TO.P,,93*%
%TO.N,GND*%
X31750000Y-43180000D03*
%TO.P,,94*%
%TO.N,IO2*%
X39370000Y-43180000D03*
%TO.P,,95*%
%TO.N,+5V*%
X31750000Y-45720000D03*
%TO.P,,96*%
%TO.N,IO3*%
X39370000Y-45720000D03*
%TO.P,,97*%
%TO.N,GND*%
X31750000Y-48260000D03*
%TO.P,,98*%
%TO.N,IO4*%
X39370000Y-48260000D03*
%TO.P,,99*%
%TO.N,+5V*%
X31750000Y-50800000D03*
%TO.P,,100*%
%TO.N,IO5*%
X39370000Y-50800000D03*
%TO.P,,101*%
%TO.N,GND*%
X31750000Y-53340000D03*
%TO.P,,102*%
%TO.N,IO6*%
X39370000Y-53340000D03*
%TO.P,,103*%
%TO.N,GND*%
X31750000Y-55880000D03*
%TO.P,,104*%
%TO.N,IO7*%
X39370000Y-55880000D03*
%TO.P,,105*%
%TO.N,IOA0*%
X31750000Y-59690000D03*
%TO.P,,106*%
%TO.N,+5V*%
X39370000Y-59690000D03*
%TO.P,,107*%
%TO.N,IOA1*%
X31750000Y-62230000D03*
%TO.P,,108*%
%TO.N,N/C*%
X39370000Y-62230000D03*
%TO.P,,109*%
%TO.N,IOA2*%
X31750000Y-64770000D03*
%TO.P,,110*%
%TO.N,N/C*%
X39370000Y-64770000D03*
%TO.P,,111*%
%TO.N,SEL*%
X31750000Y-67310000D03*
%TO.P,,112*%
%TO.N,N/C*%
X39370000Y-67310000D03*
%TO.P,,113*%
%TO.N,BRD*%
X31750000Y-69850000D03*
%TO.P,,114*%
%TO.N,RD3*%
X39370000Y-69850000D03*
%TO.P,,115*%
%TO.N,+5V*%
X31750000Y-72390000D03*
%TO.P,,116*%
%TO.N,N/C*%
X39370000Y-72390000D03*
%TO.P,,117*%
X31750000Y-74930000D03*
%TO.P,,118*%
X39370000Y-74930000D03*
%TO.P,,119*%
%TO.N,GND*%
X31750000Y-77470000D03*
%TO.P,,120*%
%TO.N,N/C*%
X39370000Y-77470000D03*
%TO.P,,121*%
%TO.N,BCK*%
X102870000Y-7620000D03*
%TO.P,,122*%
%TO.N,RCH*%
X110490000Y-7620000D03*
%TO.P,,123*%
%TO.N,WS*%
X102870000Y-10160000D03*
%TO.P,,124*%
%TO.N,N/C*%
X110490000Y-10160000D03*
%TO.P,,125*%
%TO.N,DIN*%
X102870000Y-12700000D03*
%TO.P,,126*%
%TO.N,LCH*%
X110490000Y-12700000D03*
%TO.P,,127*%
%TO.N,GND*%
X102870000Y-15240000D03*
%TO.P,,128*%
%TO.N,VDDF*%
X110490000Y-15240000D03*
D12*
%TO.P,,129*%
%TO.N,BCK*%
X112395000Y-9525000D03*
%TO.P,,130*%
%TO.N,RCH*%
X117779800Y-9525000D03*
%TO.P,,131*%
%TO.N,WS*%
X112395000Y-10795000D03*
%TO.P,,132*%
%TO.N,N/C*%
X117779800Y-10795000D03*
%TO.P,,133*%
%TO.N,DIN*%
X112395000Y-12065000D03*
%TO.P,,134*%
%TO.N,LCH*%
X117779800Y-12065000D03*
%TO.P,,135*%
%TO.N,GND*%
X112395000Y-13335000D03*
%TO.P,,136*%
%TO.N,VDDF*%
X117779800Y-13335000D03*
D11*
%TO.P,,137*%
%TO.N,GP0*%
X49530000Y-49022000D03*
%TO.P,,138*%
%TO.N,N/C*%
X49530000Y-31242000D03*
%TO.P,,139*%
%TO.N,GP1*%
X52070000Y-49022000D03*
%TO.P,,140*%
%TO.N,+5V*%
X52070000Y-31242000D03*
%TO.P,,141*%
%TO.N,GND*%
X54610000Y-49022000D03*
%TO.P,,142*%
X54610000Y-31242000D03*
%TO.P,,143*%
%TO.N,GP2*%
X57150000Y-49022000D03*
%TO.P,,144*%
%TO.N,N/C*%
X57150000Y-31242000D03*
%TO.P,,145*%
%TO.N,GP3*%
X59690000Y-49022000D03*
%TO.P,,146*%
%TO.N,+3V3*%
X59690000Y-31242000D03*
%TO.P,,147*%
%TO.N,GP4*%
X62230000Y-49022000D03*
%TO.P,,148*%
%TO.N,N/C*%
X62230000Y-31242000D03*
%TO.P,,149*%
%TO.N,GP5*%
X64770000Y-49022000D03*
%TO.P,,150*%
%TO.N,N/C*%
X64770000Y-31242000D03*
%TO.P,,151*%
%TO.N,GND*%
X67310000Y-49022000D03*
%TO.P,,152*%
X67310000Y-31242000D03*
%TO.P,,153*%
%TO.N,GP6*%
X69850000Y-49022000D03*
%TO.P,,154*%
%TO.N,N/C*%
X69850000Y-31242000D03*
%TO.P,,155*%
%TO.N,GP7*%
X72390000Y-49022000D03*
%TO.P,,156*%
%TO.N,N/C*%
X72390000Y-31242000D03*
%TO.P,,157*%
%TO.N,GP8*%
X74930000Y-49022000D03*
%TO.P,,158*%
%TO.N,N/C*%
X74930000Y-31242000D03*
%TO.P,,159*%
%TO.N,GP9*%
X77470000Y-49022000D03*
%TO.P,,160*%
%TO.N,N/C*%
X77470000Y-31242000D03*
%TO.P,,161*%
%TO.N,GND*%
X80010000Y-49022000D03*
%TO.P,,162*%
X80010000Y-31242000D03*
%TO.P,,163*%
%TO.N,GP10*%
X82550000Y-49022000D03*
%TO.P,,164*%
%TO.N,PWM*%
X82550000Y-31242000D03*
%TO.P,,165*%
%TO.N,GP11*%
X85090000Y-49022000D03*
%TO.P,,166*%
%TO.N,DIN*%
X85090000Y-31242000D03*
%TO.P,,167*%
%TO.N,GP12*%
X87630000Y-49022000D03*
%TO.P,,168*%
%TO.N,WS*%
X87630000Y-31242000D03*
%TO.P,,169*%
%TO.N,GP13*%
X90170000Y-49022000D03*
%TO.P,,170*%
%TO.N,BCK*%
X90170000Y-31242000D03*
%TO.P,,171*%
%TO.N,GND*%
X92710000Y-49022000D03*
%TO.P,,172*%
X92710000Y-31242000D03*
%TO.P,,173*%
%TO.N,GP14*%
X95250000Y-49022000D03*
%TO.P,,174*%
%TO.N,N/C*%
X95250000Y-31242000D03*
%TO.P,,175*%
%TO.N,GP15*%
X97790000Y-49022000D03*
%TO.P,,176*%
%TO.N,N/C*%
X97790000Y-31242000D03*
%TO.P,,177*%
%TO.N,+3V3*%
X106680000Y-19050000D03*
%TO.P,,178*%
%TO.N,VDDF*%
X106680000Y-21590000D03*
%TO.P,,179*%
X109728000Y-19050000D03*
%TO.P,,180*%
%TO.N,GND*%
X109728000Y-21590000D03*
%TO.P,,181*%
%TO.N,LCH*%
X106680000Y-25400000D03*
%TO.P,,182*%
%TO.N,AOL_C*%
X106680000Y-27940000D03*
%TO.P,,183*%
%TO.N,RCH*%
X109728000Y-25400000D03*
%TO.P,,184*%
%TO.N,AOR_C*%
X109728000Y-27940000D03*
%TO.P,,185*%
%TO.N,PWM*%
X106680000Y-40640000D03*
%TO.P,,186*%
%TO.N,PWMF*%
X106680000Y-48260000D03*
%TO.P,,187*%
X110744000Y-40640000D03*
%TO.P,,188*%
%TO.N,GND*%
X110744000Y-48260000D03*
%TO.P,,189*%
%TO.N,PWMF*%
X114808000Y-40640000D03*
%TO.P,,190*%
%TO.N,AOL_C*%
X114808000Y-48260000D03*
%TO.P,,191*%
X118364000Y-40640000D03*
%TO.P,,192*%
%TO.N,J2SIG*%
X118364000Y-48260000D03*
D13*
%TO.P,,T*%
%TO.N,AOL_C*%
X119968000Y-10748000D03*
D14*
%TO.P,,S*%
%TO.N,GND*%
X124968000Y-15748000D03*
D13*
%TO.P,,R*%
%TO.N,AOR_C*%
X119968000Y-20748000D03*
D15*
%TO.P,,198*%
%TO.N,J2SIG*%
X126492000Y-34290000D03*
%TO.P,,199*%
%TO.N,GND*%
X126492000Y-36830000D03*
D11*
%TO.P,,200*%
%TO.N,+3V3*%
X13970000Y-2540000D03*
%TO.P,,201*%
%TO.N,GND*%
X13970000Y-5080000D03*
%TO.P,,202*%
%TO.N,+3V3*%
X13970000Y-30480000D03*
%TO.P,,203*%
%TO.N,GND*%
X13970000Y-33020000D03*
%TO.P,,204*%
%TO.N,+5V*%
X29210000Y-2540000D03*
%TO.P,,205*%
%TO.N,GND*%
X29210000Y-5080000D03*
%TO.P,,206*%
%TO.N,+5V*%
X29210000Y-30480000D03*
%TO.P,,207*%
%TO.N,GND*%
X29210000Y-33020000D03*
%TO.P,,208*%
%TO.N,+5V*%
X29210000Y-57150000D03*
%TO.P,,209*%
%TO.N,GND*%
X29210000Y-59690000D03*
%TO.P,,210*%
%TO.N,VDDF*%
X100330000Y-7620000D03*
%TO.P,,211*%
%TO.N,GND*%
X100330000Y-10160000D03*
%TO.P,,212*%
%TO.N,+5V*%
X58420000Y-55880000D03*
%TO.P,,213*%
%TO.N,GND*%
X58420000Y-58420000D03*
%TO.P,,214*%
%TO.N,+5V*%
X83820000Y-55880000D03*
%TO.P,,215*%
%TO.N,GND*%
X83820000Y-58420000D03*
D16*
%TO.P,,*%
%TO.N,*%
X6350000Y-6350000D03*
X6350000Y-73660000D03*
X128270000Y-6350000D03*
X128270000Y-73660000D03*
%TD*%
D17*
%TO.N,GND*%
X2110200Y-24262800D03*
X34635700Y-48260000D03*
X4204800Y-11683400D03*
%TO.N,+5V*%
X35649800Y-45720000D03*
X1025600Y-13652100D03*
%TO.N,IO0*%
X1648300Y-15211300D03*
%TO.N,IO2*%
X30184500Y-31550900D03*
X30482900Y-33654600D03*
X35953700Y-43180000D03*
X3243500Y-16602800D03*
%TO.N,IO3*%
X3244200Y-19563700D03*
X46309400Y-45720000D03*
%TO.N,IO4*%
X45734400Y-47860000D03*
%TO.N,IO6*%
X2213000Y-22860000D03*
%TO.N,IO7*%
X14201400Y-9266100D03*
%TO.N,IOA1*%
X1102800Y-39236300D03*
%TO.N,IOA2*%
X2957500Y-40770200D03*
%TO.N,BWR*%
X1665300Y-33412900D03*
%TO.N,IDREQ*%
X15421900Y-44072000D03*
X-2279400Y-51034700D03*
%TO.N,BIORES*%
X317500Y-31192200D03*
%TO.N,GP0*%
X33025400Y-10783500D03*
%TO.N,GP1*%
X35446400Y-39886200D03*
X35898700Y-40709400D03*
%TO.N,GP2*%
X40559300Y-16429300D03*
%TO.N,GP3*%
X29999000Y-25246400D03*
X43309900Y-26750900D03*
X66605000Y-42667800D03*
%TO.N,GP4*%
X28472700Y-6534400D03*
X37265100Y-3965900D03*
%TO.N,GP5*%
X40785100Y-21461900D03*
X59266300Y-47266200D03*
%TO.N,GP6*%
X42646300Y-27853400D03*
%TO.N,GP7*%
X43615700Y-28184000D03*
%TO.N,GP14*%
X26462400Y-59557500D03*
%TO.N,DIN*%
X92047000Y-27700900D03*
%TO.N,VDDF*%
X116431600Y-13335000D03*
%TD*%
%TO.N,GND*%
D18*
X29210000Y-5080000D02*
X26670000Y-5080000D01*
X26670000Y-5080000D02*
X24130000Y-7620000D01*
X58420000Y-58420000D02*
X55988200Y-60851800D01*
X55988200Y-60851800D02*
X36225800Y-60851800D01*
X36225800Y-60851800D02*
X33947200Y-58573200D01*
X33947200Y-58573200D02*
X30326800Y-58573200D01*
X30326800Y-58573200D02*
X29210000Y-59690000D01*
X16510000Y-27940000D02*
X12832800Y-24262800D01*
X12832800Y-24262800D02*
X2110200Y-24262800D01*
X31750000Y-48260000D02*
X34635700Y-48260000D01*
X67310000Y-49022000D02*
X68882000Y-50594000D01*
X68882000Y-50594000D02*
X78438000Y-50594000D01*
X78438000Y-50594000D02*
X80010000Y-49022000D01*
X31750000Y-53340000D02*
X25907800Y-53340000D01*
X25907800Y-53340000D02*
X24637800Y-54610000D01*
X24637800Y-54610000D02*
X17780000Y-54610000D01*
X17780000Y-54610000D02*
X16510000Y-55880000D01*
X-3949700Y-40005000D02*
X8328800Y-40005000D01*
X8328800Y-40005000D02*
X8963800Y-39370000D01*
X8963800Y-39370000D02*
X16822400Y-39370000D01*
X16822400Y-39370000D02*
X20632400Y-35560000D01*
X20632400Y-35560000D02*
X24130000Y-35560000D01*
X72700Y-11430000D02*
X326100Y-11683400D01*
X326100Y-11683400D02*
X4204800Y-11683400D01*
X13970000Y-33020000D02*
X15240000Y-34290000D01*
X15240000Y-34290000D02*
X22860000Y-34290000D01*
X22860000Y-34290000D02*
X24130000Y-35560000D01*
X24130000Y-35560000D02*
X26670000Y-33020000D01*
X26670000Y-33020000D02*
X29210000Y-33020000D01*
X13970000Y-5080000D02*
X15240000Y-6350000D01*
X15240000Y-6350000D02*
X22860000Y-6350000D01*
X22860000Y-6350000D02*
X24130000Y-7620000D01*
X31750000Y-27940000D02*
X31750000Y-25400000D01*
X106699900Y-17439200D02*
X104500600Y-15240000D01*
X104500600Y-15240000D02*
X102870000Y-15240000D01*
X109728000Y-21590000D02*
X108204100Y-20066100D01*
X108204100Y-20066100D02*
X108204100Y-18943500D01*
X108204100Y-18943500D02*
X106699900Y-17439200D01*
X112395000Y-13335000D02*
X111760000Y-13970000D01*
X111760000Y-13970000D02*
X110169100Y-13970000D01*
X110169100Y-13970000D02*
X106699900Y-17439200D01*
X67310000Y-31242000D02*
X68436900Y-30115100D01*
X68436900Y-30115100D02*
X78883100Y-30115100D01*
X78883100Y-30115100D02*
X80010000Y-31242000D01*
X67310000Y-49022000D02*
X66182100Y-50149900D01*
X66182100Y-50149900D02*
X55737900Y-50149900D01*
X55737900Y-50149900D02*
X54610000Y-49022000D01*
X67310000Y-31242000D02*
X66195000Y-32357000D01*
X66195000Y-32357000D02*
X55725000Y-32357000D01*
X55725000Y-32357000D02*
X54610000Y-31242000D01*
X112395000Y-13335000D02*
X113496400Y-13335000D01*
X124968000Y-15748000D02*
X124968000Y-14321300D01*
X124968000Y-14321300D02*
X114482700Y-14321300D01*
X114482700Y-14321300D02*
X113496400Y-13335000D01*
X-3949700Y-11430000D02*
X72700Y-11430000D01*
%TO.N,+5V*%
X39370000Y-33020000D02*
X37259300Y-30909300D01*
X37259300Y-30909300D02*
X30499900Y-30909300D01*
X30499900Y-30909300D02*
X30070600Y-30480000D01*
X30070600Y-30480000D02*
X29210000Y-30480000D01*
X29210000Y-2540000D02*
X27940000Y-3810000D01*
X27940000Y-3810000D02*
X12966300Y-3810000D01*
X12966300Y-3810000D02*
X5671900Y-11104400D01*
X5671900Y-11104400D02*
X5671900Y-11187700D01*
X5671900Y-11187700D02*
X3207500Y-13652100D01*
X3207500Y-13652100D02*
X1025600Y-13652100D01*
X31750000Y-45720000D02*
X35649800Y-45720000D01*
X31750000Y-36738400D02*
X31750000Y-35560000D01*
X31750000Y-38100000D02*
X31750000Y-36738400D01*
X31750000Y-36738400D02*
X39847400Y-36738400D01*
X39847400Y-36738400D02*
X40488200Y-36097600D01*
X40488200Y-36097600D02*
X40488200Y-34138200D01*
X40488200Y-34138200D02*
X39370000Y-33020000D01*
X29210000Y-57150000D02*
X4517700Y-57150000D01*
X4517700Y-57150000D02*
X72700Y-52705000D01*
X39370000Y-57150000D02*
X29210000Y-57150000D01*
X58420000Y-55880000D02*
X57150000Y-57150000D01*
X57150000Y-57150000D02*
X39370000Y-57150000D01*
X39370000Y-59690000D02*
X39370000Y-57150000D01*
X52070000Y-31242000D02*
X50292000Y-33020000D01*
X50292000Y-33020000D02*
X39370000Y-33020000D01*
X29210000Y-2540000D02*
X36830000Y-2540000D01*
X36830000Y-2540000D02*
X39370000Y-5080000D01*
X83820000Y-55880000D02*
X58420000Y-55880000D01*
X-3949700Y-52705000D02*
X72700Y-52705000D01*
%TO.N,+3V3*%
X24130000Y-33020000D02*
X27822400Y-29327600D01*
X27822400Y-29327600D02*
X29644800Y-29327600D01*
X29644800Y-29327600D02*
X30774800Y-30457600D01*
X30774800Y-30457600D02*
X41910900Y-30457600D01*
X41910900Y-30457600D02*
X42362600Y-30005900D01*
X42362600Y-30005900D02*
X59690000Y-30005900D01*
X59690000Y-30005900D02*
X59690000Y-31242000D01*
X106680000Y-19050000D02*
X70645900Y-19050000D01*
X70645900Y-19050000D02*
X59690000Y-30005900D01*
X24130000Y-5080000D02*
X16510000Y-5080000D01*
X24130000Y-33020000D02*
X16510000Y-33020000D01*
X13970000Y-30480000D02*
X16510000Y-33020000D01*
%TO.N,IO0*%
X16510000Y-7620000D02*
X16508500Y-7621500D01*
X16508500Y-7621500D02*
X9876800Y-7621500D01*
X9876800Y-7621500D02*
X9876800Y-7621600D01*
X9876800Y-7621600D02*
X2287100Y-15211300D01*
X2287100Y-15211300D02*
X1648300Y-15211300D01*
%TO.N,IO1*%
X16510000Y-10160000D02*
X17810200Y-11460200D01*
X17810200Y-11460200D02*
X38130200Y-11460200D01*
X38130200Y-11460200D02*
X39370000Y-12700000D01*
X16510000Y-10160000D02*
X8729400Y-10160000D01*
X8729400Y-10160000D02*
X72700Y-18816700D01*
X72700Y-18816700D02*
X72700Y-20955000D01*
X-3949700Y-20955000D02*
X72700Y-20955000D01*
%TO.N,IO2*%
X39370000Y-43180000D02*
X35953700Y-43180000D01*
X30482900Y-33654600D02*
X30482900Y-31849300D01*
X30482900Y-31849300D02*
X30184500Y-31550900D01*
X3243500Y-16602800D02*
X7146300Y-12700000D01*
X7146300Y-12700000D02*
X16510000Y-12700000D01*
%TO.N,IO3*%
X39370000Y-45720000D02*
X46309400Y-45720000D01*
X3244200Y-19563700D02*
X7084600Y-15723300D01*
X7084600Y-15723300D02*
X16510000Y-15723300D01*
X39370000Y-17780000D02*
X38100000Y-16510000D01*
X38100000Y-16510000D02*
X17296700Y-16510000D01*
X17296700Y-16510000D02*
X16510000Y-15723300D01*
X16510000Y-15723300D02*
X16510000Y-15240000D01*
%TO.N,IO4*%
X39370000Y-48260000D02*
X45334400Y-48260000D01*
X45334400Y-48260000D02*
X45734400Y-47860000D01*
X72700Y-27305000D02*
X1425400Y-25952300D01*
X1425400Y-25952300D02*
X1425400Y-22670900D01*
X1425400Y-22670900D02*
X2443300Y-21653000D01*
X2443300Y-21653000D02*
X16769000Y-21653000D01*
X16769000Y-21653000D02*
X17780000Y-20642000D01*
X17780000Y-20642000D02*
X17780000Y-19203800D01*
X-3949700Y-27305000D02*
X72700Y-27305000D01*
X16510000Y-17780000D02*
X17780000Y-19050000D01*
X17780000Y-19050000D02*
X17780000Y-19203800D01*
X39370000Y-20320000D02*
X38253800Y-19203800D01*
X38253800Y-19203800D02*
X17780000Y-19203800D01*
%TO.N,IO5*%
X72700Y-24130000D02*
X72700Y-23304000D01*
X72700Y-23304000D02*
X3056700Y-20320000D01*
X3056700Y-20320000D02*
X16510000Y-20320000D01*
X-3949700Y-24130000D02*
X72700Y-24130000D01*
%TO.N,IO6*%
X16510000Y-22860000D02*
X17712000Y-24062000D01*
X17712000Y-24062000D02*
X38032000Y-24062000D01*
X38032000Y-24062000D02*
X39370000Y-25400000D01*
X16510000Y-22860000D02*
X2213000Y-22860000D01*
%TO.N,IO7*%
X72700Y-14605000D02*
X1355700Y-15888000D01*
X1355700Y-15888000D02*
X2290800Y-15888000D01*
X2290800Y-15888000D02*
X8912700Y-9266100D01*
X8912700Y-9266100D02*
X14201400Y-9266100D01*
X-3949700Y-14605000D02*
X72700Y-14605000D01*
%TO.N,IOA0*%
X16510000Y-35560000D02*
X1342700Y-35560000D01*
X1342700Y-35560000D02*
X72700Y-36830000D01*
X-3949700Y-36830000D02*
X72700Y-36830000D01*
%TO.N,IOA1*%
X16510000Y-38100000D02*
X2239100Y-38100000D01*
X2239100Y-38100000D02*
X1102800Y-39236300D01*
%TO.N,IOA2*%
X16510000Y-40640000D02*
X3087700Y-40640000D01*
X3087700Y-40640000D02*
X2957500Y-40770200D01*
%TO.N,IOA3*%
X16510000Y-43180000D02*
X22860000Y-36830000D01*
X22860000Y-36830000D02*
X28088200Y-36830000D01*
X28088200Y-36830000D02*
X30517300Y-34400900D01*
X30517300Y-34400900D02*
X38210900Y-34400900D01*
X38210900Y-34400900D02*
X39370000Y-35560000D01*
X-3949700Y-43180000D02*
X16510000Y-43180000D01*
%TO.N,BWR*%
X72700Y-33655000D02*
X314800Y-33412900D01*
X314800Y-33412900D02*
X1665300Y-33412900D01*
X-3949700Y-33655000D02*
X72700Y-33655000D01*
%TO.N,IDREQ*%
X-2279400Y-51034700D02*
X8459200Y-51034700D01*
X8459200Y-51034700D02*
X15421900Y-44072000D01*
X39370000Y-7620000D02*
X36830000Y-5080000D01*
X36830000Y-5080000D02*
X31750000Y-5080000D01*
%TO.N,BIORES*%
X72700Y-30480000D02*
X72700Y-30947400D01*
X72700Y-30947400D02*
X317500Y-31192200D01*
X-3949700Y-30480000D02*
X72700Y-30480000D01*
%TO.N,GP0*%
X24130000Y-10160000D02*
X25266200Y-9023800D01*
X25266200Y-9023800D02*
X32239200Y-9023800D01*
X32239200Y-9023800D02*
X33025400Y-9810000D01*
X33025400Y-9810000D02*
X33025400Y-10783500D01*
%TO.N,GP1*%
X35898700Y-40709400D02*
X35446400Y-40257100D01*
X35446400Y-40257100D02*
X35446400Y-39886200D01*
%TO.N,GP2*%
X24130000Y-15240000D02*
X25246600Y-14123400D01*
X25246600Y-14123400D02*
X36600900Y-14123400D01*
X36600900Y-14123400D02*
X38906800Y-16429300D01*
X38906800Y-16429300D02*
X40559300Y-16429300D01*
%TO.N,GP3*%
X43309900Y-26750900D02*
X42142300Y-26750900D01*
X42142300Y-26750900D02*
X39790700Y-29102500D01*
X39790700Y-29102500D02*
X31336100Y-29102500D01*
X31336100Y-29102500D02*
X29999000Y-27765400D01*
X29999000Y-27765400D02*
X29999000Y-25246400D01*
X59690000Y-49022000D02*
X58586200Y-47918200D01*
X58586200Y-47918200D02*
X58586200Y-46897700D01*
X58586200Y-46897700D02*
X62816000Y-42667900D01*
X62816000Y-42667900D02*
X66605000Y-42667900D01*
X66605000Y-42667900D02*
X66605000Y-42667800D01*
%TO.N,GP4*%
X28472700Y-6534400D02*
X29406000Y-6534400D01*
X29406000Y-6534400D02*
X30635900Y-5304500D01*
X30635900Y-5304500D02*
X30635900Y-4612600D01*
X30635900Y-4612600D02*
X31282600Y-3965900D01*
X31282600Y-3965900D02*
X37265100Y-3965900D01*
%TO.N,GP5*%
X24130000Y-22860000D02*
X25528100Y-21461900D01*
X25528100Y-21461900D02*
X40785100Y-21461900D01*
X64770000Y-49022000D02*
X63014200Y-47266200D01*
X63014200Y-47266200D02*
X59266300Y-47266200D01*
%TO.N,GP6*%
X24130000Y-25400000D02*
X27114500Y-25400000D01*
X27114500Y-25400000D02*
X29547300Y-27832800D01*
X29547300Y-27832800D02*
X29547300Y-27952500D01*
X29547300Y-27952500D02*
X31149000Y-29554200D01*
X31149000Y-29554200D02*
X40945500Y-29554200D01*
X40945500Y-29554200D02*
X42646300Y-27853400D01*
%TO.N,GP7*%
X24130000Y-27940000D02*
X28896000Y-27940000D01*
X28896000Y-27940000D02*
X30961900Y-30005900D01*
X30961900Y-30005900D02*
X41723800Y-30005900D01*
X41723800Y-30005900D02*
X43545700Y-28184000D01*
X43545700Y-28184000D02*
X43615700Y-28184000D01*
%TO.N,GP8*%
X74930000Y-49022000D02*
X65278000Y-39370000D01*
X65278000Y-39370000D02*
X36175700Y-39370000D01*
X36175700Y-39370000D02*
X35979200Y-39173500D01*
X35979200Y-39173500D02*
X34696000Y-39173500D01*
X34696000Y-39173500D02*
X34611800Y-39257700D01*
X34611800Y-39257700D02*
X25287700Y-39257700D01*
X25287700Y-39257700D02*
X24130000Y-38100000D01*
%TO.N,GP9*%
X77470000Y-49022000D02*
X76349700Y-50142300D01*
X76349700Y-50142300D02*
X74463800Y-50142300D01*
X74463800Y-50142300D02*
X73504100Y-49182600D01*
X73504100Y-49182600D02*
X73504100Y-48495800D01*
X73504100Y-48495800D02*
X66997100Y-41988800D01*
X66997100Y-41988800D02*
X25478800Y-41988800D01*
X25478800Y-41988800D02*
X24130000Y-40640000D01*
%TO.N,GP10*%
X24130000Y-43180000D02*
X25478700Y-44528700D01*
X25478700Y-44528700D02*
X49224300Y-44528700D01*
X49224300Y-44528700D02*
X53184100Y-48488500D01*
X53184100Y-48488500D02*
X53184100Y-49248000D01*
X53184100Y-49248000D02*
X54981800Y-51045700D01*
X54981800Y-51045700D02*
X80526300Y-51045700D01*
X80526300Y-51045700D02*
X82550000Y-49022000D01*
%TO.N,GP11*%
X85090000Y-49022000D02*
X82614600Y-51497400D01*
X82614600Y-51497400D02*
X54476100Y-51497400D01*
X54476100Y-51497400D02*
X54025900Y-51047200D01*
X54025900Y-51047200D02*
X49889700Y-51047200D01*
X49889700Y-51047200D02*
X45923200Y-47080700D01*
X45923200Y-47080700D02*
X25490700Y-47080700D01*
X25490700Y-47080700D02*
X24130000Y-45720000D01*
%TO.N,GP12*%
X87630000Y-49022000D02*
X84702900Y-51949100D01*
X84702900Y-51949100D02*
X54289000Y-51949100D01*
X54289000Y-51949100D02*
X53838800Y-51498900D01*
X53838800Y-51498900D02*
X44490200Y-51498900D01*
X44490200Y-51498900D02*
X42669900Y-49678600D01*
X42669900Y-49678600D02*
X25548600Y-49678600D01*
X25548600Y-49678600D02*
X24130000Y-48260000D01*
%TO.N,GP13*%
X90170000Y-49022000D02*
X86791200Y-52400800D01*
X86791200Y-52400800D02*
X54101900Y-52400800D01*
X54101900Y-52400800D02*
X53875200Y-52174100D01*
X53875200Y-52174100D02*
X25504100Y-52174100D01*
X25504100Y-52174100D02*
X24130000Y-50800000D01*
%TO.N,GP14*%
X95250000Y-49022000D02*
X96401000Y-47871000D01*
X96401000Y-47871000D02*
X98229500Y-47871000D01*
X98229500Y-47871000D02*
X98937100Y-48578600D01*
X98937100Y-48578600D02*
X98937100Y-49481000D01*
X98937100Y-49481000D02*
X85040100Y-63378000D01*
X85040100Y-63378000D02*
X30282900Y-63378000D01*
X30282900Y-63378000D02*
X26462400Y-59557500D01*
%TO.N,GP15*%
X24130000Y-55880000D02*
X25400000Y-54610000D01*
X25400000Y-54610000D02*
X92202000Y-54610000D01*
X92202000Y-54610000D02*
X97790000Y-49022000D01*
%TO.N,BCK*%
X102870000Y-7620000D02*
X104140000Y-8890000D01*
X104140000Y-8890000D02*
X111760000Y-8890000D01*
X111760000Y-8890000D02*
X112395000Y-9525000D01*
%TO.N,WS*%
X111430900Y-11111800D02*
X112078200Y-11111800D01*
X112078200Y-11111800D02*
X112395000Y-10795000D01*
D19*
X110793500Y-11430000D02*
X111111700Y-11111800D01*
X111111700Y-11111800D02*
X111430900Y-11111800D01*
D18*
X102870000Y-10160000D02*
X104140000Y-11430000D01*
X104140000Y-11430000D02*
X110793500Y-11430000D01*
%TO.N,DIN*%
X112395000Y-12065000D02*
X114968400Y-12065000D01*
X114968400Y-12065000D02*
X116869900Y-10163500D01*
X116869900Y-10163500D02*
X118739200Y-10163500D01*
X118739200Y-10163500D02*
X118901800Y-10000900D01*
X118901800Y-10000900D02*
X118901800Y-9032600D01*
X118901800Y-9032600D02*
X116340700Y-6471500D01*
X116340700Y-6471500D02*
X102380700Y-6471500D01*
X102380700Y-6471500D02*
X101697600Y-7154600D01*
X101697600Y-7154600D02*
X101697600Y-11527600D01*
X101697600Y-11527600D02*
X102870000Y-12700000D01*
X85090000Y-31242000D02*
X88631100Y-27700900D01*
X88631100Y-27700900D02*
X92047000Y-27700900D01*
%TO.N,PWM*%
X106680000Y-40640000D02*
X91948000Y-40640000D01*
X91948000Y-40640000D02*
X82550000Y-31242000D01*
%TO.N,LCH*%
X116449900Y-11805000D02*
X115554900Y-12700000D01*
X115554900Y-12700000D02*
X110490000Y-12700000D01*
D19*
X117780000Y-12065000D02*
X117245000Y-12065000D01*
D18*
X117245000Y-12065000D02*
X116709900Y-12065000D01*
D19*
X116449900Y-11805000D02*
X116709900Y-12065000D01*
%TO.N,RCH*%
D18*
X116678600Y-9525000D02*
X114773600Y-7620000D01*
X114773600Y-7620000D02*
X110490000Y-7620000D01*
X117780000Y-9525000D02*
X116678600Y-9525000D01*
%TO.N,VDDF*%
X116678600Y-13335000D02*
X116431600Y-13335000D01*
X117780000Y-13335000D02*
X116678600Y-13335000D01*
%TO.N,PWMF*%
X114808000Y-40640000D02*
X110744000Y-40640000D01*
%TD*%
M02*
