%TF.GenerationSoftware,KiCad,Pcbnew,10.0.6*%
%TF.CreationDate,2026-08-31T06:13:10-04:00*%
%TF.ProjectId,card_routed,63617264-5f72-46f7-9574-65642e6b6963,rev?*%
%TF.SameCoordinates,Original*%
%TF.FileFunction,Legend,Top*%
%TF.FilePolarity,Positive*%
%FSLAX46Y46*%
G04 Gerber Fmt 4.6, Leading zero omitted, Abs format (unit mm)*
G04 Created by KiCad (PCBNEW 10.0.6) date 2026-08-31 06:13:10*
%MOMM*%
%LPD*%
G01*
G04 APERTURE LIST*
%ADD10C,0.150000*%
G04 APERTURE END LIST*
D10*
X17526000Y-3556000D02*
X23114000Y-3556000D01*
X23114000Y-29464000D01*
X17526000Y-29464000D01*
X17526000Y-3556000D01*
X12878190Y-1086295D02*
X12878190Y-1733914D01*
X12878190Y-1733914D02*
X12916285Y-1810104D01*
X12916285Y-1810104D02*
X12954380Y-1848200D01*
X12954380Y-1848200D02*
X13030571Y-1886295D01*
X13030571Y-1886295D02*
X13182952Y-1886295D01*
X13182952Y-1886295D02*
X13259142Y-1848200D01*
X13259142Y-1848200D02*
X13297237Y-1810104D01*
X13297237Y-1810104D02*
X13335333Y-1733914D01*
X13335333Y-1733914D02*
X13335333Y-1086295D01*
X14135332Y-1886295D02*
X13678189Y-1886295D01*
X13906761Y-1886295D02*
X13906761Y-1086295D01*
X13906761Y-1086295D02*
X13830570Y-1200580D01*
X13830570Y-1200580D02*
X13754380Y-1276771D01*
X13754380Y-1276771D02*
X13678189Y-1314866D01*
X15468666Y-1886295D02*
X15087714Y-1886295D01*
X15087714Y-1886295D02*
X15087714Y-1086295D01*
X15621047Y-1086295D02*
X15887714Y-1886295D01*
X15887714Y-1886295D02*
X16154380Y-1086295D01*
X16878190Y-1810104D02*
X16840094Y-1848200D01*
X16840094Y-1848200D02*
X16725809Y-1886295D01*
X16725809Y-1886295D02*
X16649618Y-1886295D01*
X16649618Y-1886295D02*
X16535332Y-1848200D01*
X16535332Y-1848200D02*
X16459142Y-1772009D01*
X16459142Y-1772009D02*
X16421047Y-1695819D01*
X16421047Y-1695819D02*
X16382951Y-1543438D01*
X16382951Y-1543438D02*
X16382951Y-1429152D01*
X16382951Y-1429152D02*
X16421047Y-1276771D01*
X16421047Y-1276771D02*
X16459142Y-1200580D01*
X16459142Y-1200580D02*
X16535332Y-1124390D01*
X16535332Y-1124390D02*
X16649618Y-1086295D01*
X16649618Y-1086295D02*
X16725809Y-1086295D01*
X16725809Y-1086295D02*
X16840094Y-1124390D01*
X16840094Y-1124390D02*
X16878190Y-1162485D01*
X17182951Y-1162485D02*
X17221047Y-1124390D01*
X17221047Y-1124390D02*
X17297237Y-1086295D01*
X17297237Y-1086295D02*
X17487713Y-1086295D01*
X17487713Y-1086295D02*
X17563904Y-1124390D01*
X17563904Y-1124390D02*
X17601999Y-1162485D01*
X17601999Y-1162485D02*
X17640094Y-1238676D01*
X17640094Y-1238676D02*
X17640094Y-1314866D01*
X17640094Y-1314866D02*
X17601999Y-1429152D01*
X17601999Y-1429152D02*
X17144856Y-1886295D01*
X17144856Y-1886295D02*
X17640094Y-1886295D01*
X18325809Y-1352961D02*
X18325809Y-1886295D01*
X18135333Y-1048200D02*
X17944856Y-1619628D01*
X17944856Y-1619628D02*
X18440095Y-1619628D01*
X19125809Y-1086295D02*
X18744857Y-1086295D01*
X18744857Y-1086295D02*
X18706761Y-1467247D01*
X18706761Y-1467247D02*
X18744857Y-1429152D01*
X18744857Y-1429152D02*
X18821047Y-1391057D01*
X18821047Y-1391057D02*
X19011523Y-1391057D01*
X19011523Y-1391057D02*
X19087714Y-1429152D01*
X19087714Y-1429152D02*
X19125809Y-1467247D01*
X19125809Y-1467247D02*
X19163904Y-1543438D01*
X19163904Y-1543438D02*
X19163904Y-1733914D01*
X19163904Y-1733914D02*
X19125809Y-1810104D01*
X19125809Y-1810104D02*
X19087714Y-1848200D01*
X19087714Y-1848200D02*
X19011523Y-1886295D01*
X19011523Y-1886295D02*
X18821047Y-1886295D01*
X18821047Y-1886295D02*
X18744857Y-1848200D01*
X18744857Y-1848200D02*
X18706761Y-1810104D01*
X17526000Y-31496000D02*
X23114000Y-31496000D01*
X23114000Y-57404000D01*
X17526000Y-57404000D01*
X17526000Y-31496000D01*
X12878190Y-29026295D02*
X12878190Y-29673914D01*
X12878190Y-29673914D02*
X12916285Y-29750104D01*
X12916285Y-29750104D02*
X12954380Y-29788200D01*
X12954380Y-29788200D02*
X13030571Y-29826295D01*
X13030571Y-29826295D02*
X13182952Y-29826295D01*
X13182952Y-29826295D02*
X13259142Y-29788200D01*
X13259142Y-29788200D02*
X13297237Y-29750104D01*
X13297237Y-29750104D02*
X13335333Y-29673914D01*
X13335333Y-29673914D02*
X13335333Y-29026295D01*
X13678189Y-29102485D02*
X13716285Y-29064390D01*
X13716285Y-29064390D02*
X13792475Y-29026295D01*
X13792475Y-29026295D02*
X13982951Y-29026295D01*
X13982951Y-29026295D02*
X14059142Y-29064390D01*
X14059142Y-29064390D02*
X14097237Y-29102485D01*
X14097237Y-29102485D02*
X14135332Y-29178676D01*
X14135332Y-29178676D02*
X14135332Y-29254866D01*
X14135332Y-29254866D02*
X14097237Y-29369152D01*
X14097237Y-29369152D02*
X13640094Y-29826295D01*
X13640094Y-29826295D02*
X14135332Y-29826295D01*
X15468666Y-29826295D02*
X15087714Y-29826295D01*
X15087714Y-29826295D02*
X15087714Y-29026295D01*
X15621047Y-29026295D02*
X15887714Y-29826295D01*
X15887714Y-29826295D02*
X16154380Y-29026295D01*
X16878190Y-29750104D02*
X16840094Y-29788200D01*
X16840094Y-29788200D02*
X16725809Y-29826295D01*
X16725809Y-29826295D02*
X16649618Y-29826295D01*
X16649618Y-29826295D02*
X16535332Y-29788200D01*
X16535332Y-29788200D02*
X16459142Y-29712009D01*
X16459142Y-29712009D02*
X16421047Y-29635819D01*
X16421047Y-29635819D02*
X16382951Y-29483438D01*
X16382951Y-29483438D02*
X16382951Y-29369152D01*
X16382951Y-29369152D02*
X16421047Y-29216771D01*
X16421047Y-29216771D02*
X16459142Y-29140580D01*
X16459142Y-29140580D02*
X16535332Y-29064390D01*
X16535332Y-29064390D02*
X16649618Y-29026295D01*
X16649618Y-29026295D02*
X16725809Y-29026295D01*
X16725809Y-29026295D02*
X16840094Y-29064390D01*
X16840094Y-29064390D02*
X16878190Y-29102485D01*
X17182951Y-29102485D02*
X17221047Y-29064390D01*
X17221047Y-29064390D02*
X17297237Y-29026295D01*
X17297237Y-29026295D02*
X17487713Y-29026295D01*
X17487713Y-29026295D02*
X17563904Y-29064390D01*
X17563904Y-29064390D02*
X17601999Y-29102485D01*
X17601999Y-29102485D02*
X17640094Y-29178676D01*
X17640094Y-29178676D02*
X17640094Y-29254866D01*
X17640094Y-29254866D02*
X17601999Y-29369152D01*
X17601999Y-29369152D02*
X17144856Y-29826295D01*
X17144856Y-29826295D02*
X17640094Y-29826295D01*
X18325809Y-29292961D02*
X18325809Y-29826295D01*
X18135333Y-28988200D02*
X17944856Y-29559628D01*
X17944856Y-29559628D02*
X18440095Y-29559628D01*
X19125809Y-29026295D02*
X18744857Y-29026295D01*
X18744857Y-29026295D02*
X18706761Y-29407247D01*
X18706761Y-29407247D02*
X18744857Y-29369152D01*
X18744857Y-29369152D02*
X18821047Y-29331057D01*
X18821047Y-29331057D02*
X19011523Y-29331057D01*
X19011523Y-29331057D02*
X19087714Y-29369152D01*
X19087714Y-29369152D02*
X19125809Y-29407247D01*
X19125809Y-29407247D02*
X19163904Y-29483438D01*
X19163904Y-29483438D02*
X19163904Y-29673914D01*
X19163904Y-29673914D02*
X19125809Y-29750104D01*
X19125809Y-29750104D02*
X19087714Y-29788200D01*
X19087714Y-29788200D02*
X19011523Y-29826295D01*
X19011523Y-29826295D02*
X18821047Y-29826295D01*
X18821047Y-29826295D02*
X18744857Y-29788200D01*
X18744857Y-29788200D02*
X18706761Y-29750104D01*
X32766000Y-3556000D02*
X38354000Y-3556000D01*
X38354000Y-29464000D01*
X32766000Y-29464000D01*
X32766000Y-3556000D01*
X28003905Y-1086295D02*
X28003905Y-1733914D01*
X28003905Y-1733914D02*
X28042000Y-1810104D01*
X28042000Y-1810104D02*
X28080095Y-1848200D01*
X28080095Y-1848200D02*
X28156286Y-1886295D01*
X28156286Y-1886295D02*
X28308667Y-1886295D01*
X28308667Y-1886295D02*
X28384857Y-1848200D01*
X28384857Y-1848200D02*
X28422952Y-1810104D01*
X28422952Y-1810104D02*
X28461048Y-1733914D01*
X28461048Y-1733914D02*
X28461048Y-1086295D01*
X28765809Y-1086295D02*
X29261047Y-1086295D01*
X29261047Y-1086295D02*
X28994381Y-1391057D01*
X28994381Y-1391057D02*
X29108666Y-1391057D01*
X29108666Y-1391057D02*
X29184857Y-1429152D01*
X29184857Y-1429152D02*
X29222952Y-1467247D01*
X29222952Y-1467247D02*
X29261047Y-1543438D01*
X29261047Y-1543438D02*
X29261047Y-1733914D01*
X29261047Y-1733914D02*
X29222952Y-1810104D01*
X29222952Y-1810104D02*
X29184857Y-1848200D01*
X29184857Y-1848200D02*
X29108666Y-1886295D01*
X29108666Y-1886295D02*
X28880095Y-1886295D01*
X28880095Y-1886295D02*
X28803904Y-1848200D01*
X28803904Y-1848200D02*
X28765809Y-1810104D01*
X30213429Y-1886295D02*
X30213429Y-1086295D01*
X30594381Y-1886295D02*
X30594381Y-1086295D01*
X30594381Y-1086295D02*
X30784857Y-1086295D01*
X30784857Y-1086295D02*
X30899143Y-1124390D01*
X30899143Y-1124390D02*
X30975333Y-1200580D01*
X30975333Y-1200580D02*
X31013428Y-1276771D01*
X31013428Y-1276771D02*
X31051524Y-1429152D01*
X31051524Y-1429152D02*
X31051524Y-1543438D01*
X31051524Y-1543438D02*
X31013428Y-1695819D01*
X31013428Y-1695819D02*
X30975333Y-1772009D01*
X30975333Y-1772009D02*
X30899143Y-1848200D01*
X30899143Y-1848200D02*
X30784857Y-1886295D01*
X30784857Y-1886295D02*
X30594381Y-1886295D01*
X32156286Y-1086295D02*
X32232476Y-1086295D01*
X32232476Y-1086295D02*
X32308667Y-1124390D01*
X32308667Y-1124390D02*
X32346762Y-1162485D01*
X32346762Y-1162485D02*
X32384857Y-1238676D01*
X32384857Y-1238676D02*
X32422952Y-1391057D01*
X32422952Y-1391057D02*
X32422952Y-1581533D01*
X32422952Y-1581533D02*
X32384857Y-1733914D01*
X32384857Y-1733914D02*
X32346762Y-1810104D01*
X32346762Y-1810104D02*
X32308667Y-1848200D01*
X32308667Y-1848200D02*
X32232476Y-1886295D01*
X32232476Y-1886295D02*
X32156286Y-1886295D01*
X32156286Y-1886295D02*
X32080095Y-1848200D01*
X32080095Y-1848200D02*
X32042000Y-1810104D01*
X32042000Y-1810104D02*
X32003905Y-1733914D01*
X32003905Y-1733914D02*
X31965809Y-1581533D01*
X31965809Y-1581533D02*
X31965809Y-1391057D01*
X31965809Y-1391057D02*
X32003905Y-1238676D01*
X32003905Y-1238676D02*
X32042000Y-1162485D01*
X32042000Y-1162485D02*
X32080095Y-1124390D01*
X32080095Y-1124390D02*
X32156286Y-1086295D01*
X32689619Y-1886295D02*
X33108667Y-1352961D01*
X32689619Y-1352961D02*
X33108667Y-1886295D01*
X33375333Y-1657723D02*
X33756286Y-1657723D01*
X33299143Y-1886295D02*
X33565810Y-1086295D01*
X33565810Y-1086295D02*
X33832476Y-1886295D01*
X34480095Y-1086295D02*
X34099143Y-1086295D01*
X34099143Y-1086295D02*
X34061047Y-1467247D01*
X34061047Y-1467247D02*
X34099143Y-1429152D01*
X34099143Y-1429152D02*
X34175333Y-1391057D01*
X34175333Y-1391057D02*
X34365809Y-1391057D01*
X34365809Y-1391057D02*
X34442000Y-1429152D01*
X34442000Y-1429152D02*
X34480095Y-1467247D01*
X34480095Y-1467247D02*
X34518190Y-1543438D01*
X34518190Y-1543438D02*
X34518190Y-1733914D01*
X34518190Y-1733914D02*
X34480095Y-1810104D01*
X34480095Y-1810104D02*
X34442000Y-1848200D01*
X34442000Y-1848200D02*
X34365809Y-1886295D01*
X34365809Y-1886295D02*
X34175333Y-1886295D01*
X34175333Y-1886295D02*
X34099143Y-1848200D01*
X34099143Y-1848200D02*
X34061047Y-1810104D01*
X32766000Y-31496000D02*
X38354000Y-31496000D01*
X38354000Y-57404000D01*
X32766000Y-57404000D01*
X32766000Y-31496000D01*
X27870571Y-29026295D02*
X27870571Y-29673914D01*
X27870571Y-29673914D02*
X27908666Y-29750104D01*
X27908666Y-29750104D02*
X27946761Y-29788200D01*
X27946761Y-29788200D02*
X28022952Y-29826295D01*
X28022952Y-29826295D02*
X28175333Y-29826295D01*
X28175333Y-29826295D02*
X28251523Y-29788200D01*
X28251523Y-29788200D02*
X28289618Y-29750104D01*
X28289618Y-29750104D02*
X28327714Y-29673914D01*
X28327714Y-29673914D02*
X28327714Y-29026295D01*
X29051523Y-29292961D02*
X29051523Y-29826295D01*
X28861047Y-28988200D02*
X28670570Y-29559628D01*
X28670570Y-29559628D02*
X29165809Y-29559628D01*
X30041999Y-29788200D02*
X30156285Y-29826295D01*
X30156285Y-29826295D02*
X30346761Y-29826295D01*
X30346761Y-29826295D02*
X30422952Y-29788200D01*
X30422952Y-29788200D02*
X30461047Y-29750104D01*
X30461047Y-29750104D02*
X30499142Y-29673914D01*
X30499142Y-29673914D02*
X30499142Y-29597723D01*
X30499142Y-29597723D02*
X30461047Y-29521533D01*
X30461047Y-29521533D02*
X30422952Y-29483438D01*
X30422952Y-29483438D02*
X30346761Y-29445342D01*
X30346761Y-29445342D02*
X30194380Y-29407247D01*
X30194380Y-29407247D02*
X30118190Y-29369152D01*
X30118190Y-29369152D02*
X30080095Y-29331057D01*
X30080095Y-29331057D02*
X30041999Y-29254866D01*
X30041999Y-29254866D02*
X30041999Y-29178676D01*
X30041999Y-29178676D02*
X30080095Y-29102485D01*
X30080095Y-29102485D02*
X30118190Y-29064390D01*
X30118190Y-29064390D02*
X30194380Y-29026295D01*
X30194380Y-29026295D02*
X30384857Y-29026295D01*
X30384857Y-29026295D02*
X30499142Y-29064390D01*
X30727714Y-29026295D02*
X31184857Y-29026295D01*
X30956285Y-29826295D02*
X30956285Y-29026295D01*
X32213429Y-29026295D02*
X32289619Y-29026295D01*
X32289619Y-29026295D02*
X32365810Y-29064390D01*
X32365810Y-29064390D02*
X32403905Y-29102485D01*
X32403905Y-29102485D02*
X32442000Y-29178676D01*
X32442000Y-29178676D02*
X32480095Y-29331057D01*
X32480095Y-29331057D02*
X32480095Y-29521533D01*
X32480095Y-29521533D02*
X32442000Y-29673914D01*
X32442000Y-29673914D02*
X32403905Y-29750104D01*
X32403905Y-29750104D02*
X32365810Y-29788200D01*
X32365810Y-29788200D02*
X32289619Y-29826295D01*
X32289619Y-29826295D02*
X32213429Y-29826295D01*
X32213429Y-29826295D02*
X32137238Y-29788200D01*
X32137238Y-29788200D02*
X32099143Y-29750104D01*
X32099143Y-29750104D02*
X32061048Y-29673914D01*
X32061048Y-29673914D02*
X32022952Y-29521533D01*
X32022952Y-29521533D02*
X32022952Y-29331057D01*
X32022952Y-29331057D02*
X32061048Y-29178676D01*
X32061048Y-29178676D02*
X32099143Y-29102485D01*
X32099143Y-29102485D02*
X32137238Y-29064390D01*
X32137238Y-29064390D02*
X32213429Y-29026295D01*
X32746762Y-29826295D02*
X33165810Y-29292961D01*
X32746762Y-29292961D02*
X33165810Y-29826295D01*
X33851524Y-29026295D02*
X33470572Y-29026295D01*
X33470572Y-29026295D02*
X33432476Y-29407247D01*
X33432476Y-29407247D02*
X33470572Y-29369152D01*
X33470572Y-29369152D02*
X33546762Y-29331057D01*
X33546762Y-29331057D02*
X33737238Y-29331057D01*
X33737238Y-29331057D02*
X33813429Y-29369152D01*
X33813429Y-29369152D02*
X33851524Y-29407247D01*
X33851524Y-29407247D02*
X33889619Y-29483438D01*
X33889619Y-29483438D02*
X33889619Y-29673914D01*
X33889619Y-29673914D02*
X33851524Y-29750104D01*
X33851524Y-29750104D02*
X33813429Y-29788200D01*
X33813429Y-29788200D02*
X33737238Y-29826295D01*
X33737238Y-29826295D02*
X33546762Y-29826295D01*
X33546762Y-29826295D02*
X33470572Y-29788200D01*
X33470572Y-29788200D02*
X33432476Y-29750104D01*
X34156286Y-29026295D02*
X34689620Y-29026295D01*
X34689620Y-29026295D02*
X34346762Y-29826295D01*
X32766000Y-58166000D02*
X38354000Y-58166000D01*
X38354000Y-78994000D01*
X32766000Y-78994000D01*
X32766000Y-58166000D01*
X28061047Y-55696295D02*
X28061047Y-56343914D01*
X28061047Y-56343914D02*
X28099142Y-56420104D01*
X28099142Y-56420104D02*
X28137237Y-56458200D01*
X28137237Y-56458200D02*
X28213428Y-56496295D01*
X28213428Y-56496295D02*
X28365809Y-56496295D01*
X28365809Y-56496295D02*
X28441999Y-56458200D01*
X28441999Y-56458200D02*
X28480094Y-56420104D01*
X28480094Y-56420104D02*
X28518190Y-56343914D01*
X28518190Y-56343914D02*
X28518190Y-55696295D01*
X29280094Y-55696295D02*
X28899142Y-55696295D01*
X28899142Y-55696295D02*
X28861046Y-56077247D01*
X28861046Y-56077247D02*
X28899142Y-56039152D01*
X28899142Y-56039152D02*
X28975332Y-56001057D01*
X28975332Y-56001057D02*
X29165808Y-56001057D01*
X29165808Y-56001057D02*
X29241999Y-56039152D01*
X29241999Y-56039152D02*
X29280094Y-56077247D01*
X29280094Y-56077247D02*
X29318189Y-56153438D01*
X29318189Y-56153438D02*
X29318189Y-56343914D01*
X29318189Y-56343914D02*
X29280094Y-56420104D01*
X29280094Y-56420104D02*
X29241999Y-56458200D01*
X29241999Y-56458200D02*
X29165808Y-56496295D01*
X29165808Y-56496295D02*
X28975332Y-56496295D01*
X28975332Y-56496295D02*
X28899142Y-56458200D01*
X28899142Y-56458200D02*
X28861046Y-56420104D01*
X30270571Y-56496295D02*
X30270571Y-55696295D01*
X30270571Y-56077247D02*
X30727714Y-56077247D01*
X30727714Y-56496295D02*
X30727714Y-55696295D01*
X31565809Y-56420104D02*
X31527713Y-56458200D01*
X31527713Y-56458200D02*
X31413428Y-56496295D01*
X31413428Y-56496295D02*
X31337237Y-56496295D01*
X31337237Y-56496295D02*
X31222951Y-56458200D01*
X31222951Y-56458200D02*
X31146761Y-56382009D01*
X31146761Y-56382009D02*
X31108666Y-56305819D01*
X31108666Y-56305819D02*
X31070570Y-56153438D01*
X31070570Y-56153438D02*
X31070570Y-56039152D01*
X31070570Y-56039152D02*
X31108666Y-55886771D01*
X31108666Y-55886771D02*
X31146761Y-55810580D01*
X31146761Y-55810580D02*
X31222951Y-55734390D01*
X31222951Y-55734390D02*
X31337237Y-55696295D01*
X31337237Y-55696295D02*
X31413428Y-55696295D01*
X31413428Y-55696295D02*
X31527713Y-55734390D01*
X31527713Y-55734390D02*
X31565809Y-55772485D01*
X31794380Y-55696295D02*
X32251523Y-55696295D01*
X32022951Y-56496295D02*
X32022951Y-55696295D01*
X32937237Y-56496295D02*
X32480094Y-56496295D01*
X32708666Y-56496295D02*
X32708666Y-55696295D01*
X32708666Y-55696295D02*
X32632475Y-55810580D01*
X32632475Y-55810580D02*
X32556285Y-55886771D01*
X32556285Y-55886771D02*
X32480094Y-55924866D01*
X33203904Y-55696295D02*
X33699142Y-55696295D01*
X33699142Y-55696295D02*
X33432476Y-56001057D01*
X33432476Y-56001057D02*
X33546761Y-56001057D01*
X33546761Y-56001057D02*
X33622952Y-56039152D01*
X33622952Y-56039152D02*
X33661047Y-56077247D01*
X33661047Y-56077247D02*
X33699142Y-56153438D01*
X33699142Y-56153438D02*
X33699142Y-56343914D01*
X33699142Y-56343914D02*
X33661047Y-56420104D01*
X33661047Y-56420104D02*
X33622952Y-56458200D01*
X33622952Y-56458200D02*
X33546761Y-56496295D01*
X33546761Y-56496295D02*
X33318190Y-56496295D01*
X33318190Y-56496295D02*
X33241999Y-56458200D01*
X33241999Y-56458200D02*
X33203904Y-56420104D01*
X34156285Y-56039152D02*
X34080095Y-56001057D01*
X34080095Y-56001057D02*
X34042000Y-55962961D01*
X34042000Y-55962961D02*
X34003904Y-55886771D01*
X34003904Y-55886771D02*
X34003904Y-55848676D01*
X34003904Y-55848676D02*
X34042000Y-55772485D01*
X34042000Y-55772485D02*
X34080095Y-55734390D01*
X34080095Y-55734390D02*
X34156285Y-55696295D01*
X34156285Y-55696295D02*
X34308666Y-55696295D01*
X34308666Y-55696295D02*
X34384857Y-55734390D01*
X34384857Y-55734390D02*
X34422952Y-55772485D01*
X34422952Y-55772485D02*
X34461047Y-55848676D01*
X34461047Y-55848676D02*
X34461047Y-55886771D01*
X34461047Y-55886771D02*
X34422952Y-55962961D01*
X34422952Y-55962961D02*
X34384857Y-56001057D01*
X34384857Y-56001057D02*
X34308666Y-56039152D01*
X34308666Y-56039152D02*
X34156285Y-56039152D01*
X34156285Y-56039152D02*
X34080095Y-56077247D01*
X34080095Y-56077247D02*
X34042000Y-56115342D01*
X34042000Y-56115342D02*
X34003904Y-56191533D01*
X34003904Y-56191533D02*
X34003904Y-56343914D01*
X34003904Y-56343914D02*
X34042000Y-56420104D01*
X34042000Y-56420104D02*
X34080095Y-56458200D01*
X34080095Y-56458200D02*
X34156285Y-56496295D01*
X34156285Y-56496295D02*
X34308666Y-56496295D01*
X34308666Y-56496295D02*
X34384857Y-56458200D01*
X34384857Y-56458200D02*
X34422952Y-56420104D01*
X34422952Y-56420104D02*
X34461047Y-56343914D01*
X34461047Y-56343914D02*
X34461047Y-56191533D01*
X34461047Y-56191533D02*
X34422952Y-56115342D01*
X34422952Y-56115342D02*
X34384857Y-56077247D01*
X34384857Y-56077247D02*
X34308666Y-56039152D01*
X103886000Y-6096000D02*
X109474000Y-6096000D01*
X109474000Y-16764000D01*
X103886000Y-16764000D01*
X103886000Y-6096000D01*
X93942953Y-3626295D02*
X93942953Y-4273914D01*
X93942953Y-4273914D02*
X93981048Y-4350104D01*
X93981048Y-4350104D02*
X94019143Y-4388200D01*
X94019143Y-4388200D02*
X94095334Y-4426295D01*
X94095334Y-4426295D02*
X94247715Y-4426295D01*
X94247715Y-4426295D02*
X94323905Y-4388200D01*
X94323905Y-4388200D02*
X94362000Y-4350104D01*
X94362000Y-4350104D02*
X94400096Y-4273914D01*
X94400096Y-4273914D02*
X94400096Y-3626295D01*
X95123905Y-3626295D02*
X94971524Y-3626295D01*
X94971524Y-3626295D02*
X94895333Y-3664390D01*
X94895333Y-3664390D02*
X94857238Y-3702485D01*
X94857238Y-3702485D02*
X94781048Y-3816771D01*
X94781048Y-3816771D02*
X94742952Y-3969152D01*
X94742952Y-3969152D02*
X94742952Y-4273914D01*
X94742952Y-4273914D02*
X94781048Y-4350104D01*
X94781048Y-4350104D02*
X94819143Y-4388200D01*
X94819143Y-4388200D02*
X94895333Y-4426295D01*
X94895333Y-4426295D02*
X95047714Y-4426295D01*
X95047714Y-4426295D02*
X95123905Y-4388200D01*
X95123905Y-4388200D02*
X95162000Y-4350104D01*
X95162000Y-4350104D02*
X95200095Y-4273914D01*
X95200095Y-4273914D02*
X95200095Y-4083438D01*
X95200095Y-4083438D02*
X95162000Y-4007247D01*
X95162000Y-4007247D02*
X95123905Y-3969152D01*
X95123905Y-3969152D02*
X95047714Y-3931057D01*
X95047714Y-3931057D02*
X94895333Y-3931057D01*
X94895333Y-3931057D02*
X94819143Y-3969152D01*
X94819143Y-3969152D02*
X94781048Y-4007247D01*
X94781048Y-4007247D02*
X94742952Y-4083438D01*
X96152477Y-4426295D02*
X96152477Y-3626295D01*
X96152477Y-3626295D02*
X96457239Y-3626295D01*
X96457239Y-3626295D02*
X96533429Y-3664390D01*
X96533429Y-3664390D02*
X96571524Y-3702485D01*
X96571524Y-3702485D02*
X96609620Y-3778676D01*
X96609620Y-3778676D02*
X96609620Y-3892961D01*
X96609620Y-3892961D02*
X96571524Y-3969152D01*
X96571524Y-3969152D02*
X96533429Y-4007247D01*
X96533429Y-4007247D02*
X96457239Y-4045342D01*
X96457239Y-4045342D02*
X96152477Y-4045342D01*
X96838191Y-3626295D02*
X97295334Y-3626295D01*
X97066762Y-4426295D02*
X97066762Y-3626295D01*
X97676286Y-3969152D02*
X97600096Y-3931057D01*
X97600096Y-3931057D02*
X97562001Y-3892961D01*
X97562001Y-3892961D02*
X97523905Y-3816771D01*
X97523905Y-3816771D02*
X97523905Y-3778676D01*
X97523905Y-3778676D02*
X97562001Y-3702485D01*
X97562001Y-3702485D02*
X97600096Y-3664390D01*
X97600096Y-3664390D02*
X97676286Y-3626295D01*
X97676286Y-3626295D02*
X97828667Y-3626295D01*
X97828667Y-3626295D02*
X97904858Y-3664390D01*
X97904858Y-3664390D02*
X97942953Y-3702485D01*
X97942953Y-3702485D02*
X97981048Y-3778676D01*
X97981048Y-3778676D02*
X97981048Y-3816771D01*
X97981048Y-3816771D02*
X97942953Y-3892961D01*
X97942953Y-3892961D02*
X97904858Y-3931057D01*
X97904858Y-3931057D02*
X97828667Y-3969152D01*
X97828667Y-3969152D02*
X97676286Y-3969152D01*
X97676286Y-3969152D02*
X97600096Y-4007247D01*
X97600096Y-4007247D02*
X97562001Y-4045342D01*
X97562001Y-4045342D02*
X97523905Y-4121533D01*
X97523905Y-4121533D02*
X97523905Y-4273914D01*
X97523905Y-4273914D02*
X97562001Y-4350104D01*
X97562001Y-4350104D02*
X97600096Y-4388200D01*
X97600096Y-4388200D02*
X97676286Y-4426295D01*
X97676286Y-4426295D02*
X97828667Y-4426295D01*
X97828667Y-4426295D02*
X97904858Y-4388200D01*
X97904858Y-4388200D02*
X97942953Y-4350104D01*
X97942953Y-4350104D02*
X97981048Y-4273914D01*
X97981048Y-4273914D02*
X97981048Y-4121533D01*
X97981048Y-4121533D02*
X97942953Y-4045342D01*
X97942953Y-4045342D02*
X97904858Y-4007247D01*
X97904858Y-4007247D02*
X97828667Y-3969152D01*
X98285810Y-3702485D02*
X98323906Y-3664390D01*
X98323906Y-3664390D02*
X98400096Y-3626295D01*
X98400096Y-3626295D02*
X98590572Y-3626295D01*
X98590572Y-3626295D02*
X98666763Y-3664390D01*
X98666763Y-3664390D02*
X98704858Y-3702485D01*
X98704858Y-3702485D02*
X98742953Y-3778676D01*
X98742953Y-3778676D02*
X98742953Y-3854866D01*
X98742953Y-3854866D02*
X98704858Y-3969152D01*
X98704858Y-3969152D02*
X98247715Y-4426295D01*
X98247715Y-4426295D02*
X98742953Y-4426295D01*
X99504858Y-4426295D02*
X99047715Y-4426295D01*
X99276287Y-4426295D02*
X99276287Y-3626295D01*
X99276287Y-3626295D02*
X99200096Y-3740580D01*
X99200096Y-3740580D02*
X99123906Y-3816771D01*
X99123906Y-3816771D02*
X99047715Y-3854866D01*
X100266763Y-4426295D02*
X99809620Y-4426295D01*
X100038192Y-4426295D02*
X100038192Y-3626295D01*
X100038192Y-3626295D02*
X99962001Y-3740580D01*
X99962001Y-3740580D02*
X99885811Y-3816771D01*
X99885811Y-3816771D02*
X99809620Y-3854866D01*
X101447716Y-4731057D02*
X101409621Y-4692961D01*
X101409621Y-4692961D02*
X101333430Y-4578676D01*
X101333430Y-4578676D02*
X101295335Y-4502485D01*
X101295335Y-4502485D02*
X101257240Y-4388200D01*
X101257240Y-4388200D02*
X101219145Y-4197723D01*
X101219145Y-4197723D02*
X101219145Y-4045342D01*
X101219145Y-4045342D02*
X101257240Y-3854866D01*
X101257240Y-3854866D02*
X101295335Y-3740580D01*
X101295335Y-3740580D02*
X101333430Y-3664390D01*
X101333430Y-3664390D02*
X101409621Y-3550104D01*
X101409621Y-3550104D02*
X101447716Y-3512009D01*
X101638192Y-3626295D02*
X101904859Y-4426295D01*
X101904859Y-4426295D02*
X102171525Y-3626295D01*
X102438192Y-4007247D02*
X102704858Y-4007247D01*
X102819144Y-4426295D02*
X102438192Y-4426295D01*
X102438192Y-4426295D02*
X102438192Y-3626295D01*
X102438192Y-3626295D02*
X102819144Y-3626295D01*
X103619145Y-4426295D02*
X103352478Y-4045342D01*
X103162002Y-4426295D02*
X103162002Y-3626295D01*
X103162002Y-3626295D02*
X103466764Y-3626295D01*
X103466764Y-3626295D02*
X103542954Y-3664390D01*
X103542954Y-3664390D02*
X103581049Y-3702485D01*
X103581049Y-3702485D02*
X103619145Y-3778676D01*
X103619145Y-3778676D02*
X103619145Y-3892961D01*
X103619145Y-3892961D02*
X103581049Y-3969152D01*
X103581049Y-3969152D02*
X103542954Y-4007247D01*
X103542954Y-4007247D02*
X103466764Y-4045342D01*
X103466764Y-4045342D02*
X103162002Y-4045342D01*
X103962002Y-4426295D02*
X103962002Y-3626295D01*
X104609620Y-4007247D02*
X104342954Y-4007247D01*
X104342954Y-4426295D02*
X104342954Y-3626295D01*
X104342954Y-3626295D02*
X104723906Y-3626295D01*
X105181049Y-4045342D02*
X105181049Y-4426295D01*
X104914382Y-3626295D02*
X105181049Y-4045342D01*
X105181049Y-4045342D02*
X105447715Y-3626295D01*
X106323906Y-4426295D02*
X106323906Y-3626295D01*
X106323906Y-3626295D02*
X106628668Y-3626295D01*
X106628668Y-3626295D02*
X106704858Y-3664390D01*
X106704858Y-3664390D02*
X106742953Y-3702485D01*
X106742953Y-3702485D02*
X106781049Y-3778676D01*
X106781049Y-3778676D02*
X106781049Y-3892961D01*
X106781049Y-3892961D02*
X106742953Y-3969152D01*
X106742953Y-3969152D02*
X106704858Y-4007247D01*
X106704858Y-4007247D02*
X106628668Y-4045342D01*
X106628668Y-4045342D02*
X106323906Y-4045342D01*
X107123906Y-4426295D02*
X107123906Y-3626295D01*
X107504858Y-4426295D02*
X107504858Y-3626295D01*
X107504858Y-3626295D02*
X107962001Y-4426295D01*
X107962001Y-4426295D02*
X107962001Y-3626295D01*
X108495334Y-3626295D02*
X108647715Y-3626295D01*
X108647715Y-3626295D02*
X108723905Y-3664390D01*
X108723905Y-3664390D02*
X108800096Y-3740580D01*
X108800096Y-3740580D02*
X108838191Y-3892961D01*
X108838191Y-3892961D02*
X108838191Y-4159628D01*
X108838191Y-4159628D02*
X108800096Y-4312009D01*
X108800096Y-4312009D02*
X108723905Y-4388200D01*
X108723905Y-4388200D02*
X108647715Y-4426295D01*
X108647715Y-4426295D02*
X108495334Y-4426295D01*
X108495334Y-4426295D02*
X108419143Y-4388200D01*
X108419143Y-4388200D02*
X108342953Y-4312009D01*
X108342953Y-4312009D02*
X108304857Y-4159628D01*
X108304857Y-4159628D02*
X108304857Y-3892961D01*
X108304857Y-3892961D02*
X108342953Y-3740580D01*
X108342953Y-3740580D02*
X108419143Y-3664390D01*
X108419143Y-3664390D02*
X108495334Y-3626295D01*
X109181048Y-3626295D02*
X109181048Y-4273914D01*
X109181048Y-4273914D02*
X109219143Y-4350104D01*
X109219143Y-4350104D02*
X109257238Y-4388200D01*
X109257238Y-4388200D02*
X109333429Y-4426295D01*
X109333429Y-4426295D02*
X109485810Y-4426295D01*
X109485810Y-4426295D02*
X109562000Y-4388200D01*
X109562000Y-4388200D02*
X109600095Y-4350104D01*
X109600095Y-4350104D02*
X109638191Y-4273914D01*
X109638191Y-4273914D02*
X109638191Y-3626295D01*
X109904857Y-3626295D02*
X110362000Y-3626295D01*
X110133428Y-4426295D02*
X110133428Y-3626295D01*
X110552476Y-4731057D02*
X110590571Y-4692961D01*
X110590571Y-4692961D02*
X110666762Y-4578676D01*
X110666762Y-4578676D02*
X110704857Y-4502485D01*
X110704857Y-4502485D02*
X110742952Y-4388200D01*
X110742952Y-4388200D02*
X110781048Y-4197723D01*
X110781048Y-4197723D02*
X110781048Y-4045342D01*
X110781048Y-4045342D02*
X110742952Y-3854866D01*
X110742952Y-3854866D02*
X110704857Y-3740580D01*
X110704857Y-3740580D02*
X110666762Y-3664390D01*
X110666762Y-3664390D02*
X110590571Y-3550104D01*
X110590571Y-3550104D02*
X110552476Y-3512009D01*
X47752000Y-29718000D02*
X99568000Y-29718000D01*
X99568000Y-50546000D01*
X47752000Y-50546000D01*
X47752000Y-29718000D01*
X47666189Y-40586819D02*
X47332856Y-40110628D01*
X47094761Y-40586819D02*
X47094761Y-39586819D01*
X47094761Y-39586819D02*
X47475713Y-39586819D01*
X47475713Y-39586819D02*
X47570951Y-39634438D01*
X47570951Y-39634438D02*
X47618570Y-39682057D01*
X47618570Y-39682057D02*
X47666189Y-39777295D01*
X47666189Y-39777295D02*
X47666189Y-39920152D01*
X47666189Y-39920152D02*
X47618570Y-40015390D01*
X47618570Y-40015390D02*
X47570951Y-40063009D01*
X47570951Y-40063009D02*
X47475713Y-40110628D01*
X47475713Y-40110628D02*
X47094761Y-40110628D01*
X48047142Y-40301104D02*
X48523332Y-40301104D01*
X47951904Y-40586819D02*
X48285237Y-39586819D01*
X48285237Y-39586819D02*
X48618570Y-40586819D01*
X48904285Y-40539200D02*
X49047142Y-40586819D01*
X49047142Y-40586819D02*
X49285237Y-40586819D01*
X49285237Y-40586819D02*
X49380475Y-40539200D01*
X49380475Y-40539200D02*
X49428094Y-40491580D01*
X49428094Y-40491580D02*
X49475713Y-40396342D01*
X49475713Y-40396342D02*
X49475713Y-40301104D01*
X49475713Y-40301104D02*
X49428094Y-40205866D01*
X49428094Y-40205866D02*
X49380475Y-40158247D01*
X49380475Y-40158247D02*
X49285237Y-40110628D01*
X49285237Y-40110628D02*
X49094761Y-40063009D01*
X49094761Y-40063009D02*
X48999523Y-40015390D01*
X48999523Y-40015390D02*
X48951904Y-39967771D01*
X48951904Y-39967771D02*
X48904285Y-39872533D01*
X48904285Y-39872533D02*
X48904285Y-39777295D01*
X48904285Y-39777295D02*
X48951904Y-39682057D01*
X48951904Y-39682057D02*
X48999523Y-39634438D01*
X48999523Y-39634438D02*
X49094761Y-39586819D01*
X49094761Y-39586819D02*
X49332856Y-39586819D01*
X49332856Y-39586819D02*
X49475713Y-39634438D01*
X49904285Y-40586819D02*
X49904285Y-39586819D01*
X49904285Y-39586819D02*
X50285237Y-39586819D01*
X50285237Y-39586819D02*
X50380475Y-39634438D01*
X50380475Y-39634438D02*
X50428094Y-39682057D01*
X50428094Y-39682057D02*
X50475713Y-39777295D01*
X50475713Y-39777295D02*
X50475713Y-39920152D01*
X50475713Y-39920152D02*
X50428094Y-40015390D01*
X50428094Y-40015390D02*
X50380475Y-40063009D01*
X50380475Y-40063009D02*
X50285237Y-40110628D01*
X50285237Y-40110628D02*
X49904285Y-40110628D01*
X51237618Y-40063009D02*
X51380475Y-40110628D01*
X51380475Y-40110628D02*
X51428094Y-40158247D01*
X51428094Y-40158247D02*
X51475713Y-40253485D01*
X51475713Y-40253485D02*
X51475713Y-40396342D01*
X51475713Y-40396342D02*
X51428094Y-40491580D01*
X51428094Y-40491580D02*
X51380475Y-40539200D01*
X51380475Y-40539200D02*
X51285237Y-40586819D01*
X51285237Y-40586819D02*
X50904285Y-40586819D01*
X50904285Y-40586819D02*
X50904285Y-39586819D01*
X50904285Y-39586819D02*
X51237618Y-39586819D01*
X51237618Y-39586819D02*
X51332856Y-39634438D01*
X51332856Y-39634438D02*
X51380475Y-39682057D01*
X51380475Y-39682057D02*
X51428094Y-39777295D01*
X51428094Y-39777295D02*
X51428094Y-39872533D01*
X51428094Y-39872533D02*
X51380475Y-39967771D01*
X51380475Y-39967771D02*
X51332856Y-40015390D01*
X51332856Y-40015390D02*
X51237618Y-40063009D01*
X51237618Y-40063009D02*
X50904285Y-40063009D01*
X51904285Y-40063009D02*
X52237618Y-40063009D01*
X52380475Y-40586819D02*
X51904285Y-40586819D01*
X51904285Y-40586819D02*
X51904285Y-39586819D01*
X51904285Y-39586819D02*
X52380475Y-39586819D01*
X53380475Y-40586819D02*
X53047142Y-40110628D01*
X52809047Y-40586819D02*
X52809047Y-39586819D01*
X52809047Y-39586819D02*
X53189999Y-39586819D01*
X53189999Y-39586819D02*
X53285237Y-39634438D01*
X53285237Y-39634438D02*
X53332856Y-39682057D01*
X53332856Y-39682057D02*
X53380475Y-39777295D01*
X53380475Y-39777295D02*
X53380475Y-39920152D01*
X53380475Y-39920152D02*
X53332856Y-40015390D01*
X53332856Y-40015390D02*
X53285237Y-40063009D01*
X53285237Y-40063009D02*
X53189999Y-40110628D01*
X53189999Y-40110628D02*
X52809047Y-40110628D01*
X54380475Y-40586819D02*
X54047142Y-40110628D01*
X53809047Y-40586819D02*
X53809047Y-39586819D01*
X53809047Y-39586819D02*
X54189999Y-39586819D01*
X54189999Y-39586819D02*
X54285237Y-39634438D01*
X54285237Y-39634438D02*
X54332856Y-39682057D01*
X54332856Y-39682057D02*
X54380475Y-39777295D01*
X54380475Y-39777295D02*
X54380475Y-39920152D01*
X54380475Y-39920152D02*
X54332856Y-40015390D01*
X54332856Y-40015390D02*
X54285237Y-40063009D01*
X54285237Y-40063009D02*
X54189999Y-40110628D01*
X54189999Y-40110628D02*
X53809047Y-40110628D01*
X54999523Y-40110628D02*
X54999523Y-40586819D01*
X54666190Y-39586819D02*
X54999523Y-40110628D01*
X54999523Y-40110628D02*
X55332856Y-39586819D01*
X56428095Y-40586819D02*
X56428095Y-39586819D01*
X56428095Y-39586819D02*
X56809047Y-39586819D01*
X56809047Y-39586819D02*
X56904285Y-39634438D01*
X56904285Y-39634438D02*
X56951904Y-39682057D01*
X56951904Y-39682057D02*
X56999523Y-39777295D01*
X56999523Y-39777295D02*
X56999523Y-39920152D01*
X56999523Y-39920152D02*
X56951904Y-40015390D01*
X56951904Y-40015390D02*
X56904285Y-40063009D01*
X56904285Y-40063009D02*
X56809047Y-40110628D01*
X56809047Y-40110628D02*
X56428095Y-40110628D01*
X57428095Y-40586819D02*
X57428095Y-39586819D01*
X58666190Y-40586819D02*
X58666190Y-39586819D01*
X58666190Y-39586819D02*
X59047142Y-39586819D01*
X59047142Y-39586819D02*
X59142380Y-39634438D01*
X59142380Y-39634438D02*
X59189999Y-39682057D01*
X59189999Y-39682057D02*
X59237618Y-39777295D01*
X59237618Y-39777295D02*
X59237618Y-39920152D01*
X59237618Y-39920152D02*
X59189999Y-40015390D01*
X59189999Y-40015390D02*
X59142380Y-40063009D01*
X59142380Y-40063009D02*
X59047142Y-40110628D01*
X59047142Y-40110628D02*
X58666190Y-40110628D01*
X59666190Y-40586819D02*
X59666190Y-39586819D01*
X60713808Y-40491580D02*
X60666189Y-40539200D01*
X60666189Y-40539200D02*
X60523332Y-40586819D01*
X60523332Y-40586819D02*
X60428094Y-40586819D01*
X60428094Y-40586819D02*
X60285237Y-40539200D01*
X60285237Y-40539200D02*
X60189999Y-40443961D01*
X60189999Y-40443961D02*
X60142380Y-40348723D01*
X60142380Y-40348723D02*
X60094761Y-40158247D01*
X60094761Y-40158247D02*
X60094761Y-40015390D01*
X60094761Y-40015390D02*
X60142380Y-39824914D01*
X60142380Y-39824914D02*
X60189999Y-39729676D01*
X60189999Y-39729676D02*
X60285237Y-39634438D01*
X60285237Y-39634438D02*
X60428094Y-39586819D01*
X60428094Y-39586819D02*
X60523332Y-39586819D01*
X60523332Y-39586819D02*
X60666189Y-39634438D01*
X60666189Y-39634438D02*
X60713808Y-39682057D01*
X61332856Y-39586819D02*
X61523332Y-39586819D01*
X61523332Y-39586819D02*
X61618570Y-39634438D01*
X61618570Y-39634438D02*
X61713808Y-39729676D01*
X61713808Y-39729676D02*
X61761427Y-39920152D01*
X61761427Y-39920152D02*
X61761427Y-40253485D01*
X61761427Y-40253485D02*
X61713808Y-40443961D01*
X61713808Y-40443961D02*
X61618570Y-40539200D01*
X61618570Y-40539200D02*
X61523332Y-40586819D01*
X61523332Y-40586819D02*
X61332856Y-40586819D01*
X61332856Y-40586819D02*
X61237618Y-40539200D01*
X61237618Y-40539200D02*
X61142380Y-40443961D01*
X61142380Y-40443961D02*
X61094761Y-40253485D01*
X61094761Y-40253485D02*
X61094761Y-39920152D01*
X61094761Y-39920152D02*
X61142380Y-39729676D01*
X61142380Y-39729676D02*
X61237618Y-39634438D01*
X61237618Y-39634438D02*
X61332856Y-39586819D01*
X62856666Y-39586819D02*
X63094761Y-40586819D01*
X63094761Y-40586819D02*
X63285237Y-39872533D01*
X63285237Y-39872533D02*
X63475713Y-40586819D01*
X63475713Y-40586819D02*
X63713809Y-39586819D01*
X65142380Y-40967771D02*
X65094761Y-40920152D01*
X65094761Y-40920152D02*
X64999523Y-40777295D01*
X64999523Y-40777295D02*
X64951904Y-40682057D01*
X64951904Y-40682057D02*
X64904285Y-40539200D01*
X64904285Y-40539200D02*
X64856666Y-40301104D01*
X64856666Y-40301104D02*
X64856666Y-40110628D01*
X64856666Y-40110628D02*
X64904285Y-39872533D01*
X64904285Y-39872533D02*
X64951904Y-39729676D01*
X64951904Y-39729676D02*
X64999523Y-39634438D01*
X64999523Y-39634438D02*
X65094761Y-39491580D01*
X65094761Y-39491580D02*
X65142380Y-39443961D01*
X65475714Y-40539200D02*
X65570952Y-40586819D01*
X65570952Y-40586819D02*
X65761428Y-40586819D01*
X65761428Y-40586819D02*
X65856666Y-40539200D01*
X65856666Y-40539200D02*
X65904285Y-40443961D01*
X65904285Y-40443961D02*
X65904285Y-40396342D01*
X65904285Y-40396342D02*
X65856666Y-40301104D01*
X65856666Y-40301104D02*
X65761428Y-40253485D01*
X65761428Y-40253485D02*
X65618571Y-40253485D01*
X65618571Y-40253485D02*
X65523333Y-40205866D01*
X65523333Y-40205866D02*
X65475714Y-40110628D01*
X65475714Y-40110628D02*
X65475714Y-40063009D01*
X65475714Y-40063009D02*
X65523333Y-39967771D01*
X65523333Y-39967771D02*
X65618571Y-39920152D01*
X65618571Y-39920152D02*
X65761428Y-39920152D01*
X65761428Y-39920152D02*
X65856666Y-39967771D01*
X66475714Y-40586819D02*
X66380476Y-40539200D01*
X66380476Y-40539200D02*
X66332857Y-40491580D01*
X66332857Y-40491580D02*
X66285238Y-40396342D01*
X66285238Y-40396342D02*
X66285238Y-40110628D01*
X66285238Y-40110628D02*
X66332857Y-40015390D01*
X66332857Y-40015390D02*
X66380476Y-39967771D01*
X66380476Y-39967771D02*
X66475714Y-39920152D01*
X66475714Y-39920152D02*
X66618571Y-39920152D01*
X66618571Y-39920152D02*
X66713809Y-39967771D01*
X66713809Y-39967771D02*
X66761428Y-40015390D01*
X66761428Y-40015390D02*
X66809047Y-40110628D01*
X66809047Y-40110628D02*
X66809047Y-40396342D01*
X66809047Y-40396342D02*
X66761428Y-40491580D01*
X66761428Y-40491580D02*
X66713809Y-40539200D01*
X66713809Y-40539200D02*
X66618571Y-40586819D01*
X66618571Y-40586819D02*
X66475714Y-40586819D01*
X67666190Y-40539200D02*
X67570952Y-40586819D01*
X67570952Y-40586819D02*
X67380476Y-40586819D01*
X67380476Y-40586819D02*
X67285238Y-40539200D01*
X67285238Y-40539200D02*
X67237619Y-40491580D01*
X67237619Y-40491580D02*
X67190000Y-40396342D01*
X67190000Y-40396342D02*
X67190000Y-40110628D01*
X67190000Y-40110628D02*
X67237619Y-40015390D01*
X67237619Y-40015390D02*
X67285238Y-39967771D01*
X67285238Y-39967771D02*
X67380476Y-39920152D01*
X67380476Y-39920152D02*
X67570952Y-39920152D01*
X67570952Y-39920152D02*
X67666190Y-39967771D01*
X68094762Y-40586819D02*
X68094762Y-39586819D01*
X68190000Y-40205866D02*
X68475714Y-40586819D01*
X68475714Y-39920152D02*
X68094762Y-40301104D01*
X69285238Y-40539200D02*
X69190000Y-40586819D01*
X69190000Y-40586819D02*
X68999524Y-40586819D01*
X68999524Y-40586819D02*
X68904286Y-40539200D01*
X68904286Y-40539200D02*
X68856667Y-40443961D01*
X68856667Y-40443961D02*
X68856667Y-40063009D01*
X68856667Y-40063009D02*
X68904286Y-39967771D01*
X68904286Y-39967771D02*
X68999524Y-39920152D01*
X68999524Y-39920152D02*
X69190000Y-39920152D01*
X69190000Y-39920152D02*
X69285238Y-39967771D01*
X69285238Y-39967771D02*
X69332857Y-40063009D01*
X69332857Y-40063009D02*
X69332857Y-40158247D01*
X69332857Y-40158247D02*
X68856667Y-40253485D01*
X69618572Y-39920152D02*
X69999524Y-39920152D01*
X69761429Y-39586819D02*
X69761429Y-40443961D01*
X69761429Y-40443961D02*
X69809048Y-40539200D01*
X69809048Y-40539200D02*
X69904286Y-40586819D01*
X69904286Y-40586819D02*
X69999524Y-40586819D01*
X70713810Y-40539200D02*
X70618572Y-40586819D01*
X70618572Y-40586819D02*
X70428096Y-40586819D01*
X70428096Y-40586819D02*
X70332858Y-40539200D01*
X70332858Y-40539200D02*
X70285239Y-40443961D01*
X70285239Y-40443961D02*
X70285239Y-40063009D01*
X70285239Y-40063009D02*
X70332858Y-39967771D01*
X70332858Y-39967771D02*
X70428096Y-39920152D01*
X70428096Y-39920152D02*
X70618572Y-39920152D01*
X70618572Y-39920152D02*
X70713810Y-39967771D01*
X70713810Y-39967771D02*
X70761429Y-40063009D01*
X70761429Y-40063009D02*
X70761429Y-40158247D01*
X70761429Y-40158247D02*
X70285239Y-40253485D01*
X71618572Y-40586819D02*
X71618572Y-39586819D01*
X71618572Y-40539200D02*
X71523334Y-40586819D01*
X71523334Y-40586819D02*
X71332858Y-40586819D01*
X71332858Y-40586819D02*
X71237620Y-40539200D01*
X71237620Y-40539200D02*
X71190001Y-40491580D01*
X71190001Y-40491580D02*
X71142382Y-40396342D01*
X71142382Y-40396342D02*
X71142382Y-40110628D01*
X71142382Y-40110628D02*
X71190001Y-40015390D01*
X71190001Y-40015390D02*
X71237620Y-39967771D01*
X71237620Y-39967771D02*
X71332858Y-39920152D01*
X71332858Y-39920152D02*
X71523334Y-39920152D01*
X71523334Y-39920152D02*
X71618572Y-39967771D01*
X71999525Y-40967771D02*
X72047144Y-40920152D01*
X72047144Y-40920152D02*
X72142382Y-40777295D01*
X72142382Y-40777295D02*
X72190001Y-40682057D01*
X72190001Y-40682057D02*
X72237620Y-40539200D01*
X72237620Y-40539200D02*
X72285239Y-40301104D01*
X72285239Y-40301104D02*
X72285239Y-40110628D01*
X72285239Y-40110628D02*
X72237620Y-39872533D01*
X72237620Y-39872533D02*
X72190001Y-39729676D01*
X72190001Y-39729676D02*
X72142382Y-39634438D01*
X72142382Y-39634438D02*
X72047144Y-39491580D01*
X72047144Y-39491580D02*
X71999525Y-39443961D01*
X87712857Y-28073723D02*
X88093810Y-28073723D01*
X87636667Y-28302295D02*
X87903334Y-27502295D01*
X87903334Y-27502295D02*
X88170000Y-28302295D01*
X88436667Y-28302295D02*
X88436667Y-27502295D01*
X88436667Y-27502295D02*
X88893810Y-28302295D01*
X88893810Y-28302295D02*
X88893810Y-27502295D01*
X89160476Y-27502295D02*
X89617619Y-27502295D01*
X89389047Y-28302295D02*
X89389047Y-27502295D01*
X89884286Y-27883247D02*
X90150952Y-27883247D01*
X90265238Y-28302295D02*
X89884286Y-28302295D01*
X89884286Y-28302295D02*
X89884286Y-27502295D01*
X89884286Y-27502295D02*
X90265238Y-27502295D01*
X90608096Y-28302295D02*
X90608096Y-27502295D01*
X90608096Y-27502295D02*
X91065239Y-28302295D01*
X91065239Y-28302295D02*
X91065239Y-27502295D01*
X91446191Y-28302295D02*
X91446191Y-27502295D01*
X91446191Y-27502295D02*
X91903334Y-28302295D01*
X91903334Y-28302295D02*
X91903334Y-27502295D01*
X92246190Y-28073723D02*
X92627143Y-28073723D01*
X92170000Y-28302295D02*
X92436667Y-27502295D01*
X92436667Y-27502295D02*
X92703333Y-28302295D01*
X109524952Y-23222295D02*
X109258285Y-22841342D01*
X109067809Y-23222295D02*
X109067809Y-22422295D01*
X109067809Y-22422295D02*
X109372571Y-22422295D01*
X109372571Y-22422295D02*
X109448761Y-22460390D01*
X109448761Y-22460390D02*
X109486856Y-22498485D01*
X109486856Y-22498485D02*
X109524952Y-22574676D01*
X109524952Y-22574676D02*
X109524952Y-22688961D01*
X109524952Y-22688961D02*
X109486856Y-22765152D01*
X109486856Y-22765152D02*
X109448761Y-22803247D01*
X109448761Y-22803247D02*
X109372571Y-22841342D01*
X109372571Y-22841342D02*
X109067809Y-22841342D01*
X110286856Y-23222295D02*
X109829713Y-23222295D01*
X110058285Y-23222295D02*
X110058285Y-22422295D01*
X110058285Y-22422295D02*
X109982094Y-22536580D01*
X109982094Y-22536580D02*
X109905904Y-22612771D01*
X109905904Y-22612771D02*
X109829713Y-22650866D01*
X111658285Y-23222295D02*
X111201142Y-23222295D01*
X111429714Y-23222295D02*
X111429714Y-22422295D01*
X111429714Y-22422295D02*
X111353523Y-22536580D01*
X111353523Y-22536580D02*
X111277333Y-22612771D01*
X111277333Y-22612771D02*
X111201142Y-22650866D01*
X112001143Y-23222295D02*
X112001143Y-22422295D01*
X112458286Y-23222295D02*
X112115428Y-22765152D01*
X112458286Y-22422295D02*
X112001143Y-22879438D01*
X113334952Y-23222295D02*
X113068285Y-22841342D01*
X112877809Y-23222295D02*
X112877809Y-22422295D01*
X112877809Y-22422295D02*
X113182571Y-22422295D01*
X113182571Y-22422295D02*
X113258761Y-22460390D01*
X113258761Y-22460390D02*
X113296856Y-22498485D01*
X113296856Y-22498485D02*
X113334952Y-22574676D01*
X113334952Y-22574676D02*
X113334952Y-22688961D01*
X113334952Y-22688961D02*
X113296856Y-22765152D01*
X113296856Y-22765152D02*
X113258761Y-22803247D01*
X113258761Y-22803247D02*
X113182571Y-22841342D01*
X113182571Y-22841342D02*
X112877809Y-22841342D01*
X113639713Y-22498485D02*
X113677809Y-22460390D01*
X113677809Y-22460390D02*
X113753999Y-22422295D01*
X113753999Y-22422295D02*
X113944475Y-22422295D01*
X113944475Y-22422295D02*
X114020666Y-22460390D01*
X114020666Y-22460390D02*
X114058761Y-22498485D01*
X114058761Y-22498485D02*
X114096856Y-22574676D01*
X114096856Y-22574676D02*
X114096856Y-22650866D01*
X114096856Y-22650866D02*
X114058761Y-22765152D01*
X114058761Y-22765152D02*
X113601618Y-23222295D01*
X113601618Y-23222295D02*
X114096856Y-23222295D01*
X115468285Y-23222295D02*
X115011142Y-23222295D01*
X115239714Y-23222295D02*
X115239714Y-22422295D01*
X115239714Y-22422295D02*
X115163523Y-22536580D01*
X115163523Y-22536580D02*
X115087333Y-22612771D01*
X115087333Y-22612771D02*
X115011142Y-22650866D01*
X115811143Y-23222295D02*
X115811143Y-22422295D01*
X116268286Y-23222295D02*
X115925428Y-22765152D01*
X116268286Y-22422295D02*
X115811143Y-22879438D01*
X117310095Y-23146104D02*
X117271999Y-23184200D01*
X117271999Y-23184200D02*
X117157714Y-23222295D01*
X117157714Y-23222295D02*
X117081523Y-23222295D01*
X117081523Y-23222295D02*
X116967237Y-23184200D01*
X116967237Y-23184200D02*
X116891047Y-23108009D01*
X116891047Y-23108009D02*
X116852952Y-23031819D01*
X116852952Y-23031819D02*
X116814856Y-22879438D01*
X116814856Y-22879438D02*
X116814856Y-22765152D01*
X116814856Y-22765152D02*
X116852952Y-22612771D01*
X116852952Y-22612771D02*
X116891047Y-22536580D01*
X116891047Y-22536580D02*
X116967237Y-22460390D01*
X116967237Y-22460390D02*
X117081523Y-22422295D01*
X117081523Y-22422295D02*
X117157714Y-22422295D01*
X117157714Y-22422295D02*
X117271999Y-22460390D01*
X117271999Y-22460390D02*
X117310095Y-22498485D01*
X117691047Y-23222295D02*
X117843428Y-23222295D01*
X117843428Y-23222295D02*
X117919618Y-23184200D01*
X117919618Y-23184200D02*
X117957714Y-23146104D01*
X117957714Y-23146104D02*
X118033904Y-23031819D01*
X118033904Y-23031819D02*
X118071999Y-22879438D01*
X118071999Y-22879438D02*
X118071999Y-22574676D01*
X118071999Y-22574676D02*
X118033904Y-22498485D01*
X118033904Y-22498485D02*
X117995809Y-22460390D01*
X117995809Y-22460390D02*
X117919618Y-22422295D01*
X117919618Y-22422295D02*
X117767237Y-22422295D01*
X117767237Y-22422295D02*
X117691047Y-22460390D01*
X117691047Y-22460390D02*
X117652952Y-22498485D01*
X117652952Y-22498485D02*
X117614856Y-22574676D01*
X117614856Y-22574676D02*
X117614856Y-22765152D01*
X117614856Y-22765152D02*
X117652952Y-22841342D01*
X117652952Y-22841342D02*
X117691047Y-22879438D01*
X117691047Y-22879438D02*
X117767237Y-22917533D01*
X117767237Y-22917533D02*
X117919618Y-22917533D01*
X117919618Y-22917533D02*
X117995809Y-22879438D01*
X117995809Y-22879438D02*
X118033904Y-22841342D01*
X118033904Y-22841342D02*
X118071999Y-22765152D01*
X119443428Y-23222295D02*
X118986285Y-23222295D01*
X119214857Y-23222295D02*
X119214857Y-22422295D01*
X119214857Y-22422295D02*
X119138666Y-22536580D01*
X119138666Y-22536580D02*
X119062476Y-22612771D01*
X119062476Y-22612771D02*
X118986285Y-22650866D01*
X119938667Y-22422295D02*
X120014857Y-22422295D01*
X120014857Y-22422295D02*
X120091048Y-22460390D01*
X120091048Y-22460390D02*
X120129143Y-22498485D01*
X120129143Y-22498485D02*
X120167238Y-22574676D01*
X120167238Y-22574676D02*
X120205333Y-22727057D01*
X120205333Y-22727057D02*
X120205333Y-22917533D01*
X120205333Y-22917533D02*
X120167238Y-23069914D01*
X120167238Y-23069914D02*
X120129143Y-23146104D01*
X120129143Y-23146104D02*
X120091048Y-23184200D01*
X120091048Y-23184200D02*
X120014857Y-23222295D01*
X120014857Y-23222295D02*
X119938667Y-23222295D01*
X119938667Y-23222295D02*
X119862476Y-23184200D01*
X119862476Y-23184200D02*
X119824381Y-23146104D01*
X119824381Y-23146104D02*
X119786286Y-23069914D01*
X119786286Y-23069914D02*
X119748190Y-22917533D01*
X119748190Y-22917533D02*
X119748190Y-22727057D01*
X119748190Y-22727057D02*
X119786286Y-22574676D01*
X119786286Y-22574676D02*
X119824381Y-22498485D01*
X119824381Y-22498485D02*
X119862476Y-22460390D01*
X119862476Y-22460390D02*
X119938667Y-22422295D01*
X120891048Y-22688961D02*
X120891048Y-23222295D01*
X120548191Y-22688961D02*
X120548191Y-23108009D01*
X120548191Y-23108009D02*
X120586286Y-23184200D01*
X120586286Y-23184200D02*
X120662476Y-23222295D01*
X120662476Y-23222295D02*
X120776762Y-23222295D01*
X120776762Y-23222295D02*
X120852953Y-23184200D01*
X120852953Y-23184200D02*
X120891048Y-23146104D01*
X106984952Y-44812295D02*
X106718285Y-44431342D01*
X106527809Y-44812295D02*
X106527809Y-44012295D01*
X106527809Y-44012295D02*
X106832571Y-44012295D01*
X106832571Y-44012295D02*
X106908761Y-44050390D01*
X106908761Y-44050390D02*
X106946856Y-44088485D01*
X106946856Y-44088485D02*
X106984952Y-44164676D01*
X106984952Y-44164676D02*
X106984952Y-44278961D01*
X106984952Y-44278961D02*
X106946856Y-44355152D01*
X106946856Y-44355152D02*
X106908761Y-44393247D01*
X106908761Y-44393247D02*
X106832571Y-44431342D01*
X106832571Y-44431342D02*
X106527809Y-44431342D01*
X107670666Y-44278961D02*
X107670666Y-44812295D01*
X107480190Y-43974200D02*
X107289713Y-44545628D01*
X107289713Y-44545628D02*
X107784952Y-44545628D01*
X109118285Y-44812295D02*
X108661142Y-44812295D01*
X108889714Y-44812295D02*
X108889714Y-44012295D01*
X108889714Y-44012295D02*
X108813523Y-44126580D01*
X108813523Y-44126580D02*
X108737333Y-44202771D01*
X108737333Y-44202771D02*
X108661142Y-44240866D01*
X109461143Y-44812295D02*
X109461143Y-44012295D01*
X109918286Y-44812295D02*
X109575428Y-44355152D01*
X109918286Y-44012295D02*
X109461143Y-44469438D01*
X109944190Y-44736104D02*
X109906094Y-44774200D01*
X109906094Y-44774200D02*
X109791809Y-44812295D01*
X109791809Y-44812295D02*
X109715618Y-44812295D01*
X109715618Y-44812295D02*
X109601332Y-44774200D01*
X109601332Y-44774200D02*
X109525142Y-44698009D01*
X109525142Y-44698009D02*
X109487047Y-44621819D01*
X109487047Y-44621819D02*
X109448951Y-44469438D01*
X109448951Y-44469438D02*
X109448951Y-44355152D01*
X109448951Y-44355152D02*
X109487047Y-44202771D01*
X109487047Y-44202771D02*
X109525142Y-44126580D01*
X109525142Y-44126580D02*
X109601332Y-44050390D01*
X109601332Y-44050390D02*
X109715618Y-44012295D01*
X109715618Y-44012295D02*
X109791809Y-44012295D01*
X109791809Y-44012295D02*
X109906094Y-44050390D01*
X109906094Y-44050390D02*
X109944190Y-44088485D01*
X110706094Y-44812295D02*
X110248951Y-44812295D01*
X110477523Y-44812295D02*
X110477523Y-44012295D01*
X110477523Y-44012295D02*
X110401332Y-44126580D01*
X110401332Y-44126580D02*
X110325142Y-44202771D01*
X110325142Y-44202771D02*
X110248951Y-44240866D01*
X111201333Y-44012295D02*
X111277523Y-44012295D01*
X111277523Y-44012295D02*
X111353714Y-44050390D01*
X111353714Y-44050390D02*
X111391809Y-44088485D01*
X111391809Y-44088485D02*
X111429904Y-44164676D01*
X111429904Y-44164676D02*
X111467999Y-44317057D01*
X111467999Y-44317057D02*
X111467999Y-44507533D01*
X111467999Y-44507533D02*
X111429904Y-44659914D01*
X111429904Y-44659914D02*
X111391809Y-44736104D01*
X111391809Y-44736104D02*
X111353714Y-44774200D01*
X111353714Y-44774200D02*
X111277523Y-44812295D01*
X111277523Y-44812295D02*
X111201333Y-44812295D01*
X111201333Y-44812295D02*
X111125142Y-44774200D01*
X111125142Y-44774200D02*
X111087047Y-44736104D01*
X111087047Y-44736104D02*
X111048952Y-44659914D01*
X111048952Y-44659914D02*
X111010856Y-44507533D01*
X111010856Y-44507533D02*
X111010856Y-44317057D01*
X111010856Y-44317057D02*
X111048952Y-44164676D01*
X111048952Y-44164676D02*
X111087047Y-44088485D01*
X111087047Y-44088485D02*
X111125142Y-44050390D01*
X111125142Y-44050390D02*
X111201333Y-44012295D01*
X112839428Y-44812295D02*
X112382285Y-44812295D01*
X112610857Y-44812295D02*
X112610857Y-44012295D01*
X112610857Y-44012295D02*
X112534666Y-44126580D01*
X112534666Y-44126580D02*
X112458476Y-44202771D01*
X112458476Y-44202771D02*
X112382285Y-44240866D01*
X113334667Y-44012295D02*
X113410857Y-44012295D01*
X113410857Y-44012295D02*
X113487048Y-44050390D01*
X113487048Y-44050390D02*
X113525143Y-44088485D01*
X113525143Y-44088485D02*
X113563238Y-44164676D01*
X113563238Y-44164676D02*
X113601333Y-44317057D01*
X113601333Y-44317057D02*
X113601333Y-44507533D01*
X113601333Y-44507533D02*
X113563238Y-44659914D01*
X113563238Y-44659914D02*
X113525143Y-44736104D01*
X113525143Y-44736104D02*
X113487048Y-44774200D01*
X113487048Y-44774200D02*
X113410857Y-44812295D01*
X113410857Y-44812295D02*
X113334667Y-44812295D01*
X113334667Y-44812295D02*
X113258476Y-44774200D01*
X113258476Y-44774200D02*
X113220381Y-44736104D01*
X113220381Y-44736104D02*
X113182286Y-44659914D01*
X113182286Y-44659914D02*
X113144190Y-44507533D01*
X113144190Y-44507533D02*
X113144190Y-44317057D01*
X113144190Y-44317057D02*
X113182286Y-44164676D01*
X113182286Y-44164676D02*
X113220381Y-44088485D01*
X113220381Y-44088485D02*
X113258476Y-44050390D01*
X113258476Y-44050390D02*
X113334667Y-44012295D01*
X114096572Y-44012295D02*
X114172762Y-44012295D01*
X114172762Y-44012295D02*
X114248953Y-44050390D01*
X114248953Y-44050390D02*
X114287048Y-44088485D01*
X114287048Y-44088485D02*
X114325143Y-44164676D01*
X114325143Y-44164676D02*
X114363238Y-44317057D01*
X114363238Y-44317057D02*
X114363238Y-44507533D01*
X114363238Y-44507533D02*
X114325143Y-44659914D01*
X114325143Y-44659914D02*
X114287048Y-44736104D01*
X114287048Y-44736104D02*
X114248953Y-44774200D01*
X114248953Y-44774200D02*
X114172762Y-44812295D01*
X114172762Y-44812295D02*
X114096572Y-44812295D01*
X114096572Y-44812295D02*
X114020381Y-44774200D01*
X114020381Y-44774200D02*
X113982286Y-44736104D01*
X113982286Y-44736104D02*
X113944191Y-44659914D01*
X113944191Y-44659914D02*
X113906095Y-44507533D01*
X113906095Y-44507533D02*
X113906095Y-44317057D01*
X113906095Y-44317057D02*
X113944191Y-44164676D01*
X113944191Y-44164676D02*
X113982286Y-44088485D01*
X113982286Y-44088485D02*
X114020381Y-44050390D01*
X114020381Y-44050390D02*
X114096572Y-44012295D01*
X114706096Y-44278961D02*
X114706096Y-44812295D01*
X114706096Y-44355152D02*
X114744191Y-44317057D01*
X114744191Y-44317057D02*
X114820381Y-44278961D01*
X114820381Y-44278961D02*
X114934667Y-44278961D01*
X114934667Y-44278961D02*
X115010858Y-44317057D01*
X115010858Y-44317057D02*
X115048953Y-44393247D01*
X115048953Y-44393247D02*
X115048953Y-44812295D01*
X114732000Y-44812295D02*
X114465333Y-44431342D01*
X114274857Y-44812295D02*
X114274857Y-44012295D01*
X114274857Y-44012295D02*
X114579619Y-44012295D01*
X114579619Y-44012295D02*
X114655809Y-44050390D01*
X114655809Y-44050390D02*
X114693904Y-44088485D01*
X114693904Y-44088485D02*
X114732000Y-44164676D01*
X114732000Y-44164676D02*
X114732000Y-44278961D01*
X114732000Y-44278961D02*
X114693904Y-44355152D01*
X114693904Y-44355152D02*
X114655809Y-44393247D01*
X114655809Y-44393247D02*
X114579619Y-44431342D01*
X114579619Y-44431342D02*
X114274857Y-44431342D01*
X115455809Y-44012295D02*
X115074857Y-44012295D01*
X115074857Y-44012295D02*
X115036761Y-44393247D01*
X115036761Y-44393247D02*
X115074857Y-44355152D01*
X115074857Y-44355152D02*
X115151047Y-44317057D01*
X115151047Y-44317057D02*
X115341523Y-44317057D01*
X115341523Y-44317057D02*
X115417714Y-44355152D01*
X115417714Y-44355152D02*
X115455809Y-44393247D01*
X115455809Y-44393247D02*
X115493904Y-44469438D01*
X115493904Y-44469438D02*
X115493904Y-44659914D01*
X115493904Y-44659914D02*
X115455809Y-44736104D01*
X115455809Y-44736104D02*
X115417714Y-44774200D01*
X115417714Y-44774200D02*
X115341523Y-44812295D01*
X115341523Y-44812295D02*
X115151047Y-44812295D01*
X115151047Y-44812295D02*
X115074857Y-44774200D01*
X115074857Y-44774200D02*
X115036761Y-44736104D01*
X116865333Y-44812295D02*
X116408190Y-44812295D01*
X116636762Y-44812295D02*
X116636762Y-44012295D01*
X116636762Y-44012295D02*
X116560571Y-44126580D01*
X116560571Y-44126580D02*
X116484381Y-44202771D01*
X116484381Y-44202771D02*
X116408190Y-44240866D01*
X117360572Y-44012295D02*
X117436762Y-44012295D01*
X117436762Y-44012295D02*
X117512953Y-44050390D01*
X117512953Y-44050390D02*
X117551048Y-44088485D01*
X117551048Y-44088485D02*
X117589143Y-44164676D01*
X117589143Y-44164676D02*
X117627238Y-44317057D01*
X117627238Y-44317057D02*
X117627238Y-44507533D01*
X117627238Y-44507533D02*
X117589143Y-44659914D01*
X117589143Y-44659914D02*
X117551048Y-44736104D01*
X117551048Y-44736104D02*
X117512953Y-44774200D01*
X117512953Y-44774200D02*
X117436762Y-44812295D01*
X117436762Y-44812295D02*
X117360572Y-44812295D01*
X117360572Y-44812295D02*
X117284381Y-44774200D01*
X117284381Y-44774200D02*
X117246286Y-44736104D01*
X117246286Y-44736104D02*
X117208191Y-44659914D01*
X117208191Y-44659914D02*
X117170095Y-44507533D01*
X117170095Y-44507533D02*
X117170095Y-44317057D01*
X117170095Y-44317057D02*
X117208191Y-44164676D01*
X117208191Y-44164676D02*
X117246286Y-44088485D01*
X117246286Y-44088485D02*
X117284381Y-44050390D01*
X117284381Y-44050390D02*
X117360572Y-44012295D01*
X117970096Y-44812295D02*
X117970096Y-44012295D01*
X118427239Y-44812295D02*
X118084381Y-44355152D01*
X118427239Y-44012295D02*
X117970096Y-44469438D01*
X113227143Y-4134295D02*
X113227143Y-4705723D01*
X113227143Y-4705723D02*
X113189048Y-4820009D01*
X113189048Y-4820009D02*
X113112857Y-4896200D01*
X113112857Y-4896200D02*
X112998572Y-4934295D01*
X112998572Y-4934295D02*
X112922381Y-4934295D01*
X114027143Y-4934295D02*
X113570000Y-4934295D01*
X113798572Y-4934295D02*
X113798572Y-4134295D01*
X113798572Y-4134295D02*
X113722381Y-4248580D01*
X113722381Y-4248580D02*
X113646191Y-4324771D01*
X113646191Y-4324771D02*
X113570000Y-4362866D01*
X114941429Y-4705723D02*
X115322382Y-4705723D01*
X114865239Y-4934295D02*
X115131906Y-4134295D01*
X115131906Y-4134295D02*
X115398572Y-4934295D01*
X115665239Y-4134295D02*
X115665239Y-4781914D01*
X115665239Y-4781914D02*
X115703334Y-4858104D01*
X115703334Y-4858104D02*
X115741429Y-4896200D01*
X115741429Y-4896200D02*
X115817620Y-4934295D01*
X115817620Y-4934295D02*
X115970001Y-4934295D01*
X115970001Y-4934295D02*
X116046191Y-4896200D01*
X116046191Y-4896200D02*
X116084286Y-4858104D01*
X116084286Y-4858104D02*
X116122382Y-4781914D01*
X116122382Y-4781914D02*
X116122382Y-4134295D01*
X116503334Y-4934295D02*
X116503334Y-4134295D01*
X116503334Y-4134295D02*
X116693810Y-4134295D01*
X116693810Y-4134295D02*
X116808096Y-4172390D01*
X116808096Y-4172390D02*
X116884286Y-4248580D01*
X116884286Y-4248580D02*
X116922381Y-4324771D01*
X116922381Y-4324771D02*
X116960477Y-4477152D01*
X116960477Y-4477152D02*
X116960477Y-4591438D01*
X116960477Y-4591438D02*
X116922381Y-4743819D01*
X116922381Y-4743819D02*
X116884286Y-4820009D01*
X116884286Y-4820009D02*
X116808096Y-4896200D01*
X116808096Y-4896200D02*
X116693810Y-4934295D01*
X116693810Y-4934295D02*
X116503334Y-4934295D01*
X117303334Y-4934295D02*
X117303334Y-4134295D01*
X117836667Y-4134295D02*
X117989048Y-4134295D01*
X117989048Y-4134295D02*
X118065238Y-4172390D01*
X118065238Y-4172390D02*
X118141429Y-4248580D01*
X118141429Y-4248580D02*
X118179524Y-4400961D01*
X118179524Y-4400961D02*
X118179524Y-4667628D01*
X118179524Y-4667628D02*
X118141429Y-4820009D01*
X118141429Y-4820009D02*
X118065238Y-4896200D01*
X118065238Y-4896200D02*
X117989048Y-4934295D01*
X117989048Y-4934295D02*
X117836667Y-4934295D01*
X117836667Y-4934295D02*
X117760476Y-4896200D01*
X117760476Y-4896200D02*
X117684286Y-4820009D01*
X117684286Y-4820009D02*
X117646190Y-4667628D01*
X117646190Y-4667628D02*
X117646190Y-4400961D01*
X117646190Y-4400961D02*
X117684286Y-4248580D01*
X117684286Y-4248580D02*
X117760476Y-4172390D01*
X117760476Y-4172390D02*
X117836667Y-4134295D01*
X113354285Y-32074295D02*
X113354285Y-32645723D01*
X113354285Y-32645723D02*
X113316190Y-32760009D01*
X113316190Y-32760009D02*
X113239999Y-32836200D01*
X113239999Y-32836200D02*
X113125714Y-32874295D01*
X113125714Y-32874295D02*
X113049523Y-32874295D01*
X113697142Y-32150485D02*
X113735238Y-32112390D01*
X113735238Y-32112390D02*
X113811428Y-32074295D01*
X113811428Y-32074295D02*
X114001904Y-32074295D01*
X114001904Y-32074295D02*
X114078095Y-32112390D01*
X114078095Y-32112390D02*
X114116190Y-32150485D01*
X114116190Y-32150485D02*
X114154285Y-32226676D01*
X114154285Y-32226676D02*
X114154285Y-32302866D01*
X114154285Y-32302866D02*
X114116190Y-32417152D01*
X114116190Y-32417152D02*
X113659047Y-32874295D01*
X113659047Y-32874295D02*
X114154285Y-32874295D01*
X115068571Y-32836200D02*
X115182857Y-32874295D01*
X115182857Y-32874295D02*
X115373333Y-32874295D01*
X115373333Y-32874295D02*
X115449524Y-32836200D01*
X115449524Y-32836200D02*
X115487619Y-32798104D01*
X115487619Y-32798104D02*
X115525714Y-32721914D01*
X115525714Y-32721914D02*
X115525714Y-32645723D01*
X115525714Y-32645723D02*
X115487619Y-32569533D01*
X115487619Y-32569533D02*
X115449524Y-32531438D01*
X115449524Y-32531438D02*
X115373333Y-32493342D01*
X115373333Y-32493342D02*
X115220952Y-32455247D01*
X115220952Y-32455247D02*
X115144762Y-32417152D01*
X115144762Y-32417152D02*
X115106667Y-32379057D01*
X115106667Y-32379057D02*
X115068571Y-32302866D01*
X115068571Y-32302866D02*
X115068571Y-32226676D01*
X115068571Y-32226676D02*
X115106667Y-32150485D01*
X115106667Y-32150485D02*
X115144762Y-32112390D01*
X115144762Y-32112390D02*
X115220952Y-32074295D01*
X115220952Y-32074295D02*
X115411429Y-32074295D01*
X115411429Y-32074295D02*
X115525714Y-32112390D01*
X115868572Y-32874295D02*
X115868572Y-32074295D01*
X115868572Y-32074295D02*
X116173334Y-32074295D01*
X116173334Y-32074295D02*
X116249524Y-32112390D01*
X116249524Y-32112390D02*
X116287619Y-32150485D01*
X116287619Y-32150485D02*
X116325715Y-32226676D01*
X116325715Y-32226676D02*
X116325715Y-32340961D01*
X116325715Y-32340961D02*
X116287619Y-32417152D01*
X116287619Y-32417152D02*
X116249524Y-32455247D01*
X116249524Y-32455247D02*
X116173334Y-32493342D01*
X116173334Y-32493342D02*
X115868572Y-32493342D01*
X116668572Y-32874295D02*
X116668572Y-32074295D01*
X117125715Y-32874295D02*
X116782857Y-32417152D01*
X117125715Y-32074295D02*
X116668572Y-32531438D01*
X117925715Y-32874295D02*
X117659048Y-32493342D01*
X117468572Y-32874295D02*
X117468572Y-32074295D01*
X117468572Y-32074295D02*
X117773334Y-32074295D01*
X117773334Y-32074295D02*
X117849524Y-32112390D01*
X117849524Y-32112390D02*
X117887619Y-32150485D01*
X117887619Y-32150485D02*
X117925715Y-32226676D01*
X117925715Y-32226676D02*
X117925715Y-32340961D01*
X117925715Y-32340961D02*
X117887619Y-32417152D01*
X117887619Y-32417152D02*
X117849524Y-32455247D01*
X117849524Y-32455247D02*
X117773334Y-32493342D01*
X117773334Y-32493342D02*
X117468572Y-32493342D01*
X118878096Y-32874295D02*
X118878096Y-32074295D01*
X118878096Y-32074295D02*
X119144762Y-32645723D01*
X119144762Y-32645723D02*
X119411429Y-32074295D01*
X119411429Y-32074295D02*
X119411429Y-32874295D01*
X119792382Y-32874295D02*
X119792382Y-32074295D01*
X120097143Y-32074295D02*
X120630477Y-32874295D01*
X120630477Y-32074295D02*
X120097143Y-32874295D01*
X15360667Y-4096104D02*
X15322571Y-4134200D01*
X15322571Y-4134200D02*
X15208286Y-4172295D01*
X15208286Y-4172295D02*
X15132095Y-4172295D01*
X15132095Y-4172295D02*
X15017809Y-4134200D01*
X15017809Y-4134200D02*
X14941619Y-4058009D01*
X14941619Y-4058009D02*
X14903524Y-3981819D01*
X14903524Y-3981819D02*
X14865428Y-3829438D01*
X14865428Y-3829438D02*
X14865428Y-3715152D01*
X14865428Y-3715152D02*
X14903524Y-3562771D01*
X14903524Y-3562771D02*
X14941619Y-3486580D01*
X14941619Y-3486580D02*
X15017809Y-3410390D01*
X15017809Y-3410390D02*
X15132095Y-3372295D01*
X15132095Y-3372295D02*
X15208286Y-3372295D01*
X15208286Y-3372295D02*
X15322571Y-3410390D01*
X15322571Y-3410390D02*
X15360667Y-3448485D01*
X16122571Y-4172295D02*
X15665428Y-4172295D01*
X15894000Y-4172295D02*
X15894000Y-3372295D01*
X15894000Y-3372295D02*
X15817809Y-3486580D01*
X15817809Y-3486580D02*
X15741619Y-3562771D01*
X15741619Y-3562771D02*
X15665428Y-3600866D01*
X15360667Y-32036104D02*
X15322571Y-32074200D01*
X15322571Y-32074200D02*
X15208286Y-32112295D01*
X15208286Y-32112295D02*
X15132095Y-32112295D01*
X15132095Y-32112295D02*
X15017809Y-32074200D01*
X15017809Y-32074200D02*
X14941619Y-31998009D01*
X14941619Y-31998009D02*
X14903524Y-31921819D01*
X14903524Y-31921819D02*
X14865428Y-31769438D01*
X14865428Y-31769438D02*
X14865428Y-31655152D01*
X14865428Y-31655152D02*
X14903524Y-31502771D01*
X14903524Y-31502771D02*
X14941619Y-31426580D01*
X14941619Y-31426580D02*
X15017809Y-31350390D01*
X15017809Y-31350390D02*
X15132095Y-31312295D01*
X15132095Y-31312295D02*
X15208286Y-31312295D01*
X15208286Y-31312295D02*
X15322571Y-31350390D01*
X15322571Y-31350390D02*
X15360667Y-31388485D01*
X15665428Y-31388485D02*
X15703524Y-31350390D01*
X15703524Y-31350390D02*
X15779714Y-31312295D01*
X15779714Y-31312295D02*
X15970190Y-31312295D01*
X15970190Y-31312295D02*
X16046381Y-31350390D01*
X16046381Y-31350390D02*
X16084476Y-31388485D01*
X16084476Y-31388485D02*
X16122571Y-31464676D01*
X16122571Y-31464676D02*
X16122571Y-31540866D01*
X16122571Y-31540866D02*
X16084476Y-31655152D01*
X16084476Y-31655152D02*
X15627333Y-32112295D01*
X15627333Y-32112295D02*
X16122571Y-32112295D01*
X30600667Y-4096104D02*
X30562571Y-4134200D01*
X30562571Y-4134200D02*
X30448286Y-4172295D01*
X30448286Y-4172295D02*
X30372095Y-4172295D01*
X30372095Y-4172295D02*
X30257809Y-4134200D01*
X30257809Y-4134200D02*
X30181619Y-4058009D01*
X30181619Y-4058009D02*
X30143524Y-3981819D01*
X30143524Y-3981819D02*
X30105428Y-3829438D01*
X30105428Y-3829438D02*
X30105428Y-3715152D01*
X30105428Y-3715152D02*
X30143524Y-3562771D01*
X30143524Y-3562771D02*
X30181619Y-3486580D01*
X30181619Y-3486580D02*
X30257809Y-3410390D01*
X30257809Y-3410390D02*
X30372095Y-3372295D01*
X30372095Y-3372295D02*
X30448286Y-3372295D01*
X30448286Y-3372295D02*
X30562571Y-3410390D01*
X30562571Y-3410390D02*
X30600667Y-3448485D01*
X30867333Y-3372295D02*
X31362571Y-3372295D01*
X31362571Y-3372295D02*
X31095905Y-3677057D01*
X31095905Y-3677057D02*
X31210190Y-3677057D01*
X31210190Y-3677057D02*
X31286381Y-3715152D01*
X31286381Y-3715152D02*
X31324476Y-3753247D01*
X31324476Y-3753247D02*
X31362571Y-3829438D01*
X31362571Y-3829438D02*
X31362571Y-4019914D01*
X31362571Y-4019914D02*
X31324476Y-4096104D01*
X31324476Y-4096104D02*
X31286381Y-4134200D01*
X31286381Y-4134200D02*
X31210190Y-4172295D01*
X31210190Y-4172295D02*
X30981619Y-4172295D01*
X30981619Y-4172295D02*
X30905428Y-4134200D01*
X30905428Y-4134200D02*
X30867333Y-4096104D01*
X30600667Y-32036104D02*
X30562571Y-32074200D01*
X30562571Y-32074200D02*
X30448286Y-32112295D01*
X30448286Y-32112295D02*
X30372095Y-32112295D01*
X30372095Y-32112295D02*
X30257809Y-32074200D01*
X30257809Y-32074200D02*
X30181619Y-31998009D01*
X30181619Y-31998009D02*
X30143524Y-31921819D01*
X30143524Y-31921819D02*
X30105428Y-31769438D01*
X30105428Y-31769438D02*
X30105428Y-31655152D01*
X30105428Y-31655152D02*
X30143524Y-31502771D01*
X30143524Y-31502771D02*
X30181619Y-31426580D01*
X30181619Y-31426580D02*
X30257809Y-31350390D01*
X30257809Y-31350390D02*
X30372095Y-31312295D01*
X30372095Y-31312295D02*
X30448286Y-31312295D01*
X30448286Y-31312295D02*
X30562571Y-31350390D01*
X30562571Y-31350390D02*
X30600667Y-31388485D01*
X31286381Y-31578961D02*
X31286381Y-32112295D01*
X31095905Y-31274200D02*
X30905428Y-31845628D01*
X30905428Y-31845628D02*
X31400667Y-31845628D01*
X30600667Y-58706104D02*
X30562571Y-58744200D01*
X30562571Y-58744200D02*
X30448286Y-58782295D01*
X30448286Y-58782295D02*
X30372095Y-58782295D01*
X30372095Y-58782295D02*
X30257809Y-58744200D01*
X30257809Y-58744200D02*
X30181619Y-58668009D01*
X30181619Y-58668009D02*
X30143524Y-58591819D01*
X30143524Y-58591819D02*
X30105428Y-58439438D01*
X30105428Y-58439438D02*
X30105428Y-58325152D01*
X30105428Y-58325152D02*
X30143524Y-58172771D01*
X30143524Y-58172771D02*
X30181619Y-58096580D01*
X30181619Y-58096580D02*
X30257809Y-58020390D01*
X30257809Y-58020390D02*
X30372095Y-57982295D01*
X30372095Y-57982295D02*
X30448286Y-57982295D01*
X30448286Y-57982295D02*
X30562571Y-58020390D01*
X30562571Y-58020390D02*
X30600667Y-58058485D01*
X31324476Y-57982295D02*
X30943524Y-57982295D01*
X30943524Y-57982295D02*
X30905428Y-58363247D01*
X30905428Y-58363247D02*
X30943524Y-58325152D01*
X30943524Y-58325152D02*
X31019714Y-58287057D01*
X31019714Y-58287057D02*
X31210190Y-58287057D01*
X31210190Y-58287057D02*
X31286381Y-58325152D01*
X31286381Y-58325152D02*
X31324476Y-58363247D01*
X31324476Y-58363247D02*
X31362571Y-58439438D01*
X31362571Y-58439438D02*
X31362571Y-58629914D01*
X31362571Y-58629914D02*
X31324476Y-58706104D01*
X31324476Y-58706104D02*
X31286381Y-58744200D01*
X31286381Y-58744200D02*
X31210190Y-58782295D01*
X31210190Y-58782295D02*
X31019714Y-58782295D01*
X31019714Y-58782295D02*
X30943524Y-58744200D01*
X30943524Y-58744200D02*
X30905428Y-58706104D01*
X101720667Y-9176104D02*
X101682571Y-9214200D01*
X101682571Y-9214200D02*
X101568286Y-9252295D01*
X101568286Y-9252295D02*
X101492095Y-9252295D01*
X101492095Y-9252295D02*
X101377809Y-9214200D01*
X101377809Y-9214200D02*
X101301619Y-9138009D01*
X101301619Y-9138009D02*
X101263524Y-9061819D01*
X101263524Y-9061819D02*
X101225428Y-8909438D01*
X101225428Y-8909438D02*
X101225428Y-8795152D01*
X101225428Y-8795152D02*
X101263524Y-8642771D01*
X101263524Y-8642771D02*
X101301619Y-8566580D01*
X101301619Y-8566580D02*
X101377809Y-8490390D01*
X101377809Y-8490390D02*
X101492095Y-8452295D01*
X101492095Y-8452295D02*
X101568286Y-8452295D01*
X101568286Y-8452295D02*
X101682571Y-8490390D01*
X101682571Y-8490390D02*
X101720667Y-8528485D01*
X102406381Y-8452295D02*
X102254000Y-8452295D01*
X102254000Y-8452295D02*
X102177809Y-8490390D01*
X102177809Y-8490390D02*
X102139714Y-8528485D01*
X102139714Y-8528485D02*
X102063524Y-8642771D01*
X102063524Y-8642771D02*
X102025428Y-8795152D01*
X102025428Y-8795152D02*
X102025428Y-9099914D01*
X102025428Y-9099914D02*
X102063524Y-9176104D01*
X102063524Y-9176104D02*
X102101619Y-9214200D01*
X102101619Y-9214200D02*
X102177809Y-9252295D01*
X102177809Y-9252295D02*
X102330190Y-9252295D01*
X102330190Y-9252295D02*
X102406381Y-9214200D01*
X102406381Y-9214200D02*
X102444476Y-9176104D01*
X102444476Y-9176104D02*
X102482571Y-9099914D01*
X102482571Y-9099914D02*
X102482571Y-8909438D01*
X102482571Y-8909438D02*
X102444476Y-8833247D01*
X102444476Y-8833247D02*
X102406381Y-8795152D01*
X102406381Y-8795152D02*
X102330190Y-8757057D01*
X102330190Y-8757057D02*
X102177809Y-8757057D01*
X102177809Y-8757057D02*
X102101619Y-8795152D01*
X102101619Y-8795152D02*
X102063524Y-8833247D01*
X102063524Y-8833247D02*
X102025428Y-8909438D01*
X59810667Y-57436104D02*
X59772571Y-57474200D01*
X59772571Y-57474200D02*
X59658286Y-57512295D01*
X59658286Y-57512295D02*
X59582095Y-57512295D01*
X59582095Y-57512295D02*
X59467809Y-57474200D01*
X59467809Y-57474200D02*
X59391619Y-57398009D01*
X59391619Y-57398009D02*
X59353524Y-57321819D01*
X59353524Y-57321819D02*
X59315428Y-57169438D01*
X59315428Y-57169438D02*
X59315428Y-57055152D01*
X59315428Y-57055152D02*
X59353524Y-56902771D01*
X59353524Y-56902771D02*
X59391619Y-56826580D01*
X59391619Y-56826580D02*
X59467809Y-56750390D01*
X59467809Y-56750390D02*
X59582095Y-56712295D01*
X59582095Y-56712295D02*
X59658286Y-56712295D01*
X59658286Y-56712295D02*
X59772571Y-56750390D01*
X59772571Y-56750390D02*
X59810667Y-56788485D01*
X60077333Y-56712295D02*
X60610667Y-56712295D01*
X60610667Y-56712295D02*
X60267809Y-57512295D01*
X85210667Y-57436104D02*
X85172571Y-57474200D01*
X85172571Y-57474200D02*
X85058286Y-57512295D01*
X85058286Y-57512295D02*
X84982095Y-57512295D01*
X84982095Y-57512295D02*
X84867809Y-57474200D01*
X84867809Y-57474200D02*
X84791619Y-57398009D01*
X84791619Y-57398009D02*
X84753524Y-57321819D01*
X84753524Y-57321819D02*
X84715428Y-57169438D01*
X84715428Y-57169438D02*
X84715428Y-57055152D01*
X84715428Y-57055152D02*
X84753524Y-56902771D01*
X84753524Y-56902771D02*
X84791619Y-56826580D01*
X84791619Y-56826580D02*
X84867809Y-56750390D01*
X84867809Y-56750390D02*
X84982095Y-56712295D01*
X84982095Y-56712295D02*
X85058286Y-56712295D01*
X85058286Y-56712295D02*
X85172571Y-56750390D01*
X85172571Y-56750390D02*
X85210667Y-56788485D01*
X85667809Y-57055152D02*
X85591619Y-57017057D01*
X85591619Y-57017057D02*
X85553524Y-56978961D01*
X85553524Y-56978961D02*
X85515428Y-56902771D01*
X85515428Y-56902771D02*
X85515428Y-56864676D01*
X85515428Y-56864676D02*
X85553524Y-56788485D01*
X85553524Y-56788485D02*
X85591619Y-56750390D01*
X85591619Y-56750390D02*
X85667809Y-56712295D01*
X85667809Y-56712295D02*
X85820190Y-56712295D01*
X85820190Y-56712295D02*
X85896381Y-56750390D01*
X85896381Y-56750390D02*
X85934476Y-56788485D01*
X85934476Y-56788485D02*
X85972571Y-56864676D01*
X85972571Y-56864676D02*
X85972571Y-56902771D01*
X85972571Y-56902771D02*
X85934476Y-56978961D01*
X85934476Y-56978961D02*
X85896381Y-57017057D01*
X85896381Y-57017057D02*
X85820190Y-57055152D01*
X85820190Y-57055152D02*
X85667809Y-57055152D01*
X85667809Y-57055152D02*
X85591619Y-57093247D01*
X85591619Y-57093247D02*
X85553524Y-57131342D01*
X85553524Y-57131342D02*
X85515428Y-57207533D01*
X85515428Y-57207533D02*
X85515428Y-57359914D01*
X85515428Y-57359914D02*
X85553524Y-57436104D01*
X85553524Y-57436104D02*
X85591619Y-57474200D01*
X85591619Y-57474200D02*
X85667809Y-57512295D01*
X85667809Y-57512295D02*
X85820190Y-57512295D01*
X85820190Y-57512295D02*
X85896381Y-57474200D01*
X85896381Y-57474200D02*
X85934476Y-57436104D01*
X85934476Y-57436104D02*
X85972571Y-57359914D01*
X85972571Y-57359914D02*
X85972571Y-57207533D01*
X85972571Y-57207533D02*
X85934476Y-57131342D01*
X85934476Y-57131342D02*
X85896381Y-57093247D01*
X85896381Y-57093247D02*
X85820190Y-57055152D01*
X36491425Y-2994819D02*
X36491425Y-1994819D01*
X36491425Y-1994819D02*
X37062853Y-2994819D01*
X37062853Y-2994819D02*
X37062853Y-1994819D01*
X37491425Y-2947200D02*
X37634282Y-2994819D01*
X37634282Y-2994819D02*
X37872377Y-2994819D01*
X37872377Y-2994819D02*
X37967615Y-2947200D01*
X37967615Y-2947200D02*
X38015234Y-2899580D01*
X38015234Y-2899580D02*
X38062853Y-2804342D01*
X38062853Y-2804342D02*
X38062853Y-2709104D01*
X38062853Y-2709104D02*
X38015234Y-2613866D01*
X38015234Y-2613866D02*
X37967615Y-2566247D01*
X37967615Y-2566247D02*
X37872377Y-2518628D01*
X37872377Y-2518628D02*
X37681901Y-2471009D01*
X37681901Y-2471009D02*
X37586663Y-2423390D01*
X37586663Y-2423390D02*
X37539044Y-2375771D01*
X37539044Y-2375771D02*
X37491425Y-2280533D01*
X37491425Y-2280533D02*
X37491425Y-2185295D01*
X37491425Y-2185295D02*
X37539044Y-2090057D01*
X37539044Y-2090057D02*
X37586663Y-2042438D01*
X37586663Y-2042438D02*
X37681901Y-1994819D01*
X37681901Y-1994819D02*
X37919996Y-1994819D01*
X37919996Y-1994819D02*
X38062853Y-2042438D01*
X38491425Y-2613866D02*
X39253330Y-2613866D01*
X39634282Y-1994819D02*
X39872377Y-2994819D01*
X39872377Y-2994819D02*
X40062853Y-2280533D01*
X40062853Y-2280533D02*
X40253329Y-2994819D01*
X40253329Y-2994819D02*
X40491425Y-1994819D01*
X40824758Y-2947200D02*
X40967615Y-2994819D01*
X40967615Y-2994819D02*
X41205710Y-2994819D01*
X41205710Y-2994819D02*
X41300948Y-2947200D01*
X41300948Y-2947200D02*
X41348567Y-2899580D01*
X41348567Y-2899580D02*
X41396186Y-2804342D01*
X41396186Y-2804342D02*
X41396186Y-2709104D01*
X41396186Y-2709104D02*
X41348567Y-2613866D01*
X41348567Y-2613866D02*
X41300948Y-2566247D01*
X41300948Y-2566247D02*
X41205710Y-2518628D01*
X41205710Y-2518628D02*
X41015234Y-2471009D01*
X41015234Y-2471009D02*
X40919996Y-2423390D01*
X40919996Y-2423390D02*
X40872377Y-2375771D01*
X40872377Y-2375771D02*
X40824758Y-2280533D01*
X40824758Y-2280533D02*
X40824758Y-2185295D01*
X40824758Y-2185295D02*
X40872377Y-2090057D01*
X40872377Y-2090057D02*
X40919996Y-2042438D01*
X40919996Y-2042438D02*
X41015234Y-1994819D01*
X41015234Y-1994819D02*
X41253329Y-1994819D01*
X41253329Y-1994819D02*
X41396186Y-2042438D01*
X42348567Y-2042438D02*
X42253329Y-1994819D01*
X42253329Y-1994819D02*
X42110472Y-1994819D01*
X42110472Y-1994819D02*
X41967615Y-2042438D01*
X41967615Y-2042438D02*
X41872377Y-2137676D01*
X41872377Y-2137676D02*
X41824758Y-2232914D01*
X41824758Y-2232914D02*
X41777139Y-2423390D01*
X41777139Y-2423390D02*
X41777139Y-2566247D01*
X41777139Y-2566247D02*
X41824758Y-2756723D01*
X41824758Y-2756723D02*
X41872377Y-2851961D01*
X41872377Y-2851961D02*
X41967615Y-2947200D01*
X41967615Y-2947200D02*
X42110472Y-2994819D01*
X42110472Y-2994819D02*
X42205710Y-2994819D01*
X42205710Y-2994819D02*
X42348567Y-2947200D01*
X42348567Y-2947200D02*
X42396186Y-2899580D01*
X42396186Y-2899580D02*
X42396186Y-2566247D01*
X42396186Y-2566247D02*
X42205710Y-2566247D01*
X43491425Y-2328152D02*
X43729520Y-2994819D01*
X43729520Y-2994819D02*
X43967615Y-2328152D01*
X44872377Y-2994819D02*
X44300949Y-2994819D01*
X44586663Y-2994819D02*
X44586663Y-1994819D01*
X44586663Y-1994819D02*
X44491425Y-2137676D01*
X44491425Y-2137676D02*
X44396187Y-2232914D01*
X44396187Y-2232914D02*
X44300949Y-2280533D01*
X46062854Y-2613866D02*
X46824759Y-2613866D01*
X48062854Y-2994819D02*
X48062854Y-1994819D01*
X48062854Y-1994819D02*
X48634282Y-2994819D01*
X48634282Y-2994819D02*
X48634282Y-1994819D01*
X49253330Y-2994819D02*
X49158092Y-2947200D01*
X49158092Y-2947200D02*
X49110473Y-2899580D01*
X49110473Y-2899580D02*
X49062854Y-2804342D01*
X49062854Y-2804342D02*
X49062854Y-2518628D01*
X49062854Y-2518628D02*
X49110473Y-2423390D01*
X49110473Y-2423390D02*
X49158092Y-2375771D01*
X49158092Y-2375771D02*
X49253330Y-2328152D01*
X49253330Y-2328152D02*
X49396187Y-2328152D01*
X49396187Y-2328152D02*
X49491425Y-2375771D01*
X49491425Y-2375771D02*
X49539044Y-2423390D01*
X49539044Y-2423390D02*
X49586663Y-2518628D01*
X49586663Y-2518628D02*
X49586663Y-2804342D01*
X49586663Y-2804342D02*
X49539044Y-2899580D01*
X49539044Y-2899580D02*
X49491425Y-2947200D01*
X49491425Y-2947200D02*
X49396187Y-2994819D01*
X49396187Y-2994819D02*
X49253330Y-2994819D01*
X50015235Y-2994819D02*
X50015235Y-2328152D01*
X50015235Y-2518628D02*
X50062854Y-2423390D01*
X50062854Y-2423390D02*
X50110473Y-2375771D01*
X50110473Y-2375771D02*
X50205711Y-2328152D01*
X50205711Y-2328152D02*
X50300949Y-2328152D01*
X50491426Y-2328152D02*
X50872378Y-2328152D01*
X50634283Y-1994819D02*
X50634283Y-2851961D01*
X50634283Y-2851961D02*
X50681902Y-2947200D01*
X50681902Y-2947200D02*
X50777140Y-2994819D01*
X50777140Y-2994819D02*
X50872378Y-2994819D01*
X51205712Y-2994819D02*
X51205712Y-1994819D01*
X51634283Y-2994819D02*
X51634283Y-2471009D01*
X51634283Y-2471009D02*
X51586664Y-2375771D01*
X51586664Y-2375771D02*
X51491426Y-2328152D01*
X51491426Y-2328152D02*
X51348569Y-2328152D01*
X51348569Y-2328152D02*
X51253331Y-2375771D01*
X51253331Y-2375771D02*
X51205712Y-2423390D01*
X52062855Y-2947200D02*
X52205712Y-2994819D01*
X52205712Y-2994819D02*
X52443807Y-2994819D01*
X52443807Y-2994819D02*
X52539045Y-2947200D01*
X52539045Y-2947200D02*
X52586664Y-2899580D01*
X52586664Y-2899580D02*
X52634283Y-2804342D01*
X52634283Y-2804342D02*
X52634283Y-2709104D01*
X52634283Y-2709104D02*
X52586664Y-2613866D01*
X52586664Y-2613866D02*
X52539045Y-2566247D01*
X52539045Y-2566247D02*
X52443807Y-2518628D01*
X52443807Y-2518628D02*
X52253331Y-2471009D01*
X52253331Y-2471009D02*
X52158093Y-2423390D01*
X52158093Y-2423390D02*
X52110474Y-2375771D01*
X52110474Y-2375771D02*
X52062855Y-2280533D01*
X52062855Y-2280533D02*
X52062855Y-2185295D01*
X52062855Y-2185295D02*
X52110474Y-2090057D01*
X52110474Y-2090057D02*
X52158093Y-2042438D01*
X52158093Y-2042438D02*
X52253331Y-1994819D01*
X52253331Y-1994819D02*
X52491426Y-1994819D01*
X52491426Y-1994819D02*
X52634283Y-2042438D01*
X52919998Y-2328152D02*
X53300950Y-2328152D01*
X53062855Y-1994819D02*
X53062855Y-2851961D01*
X53062855Y-2851961D02*
X53110474Y-2947200D01*
X53110474Y-2947200D02*
X53205712Y-2994819D01*
X53205712Y-2994819D02*
X53300950Y-2994819D01*
X54062855Y-2994819D02*
X54062855Y-2471009D01*
X54062855Y-2471009D02*
X54015236Y-2375771D01*
X54015236Y-2375771D02*
X53919998Y-2328152D01*
X53919998Y-2328152D02*
X53729522Y-2328152D01*
X53729522Y-2328152D02*
X53634284Y-2375771D01*
X54062855Y-2947200D02*
X53967617Y-2994819D01*
X53967617Y-2994819D02*
X53729522Y-2994819D01*
X53729522Y-2994819D02*
X53634284Y-2947200D01*
X53634284Y-2947200D02*
X53586665Y-2851961D01*
X53586665Y-2851961D02*
X53586665Y-2756723D01*
X53586665Y-2756723D02*
X53634284Y-2661485D01*
X53634284Y-2661485D02*
X53729522Y-2613866D01*
X53729522Y-2613866D02*
X53967617Y-2613866D01*
X53967617Y-2613866D02*
X54062855Y-2566247D01*
X54539046Y-2994819D02*
X54539046Y-2328152D01*
X54539046Y-2518628D02*
X54586665Y-2423390D01*
X54586665Y-2423390D02*
X54634284Y-2375771D01*
X54634284Y-2375771D02*
X54729522Y-2328152D01*
X54729522Y-2328152D02*
X54824760Y-2328152D01*
X55872380Y-2709104D02*
X56348570Y-2709104D01*
X55777142Y-2994819D02*
X56110475Y-1994819D01*
X56110475Y-1994819D02*
X56443808Y-2994819D01*
X57205713Y-2994819D02*
X57205713Y-1994819D01*
X57205713Y-2947200D02*
X57110475Y-2994819D01*
X57110475Y-2994819D02*
X56919999Y-2994819D01*
X56919999Y-2994819D02*
X56824761Y-2947200D01*
X56824761Y-2947200D02*
X56777142Y-2899580D01*
X56777142Y-2899580D02*
X56729523Y-2804342D01*
X56729523Y-2804342D02*
X56729523Y-2518628D01*
X56729523Y-2518628D02*
X56777142Y-2423390D01*
X56777142Y-2423390D02*
X56824761Y-2375771D01*
X56824761Y-2375771D02*
X56919999Y-2328152D01*
X56919999Y-2328152D02*
X57110475Y-2328152D01*
X57110475Y-2328152D02*
X57205713Y-2375771D01*
X57586666Y-2328152D02*
X57824761Y-2994819D01*
X57824761Y-2994819D02*
X58062856Y-2328152D01*
X58872380Y-2994819D02*
X58872380Y-2471009D01*
X58872380Y-2471009D02*
X58824761Y-2375771D01*
X58824761Y-2375771D02*
X58729523Y-2328152D01*
X58729523Y-2328152D02*
X58539047Y-2328152D01*
X58539047Y-2328152D02*
X58443809Y-2375771D01*
X58872380Y-2947200D02*
X58777142Y-2994819D01*
X58777142Y-2994819D02*
X58539047Y-2994819D01*
X58539047Y-2994819D02*
X58443809Y-2947200D01*
X58443809Y-2947200D02*
X58396190Y-2851961D01*
X58396190Y-2851961D02*
X58396190Y-2756723D01*
X58396190Y-2756723D02*
X58443809Y-2661485D01*
X58443809Y-2661485D02*
X58539047Y-2613866D01*
X58539047Y-2613866D02*
X58777142Y-2613866D01*
X58777142Y-2613866D02*
X58872380Y-2566247D01*
X59348571Y-2328152D02*
X59348571Y-2994819D01*
X59348571Y-2423390D02*
X59396190Y-2375771D01*
X59396190Y-2375771D02*
X59491428Y-2328152D01*
X59491428Y-2328152D02*
X59634285Y-2328152D01*
X59634285Y-2328152D02*
X59729523Y-2375771D01*
X59729523Y-2375771D02*
X59777142Y-2471009D01*
X59777142Y-2471009D02*
X59777142Y-2994819D01*
X60110476Y-2328152D02*
X60491428Y-2328152D01*
X60253333Y-1994819D02*
X60253333Y-2851961D01*
X60253333Y-2851961D02*
X60300952Y-2947200D01*
X60300952Y-2947200D02*
X60396190Y-2994819D01*
X60396190Y-2994819D02*
X60491428Y-2994819D01*
X61253333Y-2994819D02*
X61253333Y-2471009D01*
X61253333Y-2471009D02*
X61205714Y-2375771D01*
X61205714Y-2375771D02*
X61110476Y-2328152D01*
X61110476Y-2328152D02*
X60920000Y-2328152D01*
X60920000Y-2328152D02*
X60824762Y-2375771D01*
X61253333Y-2947200D02*
X61158095Y-2994819D01*
X61158095Y-2994819D02*
X60920000Y-2994819D01*
X60920000Y-2994819D02*
X60824762Y-2947200D01*
X60824762Y-2947200D02*
X60777143Y-2851961D01*
X60777143Y-2851961D02*
X60777143Y-2756723D01*
X60777143Y-2756723D02*
X60824762Y-2661485D01*
X60824762Y-2661485D02*
X60920000Y-2613866D01*
X60920000Y-2613866D02*
X61158095Y-2613866D01*
X61158095Y-2613866D02*
X61253333Y-2566247D01*
X62158095Y-2328152D02*
X62158095Y-3137676D01*
X62158095Y-3137676D02*
X62110476Y-3232914D01*
X62110476Y-3232914D02*
X62062857Y-3280533D01*
X62062857Y-3280533D02*
X61967619Y-3328152D01*
X61967619Y-3328152D02*
X61824762Y-3328152D01*
X61824762Y-3328152D02*
X61729524Y-3280533D01*
X62158095Y-2947200D02*
X62062857Y-2994819D01*
X62062857Y-2994819D02*
X61872381Y-2994819D01*
X61872381Y-2994819D02*
X61777143Y-2947200D01*
X61777143Y-2947200D02*
X61729524Y-2899580D01*
X61729524Y-2899580D02*
X61681905Y-2804342D01*
X61681905Y-2804342D02*
X61681905Y-2518628D01*
X61681905Y-2518628D02*
X61729524Y-2423390D01*
X61729524Y-2423390D02*
X61777143Y-2375771D01*
X61777143Y-2375771D02*
X61872381Y-2328152D01*
X61872381Y-2328152D02*
X62062857Y-2328152D01*
X62062857Y-2328152D02*
X62158095Y-2375771D01*
X63015238Y-2947200D02*
X62920000Y-2994819D01*
X62920000Y-2994819D02*
X62729524Y-2994819D01*
X62729524Y-2994819D02*
X62634286Y-2947200D01*
X62634286Y-2947200D02*
X62586667Y-2851961D01*
X62586667Y-2851961D02*
X62586667Y-2471009D01*
X62586667Y-2471009D02*
X62634286Y-2375771D01*
X62634286Y-2375771D02*
X62729524Y-2328152D01*
X62729524Y-2328152D02*
X62920000Y-2328152D01*
X62920000Y-2328152D02*
X63015238Y-2375771D01*
X63015238Y-2375771D02*
X63062857Y-2471009D01*
X63062857Y-2471009D02*
X63062857Y-2566247D01*
X63062857Y-2566247D02*
X62586667Y-2661485D01*
X64158096Y-2328152D02*
X64348572Y-2994819D01*
X64348572Y-2994819D02*
X64539048Y-2518628D01*
X64539048Y-2518628D02*
X64729524Y-2994819D01*
X64729524Y-2994819D02*
X64920000Y-2328152D01*
X65729524Y-2994819D02*
X65729524Y-2471009D01*
X65729524Y-2471009D02*
X65681905Y-2375771D01*
X65681905Y-2375771D02*
X65586667Y-2328152D01*
X65586667Y-2328152D02*
X65396191Y-2328152D01*
X65396191Y-2328152D02*
X65300953Y-2375771D01*
X65729524Y-2947200D02*
X65634286Y-2994819D01*
X65634286Y-2994819D02*
X65396191Y-2994819D01*
X65396191Y-2994819D02*
X65300953Y-2947200D01*
X65300953Y-2947200D02*
X65253334Y-2851961D01*
X65253334Y-2851961D02*
X65253334Y-2756723D01*
X65253334Y-2756723D02*
X65300953Y-2661485D01*
X65300953Y-2661485D02*
X65396191Y-2613866D01*
X65396191Y-2613866D02*
X65634286Y-2613866D01*
X65634286Y-2613866D02*
X65729524Y-2566247D01*
X66110477Y-2328152D02*
X66348572Y-2994819D01*
X66348572Y-2994819D02*
X66586667Y-2328152D01*
X67348572Y-2947200D02*
X67253334Y-2994819D01*
X67253334Y-2994819D02*
X67062858Y-2994819D01*
X67062858Y-2994819D02*
X66967620Y-2947200D01*
X66967620Y-2947200D02*
X66920001Y-2851961D01*
X66920001Y-2851961D02*
X66920001Y-2471009D01*
X66920001Y-2471009D02*
X66967620Y-2375771D01*
X66967620Y-2375771D02*
X67062858Y-2328152D01*
X67062858Y-2328152D02*
X67253334Y-2328152D01*
X67253334Y-2328152D02*
X67348572Y-2375771D01*
X67348572Y-2375771D02*
X67396191Y-2471009D01*
X67396191Y-2471009D02*
X67396191Y-2566247D01*
X67396191Y-2566247D02*
X66920001Y-2661485D01*
X67681906Y-2328152D02*
X68062858Y-2328152D01*
X67824763Y-1994819D02*
X67824763Y-2851961D01*
X67824763Y-2851961D02*
X67872382Y-2947200D01*
X67872382Y-2947200D02*
X67967620Y-2994819D01*
X67967620Y-2994819D02*
X68062858Y-2994819D01*
X68824763Y-2994819D02*
X68824763Y-2471009D01*
X68824763Y-2471009D02*
X68777144Y-2375771D01*
X68777144Y-2375771D02*
X68681906Y-2328152D01*
X68681906Y-2328152D02*
X68491430Y-2328152D01*
X68491430Y-2328152D02*
X68396192Y-2375771D01*
X68824763Y-2947200D02*
X68729525Y-2994819D01*
X68729525Y-2994819D02*
X68491430Y-2994819D01*
X68491430Y-2994819D02*
X68396192Y-2947200D01*
X68396192Y-2947200D02*
X68348573Y-2851961D01*
X68348573Y-2851961D02*
X68348573Y-2756723D01*
X68348573Y-2756723D02*
X68396192Y-2661485D01*
X68396192Y-2661485D02*
X68491430Y-2613866D01*
X68491430Y-2613866D02*
X68729525Y-2613866D01*
X68729525Y-2613866D02*
X68824763Y-2566247D01*
X69300954Y-2994819D02*
X69300954Y-1994819D01*
X69300954Y-2375771D02*
X69396192Y-2328152D01*
X69396192Y-2328152D02*
X69586668Y-2328152D01*
X69586668Y-2328152D02*
X69681906Y-2375771D01*
X69681906Y-2375771D02*
X69729525Y-2423390D01*
X69729525Y-2423390D02*
X69777144Y-2518628D01*
X69777144Y-2518628D02*
X69777144Y-2804342D01*
X69777144Y-2804342D02*
X69729525Y-2899580D01*
X69729525Y-2899580D02*
X69681906Y-2947200D01*
X69681906Y-2947200D02*
X69586668Y-2994819D01*
X69586668Y-2994819D02*
X69396192Y-2994819D01*
X69396192Y-2994819D02*
X69300954Y-2947200D01*
X70348573Y-2994819D02*
X70253335Y-2947200D01*
X70253335Y-2947200D02*
X70205716Y-2851961D01*
X70205716Y-2851961D02*
X70205716Y-1994819D01*
X71110478Y-2947200D02*
X71015240Y-2994819D01*
X71015240Y-2994819D02*
X70824764Y-2994819D01*
X70824764Y-2994819D02*
X70729526Y-2947200D01*
X70729526Y-2947200D02*
X70681907Y-2851961D01*
X70681907Y-2851961D02*
X70681907Y-2471009D01*
X70681907Y-2471009D02*
X70729526Y-2375771D01*
X70729526Y-2375771D02*
X70824764Y-2328152D01*
X70824764Y-2328152D02*
X71015240Y-2328152D01*
X71015240Y-2328152D02*
X71110478Y-2375771D01*
X71110478Y-2375771D02*
X71158097Y-2471009D01*
X71158097Y-2471009D02*
X71158097Y-2566247D01*
X71158097Y-2566247D02*
X70681907Y-2661485D01*
X72300955Y-2947200D02*
X72396193Y-2994819D01*
X72396193Y-2994819D02*
X72586669Y-2994819D01*
X72586669Y-2994819D02*
X72681907Y-2947200D01*
X72681907Y-2947200D02*
X72729526Y-2851961D01*
X72729526Y-2851961D02*
X72729526Y-2804342D01*
X72729526Y-2804342D02*
X72681907Y-2709104D01*
X72681907Y-2709104D02*
X72586669Y-2661485D01*
X72586669Y-2661485D02*
X72443812Y-2661485D01*
X72443812Y-2661485D02*
X72348574Y-2613866D01*
X72348574Y-2613866D02*
X72300955Y-2518628D01*
X72300955Y-2518628D02*
X72300955Y-2471009D01*
X72300955Y-2471009D02*
X72348574Y-2375771D01*
X72348574Y-2375771D02*
X72443812Y-2328152D01*
X72443812Y-2328152D02*
X72586669Y-2328152D01*
X72586669Y-2328152D02*
X72681907Y-2375771D01*
X73300955Y-2994819D02*
X73205717Y-2947200D01*
X73205717Y-2947200D02*
X73158098Y-2899580D01*
X73158098Y-2899580D02*
X73110479Y-2804342D01*
X73110479Y-2804342D02*
X73110479Y-2518628D01*
X73110479Y-2518628D02*
X73158098Y-2423390D01*
X73158098Y-2423390D02*
X73205717Y-2375771D01*
X73205717Y-2375771D02*
X73300955Y-2328152D01*
X73300955Y-2328152D02*
X73443812Y-2328152D01*
X73443812Y-2328152D02*
X73539050Y-2375771D01*
X73539050Y-2375771D02*
X73586669Y-2423390D01*
X73586669Y-2423390D02*
X73634288Y-2518628D01*
X73634288Y-2518628D02*
X73634288Y-2804342D01*
X73634288Y-2804342D02*
X73586669Y-2899580D01*
X73586669Y-2899580D02*
X73539050Y-2947200D01*
X73539050Y-2947200D02*
X73443812Y-2994819D01*
X73443812Y-2994819D02*
X73300955Y-2994819D01*
X74491431Y-2328152D02*
X74491431Y-2994819D01*
X74062860Y-2328152D02*
X74062860Y-2851961D01*
X74062860Y-2851961D02*
X74110479Y-2947200D01*
X74110479Y-2947200D02*
X74205717Y-2994819D01*
X74205717Y-2994819D02*
X74348574Y-2994819D01*
X74348574Y-2994819D02*
X74443812Y-2947200D01*
X74443812Y-2947200D02*
X74491431Y-2899580D01*
X74967622Y-2328152D02*
X74967622Y-2994819D01*
X74967622Y-2423390D02*
X75015241Y-2375771D01*
X75015241Y-2375771D02*
X75110479Y-2328152D01*
X75110479Y-2328152D02*
X75253336Y-2328152D01*
X75253336Y-2328152D02*
X75348574Y-2375771D01*
X75348574Y-2375771D02*
X75396193Y-2471009D01*
X75396193Y-2471009D02*
X75396193Y-2994819D01*
X76300955Y-2994819D02*
X76300955Y-1994819D01*
X76300955Y-2947200D02*
X76205717Y-2994819D01*
X76205717Y-2994819D02*
X76015241Y-2994819D01*
X76015241Y-2994819D02*
X75920003Y-2947200D01*
X75920003Y-2947200D02*
X75872384Y-2899580D01*
X75872384Y-2899580D02*
X75824765Y-2804342D01*
X75824765Y-2804342D02*
X75824765Y-2518628D01*
X75824765Y-2518628D02*
X75872384Y-2423390D01*
X75872384Y-2423390D02*
X75920003Y-2375771D01*
X75920003Y-2375771D02*
X76015241Y-2328152D01*
X76015241Y-2328152D02*
X76205717Y-2328152D01*
X76205717Y-2328152D02*
X76300955Y-2375771D01*
X77967622Y-2947200D02*
X77872384Y-2994819D01*
X77872384Y-2994819D02*
X77681908Y-2994819D01*
X77681908Y-2994819D02*
X77586670Y-2947200D01*
X77586670Y-2947200D02*
X77539051Y-2899580D01*
X77539051Y-2899580D02*
X77491432Y-2804342D01*
X77491432Y-2804342D02*
X77491432Y-2518628D01*
X77491432Y-2518628D02*
X77539051Y-2423390D01*
X77539051Y-2423390D02*
X77586670Y-2375771D01*
X77586670Y-2375771D02*
X77681908Y-2328152D01*
X77681908Y-2328152D02*
X77872384Y-2328152D01*
X77872384Y-2328152D02*
X77967622Y-2375771D01*
X78824765Y-2994819D02*
X78824765Y-2471009D01*
X78824765Y-2471009D02*
X78777146Y-2375771D01*
X78777146Y-2375771D02*
X78681908Y-2328152D01*
X78681908Y-2328152D02*
X78491432Y-2328152D01*
X78491432Y-2328152D02*
X78396194Y-2375771D01*
X78824765Y-2947200D02*
X78729527Y-2994819D01*
X78729527Y-2994819D02*
X78491432Y-2994819D01*
X78491432Y-2994819D02*
X78396194Y-2947200D01*
X78396194Y-2947200D02*
X78348575Y-2851961D01*
X78348575Y-2851961D02*
X78348575Y-2756723D01*
X78348575Y-2756723D02*
X78396194Y-2661485D01*
X78396194Y-2661485D02*
X78491432Y-2613866D01*
X78491432Y-2613866D02*
X78729527Y-2613866D01*
X78729527Y-2613866D02*
X78824765Y-2566247D01*
X79300956Y-2994819D02*
X79300956Y-2328152D01*
X79300956Y-2518628D02*
X79348575Y-2423390D01*
X79348575Y-2423390D02*
X79396194Y-2375771D01*
X79396194Y-2375771D02*
X79491432Y-2328152D01*
X79491432Y-2328152D02*
X79586670Y-2328152D01*
X80348575Y-2994819D02*
X80348575Y-1994819D01*
X80348575Y-2947200D02*
X80253337Y-2994819D01*
X80253337Y-2994819D02*
X80062861Y-2994819D01*
X80062861Y-2994819D02*
X79967623Y-2947200D01*
X79967623Y-2947200D02*
X79920004Y-2899580D01*
X79920004Y-2899580D02*
X79872385Y-2804342D01*
X79872385Y-2804342D02*
X79872385Y-2518628D01*
X79872385Y-2518628D02*
X79920004Y-2423390D01*
X79920004Y-2423390D02*
X79967623Y-2375771D01*
X79967623Y-2375771D02*
X80062861Y-2328152D01*
X80062861Y-2328152D02*
X80253337Y-2328152D01*
X80253337Y-2328152D02*
X80348575Y-2375771D01*
X48381903Y-6458295D02*
X48381903Y-5658295D01*
X48381903Y-5963057D02*
X48458093Y-5924961D01*
X48458093Y-5924961D02*
X48610474Y-5924961D01*
X48610474Y-5924961D02*
X48686665Y-5963057D01*
X48686665Y-5963057D02*
X48724760Y-6001152D01*
X48724760Y-6001152D02*
X48762855Y-6077342D01*
X48762855Y-6077342D02*
X48762855Y-6305914D01*
X48762855Y-6305914D02*
X48724760Y-6382104D01*
X48724760Y-6382104D02*
X48686665Y-6420200D01*
X48686665Y-6420200D02*
X48610474Y-6458295D01*
X48610474Y-6458295D02*
X48458093Y-6458295D01*
X48458093Y-6458295D02*
X48381903Y-6420200D01*
X49219998Y-6458295D02*
X49143808Y-6420200D01*
X49143808Y-6420200D02*
X49105713Y-6382104D01*
X49105713Y-6382104D02*
X49067617Y-6305914D01*
X49067617Y-6305914D02*
X49067617Y-6077342D01*
X49067617Y-6077342D02*
X49105713Y-6001152D01*
X49105713Y-6001152D02*
X49143808Y-5963057D01*
X49143808Y-5963057D02*
X49219998Y-5924961D01*
X49219998Y-5924961D02*
X49334284Y-5924961D01*
X49334284Y-5924961D02*
X49410475Y-5963057D01*
X49410475Y-5963057D02*
X49448570Y-6001152D01*
X49448570Y-6001152D02*
X49486665Y-6077342D01*
X49486665Y-6077342D02*
X49486665Y-6305914D01*
X49486665Y-6305914D02*
X49448570Y-6382104D01*
X49448570Y-6382104D02*
X49410475Y-6420200D01*
X49410475Y-6420200D02*
X49334284Y-6458295D01*
X49334284Y-6458295D02*
X49219998Y-6458295D01*
X50172380Y-6458295D02*
X50172380Y-6039247D01*
X50172380Y-6039247D02*
X50134285Y-5963057D01*
X50134285Y-5963057D02*
X50058094Y-5924961D01*
X50058094Y-5924961D02*
X49905713Y-5924961D01*
X49905713Y-5924961D02*
X49829523Y-5963057D01*
X50172380Y-6420200D02*
X50096189Y-6458295D01*
X50096189Y-6458295D02*
X49905713Y-6458295D01*
X49905713Y-6458295D02*
X49829523Y-6420200D01*
X49829523Y-6420200D02*
X49791427Y-6344009D01*
X49791427Y-6344009D02*
X49791427Y-6267819D01*
X49791427Y-6267819D02*
X49829523Y-6191628D01*
X49829523Y-6191628D02*
X49905713Y-6153533D01*
X49905713Y-6153533D02*
X50096189Y-6153533D01*
X50096189Y-6153533D02*
X50172380Y-6115438D01*
X50553333Y-6458295D02*
X50553333Y-5924961D01*
X50553333Y-6077342D02*
X50591428Y-6001152D01*
X50591428Y-6001152D02*
X50629523Y-5963057D01*
X50629523Y-5963057D02*
X50705714Y-5924961D01*
X50705714Y-5924961D02*
X50781904Y-5924961D01*
X51391428Y-6458295D02*
X51391428Y-5658295D01*
X51391428Y-6420200D02*
X51315237Y-6458295D01*
X51315237Y-6458295D02*
X51162856Y-6458295D01*
X51162856Y-6458295D02*
X51086666Y-6420200D01*
X51086666Y-6420200D02*
X51048571Y-6382104D01*
X51048571Y-6382104D02*
X51010475Y-6305914D01*
X51010475Y-6305914D02*
X51010475Y-6077342D01*
X51010475Y-6077342D02*
X51048571Y-6001152D01*
X51048571Y-6001152D02*
X51086666Y-5963057D01*
X51086666Y-5963057D02*
X51162856Y-5924961D01*
X51162856Y-5924961D02*
X51315237Y-5924961D01*
X51315237Y-5924961D02*
X51391428Y-5963057D01*
X52381905Y-6458295D02*
X52381905Y-5658295D01*
X52762857Y-6458295D02*
X52762857Y-5658295D01*
X52762857Y-5658295D02*
X52953333Y-5658295D01*
X52953333Y-5658295D02*
X53067619Y-5696390D01*
X53067619Y-5696390D02*
X53143809Y-5772580D01*
X53143809Y-5772580D02*
X53181904Y-5848771D01*
X53181904Y-5848771D02*
X53220000Y-6001152D01*
X53220000Y-6001152D02*
X53220000Y-6115438D01*
X53220000Y-6115438D02*
X53181904Y-6267819D01*
X53181904Y-6267819D02*
X53143809Y-6344009D01*
X53143809Y-6344009D02*
X53067619Y-6420200D01*
X53067619Y-6420200D02*
X52953333Y-6458295D01*
X52953333Y-6458295D02*
X52762857Y-6458295D01*
X54324762Y-5658295D02*
X54400952Y-5658295D01*
X54400952Y-5658295D02*
X54477143Y-5696390D01*
X54477143Y-5696390D02*
X54515238Y-5734485D01*
X54515238Y-5734485D02*
X54553333Y-5810676D01*
X54553333Y-5810676D02*
X54591428Y-5963057D01*
X54591428Y-5963057D02*
X54591428Y-6153533D01*
X54591428Y-6153533D02*
X54553333Y-6305914D01*
X54553333Y-6305914D02*
X54515238Y-6382104D01*
X54515238Y-6382104D02*
X54477143Y-6420200D01*
X54477143Y-6420200D02*
X54400952Y-6458295D01*
X54400952Y-6458295D02*
X54324762Y-6458295D01*
X54324762Y-6458295D02*
X54248571Y-6420200D01*
X54248571Y-6420200D02*
X54210476Y-6382104D01*
X54210476Y-6382104D02*
X54172381Y-6305914D01*
X54172381Y-6305914D02*
X54134285Y-6153533D01*
X54134285Y-6153533D02*
X54134285Y-5963057D01*
X54134285Y-5963057D02*
X54172381Y-5810676D01*
X54172381Y-5810676D02*
X54210476Y-5734485D01*
X54210476Y-5734485D02*
X54248571Y-5696390D01*
X54248571Y-5696390D02*
X54324762Y-5658295D01*
X54858095Y-6458295D02*
X55277143Y-5924961D01*
X54858095Y-5924961D02*
X55277143Y-6458295D01*
X55543809Y-6229723D02*
X55924762Y-6229723D01*
X55467619Y-6458295D02*
X55734286Y-5658295D01*
X55734286Y-5658295D02*
X56000952Y-6458295D01*
X56648571Y-5658295D02*
X56267619Y-5658295D01*
X56267619Y-5658295D02*
X56229523Y-6039247D01*
X56229523Y-6039247D02*
X56267619Y-6001152D01*
X56267619Y-6001152D02*
X56343809Y-5963057D01*
X56343809Y-5963057D02*
X56534285Y-5963057D01*
X56534285Y-5963057D02*
X56610476Y-6001152D01*
X56610476Y-6001152D02*
X56648571Y-6039247D01*
X56648571Y-6039247D02*
X56686666Y-6115438D01*
X56686666Y-6115438D02*
X56686666Y-6305914D01*
X56686666Y-6305914D02*
X56648571Y-6382104D01*
X56648571Y-6382104D02*
X56610476Y-6420200D01*
X56610476Y-6420200D02*
X56534285Y-6458295D01*
X56534285Y-6458295D02*
X56343809Y-6458295D01*
X56343809Y-6458295D02*
X56267619Y-6420200D01*
X56267619Y-6420200D02*
X56229523Y-6382104D01*
X57639048Y-6153533D02*
X58248572Y-6153533D01*
X59200952Y-6420200D02*
X59277143Y-6458295D01*
X59277143Y-6458295D02*
X59429524Y-6458295D01*
X59429524Y-6458295D02*
X59505714Y-6420200D01*
X59505714Y-6420200D02*
X59543810Y-6344009D01*
X59543810Y-6344009D02*
X59543810Y-6305914D01*
X59543810Y-6305914D02*
X59505714Y-6229723D01*
X59505714Y-6229723D02*
X59429524Y-6191628D01*
X59429524Y-6191628D02*
X59315238Y-6191628D01*
X59315238Y-6191628D02*
X59239048Y-6153533D01*
X59239048Y-6153533D02*
X59200952Y-6077342D01*
X59200952Y-6077342D02*
X59200952Y-6039247D01*
X59200952Y-6039247D02*
X59239048Y-5963057D01*
X59239048Y-5963057D02*
X59315238Y-5924961D01*
X59315238Y-5924961D02*
X59429524Y-5924961D01*
X59429524Y-5924961D02*
X59505714Y-5963057D01*
X59886667Y-5924961D02*
X59886667Y-6724961D01*
X59886667Y-5963057D02*
X59962857Y-5924961D01*
X59962857Y-5924961D02*
X60115238Y-5924961D01*
X60115238Y-5924961D02*
X60191429Y-5963057D01*
X60191429Y-5963057D02*
X60229524Y-6001152D01*
X60229524Y-6001152D02*
X60267619Y-6077342D01*
X60267619Y-6077342D02*
X60267619Y-6305914D01*
X60267619Y-6305914D02*
X60229524Y-6382104D01*
X60229524Y-6382104D02*
X60191429Y-6420200D01*
X60191429Y-6420200D02*
X60115238Y-6458295D01*
X60115238Y-6458295D02*
X59962857Y-6458295D01*
X59962857Y-6458295D02*
X59886667Y-6420200D01*
X60915239Y-6420200D02*
X60839048Y-6458295D01*
X60839048Y-6458295D02*
X60686667Y-6458295D01*
X60686667Y-6458295D02*
X60610477Y-6420200D01*
X60610477Y-6420200D02*
X60572381Y-6344009D01*
X60572381Y-6344009D02*
X60572381Y-6039247D01*
X60572381Y-6039247D02*
X60610477Y-5963057D01*
X60610477Y-5963057D02*
X60686667Y-5924961D01*
X60686667Y-5924961D02*
X60839048Y-5924961D01*
X60839048Y-5924961D02*
X60915239Y-5963057D01*
X60915239Y-5963057D02*
X60953334Y-6039247D01*
X60953334Y-6039247D02*
X60953334Y-6115438D01*
X60953334Y-6115438D02*
X60572381Y-6191628D01*
X61639048Y-6420200D02*
X61562857Y-6458295D01*
X61562857Y-6458295D02*
X61410476Y-6458295D01*
X61410476Y-6458295D02*
X61334286Y-6420200D01*
X61334286Y-6420200D02*
X61296191Y-6382104D01*
X61296191Y-6382104D02*
X61258095Y-6305914D01*
X61258095Y-6305914D02*
X61258095Y-6077342D01*
X61258095Y-6077342D02*
X61296191Y-6001152D01*
X61296191Y-6001152D02*
X61334286Y-5963057D01*
X61334286Y-5963057D02*
X61410476Y-5924961D01*
X61410476Y-5924961D02*
X61562857Y-5924961D01*
X61562857Y-5924961D02*
X61639048Y-5963057D01*
X62591429Y-6458295D02*
X62591429Y-5658295D01*
X62591429Y-5658295D02*
X63048572Y-6458295D01*
X63048572Y-6458295D02*
X63048572Y-5658295D01*
X63391428Y-6420200D02*
X63505714Y-6458295D01*
X63505714Y-6458295D02*
X63696190Y-6458295D01*
X63696190Y-6458295D02*
X63772381Y-6420200D01*
X63772381Y-6420200D02*
X63810476Y-6382104D01*
X63810476Y-6382104D02*
X63848571Y-6305914D01*
X63848571Y-6305914D02*
X63848571Y-6229723D01*
X63848571Y-6229723D02*
X63810476Y-6153533D01*
X63810476Y-6153533D02*
X63772381Y-6115438D01*
X63772381Y-6115438D02*
X63696190Y-6077342D01*
X63696190Y-6077342D02*
X63543809Y-6039247D01*
X63543809Y-6039247D02*
X63467619Y-6001152D01*
X63467619Y-6001152D02*
X63429524Y-5963057D01*
X63429524Y-5963057D02*
X63391428Y-5886866D01*
X63391428Y-5886866D02*
X63391428Y-5810676D01*
X63391428Y-5810676D02*
X63429524Y-5734485D01*
X63429524Y-5734485D02*
X63467619Y-5696390D01*
X63467619Y-5696390D02*
X63543809Y-5658295D01*
X63543809Y-5658295D02*
X63734286Y-5658295D01*
X63734286Y-5658295D02*
X63848571Y-5696390D01*
X64115238Y-5658295D02*
X64305714Y-6458295D01*
X64305714Y-6458295D02*
X64458095Y-5886866D01*
X64458095Y-5886866D02*
X64610476Y-6458295D01*
X64610476Y-6458295D02*
X64800953Y-5658295D01*
X65067619Y-6420200D02*
X65181905Y-6458295D01*
X65181905Y-6458295D02*
X65372381Y-6458295D01*
X65372381Y-6458295D02*
X65448572Y-6420200D01*
X65448572Y-6420200D02*
X65486667Y-6382104D01*
X65486667Y-6382104D02*
X65524762Y-6305914D01*
X65524762Y-6305914D02*
X65524762Y-6229723D01*
X65524762Y-6229723D02*
X65486667Y-6153533D01*
X65486667Y-6153533D02*
X65448572Y-6115438D01*
X65448572Y-6115438D02*
X65372381Y-6077342D01*
X65372381Y-6077342D02*
X65220000Y-6039247D01*
X65220000Y-6039247D02*
X65143810Y-6001152D01*
X65143810Y-6001152D02*
X65105715Y-5963057D01*
X65105715Y-5963057D02*
X65067619Y-5886866D01*
X65067619Y-5886866D02*
X65067619Y-5810676D01*
X65067619Y-5810676D02*
X65105715Y-5734485D01*
X65105715Y-5734485D02*
X65143810Y-5696390D01*
X65143810Y-5696390D02*
X65220000Y-5658295D01*
X65220000Y-5658295D02*
X65410477Y-5658295D01*
X65410477Y-5658295D02*
X65524762Y-5696390D01*
X66286667Y-5696390D02*
X66210477Y-5658295D01*
X66210477Y-5658295D02*
X66096191Y-5658295D01*
X66096191Y-5658295D02*
X65981905Y-5696390D01*
X65981905Y-5696390D02*
X65905715Y-5772580D01*
X65905715Y-5772580D02*
X65867620Y-5848771D01*
X65867620Y-5848771D02*
X65829524Y-6001152D01*
X65829524Y-6001152D02*
X65829524Y-6115438D01*
X65829524Y-6115438D02*
X65867620Y-6267819D01*
X65867620Y-6267819D02*
X65905715Y-6344009D01*
X65905715Y-6344009D02*
X65981905Y-6420200D01*
X65981905Y-6420200D02*
X66096191Y-6458295D01*
X66096191Y-6458295D02*
X66172382Y-6458295D01*
X66172382Y-6458295D02*
X66286667Y-6420200D01*
X66286667Y-6420200D02*
X66324763Y-6382104D01*
X66324763Y-6382104D02*
X66324763Y-6115438D01*
X66324763Y-6115438D02*
X66172382Y-6115438D01*
X66667620Y-6382104D02*
X66705715Y-6420200D01*
X66705715Y-6420200D02*
X66667620Y-6458295D01*
X66667620Y-6458295D02*
X66629524Y-6420200D01*
X66629524Y-6420200D02*
X66667620Y-6382104D01*
X66667620Y-6382104D02*
X66667620Y-6458295D01*
X67048572Y-6458295D02*
X67048572Y-5924961D01*
X67048572Y-6001152D02*
X67086667Y-5963057D01*
X67086667Y-5963057D02*
X67162857Y-5924961D01*
X67162857Y-5924961D02*
X67277143Y-5924961D01*
X67277143Y-5924961D02*
X67353334Y-5963057D01*
X67353334Y-5963057D02*
X67391429Y-6039247D01*
X67391429Y-6039247D02*
X67391429Y-6458295D01*
X67391429Y-6039247D02*
X67429524Y-5963057D01*
X67429524Y-5963057D02*
X67505715Y-5924961D01*
X67505715Y-5924961D02*
X67620000Y-5924961D01*
X67620000Y-5924961D02*
X67696191Y-5963057D01*
X67696191Y-5963057D02*
X67734286Y-6039247D01*
X67734286Y-6039247D02*
X67734286Y-6458295D01*
X68458096Y-6458295D02*
X68458096Y-5658295D01*
X68458096Y-6420200D02*
X68381905Y-6458295D01*
X68381905Y-6458295D02*
X68229524Y-6458295D01*
X68229524Y-6458295D02*
X68153334Y-6420200D01*
X68153334Y-6420200D02*
X68115239Y-6382104D01*
X68115239Y-6382104D02*
X68077143Y-6305914D01*
X68077143Y-6305914D02*
X68077143Y-6077342D01*
X68077143Y-6077342D02*
X68115239Y-6001152D01*
X68115239Y-6001152D02*
X68153334Y-5963057D01*
X68153334Y-5963057D02*
X68229524Y-5924961D01*
X68229524Y-5924961D02*
X68381905Y-5924961D01*
X68381905Y-5924961D02*
X68458096Y-5963057D01*
X34942857Y-76938842D02*
X34857142Y-76895985D01*
X34857142Y-76895985D02*
X34685714Y-76895985D01*
X34685714Y-76895985D02*
X34600000Y-76938842D01*
X34600000Y-76938842D02*
X34514285Y-77024557D01*
X34514285Y-77024557D02*
X34471428Y-77110271D01*
X34471428Y-77110271D02*
X34471428Y-77281700D01*
X34471428Y-77281700D02*
X34514285Y-77367414D01*
X34514285Y-77367414D02*
X34600000Y-77453128D01*
X34600000Y-77453128D02*
X34685714Y-77495985D01*
X34685714Y-77495985D02*
X34857142Y-77495985D01*
X34857142Y-77495985D02*
X34942857Y-77453128D01*
X34771428Y-76595985D02*
X34557142Y-76638842D01*
X34557142Y-76638842D02*
X34342857Y-76767414D01*
X34342857Y-76767414D02*
X34214285Y-76981700D01*
X34214285Y-76981700D02*
X34171428Y-77195985D01*
X34171428Y-77195985D02*
X34214285Y-77410271D01*
X34214285Y-77410271D02*
X34342857Y-77624557D01*
X34342857Y-77624557D02*
X34557142Y-77753128D01*
X34557142Y-77753128D02*
X34771428Y-77795985D01*
X34771428Y-77795985D02*
X34985714Y-77753128D01*
X34985714Y-77753128D02*
X35200000Y-77624557D01*
X35200000Y-77624557D02*
X35328571Y-77410271D01*
X35328571Y-77410271D02*
X35371428Y-77195985D01*
X35371428Y-77195985D02*
X35328571Y-76981700D01*
X35328571Y-76981700D02*
X35200000Y-76767414D01*
X35200000Y-76767414D02*
X34985714Y-76638842D01*
X34985714Y-76638842D02*
X34771428Y-76595985D01*
X36399999Y-76810271D02*
X36442856Y-76767414D01*
X36442856Y-76767414D02*
X36528571Y-76724557D01*
X36528571Y-76724557D02*
X36742856Y-76724557D01*
X36742856Y-76724557D02*
X36828571Y-76767414D01*
X36828571Y-76767414D02*
X36871428Y-76810271D01*
X36871428Y-76810271D02*
X36914285Y-76895985D01*
X36914285Y-76895985D02*
X36914285Y-76981700D01*
X36914285Y-76981700D02*
X36871428Y-77110271D01*
X36871428Y-77110271D02*
X36357142Y-77624557D01*
X36357142Y-77624557D02*
X36914285Y-77624557D01*
X37471428Y-76724557D02*
X37557142Y-76724557D01*
X37557142Y-76724557D02*
X37642856Y-76767414D01*
X37642856Y-76767414D02*
X37685714Y-76810271D01*
X37685714Y-76810271D02*
X37728571Y-76895985D01*
X37728571Y-76895985D02*
X37771428Y-77067414D01*
X37771428Y-77067414D02*
X37771428Y-77281700D01*
X37771428Y-77281700D02*
X37728571Y-77453128D01*
X37728571Y-77453128D02*
X37685714Y-77538842D01*
X37685714Y-77538842D02*
X37642856Y-77581700D01*
X37642856Y-77581700D02*
X37557142Y-77624557D01*
X37557142Y-77624557D02*
X37471428Y-77624557D01*
X37471428Y-77624557D02*
X37385714Y-77581700D01*
X37385714Y-77581700D02*
X37342856Y-77538842D01*
X37342856Y-77538842D02*
X37299999Y-77453128D01*
X37299999Y-77453128D02*
X37257142Y-77281700D01*
X37257142Y-77281700D02*
X37257142Y-77067414D01*
X37257142Y-77067414D02*
X37299999Y-76895985D01*
X37299999Y-76895985D02*
X37342856Y-76810271D01*
X37342856Y-76810271D02*
X37385714Y-76767414D01*
X37385714Y-76767414D02*
X37471428Y-76724557D01*
X38114285Y-76810271D02*
X38157142Y-76767414D01*
X38157142Y-76767414D02*
X38242857Y-76724557D01*
X38242857Y-76724557D02*
X38457142Y-76724557D01*
X38457142Y-76724557D02*
X38542857Y-76767414D01*
X38542857Y-76767414D02*
X38585714Y-76810271D01*
X38585714Y-76810271D02*
X38628571Y-76895985D01*
X38628571Y-76895985D02*
X38628571Y-76981700D01*
X38628571Y-76981700D02*
X38585714Y-77110271D01*
X38585714Y-77110271D02*
X38071428Y-77624557D01*
X38071428Y-77624557D02*
X38628571Y-77624557D01*
X39400000Y-76724557D02*
X39228571Y-76724557D01*
X39228571Y-76724557D02*
X39142857Y-76767414D01*
X39142857Y-76767414D02*
X39100000Y-76810271D01*
X39100000Y-76810271D02*
X39014285Y-76938842D01*
X39014285Y-76938842D02*
X38971428Y-77110271D01*
X38971428Y-77110271D02*
X38971428Y-77453128D01*
X38971428Y-77453128D02*
X39014285Y-77538842D01*
X39014285Y-77538842D02*
X39057142Y-77581700D01*
X39057142Y-77581700D02*
X39142857Y-77624557D01*
X39142857Y-77624557D02*
X39314285Y-77624557D01*
X39314285Y-77624557D02*
X39400000Y-77581700D01*
X39400000Y-77581700D02*
X39442857Y-77538842D01*
X39442857Y-77538842D02*
X39485714Y-77453128D01*
X39485714Y-77453128D02*
X39485714Y-77238842D01*
X39485714Y-77238842D02*
X39442857Y-77153128D01*
X39442857Y-77153128D02*
X39400000Y-77110271D01*
X39400000Y-77110271D02*
X39314285Y-77067414D01*
X39314285Y-77067414D02*
X39142857Y-77067414D01*
X39142857Y-77067414D02*
X39057142Y-77110271D01*
X39057142Y-77110271D02*
X39014285Y-77153128D01*
X39014285Y-77153128D02*
X38971428Y-77238842D01*
X40557142Y-77624557D02*
X40557142Y-76724557D01*
X40557142Y-76724557D02*
X40771428Y-76724557D01*
X40771428Y-76724557D02*
X40899999Y-76767414D01*
X40899999Y-76767414D02*
X40985714Y-76853128D01*
X40985714Y-76853128D02*
X41028571Y-76938842D01*
X41028571Y-76938842D02*
X41071428Y-77110271D01*
X41071428Y-77110271D02*
X41071428Y-77238842D01*
X41071428Y-77238842D02*
X41028571Y-77410271D01*
X41028571Y-77410271D02*
X40985714Y-77495985D01*
X40985714Y-77495985D02*
X40899999Y-77581700D01*
X40899999Y-77581700D02*
X40771428Y-77624557D01*
X40771428Y-77624557D02*
X40557142Y-77624557D01*
X41842857Y-77624557D02*
X41842857Y-77153128D01*
X41842857Y-77153128D02*
X41799999Y-77067414D01*
X41799999Y-77067414D02*
X41714285Y-77024557D01*
X41714285Y-77024557D02*
X41542857Y-77024557D01*
X41542857Y-77024557D02*
X41457142Y-77067414D01*
X41842857Y-77581700D02*
X41757142Y-77624557D01*
X41757142Y-77624557D02*
X41542857Y-77624557D01*
X41542857Y-77624557D02*
X41457142Y-77581700D01*
X41457142Y-77581700D02*
X41414285Y-77495985D01*
X41414285Y-77495985D02*
X41414285Y-77410271D01*
X41414285Y-77410271D02*
X41457142Y-77324557D01*
X41457142Y-77324557D02*
X41542857Y-77281700D01*
X41542857Y-77281700D02*
X41757142Y-77281700D01*
X41757142Y-77281700D02*
X41842857Y-77238842D01*
X42185714Y-77024557D02*
X42400000Y-77624557D01*
X42400000Y-77624557D02*
X42614285Y-77024557D01*
X42957142Y-77624557D02*
X42957142Y-77024557D01*
X42957142Y-76724557D02*
X42914285Y-76767414D01*
X42914285Y-76767414D02*
X42957142Y-76810271D01*
X42957142Y-76810271D02*
X42999999Y-76767414D01*
X42999999Y-76767414D02*
X42957142Y-76724557D01*
X42957142Y-76724557D02*
X42957142Y-76810271D01*
X43771428Y-77624557D02*
X43771428Y-76724557D01*
X43771428Y-77581700D02*
X43685713Y-77624557D01*
X43685713Y-77624557D02*
X43514285Y-77624557D01*
X43514285Y-77624557D02*
X43428570Y-77581700D01*
X43428570Y-77581700D02*
X43385713Y-77538842D01*
X43385713Y-77538842D02*
X43342856Y-77453128D01*
X43342856Y-77453128D02*
X43342856Y-77195985D01*
X43342856Y-77195985D02*
X43385713Y-77110271D01*
X43385713Y-77110271D02*
X43428570Y-77067414D01*
X43428570Y-77067414D02*
X43514285Y-77024557D01*
X43514285Y-77024557D02*
X43685713Y-77024557D01*
X43685713Y-77024557D02*
X43771428Y-77067414D01*
X44757142Y-76724557D02*
X45271428Y-76724557D01*
X45014285Y-77624557D02*
X45014285Y-76724557D01*
X45571427Y-77624557D02*
X45571427Y-77024557D01*
X45571427Y-77195985D02*
X45614284Y-77110271D01*
X45614284Y-77110271D02*
X45657142Y-77067414D01*
X45657142Y-77067414D02*
X45742856Y-77024557D01*
X45742856Y-77024557D02*
X45828570Y-77024557D01*
X46257142Y-77624557D02*
X46171427Y-77581700D01*
X46171427Y-77581700D02*
X46128570Y-77538842D01*
X46128570Y-77538842D02*
X46085713Y-77453128D01*
X46085713Y-77453128D02*
X46085713Y-77195985D01*
X46085713Y-77195985D02*
X46128570Y-77110271D01*
X46128570Y-77110271D02*
X46171427Y-77067414D01*
X46171427Y-77067414D02*
X46257142Y-77024557D01*
X46257142Y-77024557D02*
X46385713Y-77024557D01*
X46385713Y-77024557D02*
X46471427Y-77067414D01*
X46471427Y-77067414D02*
X46514285Y-77110271D01*
X46514285Y-77110271D02*
X46557142Y-77195985D01*
X46557142Y-77195985D02*
X46557142Y-77453128D01*
X46557142Y-77453128D02*
X46514285Y-77538842D01*
X46514285Y-77538842D02*
X46471427Y-77581700D01*
X46471427Y-77581700D02*
X46385713Y-77624557D01*
X46385713Y-77624557D02*
X46257142Y-77624557D01*
X46857142Y-77024557D02*
X47071428Y-77624557D01*
X47285713Y-77024557D02*
X47071428Y-77624557D01*
X47071428Y-77624557D02*
X46985713Y-77838842D01*
X46985713Y-77838842D02*
X46942856Y-77881700D01*
X46942856Y-77881700D02*
X46857142Y-77924557D01*
X47671427Y-77581700D02*
X47671427Y-77624557D01*
X47671427Y-77624557D02*
X47628570Y-77710271D01*
X47628570Y-77710271D02*
X47585713Y-77753128D01*
X48742855Y-77624557D02*
X48742855Y-77024557D01*
X48742855Y-76724557D02*
X48699998Y-76767414D01*
X48699998Y-76767414D02*
X48742855Y-76810271D01*
X48742855Y-76810271D02*
X48785712Y-76767414D01*
X48785712Y-76767414D02*
X48742855Y-76724557D01*
X48742855Y-76724557D02*
X48742855Y-76810271D01*
X49171426Y-77024557D02*
X49171426Y-77624557D01*
X49171426Y-77110271D02*
X49214283Y-77067414D01*
X49214283Y-77067414D02*
X49299998Y-77024557D01*
X49299998Y-77024557D02*
X49428569Y-77024557D01*
X49428569Y-77024557D02*
X49514283Y-77067414D01*
X49514283Y-77067414D02*
X49557141Y-77153128D01*
X49557141Y-77153128D02*
X49557141Y-77624557D01*
X50671426Y-77624557D02*
X50671426Y-77024557D01*
X50671426Y-77110271D02*
X50714283Y-77067414D01*
X50714283Y-77067414D02*
X50799998Y-77024557D01*
X50799998Y-77024557D02*
X50928569Y-77024557D01*
X50928569Y-77024557D02*
X51014283Y-77067414D01*
X51014283Y-77067414D02*
X51057141Y-77153128D01*
X51057141Y-77153128D02*
X51057141Y-77624557D01*
X51057141Y-77153128D02*
X51099998Y-77067414D01*
X51099998Y-77067414D02*
X51185712Y-77024557D01*
X51185712Y-77024557D02*
X51314283Y-77024557D01*
X51314283Y-77024557D02*
X51399998Y-77067414D01*
X51399998Y-77067414D02*
X51442855Y-77153128D01*
X51442855Y-77153128D02*
X51442855Y-77624557D01*
X52214283Y-77581700D02*
X52128569Y-77624557D01*
X52128569Y-77624557D02*
X51957141Y-77624557D01*
X51957141Y-77624557D02*
X51871426Y-77581700D01*
X51871426Y-77581700D02*
X51828569Y-77495985D01*
X51828569Y-77495985D02*
X51828569Y-77153128D01*
X51828569Y-77153128D02*
X51871426Y-77067414D01*
X51871426Y-77067414D02*
X51957141Y-77024557D01*
X51957141Y-77024557D02*
X52128569Y-77024557D01*
X52128569Y-77024557D02*
X52214283Y-77067414D01*
X52214283Y-77067414D02*
X52257141Y-77153128D01*
X52257141Y-77153128D02*
X52257141Y-77238842D01*
X52257141Y-77238842D02*
X51828569Y-77324557D01*
X52642855Y-77624557D02*
X52642855Y-77024557D01*
X52642855Y-77110271D02*
X52685712Y-77067414D01*
X52685712Y-77067414D02*
X52771427Y-77024557D01*
X52771427Y-77024557D02*
X52899998Y-77024557D01*
X52899998Y-77024557D02*
X52985712Y-77067414D01*
X52985712Y-77067414D02*
X53028570Y-77153128D01*
X53028570Y-77153128D02*
X53028570Y-77624557D01*
X53028570Y-77153128D02*
X53071427Y-77067414D01*
X53071427Y-77067414D02*
X53157141Y-77024557D01*
X53157141Y-77024557D02*
X53285712Y-77024557D01*
X53285712Y-77024557D02*
X53371427Y-77067414D01*
X53371427Y-77067414D02*
X53414284Y-77153128D01*
X53414284Y-77153128D02*
X53414284Y-77624557D01*
X53971427Y-77624557D02*
X53885712Y-77581700D01*
X53885712Y-77581700D02*
X53842855Y-77538842D01*
X53842855Y-77538842D02*
X53799998Y-77453128D01*
X53799998Y-77453128D02*
X53799998Y-77195985D01*
X53799998Y-77195985D02*
X53842855Y-77110271D01*
X53842855Y-77110271D02*
X53885712Y-77067414D01*
X53885712Y-77067414D02*
X53971427Y-77024557D01*
X53971427Y-77024557D02*
X54099998Y-77024557D01*
X54099998Y-77024557D02*
X54185712Y-77067414D01*
X54185712Y-77067414D02*
X54228570Y-77110271D01*
X54228570Y-77110271D02*
X54271427Y-77195985D01*
X54271427Y-77195985D02*
X54271427Y-77453128D01*
X54271427Y-77453128D02*
X54228570Y-77538842D01*
X54228570Y-77538842D02*
X54185712Y-77581700D01*
X54185712Y-77581700D02*
X54099998Y-77624557D01*
X54099998Y-77624557D02*
X53971427Y-77624557D01*
X54657141Y-77624557D02*
X54657141Y-77024557D01*
X54657141Y-77195985D02*
X54699998Y-77110271D01*
X54699998Y-77110271D02*
X54742856Y-77067414D01*
X54742856Y-77067414D02*
X54828570Y-77024557D01*
X54828570Y-77024557D02*
X54914284Y-77024557D01*
X55128570Y-77024557D02*
X55342856Y-77624557D01*
X55557141Y-77024557D02*
X55342856Y-77624557D01*
X55342856Y-77624557D02*
X55257141Y-77838842D01*
X55257141Y-77838842D02*
X55214284Y-77881700D01*
X55214284Y-77881700D02*
X55128570Y-77924557D01*
X56714284Y-77624557D02*
X56628569Y-77581700D01*
X56628569Y-77581700D02*
X56585712Y-77538842D01*
X56585712Y-77538842D02*
X56542855Y-77453128D01*
X56542855Y-77453128D02*
X56542855Y-77195985D01*
X56542855Y-77195985D02*
X56585712Y-77110271D01*
X56585712Y-77110271D02*
X56628569Y-77067414D01*
X56628569Y-77067414D02*
X56714284Y-77024557D01*
X56714284Y-77024557D02*
X56842855Y-77024557D01*
X56842855Y-77024557D02*
X56928569Y-77067414D01*
X56928569Y-77067414D02*
X56971427Y-77110271D01*
X56971427Y-77110271D02*
X57014284Y-77195985D01*
X57014284Y-77195985D02*
X57014284Y-77453128D01*
X57014284Y-77453128D02*
X56971427Y-77538842D01*
X56971427Y-77538842D02*
X56928569Y-77581700D01*
X56928569Y-77581700D02*
X56842855Y-77624557D01*
X56842855Y-77624557D02*
X56714284Y-77624557D01*
X57271427Y-77024557D02*
X57614284Y-77024557D01*
X57399998Y-77624557D02*
X57399998Y-76853128D01*
X57399998Y-76853128D02*
X57442855Y-76767414D01*
X57442855Y-76767414D02*
X57528570Y-76724557D01*
X57528570Y-76724557D02*
X57614284Y-76724557D01*
X58557141Y-77581700D02*
X58685713Y-77624557D01*
X58685713Y-77624557D02*
X58899998Y-77624557D01*
X58899998Y-77624557D02*
X58985713Y-77581700D01*
X58985713Y-77581700D02*
X59028570Y-77538842D01*
X59028570Y-77538842D02*
X59071427Y-77453128D01*
X59071427Y-77453128D02*
X59071427Y-77367414D01*
X59071427Y-77367414D02*
X59028570Y-77281700D01*
X59028570Y-77281700D02*
X58985713Y-77238842D01*
X58985713Y-77238842D02*
X58899998Y-77195985D01*
X58899998Y-77195985D02*
X58728570Y-77153128D01*
X58728570Y-77153128D02*
X58642855Y-77110271D01*
X58642855Y-77110271D02*
X58599998Y-77067414D01*
X58599998Y-77067414D02*
X58557141Y-76981700D01*
X58557141Y-76981700D02*
X58557141Y-76895985D01*
X58557141Y-76895985D02*
X58599998Y-76810271D01*
X58599998Y-76810271D02*
X58642855Y-76767414D01*
X58642855Y-76767414D02*
X58728570Y-76724557D01*
X58728570Y-76724557D02*
X58942855Y-76724557D01*
X58942855Y-76724557D02*
X59071427Y-76767414D01*
X59328570Y-77024557D02*
X59671427Y-77024557D01*
X59457141Y-76724557D02*
X59457141Y-77495985D01*
X59457141Y-77495985D02*
X59499998Y-77581700D01*
X59499998Y-77581700D02*
X59585713Y-77624557D01*
X59585713Y-77624557D02*
X59671427Y-77624557D01*
X60314284Y-77581700D02*
X60228570Y-77624557D01*
X60228570Y-77624557D02*
X60057142Y-77624557D01*
X60057142Y-77624557D02*
X59971427Y-77581700D01*
X59971427Y-77581700D02*
X59928570Y-77495985D01*
X59928570Y-77495985D02*
X59928570Y-77153128D01*
X59928570Y-77153128D02*
X59971427Y-77067414D01*
X59971427Y-77067414D02*
X60057142Y-77024557D01*
X60057142Y-77024557D02*
X60228570Y-77024557D01*
X60228570Y-77024557D02*
X60314284Y-77067414D01*
X60314284Y-77067414D02*
X60357142Y-77153128D01*
X60357142Y-77153128D02*
X60357142Y-77238842D01*
X60357142Y-77238842D02*
X59928570Y-77324557D01*
X60742856Y-77024557D02*
X60742856Y-77924557D01*
X60742856Y-77067414D02*
X60828571Y-77024557D01*
X60828571Y-77024557D02*
X60999999Y-77024557D01*
X60999999Y-77024557D02*
X61085713Y-77067414D01*
X61085713Y-77067414D02*
X61128571Y-77110271D01*
X61128571Y-77110271D02*
X61171428Y-77195985D01*
X61171428Y-77195985D02*
X61171428Y-77453128D01*
X61171428Y-77453128D02*
X61128571Y-77538842D01*
X61128571Y-77538842D02*
X61085713Y-77581700D01*
X61085713Y-77581700D02*
X60999999Y-77624557D01*
X60999999Y-77624557D02*
X60828571Y-77624557D01*
X60828571Y-77624557D02*
X60742856Y-77581700D01*
X61557142Y-77624557D02*
X61557142Y-76724557D01*
X61942857Y-77624557D02*
X61942857Y-77153128D01*
X61942857Y-77153128D02*
X61899999Y-77067414D01*
X61899999Y-77067414D02*
X61814285Y-77024557D01*
X61814285Y-77024557D02*
X61685714Y-77024557D01*
X61685714Y-77024557D02*
X61599999Y-77067414D01*
X61599999Y-77067414D02*
X61557142Y-77110271D01*
X62714285Y-77581700D02*
X62628571Y-77624557D01*
X62628571Y-77624557D02*
X62457143Y-77624557D01*
X62457143Y-77624557D02*
X62371428Y-77581700D01*
X62371428Y-77581700D02*
X62328571Y-77495985D01*
X62328571Y-77495985D02*
X62328571Y-77153128D01*
X62328571Y-77153128D02*
X62371428Y-77067414D01*
X62371428Y-77067414D02*
X62457143Y-77024557D01*
X62457143Y-77024557D02*
X62628571Y-77024557D01*
X62628571Y-77024557D02*
X62714285Y-77067414D01*
X62714285Y-77067414D02*
X62757143Y-77153128D01*
X62757143Y-77153128D02*
X62757143Y-77238842D01*
X62757143Y-77238842D02*
X62328571Y-77324557D01*
X63142857Y-77024557D02*
X63142857Y-77624557D01*
X63142857Y-77110271D02*
X63185714Y-77067414D01*
X63185714Y-77067414D02*
X63271429Y-77024557D01*
X63271429Y-77024557D02*
X63400000Y-77024557D01*
X63400000Y-77024557D02*
X63485714Y-77067414D01*
X63485714Y-77067414D02*
X63528572Y-77153128D01*
X63528572Y-77153128D02*
X63528572Y-77624557D01*
X64514286Y-76724557D02*
X65028572Y-76724557D01*
X64771429Y-77624557D02*
X64771429Y-76724557D01*
X65328571Y-77624557D02*
X65328571Y-77024557D01*
X65328571Y-77195985D02*
X65371428Y-77110271D01*
X65371428Y-77110271D02*
X65414286Y-77067414D01*
X65414286Y-77067414D02*
X65500000Y-77024557D01*
X65500000Y-77024557D02*
X65585714Y-77024557D01*
X66014286Y-77624557D02*
X65928571Y-77581700D01*
X65928571Y-77581700D02*
X65885714Y-77538842D01*
X65885714Y-77538842D02*
X65842857Y-77453128D01*
X65842857Y-77453128D02*
X65842857Y-77195985D01*
X65842857Y-77195985D02*
X65885714Y-77110271D01*
X65885714Y-77110271D02*
X65928571Y-77067414D01*
X65928571Y-77067414D02*
X66014286Y-77024557D01*
X66014286Y-77024557D02*
X66142857Y-77024557D01*
X66142857Y-77024557D02*
X66228571Y-77067414D01*
X66228571Y-77067414D02*
X66271429Y-77110271D01*
X66271429Y-77110271D02*
X66314286Y-77195985D01*
X66314286Y-77195985D02*
X66314286Y-77453128D01*
X66314286Y-77453128D02*
X66271429Y-77538842D01*
X66271429Y-77538842D02*
X66228571Y-77581700D01*
X66228571Y-77581700D02*
X66142857Y-77624557D01*
X66142857Y-77624557D02*
X66014286Y-77624557D01*
X66614286Y-77024557D02*
X66828572Y-77624557D01*
X67042857Y-77024557D02*
X66828572Y-77624557D01*
X66828572Y-77624557D02*
X66742857Y-77838842D01*
X66742857Y-77838842D02*
X66700000Y-77881700D01*
X66700000Y-77881700D02*
X66614286Y-77924557D01*
X67385714Y-77538842D02*
X67428571Y-77581700D01*
X67428571Y-77581700D02*
X67385714Y-77624557D01*
X67385714Y-77624557D02*
X67342857Y-77581700D01*
X67342857Y-77581700D02*
X67385714Y-77538842D01*
X67385714Y-77538842D02*
X67385714Y-77624557D01*
M02*
