%TF.GenerationSoftware,KiCad,Pcbnew,10.0.6*%
%TF.CreationDate,2026-08-31T06:13:11-04:00*%
%TF.ProjectId,riser,72697365-722e-46b6-9963-61645f706362,rev?*%
%TF.SameCoordinates,Original*%
%TF.FileFunction,Legend,Top*%
%TF.FilePolarity,Positive*%
%FSLAX46Y46*%
G04 Gerber Fmt 4.6, Leading zero omitted, Abs format (unit mm)*
G04 Created by KiCad (PCBNEW 10.0.6) date 2026-08-31 06:13:11*
%MOMM*%
%LPD*%
G01*
G04 APERTURE LIST*
%ADD10C,0.150000*%
G04 APERTURE END LIST*
D10*
X26677333Y-49593700D02*
X26710666Y-49560366D01*
X26710666Y-49560366D02*
X26777333Y-49527033D01*
X26777333Y-49527033D02*
X26944000Y-49527033D01*
X26944000Y-49527033D02*
X27010666Y-49560366D01*
X27010666Y-49560366D02*
X27044000Y-49593700D01*
X27044000Y-49593700D02*
X27077333Y-49660366D01*
X27077333Y-49660366D02*
X27077333Y-49727033D01*
X27077333Y-49727033D02*
X27044000Y-49827033D01*
X27044000Y-49827033D02*
X26644000Y-50227033D01*
X26644000Y-50227033D02*
X27077333Y-50227033D01*
X27910666Y-50227033D02*
X27910666Y-49527033D01*
X27910666Y-49527033D02*
X28310666Y-50227033D01*
X28310666Y-50227033D02*
X28310666Y-49527033D01*
X29043999Y-50160366D02*
X29010666Y-50193700D01*
X29010666Y-50193700D02*
X28910666Y-50227033D01*
X28910666Y-50227033D02*
X28843999Y-50227033D01*
X28843999Y-50227033D02*
X28743999Y-50193700D01*
X28743999Y-50193700D02*
X28677333Y-50127033D01*
X28677333Y-50127033D02*
X28643999Y-50060366D01*
X28643999Y-50060366D02*
X28610666Y-49927033D01*
X28610666Y-49927033D02*
X28610666Y-49827033D01*
X28610666Y-49827033D02*
X28643999Y-49693700D01*
X28643999Y-49693700D02*
X28677333Y-49627033D01*
X28677333Y-49627033D02*
X28743999Y-49560366D01*
X28743999Y-49560366D02*
X28843999Y-49527033D01*
X28843999Y-49527033D02*
X28910666Y-49527033D01*
X28910666Y-49527033D02*
X29010666Y-49560366D01*
X29010666Y-49560366D02*
X29043999Y-49593700D01*
X29310666Y-49593700D02*
X29343999Y-49560366D01*
X29343999Y-49560366D02*
X29410666Y-49527033D01*
X29410666Y-49527033D02*
X29577333Y-49527033D01*
X29577333Y-49527033D02*
X29643999Y-49560366D01*
X29643999Y-49560366D02*
X29677333Y-49593700D01*
X29677333Y-49593700D02*
X29710666Y-49660366D01*
X29710666Y-49660366D02*
X29710666Y-49727033D01*
X29710666Y-49727033D02*
X29677333Y-49827033D01*
X29677333Y-49827033D02*
X29277333Y-50227033D01*
X29277333Y-50227033D02*
X29710666Y-50227033D01*
X17675316Y-50227033D02*
X17275316Y-50227033D01*
X17475316Y-50227033D02*
X17475316Y-49527033D01*
X17475316Y-49527033D02*
X17408649Y-49627033D01*
X17408649Y-49627033D02*
X17341983Y-49693700D01*
X17341983Y-49693700D02*
X17275316Y-49727033D01*
X18875316Y-49560366D02*
X18808649Y-49527033D01*
X18808649Y-49527033D02*
X18708649Y-49527033D01*
X18708649Y-49527033D02*
X18608649Y-49560366D01*
X18608649Y-49560366D02*
X18541983Y-49627033D01*
X18541983Y-49627033D02*
X18508649Y-49693700D01*
X18508649Y-49693700D02*
X18475316Y-49827033D01*
X18475316Y-49827033D02*
X18475316Y-49927033D01*
X18475316Y-49927033D02*
X18508649Y-50060366D01*
X18508649Y-50060366D02*
X18541983Y-50127033D01*
X18541983Y-50127033D02*
X18608649Y-50193700D01*
X18608649Y-50193700D02*
X18708649Y-50227033D01*
X18708649Y-50227033D02*
X18775316Y-50227033D01*
X18775316Y-50227033D02*
X18875316Y-50193700D01*
X18875316Y-50193700D02*
X18908649Y-50160366D01*
X18908649Y-50160366D02*
X18908649Y-49927033D01*
X18908649Y-49927033D02*
X18775316Y-49927033D01*
X19208649Y-50227033D02*
X19208649Y-49527033D01*
X19208649Y-49527033D02*
X19608649Y-50227033D01*
X19608649Y-50227033D02*
X19608649Y-49527033D01*
X19941982Y-50227033D02*
X19941982Y-49527033D01*
X19941982Y-49527033D02*
X20108649Y-49527033D01*
X20108649Y-49527033D02*
X20208649Y-49560366D01*
X20208649Y-49560366D02*
X20275316Y-49627033D01*
X20275316Y-49627033D02*
X20308649Y-49693700D01*
X20308649Y-49693700D02*
X20341982Y-49827033D01*
X20341982Y-49827033D02*
X20341982Y-49927033D01*
X20341982Y-49927033D02*
X20308649Y-50060366D01*
X20308649Y-50060366D02*
X20275316Y-50127033D01*
X20275316Y-50127033D02*
X20208649Y-50193700D01*
X20208649Y-50193700D02*
X20108649Y-50227033D01*
X20108649Y-50227033D02*
X19941982Y-50227033D01*
X26993999Y-47220366D02*
X26993999Y-47687033D01*
X26827333Y-46953700D02*
X26660666Y-47453700D01*
X26660666Y-47453700D02*
X27093999Y-47453700D01*
X27893999Y-47420366D02*
X28427333Y-47420366D01*
X28160666Y-47687033D02*
X28160666Y-47153700D01*
X29094000Y-46987033D02*
X28760666Y-46987033D01*
X28760666Y-46987033D02*
X28727333Y-47320366D01*
X28727333Y-47320366D02*
X28760666Y-47287033D01*
X28760666Y-47287033D02*
X28827333Y-47253700D01*
X28827333Y-47253700D02*
X28994000Y-47253700D01*
X28994000Y-47253700D02*
X29060666Y-47287033D01*
X29060666Y-47287033D02*
X29094000Y-47320366D01*
X29094000Y-47320366D02*
X29127333Y-47387033D01*
X29127333Y-47387033D02*
X29127333Y-47553700D01*
X29127333Y-47553700D02*
X29094000Y-47620366D01*
X29094000Y-47620366D02*
X29060666Y-47653700D01*
X29060666Y-47653700D02*
X28994000Y-47687033D01*
X28994000Y-47687033D02*
X28827333Y-47687033D01*
X28827333Y-47687033D02*
X28760666Y-47653700D01*
X28760666Y-47653700D02*
X28727333Y-47620366D01*
X29327333Y-46987033D02*
X29560667Y-47687033D01*
X29560667Y-47687033D02*
X29794000Y-46987033D01*
X16275317Y-46987033D02*
X16708650Y-46987033D01*
X16708650Y-46987033D02*
X16475317Y-47253700D01*
X16475317Y-47253700D02*
X16575317Y-47253700D01*
X16575317Y-47253700D02*
X16641983Y-47287033D01*
X16641983Y-47287033D02*
X16675317Y-47320366D01*
X16675317Y-47320366D02*
X16708650Y-47387033D01*
X16708650Y-47387033D02*
X16708650Y-47553700D01*
X16708650Y-47553700D02*
X16675317Y-47620366D01*
X16675317Y-47620366D02*
X16641983Y-47653700D01*
X16641983Y-47653700D02*
X16575317Y-47687033D01*
X16575317Y-47687033D02*
X16375317Y-47687033D01*
X16375317Y-47687033D02*
X16308650Y-47653700D01*
X16308650Y-47653700D02*
X16275317Y-47620366D01*
X17541983Y-47687033D02*
X17541983Y-46987033D01*
X17875316Y-47687033D02*
X17875316Y-46987033D01*
X17875316Y-46987033D02*
X18041983Y-46987033D01*
X18041983Y-46987033D02*
X18141983Y-47020366D01*
X18141983Y-47020366D02*
X18208650Y-47087033D01*
X18208650Y-47087033D02*
X18241983Y-47153700D01*
X18241983Y-47153700D02*
X18275316Y-47287033D01*
X18275316Y-47287033D02*
X18275316Y-47387033D01*
X18275316Y-47387033D02*
X18241983Y-47520366D01*
X18241983Y-47520366D02*
X18208650Y-47587033D01*
X18208650Y-47587033D02*
X18141983Y-47653700D01*
X18141983Y-47653700D02*
X18041983Y-47687033D01*
X18041983Y-47687033D02*
X17875316Y-47687033D01*
X18975316Y-47687033D02*
X18741983Y-47353700D01*
X18575316Y-47687033D02*
X18575316Y-46987033D01*
X18575316Y-46987033D02*
X18841983Y-46987033D01*
X18841983Y-46987033D02*
X18908650Y-47020366D01*
X18908650Y-47020366D02*
X18941983Y-47053700D01*
X18941983Y-47053700D02*
X18975316Y-47120366D01*
X18975316Y-47120366D02*
X18975316Y-47220366D01*
X18975316Y-47220366D02*
X18941983Y-47287033D01*
X18941983Y-47287033D02*
X18908650Y-47320366D01*
X18908650Y-47320366D02*
X18841983Y-47353700D01*
X18841983Y-47353700D02*
X18575316Y-47353700D01*
X19275316Y-47320366D02*
X19508650Y-47320366D01*
X19608650Y-47687033D02*
X19275316Y-47687033D01*
X19275316Y-47687033D02*
X19275316Y-46987033D01*
X19275316Y-46987033D02*
X19608650Y-46987033D01*
X20375316Y-47753700D02*
X20308649Y-47720366D01*
X20308649Y-47720366D02*
X20241983Y-47653700D01*
X20241983Y-47653700D02*
X20141983Y-47553700D01*
X20141983Y-47553700D02*
X20075316Y-47520366D01*
X20075316Y-47520366D02*
X20008649Y-47520366D01*
X20041983Y-47687033D02*
X19975316Y-47653700D01*
X19975316Y-47653700D02*
X19908649Y-47587033D01*
X19908649Y-47587033D02*
X19875316Y-47453700D01*
X19875316Y-47453700D02*
X19875316Y-47220366D01*
X19875316Y-47220366D02*
X19908649Y-47087033D01*
X19908649Y-47087033D02*
X19975316Y-47020366D01*
X19975316Y-47020366D02*
X20041983Y-46987033D01*
X20041983Y-46987033D02*
X20175316Y-46987033D01*
X20175316Y-46987033D02*
X20241983Y-47020366D01*
X20241983Y-47020366D02*
X20308649Y-47087033D01*
X20308649Y-47087033D02*
X20341983Y-47220366D01*
X20341983Y-47220366D02*
X20341983Y-47453700D01*
X20341983Y-47453700D02*
X20308649Y-47587033D01*
X20308649Y-47587033D02*
X20241983Y-47653700D01*
X20241983Y-47653700D02*
X20175316Y-47687033D01*
X20175316Y-47687033D02*
X20041983Y-47687033D01*
X27010666Y-44447033D02*
X26877333Y-44447033D01*
X26877333Y-44447033D02*
X26810666Y-44480366D01*
X26810666Y-44480366D02*
X26777333Y-44513700D01*
X26777333Y-44513700D02*
X26710666Y-44613700D01*
X26710666Y-44613700D02*
X26677333Y-44747033D01*
X26677333Y-44747033D02*
X26677333Y-45013700D01*
X26677333Y-45013700D02*
X26710666Y-45080366D01*
X26710666Y-45080366D02*
X26744000Y-45113700D01*
X26744000Y-45113700D02*
X26810666Y-45147033D01*
X26810666Y-45147033D02*
X26944000Y-45147033D01*
X26944000Y-45147033D02*
X27010666Y-45113700D01*
X27010666Y-45113700D02*
X27044000Y-45080366D01*
X27044000Y-45080366D02*
X27077333Y-45013700D01*
X27077333Y-45013700D02*
X27077333Y-44847033D01*
X27077333Y-44847033D02*
X27044000Y-44780366D01*
X27044000Y-44780366D02*
X27010666Y-44747033D01*
X27010666Y-44747033D02*
X26944000Y-44713700D01*
X26944000Y-44713700D02*
X26810666Y-44713700D01*
X26810666Y-44713700D02*
X26744000Y-44747033D01*
X26744000Y-44747033D02*
X26710666Y-44780366D01*
X26710666Y-44780366D02*
X26677333Y-44847033D01*
X27910666Y-45147033D02*
X27910666Y-44447033D01*
X27910666Y-44447033D02*
X28310666Y-45147033D01*
X28310666Y-45147033D02*
X28310666Y-44447033D01*
X29043999Y-45080366D02*
X29010666Y-45113700D01*
X29010666Y-45113700D02*
X28910666Y-45147033D01*
X28910666Y-45147033D02*
X28843999Y-45147033D01*
X28843999Y-45147033D02*
X28743999Y-45113700D01*
X28743999Y-45113700D02*
X28677333Y-45047033D01*
X28677333Y-45047033D02*
X28643999Y-44980366D01*
X28643999Y-44980366D02*
X28610666Y-44847033D01*
X28610666Y-44847033D02*
X28610666Y-44747033D01*
X28610666Y-44747033D02*
X28643999Y-44613700D01*
X28643999Y-44613700D02*
X28677333Y-44547033D01*
X28677333Y-44547033D02*
X28743999Y-44480366D01*
X28743999Y-44480366D02*
X28843999Y-44447033D01*
X28843999Y-44447033D02*
X28910666Y-44447033D01*
X28910666Y-44447033D02*
X29010666Y-44480366D01*
X29010666Y-44480366D02*
X29043999Y-44513700D01*
X29643999Y-44447033D02*
X29510666Y-44447033D01*
X29510666Y-44447033D02*
X29443999Y-44480366D01*
X29443999Y-44480366D02*
X29410666Y-44513700D01*
X29410666Y-44513700D02*
X29343999Y-44613700D01*
X29343999Y-44613700D02*
X29310666Y-44747033D01*
X29310666Y-44747033D02*
X29310666Y-45013700D01*
X29310666Y-45013700D02*
X29343999Y-45080366D01*
X29343999Y-45080366D02*
X29377333Y-45113700D01*
X29377333Y-45113700D02*
X29443999Y-45147033D01*
X29443999Y-45147033D02*
X29577333Y-45147033D01*
X29577333Y-45147033D02*
X29643999Y-45113700D01*
X29643999Y-45113700D02*
X29677333Y-45080366D01*
X29677333Y-45080366D02*
X29710666Y-45013700D01*
X29710666Y-45013700D02*
X29710666Y-44847033D01*
X29710666Y-44847033D02*
X29677333Y-44780366D01*
X29677333Y-44780366D02*
X29643999Y-44747033D01*
X29643999Y-44747033D02*
X29577333Y-44713700D01*
X29577333Y-44713700D02*
X29443999Y-44713700D01*
X29443999Y-44713700D02*
X29377333Y-44747033D01*
X29377333Y-44747033D02*
X29343999Y-44780366D01*
X29343999Y-44780366D02*
X29310666Y-44847033D01*
X16975315Y-44447033D02*
X16641981Y-44447033D01*
X16641981Y-44447033D02*
X16608648Y-44780366D01*
X16608648Y-44780366D02*
X16641981Y-44747033D01*
X16641981Y-44747033D02*
X16708648Y-44713700D01*
X16708648Y-44713700D02*
X16875315Y-44713700D01*
X16875315Y-44713700D02*
X16941981Y-44747033D01*
X16941981Y-44747033D02*
X16975315Y-44780366D01*
X16975315Y-44780366D02*
X17008648Y-44847033D01*
X17008648Y-44847033D02*
X17008648Y-45013700D01*
X17008648Y-45013700D02*
X16975315Y-45080366D01*
X16975315Y-45080366D02*
X16941981Y-45113700D01*
X16941981Y-45113700D02*
X16875315Y-45147033D01*
X16875315Y-45147033D02*
X16708648Y-45147033D01*
X16708648Y-45147033D02*
X16641981Y-45113700D01*
X16641981Y-45113700D02*
X16608648Y-45080366D01*
X17841981Y-44880366D02*
X18375315Y-44880366D01*
X18108648Y-45147033D02*
X18108648Y-44613700D01*
X19075315Y-45147033D02*
X18675315Y-45147033D01*
X18875315Y-45147033D02*
X18875315Y-44447033D01*
X18875315Y-44447033D02*
X18808648Y-44547033D01*
X18808648Y-44547033D02*
X18741982Y-44613700D01*
X18741982Y-44613700D02*
X18675315Y-44647033D01*
X19341982Y-44513700D02*
X19375315Y-44480366D01*
X19375315Y-44480366D02*
X19441982Y-44447033D01*
X19441982Y-44447033D02*
X19608649Y-44447033D01*
X19608649Y-44447033D02*
X19675315Y-44480366D01*
X19675315Y-44480366D02*
X19708649Y-44513700D01*
X19708649Y-44513700D02*
X19741982Y-44580366D01*
X19741982Y-44580366D02*
X19741982Y-44647033D01*
X19741982Y-44647033D02*
X19708649Y-44747033D01*
X19708649Y-44747033D02*
X19308649Y-45147033D01*
X19308649Y-45147033D02*
X19741982Y-45147033D01*
X19941982Y-44447033D02*
X20175316Y-45147033D01*
X20175316Y-45147033D02*
X20408649Y-44447033D01*
X26810666Y-42207033D02*
X26744000Y-42173700D01*
X26744000Y-42173700D02*
X26710666Y-42140366D01*
X26710666Y-42140366D02*
X26677333Y-42073700D01*
X26677333Y-42073700D02*
X26677333Y-42040366D01*
X26677333Y-42040366D02*
X26710666Y-41973700D01*
X26710666Y-41973700D02*
X26744000Y-41940366D01*
X26744000Y-41940366D02*
X26810666Y-41907033D01*
X26810666Y-41907033D02*
X26944000Y-41907033D01*
X26944000Y-41907033D02*
X27010666Y-41940366D01*
X27010666Y-41940366D02*
X27044000Y-41973700D01*
X27044000Y-41973700D02*
X27077333Y-42040366D01*
X27077333Y-42040366D02*
X27077333Y-42073700D01*
X27077333Y-42073700D02*
X27044000Y-42140366D01*
X27044000Y-42140366D02*
X27010666Y-42173700D01*
X27010666Y-42173700D02*
X26944000Y-42207033D01*
X26944000Y-42207033D02*
X26810666Y-42207033D01*
X26810666Y-42207033D02*
X26744000Y-42240366D01*
X26744000Y-42240366D02*
X26710666Y-42273700D01*
X26710666Y-42273700D02*
X26677333Y-42340366D01*
X26677333Y-42340366D02*
X26677333Y-42473700D01*
X26677333Y-42473700D02*
X26710666Y-42540366D01*
X26710666Y-42540366D02*
X26744000Y-42573700D01*
X26744000Y-42573700D02*
X26810666Y-42607033D01*
X26810666Y-42607033D02*
X26944000Y-42607033D01*
X26944000Y-42607033D02*
X27010666Y-42573700D01*
X27010666Y-42573700D02*
X27044000Y-42540366D01*
X27044000Y-42540366D02*
X27077333Y-42473700D01*
X27077333Y-42473700D02*
X27077333Y-42340366D01*
X27077333Y-42340366D02*
X27044000Y-42273700D01*
X27044000Y-42273700D02*
X27010666Y-42240366D01*
X27010666Y-42240366D02*
X26944000Y-42207033D01*
X27910666Y-42607033D02*
X27910666Y-41907033D01*
X27910666Y-41907033D02*
X28310666Y-42607033D01*
X28310666Y-42607033D02*
X28310666Y-41907033D01*
X29043999Y-42540366D02*
X29010666Y-42573700D01*
X29010666Y-42573700D02*
X28910666Y-42607033D01*
X28910666Y-42607033D02*
X28843999Y-42607033D01*
X28843999Y-42607033D02*
X28743999Y-42573700D01*
X28743999Y-42573700D02*
X28677333Y-42507033D01*
X28677333Y-42507033D02*
X28643999Y-42440366D01*
X28643999Y-42440366D02*
X28610666Y-42307033D01*
X28610666Y-42307033D02*
X28610666Y-42207033D01*
X28610666Y-42207033D02*
X28643999Y-42073700D01*
X28643999Y-42073700D02*
X28677333Y-42007033D01*
X28677333Y-42007033D02*
X28743999Y-41940366D01*
X28743999Y-41940366D02*
X28843999Y-41907033D01*
X28843999Y-41907033D02*
X28910666Y-41907033D01*
X28910666Y-41907033D02*
X29010666Y-41940366D01*
X29010666Y-41940366D02*
X29043999Y-41973700D01*
X29443999Y-42207033D02*
X29377333Y-42173700D01*
X29377333Y-42173700D02*
X29343999Y-42140366D01*
X29343999Y-42140366D02*
X29310666Y-42073700D01*
X29310666Y-42073700D02*
X29310666Y-42040366D01*
X29310666Y-42040366D02*
X29343999Y-41973700D01*
X29343999Y-41973700D02*
X29377333Y-41940366D01*
X29377333Y-41940366D02*
X29443999Y-41907033D01*
X29443999Y-41907033D02*
X29577333Y-41907033D01*
X29577333Y-41907033D02*
X29643999Y-41940366D01*
X29643999Y-41940366D02*
X29677333Y-41973700D01*
X29677333Y-41973700D02*
X29710666Y-42040366D01*
X29710666Y-42040366D02*
X29710666Y-42073700D01*
X29710666Y-42073700D02*
X29677333Y-42140366D01*
X29677333Y-42140366D02*
X29643999Y-42173700D01*
X29643999Y-42173700D02*
X29577333Y-42207033D01*
X29577333Y-42207033D02*
X29443999Y-42207033D01*
X29443999Y-42207033D02*
X29377333Y-42240366D01*
X29377333Y-42240366D02*
X29343999Y-42273700D01*
X29343999Y-42273700D02*
X29310666Y-42340366D01*
X29310666Y-42340366D02*
X29310666Y-42473700D01*
X29310666Y-42473700D02*
X29343999Y-42540366D01*
X29343999Y-42540366D02*
X29377333Y-42573700D01*
X29377333Y-42573700D02*
X29443999Y-42607033D01*
X29443999Y-42607033D02*
X29577333Y-42607033D01*
X29577333Y-42607033D02*
X29643999Y-42573700D01*
X29643999Y-42573700D02*
X29677333Y-42540366D01*
X29677333Y-42540366D02*
X29710666Y-42473700D01*
X29710666Y-42473700D02*
X29710666Y-42340366D01*
X29710666Y-42340366D02*
X29677333Y-42273700D01*
X29677333Y-42273700D02*
X29643999Y-42240366D01*
X29643999Y-42240366D02*
X29577333Y-42207033D01*
X16708651Y-41907033D02*
X17175317Y-41907033D01*
X17175317Y-41907033D02*
X16875317Y-42607033D01*
X17975317Y-42607033D02*
X17975317Y-41907033D01*
X18441984Y-41907033D02*
X18575317Y-41907033D01*
X18575317Y-41907033D02*
X18641984Y-41940366D01*
X18641984Y-41940366D02*
X18708650Y-42007033D01*
X18708650Y-42007033D02*
X18741984Y-42140366D01*
X18741984Y-42140366D02*
X18741984Y-42373700D01*
X18741984Y-42373700D02*
X18708650Y-42507033D01*
X18708650Y-42507033D02*
X18641984Y-42573700D01*
X18641984Y-42573700D02*
X18575317Y-42607033D01*
X18575317Y-42607033D02*
X18441984Y-42607033D01*
X18441984Y-42607033D02*
X18375317Y-42573700D01*
X18375317Y-42573700D02*
X18308650Y-42507033D01*
X18308650Y-42507033D02*
X18275317Y-42373700D01*
X18275317Y-42373700D02*
X18275317Y-42140366D01*
X18275317Y-42140366D02*
X18308650Y-42007033D01*
X18308650Y-42007033D02*
X18375317Y-41940366D01*
X18375317Y-41940366D02*
X18441984Y-41907033D01*
X19041983Y-42607033D02*
X19041983Y-41907033D01*
X19375316Y-42607033D02*
X19375316Y-41907033D01*
X19375316Y-41907033D02*
X19775316Y-42607033D01*
X19775316Y-42607033D02*
X19775316Y-41907033D01*
X20008649Y-41907033D02*
X20408649Y-41907033D01*
X20208649Y-42607033D02*
X20208649Y-41907033D01*
X26627333Y-40067033D02*
X26227333Y-40067033D01*
X26427333Y-40067033D02*
X26427333Y-39367033D01*
X26427333Y-39367033D02*
X26360666Y-39467033D01*
X26360666Y-39467033D02*
X26294000Y-39533700D01*
X26294000Y-39533700D02*
X26227333Y-39567033D01*
X27060667Y-39367033D02*
X27127333Y-39367033D01*
X27127333Y-39367033D02*
X27194000Y-39400366D01*
X27194000Y-39400366D02*
X27227333Y-39433700D01*
X27227333Y-39433700D02*
X27260667Y-39500366D01*
X27260667Y-39500366D02*
X27294000Y-39633700D01*
X27294000Y-39633700D02*
X27294000Y-39800366D01*
X27294000Y-39800366D02*
X27260667Y-39933700D01*
X27260667Y-39933700D02*
X27227333Y-40000366D01*
X27227333Y-40000366D02*
X27194000Y-40033700D01*
X27194000Y-40033700D02*
X27127333Y-40067033D01*
X27127333Y-40067033D02*
X27060667Y-40067033D01*
X27060667Y-40067033D02*
X26994000Y-40033700D01*
X26994000Y-40033700D02*
X26960667Y-40000366D01*
X26960667Y-40000366D02*
X26927333Y-39933700D01*
X26927333Y-39933700D02*
X26894000Y-39800366D01*
X26894000Y-39800366D02*
X26894000Y-39633700D01*
X26894000Y-39633700D02*
X26927333Y-39500366D01*
X26927333Y-39500366D02*
X26960667Y-39433700D01*
X26960667Y-39433700D02*
X26994000Y-39400366D01*
X26994000Y-39400366D02*
X27060667Y-39367033D01*
X28127333Y-40067033D02*
X28127333Y-39367033D01*
X28594000Y-39367033D02*
X28727333Y-39367033D01*
X28727333Y-39367033D02*
X28794000Y-39400366D01*
X28794000Y-39400366D02*
X28860666Y-39467033D01*
X28860666Y-39467033D02*
X28894000Y-39600366D01*
X28894000Y-39600366D02*
X28894000Y-39833700D01*
X28894000Y-39833700D02*
X28860666Y-39967033D01*
X28860666Y-39967033D02*
X28794000Y-40033700D01*
X28794000Y-40033700D02*
X28727333Y-40067033D01*
X28727333Y-40067033D02*
X28594000Y-40067033D01*
X28594000Y-40067033D02*
X28527333Y-40033700D01*
X28527333Y-40033700D02*
X28460666Y-39967033D01*
X28460666Y-39967033D02*
X28427333Y-39833700D01*
X28427333Y-39833700D02*
X28427333Y-39600366D01*
X28427333Y-39600366D02*
X28460666Y-39467033D01*
X28460666Y-39467033D02*
X28527333Y-39400366D01*
X28527333Y-39400366D02*
X28594000Y-39367033D01*
X29160666Y-39867033D02*
X29493999Y-39867033D01*
X29093999Y-40067033D02*
X29327333Y-39367033D01*
X29327333Y-39367033D02*
X29560666Y-40067033D01*
X29727333Y-39367033D02*
X30160666Y-39367033D01*
X30160666Y-39367033D02*
X29927333Y-39633700D01*
X29927333Y-39633700D02*
X30027333Y-39633700D01*
X30027333Y-39633700D02*
X30093999Y-39667033D01*
X30093999Y-39667033D02*
X30127333Y-39700366D01*
X30127333Y-39700366D02*
X30160666Y-39767033D01*
X30160666Y-39767033D02*
X30160666Y-39933700D01*
X30160666Y-39933700D02*
X30127333Y-40000366D01*
X30127333Y-40000366D02*
X30093999Y-40033700D01*
X30093999Y-40033700D02*
X30027333Y-40067033D01*
X30027333Y-40067033D02*
X29827333Y-40067033D01*
X29827333Y-40067033D02*
X29760666Y-40033700D01*
X29760666Y-40033700D02*
X29727333Y-40000366D01*
X17141983Y-40067033D02*
X17275316Y-40067033D01*
X17275316Y-40067033D02*
X17341983Y-40033700D01*
X17341983Y-40033700D02*
X17375316Y-40000366D01*
X17375316Y-40000366D02*
X17441983Y-39900366D01*
X17441983Y-39900366D02*
X17475316Y-39767033D01*
X17475316Y-39767033D02*
X17475316Y-39500366D01*
X17475316Y-39500366D02*
X17441983Y-39433700D01*
X17441983Y-39433700D02*
X17408649Y-39400366D01*
X17408649Y-39400366D02*
X17341983Y-39367033D01*
X17341983Y-39367033D02*
X17208649Y-39367033D01*
X17208649Y-39367033D02*
X17141983Y-39400366D01*
X17141983Y-39400366D02*
X17108649Y-39433700D01*
X17108649Y-39433700D02*
X17075316Y-39500366D01*
X17075316Y-39500366D02*
X17075316Y-39667033D01*
X17075316Y-39667033D02*
X17108649Y-39733700D01*
X17108649Y-39733700D02*
X17141983Y-39767033D01*
X17141983Y-39767033D02*
X17208649Y-39800366D01*
X17208649Y-39800366D02*
X17341983Y-39800366D01*
X17341983Y-39800366D02*
X17408649Y-39767033D01*
X17408649Y-39767033D02*
X17441983Y-39733700D01*
X17441983Y-39733700D02*
X17475316Y-39667033D01*
X18308649Y-40067033D02*
X18308649Y-39367033D01*
X18775316Y-39367033D02*
X18908649Y-39367033D01*
X18908649Y-39367033D02*
X18975316Y-39400366D01*
X18975316Y-39400366D02*
X19041982Y-39467033D01*
X19041982Y-39467033D02*
X19075316Y-39600366D01*
X19075316Y-39600366D02*
X19075316Y-39833700D01*
X19075316Y-39833700D02*
X19041982Y-39967033D01*
X19041982Y-39967033D02*
X18975316Y-40033700D01*
X18975316Y-40033700D02*
X18908649Y-40067033D01*
X18908649Y-40067033D02*
X18775316Y-40067033D01*
X18775316Y-40067033D02*
X18708649Y-40033700D01*
X18708649Y-40033700D02*
X18641982Y-39967033D01*
X18641982Y-39967033D02*
X18608649Y-39833700D01*
X18608649Y-39833700D02*
X18608649Y-39600366D01*
X18608649Y-39600366D02*
X18641982Y-39467033D01*
X18641982Y-39467033D02*
X18708649Y-39400366D01*
X18708649Y-39400366D02*
X18775316Y-39367033D01*
X19341982Y-39867033D02*
X19675315Y-39867033D01*
X19275315Y-40067033D02*
X19508649Y-39367033D01*
X19508649Y-39367033D02*
X19741982Y-40067033D01*
X19941982Y-39433700D02*
X19975315Y-39400366D01*
X19975315Y-39400366D02*
X20041982Y-39367033D01*
X20041982Y-39367033D02*
X20208649Y-39367033D01*
X20208649Y-39367033D02*
X20275315Y-39400366D01*
X20275315Y-39400366D02*
X20308649Y-39433700D01*
X20308649Y-39433700D02*
X20341982Y-39500366D01*
X20341982Y-39500366D02*
X20341982Y-39567033D01*
X20341982Y-39567033D02*
X20308649Y-39667033D01*
X20308649Y-39667033D02*
X19908649Y-40067033D01*
X19908649Y-40067033D02*
X20341982Y-40067033D01*
X26727333Y-37527033D02*
X26327333Y-37527033D01*
X26527333Y-37527033D02*
X26527333Y-36827033D01*
X26527333Y-36827033D02*
X26460666Y-36927033D01*
X26460666Y-36927033D02*
X26394000Y-36993700D01*
X26394000Y-36993700D02*
X26327333Y-37027033D01*
X26994000Y-36893700D02*
X27027333Y-36860366D01*
X27027333Y-36860366D02*
X27094000Y-36827033D01*
X27094000Y-36827033D02*
X27260667Y-36827033D01*
X27260667Y-36827033D02*
X27327333Y-36860366D01*
X27327333Y-36860366D02*
X27360667Y-36893700D01*
X27360667Y-36893700D02*
X27394000Y-36960366D01*
X27394000Y-36960366D02*
X27394000Y-37027033D01*
X27394000Y-37027033D02*
X27360667Y-37127033D01*
X27360667Y-37127033D02*
X26960667Y-37527033D01*
X26960667Y-37527033D02*
X27394000Y-37527033D01*
X28594000Y-36860366D02*
X28527333Y-36827033D01*
X28527333Y-36827033D02*
X28427333Y-36827033D01*
X28427333Y-36827033D02*
X28327333Y-36860366D01*
X28327333Y-36860366D02*
X28260667Y-36927033D01*
X28260667Y-36927033D02*
X28227333Y-36993700D01*
X28227333Y-36993700D02*
X28194000Y-37127033D01*
X28194000Y-37127033D02*
X28194000Y-37227033D01*
X28194000Y-37227033D02*
X28227333Y-37360366D01*
X28227333Y-37360366D02*
X28260667Y-37427033D01*
X28260667Y-37427033D02*
X28327333Y-37493700D01*
X28327333Y-37493700D02*
X28427333Y-37527033D01*
X28427333Y-37527033D02*
X28494000Y-37527033D01*
X28494000Y-37527033D02*
X28594000Y-37493700D01*
X28594000Y-37493700D02*
X28627333Y-37460366D01*
X28627333Y-37460366D02*
X28627333Y-37227033D01*
X28627333Y-37227033D02*
X28494000Y-37227033D01*
X28927333Y-37527033D02*
X28927333Y-36827033D01*
X28927333Y-36827033D02*
X29327333Y-37527033D01*
X29327333Y-37527033D02*
X29327333Y-36827033D01*
X29660666Y-37527033D02*
X29660666Y-36827033D01*
X29660666Y-36827033D02*
X29827333Y-36827033D01*
X29827333Y-36827033D02*
X29927333Y-36860366D01*
X29927333Y-36860366D02*
X29994000Y-36927033D01*
X29994000Y-36927033D02*
X30027333Y-36993700D01*
X30027333Y-36993700D02*
X30060666Y-37127033D01*
X30060666Y-37127033D02*
X30060666Y-37227033D01*
X30060666Y-37227033D02*
X30027333Y-37360366D01*
X30027333Y-37360366D02*
X29994000Y-37427033D01*
X29994000Y-37427033D02*
X29927333Y-37493700D01*
X29927333Y-37493700D02*
X29827333Y-37527033D01*
X29827333Y-37527033D02*
X29660666Y-37527033D01*
X16808649Y-37527033D02*
X16408649Y-37527033D01*
X16608649Y-37527033D02*
X16608649Y-36827033D01*
X16608649Y-36827033D02*
X16541982Y-36927033D01*
X16541982Y-36927033D02*
X16475316Y-36993700D01*
X16475316Y-36993700D02*
X16408649Y-37027033D01*
X17475316Y-37527033D02*
X17075316Y-37527033D01*
X17275316Y-37527033D02*
X17275316Y-36827033D01*
X17275316Y-36827033D02*
X17208649Y-36927033D01*
X17208649Y-36927033D02*
X17141983Y-36993700D01*
X17141983Y-36993700D02*
X17075316Y-37027033D01*
X18308649Y-37527033D02*
X18308649Y-36827033D01*
X18775316Y-36827033D02*
X18908649Y-36827033D01*
X18908649Y-36827033D02*
X18975316Y-36860366D01*
X18975316Y-36860366D02*
X19041982Y-36927033D01*
X19041982Y-36927033D02*
X19075316Y-37060366D01*
X19075316Y-37060366D02*
X19075316Y-37293700D01*
X19075316Y-37293700D02*
X19041982Y-37427033D01*
X19041982Y-37427033D02*
X18975316Y-37493700D01*
X18975316Y-37493700D02*
X18908649Y-37527033D01*
X18908649Y-37527033D02*
X18775316Y-37527033D01*
X18775316Y-37527033D02*
X18708649Y-37493700D01*
X18708649Y-37493700D02*
X18641982Y-37427033D01*
X18641982Y-37427033D02*
X18608649Y-37293700D01*
X18608649Y-37293700D02*
X18608649Y-37060366D01*
X18608649Y-37060366D02*
X18641982Y-36927033D01*
X18641982Y-36927033D02*
X18708649Y-36860366D01*
X18708649Y-36860366D02*
X18775316Y-36827033D01*
X19341982Y-37327033D02*
X19675315Y-37327033D01*
X19275315Y-37527033D02*
X19508649Y-36827033D01*
X19508649Y-36827033D02*
X19741982Y-37527033D01*
X20341982Y-37527033D02*
X19941982Y-37527033D01*
X20141982Y-37527033D02*
X20141982Y-36827033D01*
X20141982Y-36827033D02*
X20075315Y-36927033D01*
X20075315Y-36927033D02*
X20008649Y-36993700D01*
X20008649Y-36993700D02*
X19941982Y-37027033D01*
X26627333Y-34987033D02*
X26227333Y-34987033D01*
X26427333Y-34987033D02*
X26427333Y-34287033D01*
X26427333Y-34287033D02*
X26360666Y-34387033D01*
X26360666Y-34387033D02*
X26294000Y-34453700D01*
X26294000Y-34453700D02*
X26227333Y-34487033D01*
X27227333Y-34520366D02*
X27227333Y-34987033D01*
X27060667Y-34253700D02*
X26894000Y-34753700D01*
X26894000Y-34753700D02*
X27327333Y-34753700D01*
X28127333Y-34987033D02*
X28127333Y-34287033D01*
X28594000Y-34287033D02*
X28727333Y-34287033D01*
X28727333Y-34287033D02*
X28794000Y-34320366D01*
X28794000Y-34320366D02*
X28860666Y-34387033D01*
X28860666Y-34387033D02*
X28894000Y-34520366D01*
X28894000Y-34520366D02*
X28894000Y-34753700D01*
X28894000Y-34753700D02*
X28860666Y-34887033D01*
X28860666Y-34887033D02*
X28794000Y-34953700D01*
X28794000Y-34953700D02*
X28727333Y-34987033D01*
X28727333Y-34987033D02*
X28594000Y-34987033D01*
X28594000Y-34987033D02*
X28527333Y-34953700D01*
X28527333Y-34953700D02*
X28460666Y-34887033D01*
X28460666Y-34887033D02*
X28427333Y-34753700D01*
X28427333Y-34753700D02*
X28427333Y-34520366D01*
X28427333Y-34520366D02*
X28460666Y-34387033D01*
X28460666Y-34387033D02*
X28527333Y-34320366D01*
X28527333Y-34320366D02*
X28594000Y-34287033D01*
X29160666Y-34787033D02*
X29493999Y-34787033D01*
X29093999Y-34987033D02*
X29327333Y-34287033D01*
X29327333Y-34287033D02*
X29560666Y-34987033D01*
X29927333Y-34287033D02*
X29993999Y-34287033D01*
X29993999Y-34287033D02*
X30060666Y-34320366D01*
X30060666Y-34320366D02*
X30093999Y-34353700D01*
X30093999Y-34353700D02*
X30127333Y-34420366D01*
X30127333Y-34420366D02*
X30160666Y-34553700D01*
X30160666Y-34553700D02*
X30160666Y-34720366D01*
X30160666Y-34720366D02*
X30127333Y-34853700D01*
X30127333Y-34853700D02*
X30093999Y-34920366D01*
X30093999Y-34920366D02*
X30060666Y-34953700D01*
X30060666Y-34953700D02*
X29993999Y-34987033D01*
X29993999Y-34987033D02*
X29927333Y-34987033D01*
X29927333Y-34987033D02*
X29860666Y-34953700D01*
X29860666Y-34953700D02*
X29827333Y-34920366D01*
X29827333Y-34920366D02*
X29793999Y-34853700D01*
X29793999Y-34853700D02*
X29760666Y-34720366D01*
X29760666Y-34720366D02*
X29760666Y-34553700D01*
X29760666Y-34553700D02*
X29793999Y-34420366D01*
X29793999Y-34420366D02*
X29827333Y-34353700D01*
X29827333Y-34353700D02*
X29860666Y-34320366D01*
X29860666Y-34320366D02*
X29927333Y-34287033D01*
X17041982Y-34987033D02*
X16641982Y-34987033D01*
X16841982Y-34987033D02*
X16841982Y-34287033D01*
X16841982Y-34287033D02*
X16775315Y-34387033D01*
X16775315Y-34387033D02*
X16708649Y-34453700D01*
X16708649Y-34453700D02*
X16641982Y-34487033D01*
X17275316Y-34287033D02*
X17708649Y-34287033D01*
X17708649Y-34287033D02*
X17475316Y-34553700D01*
X17475316Y-34553700D02*
X17575316Y-34553700D01*
X17575316Y-34553700D02*
X17641982Y-34587033D01*
X17641982Y-34587033D02*
X17675316Y-34620366D01*
X17675316Y-34620366D02*
X17708649Y-34687033D01*
X17708649Y-34687033D02*
X17708649Y-34853700D01*
X17708649Y-34853700D02*
X17675316Y-34920366D01*
X17675316Y-34920366D02*
X17641982Y-34953700D01*
X17641982Y-34953700D02*
X17575316Y-34987033D01*
X17575316Y-34987033D02*
X17375316Y-34987033D01*
X17375316Y-34987033D02*
X17308649Y-34953700D01*
X17308649Y-34953700D02*
X17275316Y-34920366D01*
X18775316Y-34620366D02*
X18875316Y-34653700D01*
X18875316Y-34653700D02*
X18908649Y-34687033D01*
X18908649Y-34687033D02*
X18941982Y-34753700D01*
X18941982Y-34753700D02*
X18941982Y-34853700D01*
X18941982Y-34853700D02*
X18908649Y-34920366D01*
X18908649Y-34920366D02*
X18875316Y-34953700D01*
X18875316Y-34953700D02*
X18808649Y-34987033D01*
X18808649Y-34987033D02*
X18541982Y-34987033D01*
X18541982Y-34987033D02*
X18541982Y-34287033D01*
X18541982Y-34287033D02*
X18775316Y-34287033D01*
X18775316Y-34287033D02*
X18841982Y-34320366D01*
X18841982Y-34320366D02*
X18875316Y-34353700D01*
X18875316Y-34353700D02*
X18908649Y-34420366D01*
X18908649Y-34420366D02*
X18908649Y-34487033D01*
X18908649Y-34487033D02*
X18875316Y-34553700D01*
X18875316Y-34553700D02*
X18841982Y-34587033D01*
X18841982Y-34587033D02*
X18775316Y-34620366D01*
X18775316Y-34620366D02*
X18541982Y-34620366D01*
X19641982Y-34987033D02*
X19408649Y-34653700D01*
X19241982Y-34987033D02*
X19241982Y-34287033D01*
X19241982Y-34287033D02*
X19508649Y-34287033D01*
X19508649Y-34287033D02*
X19575316Y-34320366D01*
X19575316Y-34320366D02*
X19608649Y-34353700D01*
X19608649Y-34353700D02*
X19641982Y-34420366D01*
X19641982Y-34420366D02*
X19641982Y-34520366D01*
X19641982Y-34520366D02*
X19608649Y-34587033D01*
X19608649Y-34587033D02*
X19575316Y-34620366D01*
X19575316Y-34620366D02*
X19508649Y-34653700D01*
X19508649Y-34653700D02*
X19241982Y-34653700D01*
X19941982Y-34987033D02*
X19941982Y-34287033D01*
X19941982Y-34287033D02*
X20108649Y-34287033D01*
X20108649Y-34287033D02*
X20208649Y-34320366D01*
X20208649Y-34320366D02*
X20275316Y-34387033D01*
X20275316Y-34387033D02*
X20308649Y-34453700D01*
X20308649Y-34453700D02*
X20341982Y-34587033D01*
X20341982Y-34587033D02*
X20341982Y-34687033D01*
X20341982Y-34687033D02*
X20308649Y-34820366D01*
X20308649Y-34820366D02*
X20275316Y-34887033D01*
X20275316Y-34887033D02*
X20208649Y-34953700D01*
X20208649Y-34953700D02*
X20108649Y-34987033D01*
X20108649Y-34987033D02*
X19941982Y-34987033D01*
X26694000Y-32447033D02*
X26294000Y-32447033D01*
X26494000Y-32447033D02*
X26494000Y-31747033D01*
X26494000Y-31747033D02*
X26427333Y-31847033D01*
X26427333Y-31847033D02*
X26360667Y-31913700D01*
X26360667Y-31913700D02*
X26294000Y-31947033D01*
X27294000Y-31747033D02*
X27160667Y-31747033D01*
X27160667Y-31747033D02*
X27094000Y-31780366D01*
X27094000Y-31780366D02*
X27060667Y-31813700D01*
X27060667Y-31813700D02*
X26994000Y-31913700D01*
X26994000Y-31913700D02*
X26960667Y-32047033D01*
X26960667Y-32047033D02*
X26960667Y-32313700D01*
X26960667Y-32313700D02*
X26994000Y-32380366D01*
X26994000Y-32380366D02*
X27027334Y-32413700D01*
X27027334Y-32413700D02*
X27094000Y-32447033D01*
X27094000Y-32447033D02*
X27227334Y-32447033D01*
X27227334Y-32447033D02*
X27294000Y-32413700D01*
X27294000Y-32413700D02*
X27327334Y-32380366D01*
X27327334Y-32380366D02*
X27360667Y-32313700D01*
X27360667Y-32313700D02*
X27360667Y-32147033D01*
X27360667Y-32147033D02*
X27327334Y-32080366D01*
X27327334Y-32080366D02*
X27294000Y-32047033D01*
X27294000Y-32047033D02*
X27227334Y-32013700D01*
X27227334Y-32013700D02*
X27094000Y-32013700D01*
X27094000Y-32013700D02*
X27027334Y-32047033D01*
X27027334Y-32047033D02*
X26994000Y-32080366D01*
X26994000Y-32080366D02*
X26960667Y-32147033D01*
X28427334Y-32080366D02*
X28527334Y-32113700D01*
X28527334Y-32113700D02*
X28560667Y-32147033D01*
X28560667Y-32147033D02*
X28594000Y-32213700D01*
X28594000Y-32213700D02*
X28594000Y-32313700D01*
X28594000Y-32313700D02*
X28560667Y-32380366D01*
X28560667Y-32380366D02*
X28527334Y-32413700D01*
X28527334Y-32413700D02*
X28460667Y-32447033D01*
X28460667Y-32447033D02*
X28194000Y-32447033D01*
X28194000Y-32447033D02*
X28194000Y-31747033D01*
X28194000Y-31747033D02*
X28427334Y-31747033D01*
X28427334Y-31747033D02*
X28494000Y-31780366D01*
X28494000Y-31780366D02*
X28527334Y-31813700D01*
X28527334Y-31813700D02*
X28560667Y-31880366D01*
X28560667Y-31880366D02*
X28560667Y-31947033D01*
X28560667Y-31947033D02*
X28527334Y-32013700D01*
X28527334Y-32013700D02*
X28494000Y-32047033D01*
X28494000Y-32047033D02*
X28427334Y-32080366D01*
X28427334Y-32080366D02*
X28194000Y-32080366D01*
X28827334Y-31747033D02*
X28994000Y-32447033D01*
X28994000Y-32447033D02*
X29127334Y-31947033D01*
X29127334Y-31947033D02*
X29260667Y-32447033D01*
X29260667Y-32447033D02*
X29427334Y-31747033D01*
X30094000Y-32447033D02*
X29860667Y-32113700D01*
X29694000Y-32447033D02*
X29694000Y-31747033D01*
X29694000Y-31747033D02*
X29960667Y-31747033D01*
X29960667Y-31747033D02*
X30027334Y-31780366D01*
X30027334Y-31780366D02*
X30060667Y-31813700D01*
X30060667Y-31813700D02*
X30094000Y-31880366D01*
X30094000Y-31880366D02*
X30094000Y-31980366D01*
X30094000Y-31980366D02*
X30060667Y-32047033D01*
X30060667Y-32047033D02*
X30027334Y-32080366D01*
X30027334Y-32080366D02*
X29960667Y-32113700D01*
X29960667Y-32113700D02*
X29694000Y-32113700D01*
X16275315Y-32447033D02*
X15875315Y-32447033D01*
X16075315Y-32447033D02*
X16075315Y-31747033D01*
X16075315Y-31747033D02*
X16008648Y-31847033D01*
X16008648Y-31847033D02*
X15941982Y-31913700D01*
X15941982Y-31913700D02*
X15875315Y-31947033D01*
X16908649Y-31747033D02*
X16575315Y-31747033D01*
X16575315Y-31747033D02*
X16541982Y-32080366D01*
X16541982Y-32080366D02*
X16575315Y-32047033D01*
X16575315Y-32047033D02*
X16641982Y-32013700D01*
X16641982Y-32013700D02*
X16808649Y-32013700D01*
X16808649Y-32013700D02*
X16875315Y-32047033D01*
X16875315Y-32047033D02*
X16908649Y-32080366D01*
X16908649Y-32080366D02*
X16941982Y-32147033D01*
X16941982Y-32147033D02*
X16941982Y-32313700D01*
X16941982Y-32313700D02*
X16908649Y-32380366D01*
X16908649Y-32380366D02*
X16875315Y-32413700D01*
X16875315Y-32413700D02*
X16808649Y-32447033D01*
X16808649Y-32447033D02*
X16641982Y-32447033D01*
X16641982Y-32447033D02*
X16575315Y-32413700D01*
X16575315Y-32413700D02*
X16541982Y-32380366D01*
X17875315Y-32047033D02*
X17808649Y-32013700D01*
X17808649Y-32013700D02*
X17775315Y-31980366D01*
X17775315Y-31980366D02*
X17741982Y-31913700D01*
X17741982Y-31913700D02*
X17741982Y-31880366D01*
X17741982Y-31880366D02*
X17775315Y-31813700D01*
X17775315Y-31813700D02*
X17808649Y-31780366D01*
X17808649Y-31780366D02*
X17875315Y-31747033D01*
X17875315Y-31747033D02*
X18008649Y-31747033D01*
X18008649Y-31747033D02*
X18075315Y-31780366D01*
X18075315Y-31780366D02*
X18108649Y-31813700D01*
X18108649Y-31813700D02*
X18141982Y-31880366D01*
X18141982Y-31880366D02*
X18141982Y-31913700D01*
X18141982Y-31913700D02*
X18108649Y-31980366D01*
X18108649Y-31980366D02*
X18075315Y-32013700D01*
X18075315Y-32013700D02*
X18008649Y-32047033D01*
X18008649Y-32047033D02*
X17875315Y-32047033D01*
X17875315Y-32047033D02*
X17808649Y-32080366D01*
X17808649Y-32080366D02*
X17775315Y-32113700D01*
X17775315Y-32113700D02*
X17741982Y-32180366D01*
X17741982Y-32180366D02*
X17741982Y-32313700D01*
X17741982Y-32313700D02*
X17775315Y-32380366D01*
X17775315Y-32380366D02*
X17808649Y-32413700D01*
X17808649Y-32413700D02*
X17875315Y-32447033D01*
X17875315Y-32447033D02*
X18008649Y-32447033D01*
X18008649Y-32447033D02*
X18075315Y-32413700D01*
X18075315Y-32413700D02*
X18108649Y-32380366D01*
X18108649Y-32380366D02*
X18141982Y-32313700D01*
X18141982Y-32313700D02*
X18141982Y-32180366D01*
X18141982Y-32180366D02*
X18108649Y-32113700D01*
X18108649Y-32113700D02*
X18075315Y-32080366D01*
X18075315Y-32080366D02*
X18008649Y-32047033D01*
X18441982Y-32447033D02*
X18441982Y-31747033D01*
X18441982Y-31747033D02*
X18675316Y-32247033D01*
X18675316Y-32247033D02*
X18908649Y-31747033D01*
X18908649Y-31747033D02*
X18908649Y-32447033D01*
X19241982Y-32447033D02*
X19241982Y-31747033D01*
X19241982Y-32080366D02*
X19641982Y-32080366D01*
X19641982Y-32447033D02*
X19641982Y-31747033D01*
X19908649Y-31747033D02*
X20375315Y-31747033D01*
X20375315Y-31747033D02*
X19908649Y-32447033D01*
X19908649Y-32447033D02*
X20375315Y-32447033D01*
X25910667Y-29907033D02*
X25510667Y-29907033D01*
X25710667Y-29907033D02*
X25710667Y-29207033D01*
X25710667Y-29207033D02*
X25644000Y-29307033D01*
X25644000Y-29307033D02*
X25577334Y-29373700D01*
X25577334Y-29373700D02*
X25510667Y-29407033D01*
X26310667Y-29507033D02*
X26244001Y-29473700D01*
X26244001Y-29473700D02*
X26210667Y-29440366D01*
X26210667Y-29440366D02*
X26177334Y-29373700D01*
X26177334Y-29373700D02*
X26177334Y-29340366D01*
X26177334Y-29340366D02*
X26210667Y-29273700D01*
X26210667Y-29273700D02*
X26244001Y-29240366D01*
X26244001Y-29240366D02*
X26310667Y-29207033D01*
X26310667Y-29207033D02*
X26444001Y-29207033D01*
X26444001Y-29207033D02*
X26510667Y-29240366D01*
X26510667Y-29240366D02*
X26544001Y-29273700D01*
X26544001Y-29273700D02*
X26577334Y-29340366D01*
X26577334Y-29340366D02*
X26577334Y-29373700D01*
X26577334Y-29373700D02*
X26544001Y-29440366D01*
X26544001Y-29440366D02*
X26510667Y-29473700D01*
X26510667Y-29473700D02*
X26444001Y-29507033D01*
X26444001Y-29507033D02*
X26310667Y-29507033D01*
X26310667Y-29507033D02*
X26244001Y-29540366D01*
X26244001Y-29540366D02*
X26210667Y-29573700D01*
X26210667Y-29573700D02*
X26177334Y-29640366D01*
X26177334Y-29640366D02*
X26177334Y-29773700D01*
X26177334Y-29773700D02*
X26210667Y-29840366D01*
X26210667Y-29840366D02*
X26244001Y-29873700D01*
X26244001Y-29873700D02*
X26310667Y-29907033D01*
X26310667Y-29907033D02*
X26444001Y-29907033D01*
X26444001Y-29907033D02*
X26510667Y-29873700D01*
X26510667Y-29873700D02*
X26544001Y-29840366D01*
X26544001Y-29840366D02*
X26577334Y-29773700D01*
X26577334Y-29773700D02*
X26577334Y-29640366D01*
X26577334Y-29640366D02*
X26544001Y-29573700D01*
X26544001Y-29573700D02*
X26510667Y-29540366D01*
X26510667Y-29540366D02*
X26444001Y-29507033D01*
X27644001Y-29540366D02*
X27744001Y-29573700D01*
X27744001Y-29573700D02*
X27777334Y-29607033D01*
X27777334Y-29607033D02*
X27810667Y-29673700D01*
X27810667Y-29673700D02*
X27810667Y-29773700D01*
X27810667Y-29773700D02*
X27777334Y-29840366D01*
X27777334Y-29840366D02*
X27744001Y-29873700D01*
X27744001Y-29873700D02*
X27677334Y-29907033D01*
X27677334Y-29907033D02*
X27410667Y-29907033D01*
X27410667Y-29907033D02*
X27410667Y-29207033D01*
X27410667Y-29207033D02*
X27644001Y-29207033D01*
X27644001Y-29207033D02*
X27710667Y-29240366D01*
X27710667Y-29240366D02*
X27744001Y-29273700D01*
X27744001Y-29273700D02*
X27777334Y-29340366D01*
X27777334Y-29340366D02*
X27777334Y-29407033D01*
X27777334Y-29407033D02*
X27744001Y-29473700D01*
X27744001Y-29473700D02*
X27710667Y-29507033D01*
X27710667Y-29507033D02*
X27644001Y-29540366D01*
X27644001Y-29540366D02*
X27410667Y-29540366D01*
X28110667Y-29907033D02*
X28110667Y-29207033D01*
X28577334Y-29207033D02*
X28710667Y-29207033D01*
X28710667Y-29207033D02*
X28777334Y-29240366D01*
X28777334Y-29240366D02*
X28844000Y-29307033D01*
X28844000Y-29307033D02*
X28877334Y-29440366D01*
X28877334Y-29440366D02*
X28877334Y-29673700D01*
X28877334Y-29673700D02*
X28844000Y-29807033D01*
X28844000Y-29807033D02*
X28777334Y-29873700D01*
X28777334Y-29873700D02*
X28710667Y-29907033D01*
X28710667Y-29907033D02*
X28577334Y-29907033D01*
X28577334Y-29907033D02*
X28510667Y-29873700D01*
X28510667Y-29873700D02*
X28444000Y-29807033D01*
X28444000Y-29807033D02*
X28410667Y-29673700D01*
X28410667Y-29673700D02*
X28410667Y-29440366D01*
X28410667Y-29440366D02*
X28444000Y-29307033D01*
X28444000Y-29307033D02*
X28510667Y-29240366D01*
X28510667Y-29240366D02*
X28577334Y-29207033D01*
X29577333Y-29907033D02*
X29344000Y-29573700D01*
X29177333Y-29907033D02*
X29177333Y-29207033D01*
X29177333Y-29207033D02*
X29444000Y-29207033D01*
X29444000Y-29207033D02*
X29510667Y-29240366D01*
X29510667Y-29240366D02*
X29544000Y-29273700D01*
X29544000Y-29273700D02*
X29577333Y-29340366D01*
X29577333Y-29340366D02*
X29577333Y-29440366D01*
X29577333Y-29440366D02*
X29544000Y-29507033D01*
X29544000Y-29507033D02*
X29510667Y-29540366D01*
X29510667Y-29540366D02*
X29444000Y-29573700D01*
X29444000Y-29573700D02*
X29177333Y-29573700D01*
X29877333Y-29540366D02*
X30110667Y-29540366D01*
X30210667Y-29907033D02*
X29877333Y-29907033D01*
X29877333Y-29907033D02*
X29877333Y-29207033D01*
X29877333Y-29207033D02*
X30210667Y-29207033D01*
X30477333Y-29873700D02*
X30577333Y-29907033D01*
X30577333Y-29907033D02*
X30744000Y-29907033D01*
X30744000Y-29907033D02*
X30810666Y-29873700D01*
X30810666Y-29873700D02*
X30844000Y-29840366D01*
X30844000Y-29840366D02*
X30877333Y-29773700D01*
X30877333Y-29773700D02*
X30877333Y-29707033D01*
X30877333Y-29707033D02*
X30844000Y-29640366D01*
X30844000Y-29640366D02*
X30810666Y-29607033D01*
X30810666Y-29607033D02*
X30744000Y-29573700D01*
X30744000Y-29573700D02*
X30610666Y-29540366D01*
X30610666Y-29540366D02*
X30544000Y-29507033D01*
X30544000Y-29507033D02*
X30510666Y-29473700D01*
X30510666Y-29473700D02*
X30477333Y-29407033D01*
X30477333Y-29407033D02*
X30477333Y-29340366D01*
X30477333Y-29340366D02*
X30510666Y-29273700D01*
X30510666Y-29273700D02*
X30544000Y-29240366D01*
X30544000Y-29240366D02*
X30610666Y-29207033D01*
X30610666Y-29207033D02*
X30777333Y-29207033D01*
X30777333Y-29207033D02*
X30877333Y-29240366D01*
X17408649Y-29907033D02*
X17008649Y-29907033D01*
X17208649Y-29907033D02*
X17208649Y-29207033D01*
X17208649Y-29207033D02*
X17141982Y-29307033D01*
X17141982Y-29307033D02*
X17075316Y-29373700D01*
X17075316Y-29373700D02*
X17008649Y-29407033D01*
X17641983Y-29207033D02*
X18108649Y-29207033D01*
X18108649Y-29207033D02*
X17808649Y-29907033D01*
X18908649Y-29907033D02*
X18908649Y-29207033D01*
X19375316Y-29207033D02*
X19508649Y-29207033D01*
X19508649Y-29207033D02*
X19575316Y-29240366D01*
X19575316Y-29240366D02*
X19641982Y-29307033D01*
X19641982Y-29307033D02*
X19675316Y-29440366D01*
X19675316Y-29440366D02*
X19675316Y-29673700D01*
X19675316Y-29673700D02*
X19641982Y-29807033D01*
X19641982Y-29807033D02*
X19575316Y-29873700D01*
X19575316Y-29873700D02*
X19508649Y-29907033D01*
X19508649Y-29907033D02*
X19375316Y-29907033D01*
X19375316Y-29907033D02*
X19308649Y-29873700D01*
X19308649Y-29873700D02*
X19241982Y-29807033D01*
X19241982Y-29807033D02*
X19208649Y-29673700D01*
X19208649Y-29673700D02*
X19208649Y-29440366D01*
X19208649Y-29440366D02*
X19241982Y-29307033D01*
X19241982Y-29307033D02*
X19308649Y-29240366D01*
X19308649Y-29240366D02*
X19375316Y-29207033D01*
X19908649Y-29207033D02*
X20341982Y-29207033D01*
X20341982Y-29207033D02*
X20108649Y-29473700D01*
X20108649Y-29473700D02*
X20208649Y-29473700D01*
X20208649Y-29473700D02*
X20275315Y-29507033D01*
X20275315Y-29507033D02*
X20308649Y-29540366D01*
X20308649Y-29540366D02*
X20341982Y-29607033D01*
X20341982Y-29607033D02*
X20341982Y-29773700D01*
X20341982Y-29773700D02*
X20308649Y-29840366D01*
X20308649Y-29840366D02*
X20275315Y-29873700D01*
X20275315Y-29873700D02*
X20208649Y-29907033D01*
X20208649Y-29907033D02*
X20008649Y-29907033D01*
X20008649Y-29907033D02*
X19941982Y-29873700D01*
X19941982Y-29873700D02*
X19908649Y-29840366D01*
X26527333Y-26733700D02*
X26560666Y-26700366D01*
X26560666Y-26700366D02*
X26627333Y-26667033D01*
X26627333Y-26667033D02*
X26794000Y-26667033D01*
X26794000Y-26667033D02*
X26860666Y-26700366D01*
X26860666Y-26700366D02*
X26894000Y-26733700D01*
X26894000Y-26733700D02*
X26927333Y-26800366D01*
X26927333Y-26800366D02*
X26927333Y-26867033D01*
X26927333Y-26867033D02*
X26894000Y-26967033D01*
X26894000Y-26967033D02*
X26494000Y-27367033D01*
X26494000Y-27367033D02*
X26927333Y-27367033D01*
X27360667Y-26667033D02*
X27427333Y-26667033D01*
X27427333Y-26667033D02*
X27494000Y-26700366D01*
X27494000Y-26700366D02*
X27527333Y-26733700D01*
X27527333Y-26733700D02*
X27560667Y-26800366D01*
X27560667Y-26800366D02*
X27594000Y-26933700D01*
X27594000Y-26933700D02*
X27594000Y-27100366D01*
X27594000Y-27100366D02*
X27560667Y-27233700D01*
X27560667Y-27233700D02*
X27527333Y-27300366D01*
X27527333Y-27300366D02*
X27494000Y-27333700D01*
X27494000Y-27333700D02*
X27427333Y-27367033D01*
X27427333Y-27367033D02*
X27360667Y-27367033D01*
X27360667Y-27367033D02*
X27294000Y-27333700D01*
X27294000Y-27333700D02*
X27260667Y-27300366D01*
X27260667Y-27300366D02*
X27227333Y-27233700D01*
X27227333Y-27233700D02*
X27194000Y-27100366D01*
X27194000Y-27100366D02*
X27194000Y-26933700D01*
X27194000Y-26933700D02*
X27227333Y-26800366D01*
X27227333Y-26800366D02*
X27260667Y-26733700D01*
X27260667Y-26733700D02*
X27294000Y-26700366D01*
X27294000Y-26700366D02*
X27360667Y-26667033D01*
X28427333Y-27367033D02*
X28427333Y-26667033D01*
X28894000Y-26667033D02*
X29027333Y-26667033D01*
X29027333Y-26667033D02*
X29094000Y-26700366D01*
X29094000Y-26700366D02*
X29160666Y-26767033D01*
X29160666Y-26767033D02*
X29194000Y-26900366D01*
X29194000Y-26900366D02*
X29194000Y-27133700D01*
X29194000Y-27133700D02*
X29160666Y-27267033D01*
X29160666Y-27267033D02*
X29094000Y-27333700D01*
X29094000Y-27333700D02*
X29027333Y-27367033D01*
X29027333Y-27367033D02*
X28894000Y-27367033D01*
X28894000Y-27367033D02*
X28827333Y-27333700D01*
X28827333Y-27333700D02*
X28760666Y-27267033D01*
X28760666Y-27267033D02*
X28727333Y-27133700D01*
X28727333Y-27133700D02*
X28727333Y-26900366D01*
X28727333Y-26900366D02*
X28760666Y-26767033D01*
X28760666Y-26767033D02*
X28827333Y-26700366D01*
X28827333Y-26700366D02*
X28894000Y-26667033D01*
X29793999Y-26900366D02*
X29793999Y-27367033D01*
X29627333Y-26633700D02*
X29460666Y-27133700D01*
X29460666Y-27133700D02*
X29893999Y-27133700D01*
X17408649Y-27367033D02*
X17008649Y-27367033D01*
X17208649Y-27367033D02*
X17208649Y-26667033D01*
X17208649Y-26667033D02*
X17141982Y-26767033D01*
X17141982Y-26767033D02*
X17075316Y-26833700D01*
X17075316Y-26833700D02*
X17008649Y-26867033D01*
X17741983Y-27367033D02*
X17875316Y-27367033D01*
X17875316Y-27367033D02*
X17941983Y-27333700D01*
X17941983Y-27333700D02*
X17975316Y-27300366D01*
X17975316Y-27300366D02*
X18041983Y-27200366D01*
X18041983Y-27200366D02*
X18075316Y-27067033D01*
X18075316Y-27067033D02*
X18075316Y-26800366D01*
X18075316Y-26800366D02*
X18041983Y-26733700D01*
X18041983Y-26733700D02*
X18008649Y-26700366D01*
X18008649Y-26700366D02*
X17941983Y-26667033D01*
X17941983Y-26667033D02*
X17808649Y-26667033D01*
X17808649Y-26667033D02*
X17741983Y-26700366D01*
X17741983Y-26700366D02*
X17708649Y-26733700D01*
X17708649Y-26733700D02*
X17675316Y-26800366D01*
X17675316Y-26800366D02*
X17675316Y-26967033D01*
X17675316Y-26967033D02*
X17708649Y-27033700D01*
X17708649Y-27033700D02*
X17741983Y-27067033D01*
X17741983Y-27067033D02*
X17808649Y-27100366D01*
X17808649Y-27100366D02*
X17941983Y-27100366D01*
X17941983Y-27100366D02*
X18008649Y-27067033D01*
X18008649Y-27067033D02*
X18041983Y-27033700D01*
X18041983Y-27033700D02*
X18075316Y-26967033D01*
X18908649Y-27367033D02*
X18908649Y-26667033D01*
X19375316Y-26667033D02*
X19508649Y-26667033D01*
X19508649Y-26667033D02*
X19575316Y-26700366D01*
X19575316Y-26700366D02*
X19641982Y-26767033D01*
X19641982Y-26767033D02*
X19675316Y-26900366D01*
X19675316Y-26900366D02*
X19675316Y-27133700D01*
X19675316Y-27133700D02*
X19641982Y-27267033D01*
X19641982Y-27267033D02*
X19575316Y-27333700D01*
X19575316Y-27333700D02*
X19508649Y-27367033D01*
X19508649Y-27367033D02*
X19375316Y-27367033D01*
X19375316Y-27367033D02*
X19308649Y-27333700D01*
X19308649Y-27333700D02*
X19241982Y-27267033D01*
X19241982Y-27267033D02*
X19208649Y-27133700D01*
X19208649Y-27133700D02*
X19208649Y-26900366D01*
X19208649Y-26900366D02*
X19241982Y-26767033D01*
X19241982Y-26767033D02*
X19308649Y-26700366D01*
X19308649Y-26700366D02*
X19375316Y-26667033D01*
X19941982Y-26733700D02*
X19975315Y-26700366D01*
X19975315Y-26700366D02*
X20041982Y-26667033D01*
X20041982Y-26667033D02*
X20208649Y-26667033D01*
X20208649Y-26667033D02*
X20275315Y-26700366D01*
X20275315Y-26700366D02*
X20308649Y-26733700D01*
X20308649Y-26733700D02*
X20341982Y-26800366D01*
X20341982Y-26800366D02*
X20341982Y-26867033D01*
X20341982Y-26867033D02*
X20308649Y-26967033D01*
X20308649Y-26967033D02*
X19908649Y-27367033D01*
X19908649Y-27367033D02*
X20341982Y-27367033D01*
X26527333Y-24193700D02*
X26560666Y-24160366D01*
X26560666Y-24160366D02*
X26627333Y-24127033D01*
X26627333Y-24127033D02*
X26794000Y-24127033D01*
X26794000Y-24127033D02*
X26860666Y-24160366D01*
X26860666Y-24160366D02*
X26894000Y-24193700D01*
X26894000Y-24193700D02*
X26927333Y-24260366D01*
X26927333Y-24260366D02*
X26927333Y-24327033D01*
X26927333Y-24327033D02*
X26894000Y-24427033D01*
X26894000Y-24427033D02*
X26494000Y-24827033D01*
X26494000Y-24827033D02*
X26927333Y-24827033D01*
X27194000Y-24193700D02*
X27227333Y-24160366D01*
X27227333Y-24160366D02*
X27294000Y-24127033D01*
X27294000Y-24127033D02*
X27460667Y-24127033D01*
X27460667Y-24127033D02*
X27527333Y-24160366D01*
X27527333Y-24160366D02*
X27560667Y-24193700D01*
X27560667Y-24193700D02*
X27594000Y-24260366D01*
X27594000Y-24260366D02*
X27594000Y-24327033D01*
X27594000Y-24327033D02*
X27560667Y-24427033D01*
X27560667Y-24427033D02*
X27160667Y-24827033D01*
X27160667Y-24827033D02*
X27594000Y-24827033D01*
X28427333Y-24827033D02*
X28427333Y-24127033D01*
X28894000Y-24127033D02*
X29027333Y-24127033D01*
X29027333Y-24127033D02*
X29094000Y-24160366D01*
X29094000Y-24160366D02*
X29160666Y-24227033D01*
X29160666Y-24227033D02*
X29194000Y-24360366D01*
X29194000Y-24360366D02*
X29194000Y-24593700D01*
X29194000Y-24593700D02*
X29160666Y-24727033D01*
X29160666Y-24727033D02*
X29094000Y-24793700D01*
X29094000Y-24793700D02*
X29027333Y-24827033D01*
X29027333Y-24827033D02*
X28894000Y-24827033D01*
X28894000Y-24827033D02*
X28827333Y-24793700D01*
X28827333Y-24793700D02*
X28760666Y-24727033D01*
X28760666Y-24727033D02*
X28727333Y-24593700D01*
X28727333Y-24593700D02*
X28727333Y-24360366D01*
X28727333Y-24360366D02*
X28760666Y-24227033D01*
X28760666Y-24227033D02*
X28827333Y-24160366D01*
X28827333Y-24160366D02*
X28894000Y-24127033D01*
X29827333Y-24127033D02*
X29493999Y-24127033D01*
X29493999Y-24127033D02*
X29460666Y-24460366D01*
X29460666Y-24460366D02*
X29493999Y-24427033D01*
X29493999Y-24427033D02*
X29560666Y-24393700D01*
X29560666Y-24393700D02*
X29727333Y-24393700D01*
X29727333Y-24393700D02*
X29793999Y-24427033D01*
X29793999Y-24427033D02*
X29827333Y-24460366D01*
X29827333Y-24460366D02*
X29860666Y-24527033D01*
X29860666Y-24527033D02*
X29860666Y-24693700D01*
X29860666Y-24693700D02*
X29827333Y-24760366D01*
X29827333Y-24760366D02*
X29793999Y-24793700D01*
X29793999Y-24793700D02*
X29727333Y-24827033D01*
X29727333Y-24827033D02*
X29560666Y-24827033D01*
X29560666Y-24827033D02*
X29493999Y-24793700D01*
X29493999Y-24793700D02*
X29460666Y-24760366D01*
X16608649Y-24193700D02*
X16641982Y-24160366D01*
X16641982Y-24160366D02*
X16708649Y-24127033D01*
X16708649Y-24127033D02*
X16875316Y-24127033D01*
X16875316Y-24127033D02*
X16941982Y-24160366D01*
X16941982Y-24160366D02*
X16975316Y-24193700D01*
X16975316Y-24193700D02*
X17008649Y-24260366D01*
X17008649Y-24260366D02*
X17008649Y-24327033D01*
X17008649Y-24327033D02*
X16975316Y-24427033D01*
X16975316Y-24427033D02*
X16575316Y-24827033D01*
X16575316Y-24827033D02*
X17008649Y-24827033D01*
X17675316Y-24827033D02*
X17275316Y-24827033D01*
X17475316Y-24827033D02*
X17475316Y-24127033D01*
X17475316Y-24127033D02*
X17408649Y-24227033D01*
X17408649Y-24227033D02*
X17341983Y-24293700D01*
X17341983Y-24293700D02*
X17275316Y-24327033D01*
X18875316Y-24160366D02*
X18808649Y-24127033D01*
X18808649Y-24127033D02*
X18708649Y-24127033D01*
X18708649Y-24127033D02*
X18608649Y-24160366D01*
X18608649Y-24160366D02*
X18541983Y-24227033D01*
X18541983Y-24227033D02*
X18508649Y-24293700D01*
X18508649Y-24293700D02*
X18475316Y-24427033D01*
X18475316Y-24427033D02*
X18475316Y-24527033D01*
X18475316Y-24527033D02*
X18508649Y-24660366D01*
X18508649Y-24660366D02*
X18541983Y-24727033D01*
X18541983Y-24727033D02*
X18608649Y-24793700D01*
X18608649Y-24793700D02*
X18708649Y-24827033D01*
X18708649Y-24827033D02*
X18775316Y-24827033D01*
X18775316Y-24827033D02*
X18875316Y-24793700D01*
X18875316Y-24793700D02*
X18908649Y-24760366D01*
X18908649Y-24760366D02*
X18908649Y-24527033D01*
X18908649Y-24527033D02*
X18775316Y-24527033D01*
X19208649Y-24827033D02*
X19208649Y-24127033D01*
X19208649Y-24127033D02*
X19608649Y-24827033D01*
X19608649Y-24827033D02*
X19608649Y-24127033D01*
X19941982Y-24827033D02*
X19941982Y-24127033D01*
X19941982Y-24127033D02*
X20108649Y-24127033D01*
X20108649Y-24127033D02*
X20208649Y-24160366D01*
X20208649Y-24160366D02*
X20275316Y-24227033D01*
X20275316Y-24227033D02*
X20308649Y-24293700D01*
X20308649Y-24293700D02*
X20341982Y-24427033D01*
X20341982Y-24427033D02*
X20341982Y-24527033D01*
X20341982Y-24527033D02*
X20308649Y-24660366D01*
X20308649Y-24660366D02*
X20275316Y-24727033D01*
X20275316Y-24727033D02*
X20208649Y-24793700D01*
X20208649Y-24793700D02*
X20108649Y-24827033D01*
X20108649Y-24827033D02*
X19941982Y-24827033D01*
X26527333Y-21653700D02*
X26560666Y-21620366D01*
X26560666Y-21620366D02*
X26627333Y-21587033D01*
X26627333Y-21587033D02*
X26794000Y-21587033D01*
X26794000Y-21587033D02*
X26860666Y-21620366D01*
X26860666Y-21620366D02*
X26894000Y-21653700D01*
X26894000Y-21653700D02*
X26927333Y-21720366D01*
X26927333Y-21720366D02*
X26927333Y-21787033D01*
X26927333Y-21787033D02*
X26894000Y-21887033D01*
X26894000Y-21887033D02*
X26494000Y-22287033D01*
X26494000Y-22287033D02*
X26927333Y-22287033D01*
X27527333Y-21820366D02*
X27527333Y-22287033D01*
X27360667Y-21553700D02*
X27194000Y-22053700D01*
X27194000Y-22053700D02*
X27627333Y-22053700D01*
X28427333Y-22287033D02*
X28427333Y-21587033D01*
X28894000Y-21587033D02*
X29027333Y-21587033D01*
X29027333Y-21587033D02*
X29094000Y-21620366D01*
X29094000Y-21620366D02*
X29160666Y-21687033D01*
X29160666Y-21687033D02*
X29194000Y-21820366D01*
X29194000Y-21820366D02*
X29194000Y-22053700D01*
X29194000Y-22053700D02*
X29160666Y-22187033D01*
X29160666Y-22187033D02*
X29094000Y-22253700D01*
X29094000Y-22253700D02*
X29027333Y-22287033D01*
X29027333Y-22287033D02*
X28894000Y-22287033D01*
X28894000Y-22287033D02*
X28827333Y-22253700D01*
X28827333Y-22253700D02*
X28760666Y-22187033D01*
X28760666Y-22187033D02*
X28727333Y-22053700D01*
X28727333Y-22053700D02*
X28727333Y-21820366D01*
X28727333Y-21820366D02*
X28760666Y-21687033D01*
X28760666Y-21687033D02*
X28827333Y-21620366D01*
X28827333Y-21620366D02*
X28894000Y-21587033D01*
X29860666Y-22287033D02*
X29460666Y-22287033D01*
X29660666Y-22287033D02*
X29660666Y-21587033D01*
X29660666Y-21587033D02*
X29593999Y-21687033D01*
X29593999Y-21687033D02*
X29527333Y-21753700D01*
X29527333Y-21753700D02*
X29460666Y-21787033D01*
X17008649Y-21653700D02*
X17041982Y-21620366D01*
X17041982Y-21620366D02*
X17108649Y-21587033D01*
X17108649Y-21587033D02*
X17275316Y-21587033D01*
X17275316Y-21587033D02*
X17341982Y-21620366D01*
X17341982Y-21620366D02*
X17375316Y-21653700D01*
X17375316Y-21653700D02*
X17408649Y-21720366D01*
X17408649Y-21720366D02*
X17408649Y-21787033D01*
X17408649Y-21787033D02*
X17375316Y-21887033D01*
X17375316Y-21887033D02*
X16975316Y-22287033D01*
X16975316Y-22287033D02*
X17408649Y-22287033D01*
X17641983Y-21587033D02*
X18075316Y-21587033D01*
X18075316Y-21587033D02*
X17841983Y-21853700D01*
X17841983Y-21853700D02*
X17941983Y-21853700D01*
X17941983Y-21853700D02*
X18008649Y-21887033D01*
X18008649Y-21887033D02*
X18041983Y-21920366D01*
X18041983Y-21920366D02*
X18075316Y-21987033D01*
X18075316Y-21987033D02*
X18075316Y-22153700D01*
X18075316Y-22153700D02*
X18041983Y-22220366D01*
X18041983Y-22220366D02*
X18008649Y-22253700D01*
X18008649Y-22253700D02*
X17941983Y-22287033D01*
X17941983Y-22287033D02*
X17741983Y-22287033D01*
X17741983Y-22287033D02*
X17675316Y-22253700D01*
X17675316Y-22253700D02*
X17641983Y-22220366D01*
X18908649Y-22287033D02*
X18908649Y-21587033D01*
X19375316Y-21587033D02*
X19508649Y-21587033D01*
X19508649Y-21587033D02*
X19575316Y-21620366D01*
X19575316Y-21620366D02*
X19641982Y-21687033D01*
X19641982Y-21687033D02*
X19675316Y-21820366D01*
X19675316Y-21820366D02*
X19675316Y-22053700D01*
X19675316Y-22053700D02*
X19641982Y-22187033D01*
X19641982Y-22187033D02*
X19575316Y-22253700D01*
X19575316Y-22253700D02*
X19508649Y-22287033D01*
X19508649Y-22287033D02*
X19375316Y-22287033D01*
X19375316Y-22287033D02*
X19308649Y-22253700D01*
X19308649Y-22253700D02*
X19241982Y-22187033D01*
X19241982Y-22187033D02*
X19208649Y-22053700D01*
X19208649Y-22053700D02*
X19208649Y-21820366D01*
X19208649Y-21820366D02*
X19241982Y-21687033D01*
X19241982Y-21687033D02*
X19308649Y-21620366D01*
X19308649Y-21620366D02*
X19375316Y-21587033D01*
X20275315Y-21587033D02*
X20141982Y-21587033D01*
X20141982Y-21587033D02*
X20075315Y-21620366D01*
X20075315Y-21620366D02*
X20041982Y-21653700D01*
X20041982Y-21653700D02*
X19975315Y-21753700D01*
X19975315Y-21753700D02*
X19941982Y-21887033D01*
X19941982Y-21887033D02*
X19941982Y-22153700D01*
X19941982Y-22153700D02*
X19975315Y-22220366D01*
X19975315Y-22220366D02*
X20008649Y-22253700D01*
X20008649Y-22253700D02*
X20075315Y-22287033D01*
X20075315Y-22287033D02*
X20208649Y-22287033D01*
X20208649Y-22287033D02*
X20275315Y-22253700D01*
X20275315Y-22253700D02*
X20308649Y-22220366D01*
X20308649Y-22220366D02*
X20341982Y-22153700D01*
X20341982Y-22153700D02*
X20341982Y-21987033D01*
X20341982Y-21987033D02*
X20308649Y-21920366D01*
X20308649Y-21920366D02*
X20275315Y-21887033D01*
X20275315Y-21887033D02*
X20208649Y-21853700D01*
X20208649Y-21853700D02*
X20075315Y-21853700D01*
X20075315Y-21853700D02*
X20008649Y-21887033D01*
X20008649Y-21887033D02*
X19975315Y-21920366D01*
X19975315Y-21920366D02*
X19941982Y-21987033D01*
X25993999Y-19113700D02*
X26027332Y-19080366D01*
X26027332Y-19080366D02*
X26093999Y-19047033D01*
X26093999Y-19047033D02*
X26260666Y-19047033D01*
X26260666Y-19047033D02*
X26327332Y-19080366D01*
X26327332Y-19080366D02*
X26360666Y-19113700D01*
X26360666Y-19113700D02*
X26393999Y-19180366D01*
X26393999Y-19180366D02*
X26393999Y-19247033D01*
X26393999Y-19247033D02*
X26360666Y-19347033D01*
X26360666Y-19347033D02*
X25960666Y-19747033D01*
X25960666Y-19747033D02*
X26393999Y-19747033D01*
X26993999Y-19047033D02*
X26860666Y-19047033D01*
X26860666Y-19047033D02*
X26793999Y-19080366D01*
X26793999Y-19080366D02*
X26760666Y-19113700D01*
X26760666Y-19113700D02*
X26693999Y-19213700D01*
X26693999Y-19213700D02*
X26660666Y-19347033D01*
X26660666Y-19347033D02*
X26660666Y-19613700D01*
X26660666Y-19613700D02*
X26693999Y-19680366D01*
X26693999Y-19680366D02*
X26727333Y-19713700D01*
X26727333Y-19713700D02*
X26793999Y-19747033D01*
X26793999Y-19747033D02*
X26927333Y-19747033D01*
X26927333Y-19747033D02*
X26993999Y-19713700D01*
X26993999Y-19713700D02*
X27027333Y-19680366D01*
X27027333Y-19680366D02*
X27060666Y-19613700D01*
X27060666Y-19613700D02*
X27060666Y-19447033D01*
X27060666Y-19447033D02*
X27027333Y-19380366D01*
X27027333Y-19380366D02*
X26993999Y-19347033D01*
X26993999Y-19347033D02*
X26927333Y-19313700D01*
X26927333Y-19313700D02*
X26793999Y-19313700D01*
X26793999Y-19313700D02*
X26727333Y-19347033D01*
X26727333Y-19347033D02*
X26693999Y-19380366D01*
X26693999Y-19380366D02*
X26660666Y-19447033D01*
X27893999Y-19480366D02*
X28427333Y-19480366D01*
X29127333Y-19747033D02*
X28727333Y-19747033D01*
X28927333Y-19747033D02*
X28927333Y-19047033D01*
X28927333Y-19047033D02*
X28860666Y-19147033D01*
X28860666Y-19147033D02*
X28794000Y-19213700D01*
X28794000Y-19213700D02*
X28727333Y-19247033D01*
X29394000Y-19113700D02*
X29427333Y-19080366D01*
X29427333Y-19080366D02*
X29494000Y-19047033D01*
X29494000Y-19047033D02*
X29660667Y-19047033D01*
X29660667Y-19047033D02*
X29727333Y-19080366D01*
X29727333Y-19080366D02*
X29760667Y-19113700D01*
X29760667Y-19113700D02*
X29794000Y-19180366D01*
X29794000Y-19180366D02*
X29794000Y-19247033D01*
X29794000Y-19247033D02*
X29760667Y-19347033D01*
X29760667Y-19347033D02*
X29360667Y-19747033D01*
X29360667Y-19747033D02*
X29794000Y-19747033D01*
X29994000Y-19047033D02*
X30227334Y-19747033D01*
X30227334Y-19747033D02*
X30460667Y-19047033D01*
X17008649Y-19113700D02*
X17041982Y-19080366D01*
X17041982Y-19080366D02*
X17108649Y-19047033D01*
X17108649Y-19047033D02*
X17275316Y-19047033D01*
X17275316Y-19047033D02*
X17341982Y-19080366D01*
X17341982Y-19080366D02*
X17375316Y-19113700D01*
X17375316Y-19113700D02*
X17408649Y-19180366D01*
X17408649Y-19180366D02*
X17408649Y-19247033D01*
X17408649Y-19247033D02*
X17375316Y-19347033D01*
X17375316Y-19347033D02*
X16975316Y-19747033D01*
X16975316Y-19747033D02*
X17408649Y-19747033D01*
X18041983Y-19047033D02*
X17708649Y-19047033D01*
X17708649Y-19047033D02*
X17675316Y-19380366D01*
X17675316Y-19380366D02*
X17708649Y-19347033D01*
X17708649Y-19347033D02*
X17775316Y-19313700D01*
X17775316Y-19313700D02*
X17941983Y-19313700D01*
X17941983Y-19313700D02*
X18008649Y-19347033D01*
X18008649Y-19347033D02*
X18041983Y-19380366D01*
X18041983Y-19380366D02*
X18075316Y-19447033D01*
X18075316Y-19447033D02*
X18075316Y-19613700D01*
X18075316Y-19613700D02*
X18041983Y-19680366D01*
X18041983Y-19680366D02*
X18008649Y-19713700D01*
X18008649Y-19713700D02*
X17941983Y-19747033D01*
X17941983Y-19747033D02*
X17775316Y-19747033D01*
X17775316Y-19747033D02*
X17708649Y-19713700D01*
X17708649Y-19713700D02*
X17675316Y-19680366D01*
X18908649Y-19747033D02*
X18908649Y-19047033D01*
X19375316Y-19047033D02*
X19508649Y-19047033D01*
X19508649Y-19047033D02*
X19575316Y-19080366D01*
X19575316Y-19080366D02*
X19641982Y-19147033D01*
X19641982Y-19147033D02*
X19675316Y-19280366D01*
X19675316Y-19280366D02*
X19675316Y-19513700D01*
X19675316Y-19513700D02*
X19641982Y-19647033D01*
X19641982Y-19647033D02*
X19575316Y-19713700D01*
X19575316Y-19713700D02*
X19508649Y-19747033D01*
X19508649Y-19747033D02*
X19375316Y-19747033D01*
X19375316Y-19747033D02*
X19308649Y-19713700D01*
X19308649Y-19713700D02*
X19241982Y-19647033D01*
X19241982Y-19647033D02*
X19208649Y-19513700D01*
X19208649Y-19513700D02*
X19208649Y-19280366D01*
X19208649Y-19280366D02*
X19241982Y-19147033D01*
X19241982Y-19147033D02*
X19308649Y-19080366D01*
X19308649Y-19080366D02*
X19375316Y-19047033D01*
X20108649Y-19047033D02*
X20175315Y-19047033D01*
X20175315Y-19047033D02*
X20241982Y-19080366D01*
X20241982Y-19080366D02*
X20275315Y-19113700D01*
X20275315Y-19113700D02*
X20308649Y-19180366D01*
X20308649Y-19180366D02*
X20341982Y-19313700D01*
X20341982Y-19313700D02*
X20341982Y-19480366D01*
X20341982Y-19480366D02*
X20308649Y-19613700D01*
X20308649Y-19613700D02*
X20275315Y-19680366D01*
X20275315Y-19680366D02*
X20241982Y-19713700D01*
X20241982Y-19713700D02*
X20175315Y-19747033D01*
X20175315Y-19747033D02*
X20108649Y-19747033D01*
X20108649Y-19747033D02*
X20041982Y-19713700D01*
X20041982Y-19713700D02*
X20008649Y-19680366D01*
X20008649Y-19680366D02*
X19975315Y-19613700D01*
X19975315Y-19613700D02*
X19941982Y-19480366D01*
X19941982Y-19480366D02*
X19941982Y-19313700D01*
X19941982Y-19313700D02*
X19975315Y-19180366D01*
X19975315Y-19180366D02*
X20008649Y-19113700D01*
X20008649Y-19113700D02*
X20041982Y-19080366D01*
X20041982Y-19080366D02*
X20108649Y-19047033D01*
X26527333Y-16573700D02*
X26560666Y-16540366D01*
X26560666Y-16540366D02*
X26627333Y-16507033D01*
X26627333Y-16507033D02*
X26794000Y-16507033D01*
X26794000Y-16507033D02*
X26860666Y-16540366D01*
X26860666Y-16540366D02*
X26894000Y-16573700D01*
X26894000Y-16573700D02*
X26927333Y-16640366D01*
X26927333Y-16640366D02*
X26927333Y-16707033D01*
X26927333Y-16707033D02*
X26894000Y-16807033D01*
X26894000Y-16807033D02*
X26494000Y-17207033D01*
X26494000Y-17207033D02*
X26927333Y-17207033D01*
X27327333Y-16807033D02*
X27260667Y-16773700D01*
X27260667Y-16773700D02*
X27227333Y-16740366D01*
X27227333Y-16740366D02*
X27194000Y-16673700D01*
X27194000Y-16673700D02*
X27194000Y-16640366D01*
X27194000Y-16640366D02*
X27227333Y-16573700D01*
X27227333Y-16573700D02*
X27260667Y-16540366D01*
X27260667Y-16540366D02*
X27327333Y-16507033D01*
X27327333Y-16507033D02*
X27460667Y-16507033D01*
X27460667Y-16507033D02*
X27527333Y-16540366D01*
X27527333Y-16540366D02*
X27560667Y-16573700D01*
X27560667Y-16573700D02*
X27594000Y-16640366D01*
X27594000Y-16640366D02*
X27594000Y-16673700D01*
X27594000Y-16673700D02*
X27560667Y-16740366D01*
X27560667Y-16740366D02*
X27527333Y-16773700D01*
X27527333Y-16773700D02*
X27460667Y-16807033D01*
X27460667Y-16807033D02*
X27327333Y-16807033D01*
X27327333Y-16807033D02*
X27260667Y-16840366D01*
X27260667Y-16840366D02*
X27227333Y-16873700D01*
X27227333Y-16873700D02*
X27194000Y-16940366D01*
X27194000Y-16940366D02*
X27194000Y-17073700D01*
X27194000Y-17073700D02*
X27227333Y-17140366D01*
X27227333Y-17140366D02*
X27260667Y-17173700D01*
X27260667Y-17173700D02*
X27327333Y-17207033D01*
X27327333Y-17207033D02*
X27460667Y-17207033D01*
X27460667Y-17207033D02*
X27527333Y-17173700D01*
X27527333Y-17173700D02*
X27560667Y-17140366D01*
X27560667Y-17140366D02*
X27594000Y-17073700D01*
X27594000Y-17073700D02*
X27594000Y-16940366D01*
X27594000Y-16940366D02*
X27560667Y-16873700D01*
X27560667Y-16873700D02*
X27527333Y-16840366D01*
X27527333Y-16840366D02*
X27460667Y-16807033D01*
X28427333Y-17207033D02*
X28427333Y-16507033D01*
X28894000Y-16507033D02*
X29027333Y-16507033D01*
X29027333Y-16507033D02*
X29094000Y-16540366D01*
X29094000Y-16540366D02*
X29160666Y-16607033D01*
X29160666Y-16607033D02*
X29194000Y-16740366D01*
X29194000Y-16740366D02*
X29194000Y-16973700D01*
X29194000Y-16973700D02*
X29160666Y-17107033D01*
X29160666Y-17107033D02*
X29094000Y-17173700D01*
X29094000Y-17173700D02*
X29027333Y-17207033D01*
X29027333Y-17207033D02*
X28894000Y-17207033D01*
X28894000Y-17207033D02*
X28827333Y-17173700D01*
X28827333Y-17173700D02*
X28760666Y-17107033D01*
X28760666Y-17107033D02*
X28727333Y-16973700D01*
X28727333Y-16973700D02*
X28727333Y-16740366D01*
X28727333Y-16740366D02*
X28760666Y-16607033D01*
X28760666Y-16607033D02*
X28827333Y-16540366D01*
X28827333Y-16540366D02*
X28894000Y-16507033D01*
X29427333Y-16507033D02*
X29893999Y-16507033D01*
X29893999Y-16507033D02*
X29593999Y-17207033D01*
X16608648Y-16573700D02*
X16641981Y-16540366D01*
X16641981Y-16540366D02*
X16708648Y-16507033D01*
X16708648Y-16507033D02*
X16875315Y-16507033D01*
X16875315Y-16507033D02*
X16941981Y-16540366D01*
X16941981Y-16540366D02*
X16975315Y-16573700D01*
X16975315Y-16573700D02*
X17008648Y-16640366D01*
X17008648Y-16640366D02*
X17008648Y-16707033D01*
X17008648Y-16707033D02*
X16975315Y-16807033D01*
X16975315Y-16807033D02*
X16575315Y-17207033D01*
X16575315Y-17207033D02*
X17008648Y-17207033D01*
X17241982Y-16507033D02*
X17708648Y-16507033D01*
X17708648Y-16507033D02*
X17408648Y-17207033D01*
X18508648Y-16940366D02*
X19041982Y-16940366D01*
X18775315Y-17207033D02*
X18775315Y-16673700D01*
X19708649Y-16507033D02*
X19375315Y-16507033D01*
X19375315Y-16507033D02*
X19341982Y-16840366D01*
X19341982Y-16840366D02*
X19375315Y-16807033D01*
X19375315Y-16807033D02*
X19441982Y-16773700D01*
X19441982Y-16773700D02*
X19608649Y-16773700D01*
X19608649Y-16773700D02*
X19675315Y-16807033D01*
X19675315Y-16807033D02*
X19708649Y-16840366D01*
X19708649Y-16840366D02*
X19741982Y-16907033D01*
X19741982Y-16907033D02*
X19741982Y-17073700D01*
X19741982Y-17073700D02*
X19708649Y-17140366D01*
X19708649Y-17140366D02*
X19675315Y-17173700D01*
X19675315Y-17173700D02*
X19608649Y-17207033D01*
X19608649Y-17207033D02*
X19441982Y-17207033D01*
X19441982Y-17207033D02*
X19375315Y-17173700D01*
X19375315Y-17173700D02*
X19341982Y-17140366D01*
X19941982Y-16507033D02*
X20175316Y-17207033D01*
X20175316Y-17207033D02*
X20408649Y-16507033D01*
X26294000Y-13967033D02*
X26727333Y-13967033D01*
X26727333Y-13967033D02*
X26494000Y-14233700D01*
X26494000Y-14233700D02*
X26594000Y-14233700D01*
X26594000Y-14233700D02*
X26660666Y-14267033D01*
X26660666Y-14267033D02*
X26694000Y-14300366D01*
X26694000Y-14300366D02*
X26727333Y-14367033D01*
X26727333Y-14367033D02*
X26727333Y-14533700D01*
X26727333Y-14533700D02*
X26694000Y-14600366D01*
X26694000Y-14600366D02*
X26660666Y-14633700D01*
X26660666Y-14633700D02*
X26594000Y-14667033D01*
X26594000Y-14667033D02*
X26394000Y-14667033D01*
X26394000Y-14667033D02*
X26327333Y-14633700D01*
X26327333Y-14633700D02*
X26294000Y-14600366D01*
X27160667Y-13967033D02*
X27227333Y-13967033D01*
X27227333Y-13967033D02*
X27294000Y-14000366D01*
X27294000Y-14000366D02*
X27327333Y-14033700D01*
X27327333Y-14033700D02*
X27360667Y-14100366D01*
X27360667Y-14100366D02*
X27394000Y-14233700D01*
X27394000Y-14233700D02*
X27394000Y-14400366D01*
X27394000Y-14400366D02*
X27360667Y-14533700D01*
X27360667Y-14533700D02*
X27327333Y-14600366D01*
X27327333Y-14600366D02*
X27294000Y-14633700D01*
X27294000Y-14633700D02*
X27227333Y-14667033D01*
X27227333Y-14667033D02*
X27160667Y-14667033D01*
X27160667Y-14667033D02*
X27094000Y-14633700D01*
X27094000Y-14633700D02*
X27060667Y-14600366D01*
X27060667Y-14600366D02*
X27027333Y-14533700D01*
X27027333Y-14533700D02*
X26994000Y-14400366D01*
X26994000Y-14400366D02*
X26994000Y-14233700D01*
X26994000Y-14233700D02*
X27027333Y-14100366D01*
X27027333Y-14100366D02*
X27060667Y-14033700D01*
X27060667Y-14033700D02*
X27094000Y-14000366D01*
X27094000Y-14000366D02*
X27160667Y-13967033D01*
X28594000Y-14000366D02*
X28527333Y-13967033D01*
X28527333Y-13967033D02*
X28427333Y-13967033D01*
X28427333Y-13967033D02*
X28327333Y-14000366D01*
X28327333Y-14000366D02*
X28260667Y-14067033D01*
X28260667Y-14067033D02*
X28227333Y-14133700D01*
X28227333Y-14133700D02*
X28194000Y-14267033D01*
X28194000Y-14267033D02*
X28194000Y-14367033D01*
X28194000Y-14367033D02*
X28227333Y-14500366D01*
X28227333Y-14500366D02*
X28260667Y-14567033D01*
X28260667Y-14567033D02*
X28327333Y-14633700D01*
X28327333Y-14633700D02*
X28427333Y-14667033D01*
X28427333Y-14667033D02*
X28494000Y-14667033D01*
X28494000Y-14667033D02*
X28594000Y-14633700D01*
X28594000Y-14633700D02*
X28627333Y-14600366D01*
X28627333Y-14600366D02*
X28627333Y-14367033D01*
X28627333Y-14367033D02*
X28494000Y-14367033D01*
X28927333Y-14667033D02*
X28927333Y-13967033D01*
X28927333Y-13967033D02*
X29327333Y-14667033D01*
X29327333Y-14667033D02*
X29327333Y-13967033D01*
X29660666Y-14667033D02*
X29660666Y-13967033D01*
X29660666Y-13967033D02*
X29827333Y-13967033D01*
X29827333Y-13967033D02*
X29927333Y-14000366D01*
X29927333Y-14000366D02*
X29994000Y-14067033D01*
X29994000Y-14067033D02*
X30027333Y-14133700D01*
X30027333Y-14133700D02*
X30060666Y-14267033D01*
X30060666Y-14267033D02*
X30060666Y-14367033D01*
X30060666Y-14367033D02*
X30027333Y-14500366D01*
X30027333Y-14500366D02*
X29994000Y-14567033D01*
X29994000Y-14567033D02*
X29927333Y-14633700D01*
X29927333Y-14633700D02*
X29827333Y-14667033D01*
X29827333Y-14667033D02*
X29660666Y-14667033D01*
X16875315Y-14033700D02*
X16908648Y-14000366D01*
X16908648Y-14000366D02*
X16975315Y-13967033D01*
X16975315Y-13967033D02*
X17141982Y-13967033D01*
X17141982Y-13967033D02*
X17208648Y-14000366D01*
X17208648Y-14000366D02*
X17241982Y-14033700D01*
X17241982Y-14033700D02*
X17275315Y-14100366D01*
X17275315Y-14100366D02*
X17275315Y-14167033D01*
X17275315Y-14167033D02*
X17241982Y-14267033D01*
X17241982Y-14267033D02*
X16841982Y-14667033D01*
X16841982Y-14667033D02*
X17275315Y-14667033D01*
X17608649Y-14667033D02*
X17741982Y-14667033D01*
X17741982Y-14667033D02*
X17808649Y-14633700D01*
X17808649Y-14633700D02*
X17841982Y-14600366D01*
X17841982Y-14600366D02*
X17908649Y-14500366D01*
X17908649Y-14500366D02*
X17941982Y-14367033D01*
X17941982Y-14367033D02*
X17941982Y-14100366D01*
X17941982Y-14100366D02*
X17908649Y-14033700D01*
X17908649Y-14033700D02*
X17875315Y-14000366D01*
X17875315Y-14000366D02*
X17808649Y-13967033D01*
X17808649Y-13967033D02*
X17675315Y-13967033D01*
X17675315Y-13967033D02*
X17608649Y-14000366D01*
X17608649Y-14000366D02*
X17575315Y-14033700D01*
X17575315Y-14033700D02*
X17541982Y-14100366D01*
X17541982Y-14100366D02*
X17541982Y-14267033D01*
X17541982Y-14267033D02*
X17575315Y-14333700D01*
X17575315Y-14333700D02*
X17608649Y-14367033D01*
X17608649Y-14367033D02*
X17675315Y-14400366D01*
X17675315Y-14400366D02*
X17808649Y-14400366D01*
X17808649Y-14400366D02*
X17875315Y-14367033D01*
X17875315Y-14367033D02*
X17908649Y-14333700D01*
X17908649Y-14333700D02*
X17941982Y-14267033D01*
X18741982Y-14633700D02*
X18841982Y-14667033D01*
X18841982Y-14667033D02*
X19008649Y-14667033D01*
X19008649Y-14667033D02*
X19075315Y-14633700D01*
X19075315Y-14633700D02*
X19108649Y-14600366D01*
X19108649Y-14600366D02*
X19141982Y-14533700D01*
X19141982Y-14533700D02*
X19141982Y-14467033D01*
X19141982Y-14467033D02*
X19108649Y-14400366D01*
X19108649Y-14400366D02*
X19075315Y-14367033D01*
X19075315Y-14367033D02*
X19008649Y-14333700D01*
X19008649Y-14333700D02*
X18875315Y-14300366D01*
X18875315Y-14300366D02*
X18808649Y-14267033D01*
X18808649Y-14267033D02*
X18775315Y-14233700D01*
X18775315Y-14233700D02*
X18741982Y-14167033D01*
X18741982Y-14167033D02*
X18741982Y-14100366D01*
X18741982Y-14100366D02*
X18775315Y-14033700D01*
X18775315Y-14033700D02*
X18808649Y-14000366D01*
X18808649Y-14000366D02*
X18875315Y-13967033D01*
X18875315Y-13967033D02*
X19041982Y-13967033D01*
X19041982Y-13967033D02*
X19141982Y-14000366D01*
X19441982Y-14300366D02*
X19675316Y-14300366D01*
X19775316Y-14667033D02*
X19441982Y-14667033D01*
X19441982Y-14667033D02*
X19441982Y-13967033D01*
X19441982Y-13967033D02*
X19775316Y-13967033D01*
X20408649Y-14667033D02*
X20075315Y-14667033D01*
X20075315Y-14667033D02*
X20075315Y-13967033D01*
X6293238Y-8629080D02*
X6293238Y-7529080D01*
X6293238Y-7529080D02*
X6921810Y-8629080D01*
X6921810Y-8629080D02*
X6921810Y-7529080D01*
X7393238Y-8576700D02*
X7550381Y-8629080D01*
X7550381Y-8629080D02*
X7812286Y-8629080D01*
X7812286Y-8629080D02*
X7917048Y-8576700D01*
X7917048Y-8576700D02*
X7969429Y-8524319D01*
X7969429Y-8524319D02*
X8021810Y-8419557D01*
X8021810Y-8419557D02*
X8021810Y-8314795D01*
X8021810Y-8314795D02*
X7969429Y-8210033D01*
X7969429Y-8210033D02*
X7917048Y-8157652D01*
X7917048Y-8157652D02*
X7812286Y-8105271D01*
X7812286Y-8105271D02*
X7602762Y-8052890D01*
X7602762Y-8052890D02*
X7498000Y-8000509D01*
X7498000Y-8000509D02*
X7445619Y-7948128D01*
X7445619Y-7948128D02*
X7393238Y-7843366D01*
X7393238Y-7843366D02*
X7393238Y-7738604D01*
X7393238Y-7738604D02*
X7445619Y-7633842D01*
X7445619Y-7633842D02*
X7498000Y-7581461D01*
X7498000Y-7581461D02*
X7602762Y-7529080D01*
X7602762Y-7529080D02*
X7864667Y-7529080D01*
X7864667Y-7529080D02*
X8021810Y-7581461D01*
X8493238Y-8210033D02*
X9331334Y-8210033D01*
X9750381Y-7529080D02*
X10012286Y-8629080D01*
X10012286Y-8629080D02*
X10221810Y-7843366D01*
X10221810Y-7843366D02*
X10431334Y-8629080D01*
X10431334Y-8629080D02*
X10693239Y-7529080D01*
X11059905Y-8576700D02*
X11217048Y-8629080D01*
X11217048Y-8629080D02*
X11478953Y-8629080D01*
X11478953Y-8629080D02*
X11583715Y-8576700D01*
X11583715Y-8576700D02*
X11636096Y-8524319D01*
X11636096Y-8524319D02*
X11688477Y-8419557D01*
X11688477Y-8419557D02*
X11688477Y-8314795D01*
X11688477Y-8314795D02*
X11636096Y-8210033D01*
X11636096Y-8210033D02*
X11583715Y-8157652D01*
X11583715Y-8157652D02*
X11478953Y-8105271D01*
X11478953Y-8105271D02*
X11269429Y-8052890D01*
X11269429Y-8052890D02*
X11164667Y-8000509D01*
X11164667Y-8000509D02*
X11112286Y-7948128D01*
X11112286Y-7948128D02*
X11059905Y-7843366D01*
X11059905Y-7843366D02*
X11059905Y-7738604D01*
X11059905Y-7738604D02*
X11112286Y-7633842D01*
X11112286Y-7633842D02*
X11164667Y-7581461D01*
X11164667Y-7581461D02*
X11269429Y-7529080D01*
X11269429Y-7529080D02*
X11531334Y-7529080D01*
X11531334Y-7529080D02*
X11688477Y-7581461D01*
X12736096Y-7581461D02*
X12631334Y-7529080D01*
X12631334Y-7529080D02*
X12474191Y-7529080D01*
X12474191Y-7529080D02*
X12317048Y-7581461D01*
X12317048Y-7581461D02*
X12212286Y-7686223D01*
X12212286Y-7686223D02*
X12159905Y-7790985D01*
X12159905Y-7790985D02*
X12107524Y-8000509D01*
X12107524Y-8000509D02*
X12107524Y-8157652D01*
X12107524Y-8157652D02*
X12159905Y-8367176D01*
X12159905Y-8367176D02*
X12212286Y-8471938D01*
X12212286Y-8471938D02*
X12317048Y-8576700D01*
X12317048Y-8576700D02*
X12474191Y-8629080D01*
X12474191Y-8629080D02*
X12578953Y-8629080D01*
X12578953Y-8629080D02*
X12736096Y-8576700D01*
X12736096Y-8576700D02*
X12788477Y-8524319D01*
X12788477Y-8524319D02*
X12788477Y-8157652D01*
X12788477Y-8157652D02*
X12578953Y-8157652D01*
X14464667Y-8052890D02*
X14621810Y-8105271D01*
X14621810Y-8105271D02*
X14674191Y-8157652D01*
X14674191Y-8157652D02*
X14726572Y-8262414D01*
X14726572Y-8262414D02*
X14726572Y-8419557D01*
X14726572Y-8419557D02*
X14674191Y-8524319D01*
X14674191Y-8524319D02*
X14621810Y-8576700D01*
X14621810Y-8576700D02*
X14517048Y-8629080D01*
X14517048Y-8629080D02*
X14098000Y-8629080D01*
X14098000Y-8629080D02*
X14098000Y-7529080D01*
X14098000Y-7529080D02*
X14464667Y-7529080D01*
X14464667Y-7529080D02*
X14569429Y-7581461D01*
X14569429Y-7581461D02*
X14621810Y-7633842D01*
X14621810Y-7633842D02*
X14674191Y-7738604D01*
X14674191Y-7738604D02*
X14674191Y-7843366D01*
X14674191Y-7843366D02*
X14621810Y-7948128D01*
X14621810Y-7948128D02*
X14569429Y-8000509D01*
X14569429Y-8000509D02*
X14464667Y-8052890D01*
X14464667Y-8052890D02*
X14098000Y-8052890D01*
X15198000Y-7529080D02*
X15198000Y-8419557D01*
X15198000Y-8419557D02*
X15250381Y-8524319D01*
X15250381Y-8524319D02*
X15302762Y-8576700D01*
X15302762Y-8576700D02*
X15407524Y-8629080D01*
X15407524Y-8629080D02*
X15617048Y-8629080D01*
X15617048Y-8629080D02*
X15721810Y-8576700D01*
X15721810Y-8576700D02*
X15774191Y-8524319D01*
X15774191Y-8524319D02*
X15826572Y-8419557D01*
X15826572Y-8419557D02*
X15826572Y-7529080D01*
X16298000Y-8576700D02*
X16455143Y-8629080D01*
X16455143Y-8629080D02*
X16717048Y-8629080D01*
X16717048Y-8629080D02*
X16821810Y-8576700D01*
X16821810Y-8576700D02*
X16874191Y-8524319D01*
X16874191Y-8524319D02*
X16926572Y-8419557D01*
X16926572Y-8419557D02*
X16926572Y-8314795D01*
X16926572Y-8314795D02*
X16874191Y-8210033D01*
X16874191Y-8210033D02*
X16821810Y-8157652D01*
X16821810Y-8157652D02*
X16717048Y-8105271D01*
X16717048Y-8105271D02*
X16507524Y-8052890D01*
X16507524Y-8052890D02*
X16402762Y-8000509D01*
X16402762Y-8000509D02*
X16350381Y-7948128D01*
X16350381Y-7948128D02*
X16298000Y-7843366D01*
X16298000Y-7843366D02*
X16298000Y-7738604D01*
X16298000Y-7738604D02*
X16350381Y-7633842D01*
X16350381Y-7633842D02*
X16402762Y-7581461D01*
X16402762Y-7581461D02*
X16507524Y-7529080D01*
X16507524Y-7529080D02*
X16769429Y-7529080D01*
X16769429Y-7529080D02*
X16926572Y-7581461D01*
X18864667Y-8629080D02*
X18498000Y-8105271D01*
X18236095Y-8629080D02*
X18236095Y-7529080D01*
X18236095Y-7529080D02*
X18655143Y-7529080D01*
X18655143Y-7529080D02*
X18759905Y-7581461D01*
X18759905Y-7581461D02*
X18812286Y-7633842D01*
X18812286Y-7633842D02*
X18864667Y-7738604D01*
X18864667Y-7738604D02*
X18864667Y-7895747D01*
X18864667Y-7895747D02*
X18812286Y-8000509D01*
X18812286Y-8000509D02*
X18759905Y-8052890D01*
X18759905Y-8052890D02*
X18655143Y-8105271D01*
X18655143Y-8105271D02*
X18236095Y-8105271D01*
X19336095Y-8629080D02*
X19336095Y-7529080D01*
X19807524Y-8576700D02*
X19964667Y-8629080D01*
X19964667Y-8629080D02*
X20226572Y-8629080D01*
X20226572Y-8629080D02*
X20331334Y-8576700D01*
X20331334Y-8576700D02*
X20383715Y-8524319D01*
X20383715Y-8524319D02*
X20436096Y-8419557D01*
X20436096Y-8419557D02*
X20436096Y-8314795D01*
X20436096Y-8314795D02*
X20383715Y-8210033D01*
X20383715Y-8210033D02*
X20331334Y-8157652D01*
X20331334Y-8157652D02*
X20226572Y-8105271D01*
X20226572Y-8105271D02*
X20017048Y-8052890D01*
X20017048Y-8052890D02*
X19912286Y-8000509D01*
X19912286Y-8000509D02*
X19859905Y-7948128D01*
X19859905Y-7948128D02*
X19807524Y-7843366D01*
X19807524Y-7843366D02*
X19807524Y-7738604D01*
X19807524Y-7738604D02*
X19859905Y-7633842D01*
X19859905Y-7633842D02*
X19912286Y-7581461D01*
X19912286Y-7581461D02*
X20017048Y-7529080D01*
X20017048Y-7529080D02*
X20278953Y-7529080D01*
X20278953Y-7529080D02*
X20436096Y-7581461D01*
X20907524Y-8052890D02*
X21274191Y-8052890D01*
X21431334Y-8629080D02*
X20907524Y-8629080D01*
X20907524Y-8629080D02*
X20907524Y-7529080D01*
X20907524Y-7529080D02*
X21431334Y-7529080D01*
X22531334Y-8629080D02*
X22164667Y-8105271D01*
X21902762Y-8629080D02*
X21902762Y-7529080D01*
X21902762Y-7529080D02*
X22321810Y-7529080D01*
X22321810Y-7529080D02*
X22426572Y-7581461D01*
X22426572Y-7581461D02*
X22478953Y-7633842D01*
X22478953Y-7633842D02*
X22531334Y-7738604D01*
X22531334Y-7738604D02*
X22531334Y-7895747D01*
X22531334Y-7895747D02*
X22478953Y-8000509D01*
X22478953Y-8000509D02*
X22426572Y-8052890D01*
X22426572Y-8052890D02*
X22321810Y-8105271D01*
X22321810Y-8105271D02*
X21902762Y-8105271D01*
X23736095Y-7895747D02*
X23998000Y-8629080D01*
X23998000Y-8629080D02*
X24259905Y-7895747D01*
X25255143Y-8629080D02*
X24626571Y-8629080D01*
X24940857Y-8629080D02*
X24940857Y-7529080D01*
X24940857Y-7529080D02*
X24836095Y-7686223D01*
X24836095Y-7686223D02*
X24731333Y-7790985D01*
X24731333Y-7790985D02*
X24626571Y-7843366D01*
X6731336Y-10984033D02*
X6731336Y-10284033D01*
X6731336Y-10284033D02*
X7131336Y-10984033D01*
X7131336Y-10984033D02*
X7131336Y-10284033D01*
X7564669Y-10984033D02*
X7498003Y-10950700D01*
X7498003Y-10950700D02*
X7464669Y-10917366D01*
X7464669Y-10917366D02*
X7431336Y-10850700D01*
X7431336Y-10850700D02*
X7431336Y-10650700D01*
X7431336Y-10650700D02*
X7464669Y-10584033D01*
X7464669Y-10584033D02*
X7498003Y-10550700D01*
X7498003Y-10550700D02*
X7564669Y-10517366D01*
X7564669Y-10517366D02*
X7664669Y-10517366D01*
X7664669Y-10517366D02*
X7731336Y-10550700D01*
X7731336Y-10550700D02*
X7764669Y-10584033D01*
X7764669Y-10584033D02*
X7798003Y-10650700D01*
X7798003Y-10650700D02*
X7798003Y-10850700D01*
X7798003Y-10850700D02*
X7764669Y-10917366D01*
X7764669Y-10917366D02*
X7731336Y-10950700D01*
X7731336Y-10950700D02*
X7664669Y-10984033D01*
X7664669Y-10984033D02*
X7564669Y-10984033D01*
X8098002Y-10984033D02*
X8098002Y-10517366D01*
X8098002Y-10650700D02*
X8131336Y-10584033D01*
X8131336Y-10584033D02*
X8164669Y-10550700D01*
X8164669Y-10550700D02*
X8231336Y-10517366D01*
X8231336Y-10517366D02*
X8298002Y-10517366D01*
X8431335Y-10517366D02*
X8698002Y-10517366D01*
X8531335Y-10284033D02*
X8531335Y-10884033D01*
X8531335Y-10884033D02*
X8564669Y-10950700D01*
X8564669Y-10950700D02*
X8631335Y-10984033D01*
X8631335Y-10984033D02*
X8698002Y-10984033D01*
X8931335Y-10984033D02*
X8931335Y-10284033D01*
X9231335Y-10984033D02*
X9231335Y-10617366D01*
X9231335Y-10617366D02*
X9198002Y-10550700D01*
X9198002Y-10550700D02*
X9131335Y-10517366D01*
X9131335Y-10517366D02*
X9031335Y-10517366D01*
X9031335Y-10517366D02*
X8964669Y-10550700D01*
X8964669Y-10550700D02*
X8931335Y-10584033D01*
X9531335Y-10950700D02*
X9631335Y-10984033D01*
X9631335Y-10984033D02*
X9798002Y-10984033D01*
X9798002Y-10984033D02*
X9864668Y-10950700D01*
X9864668Y-10950700D02*
X9898002Y-10917366D01*
X9898002Y-10917366D02*
X9931335Y-10850700D01*
X9931335Y-10850700D02*
X9931335Y-10784033D01*
X9931335Y-10784033D02*
X9898002Y-10717366D01*
X9898002Y-10717366D02*
X9864668Y-10684033D01*
X9864668Y-10684033D02*
X9798002Y-10650700D01*
X9798002Y-10650700D02*
X9664668Y-10617366D01*
X9664668Y-10617366D02*
X9598002Y-10584033D01*
X9598002Y-10584033D02*
X9564668Y-10550700D01*
X9564668Y-10550700D02*
X9531335Y-10484033D01*
X9531335Y-10484033D02*
X9531335Y-10417366D01*
X9531335Y-10417366D02*
X9564668Y-10350700D01*
X9564668Y-10350700D02*
X9598002Y-10317366D01*
X9598002Y-10317366D02*
X9664668Y-10284033D01*
X9664668Y-10284033D02*
X9831335Y-10284033D01*
X9831335Y-10284033D02*
X9931335Y-10317366D01*
X10131335Y-10517366D02*
X10398002Y-10517366D01*
X10231335Y-10284033D02*
X10231335Y-10884033D01*
X10231335Y-10884033D02*
X10264669Y-10950700D01*
X10264669Y-10950700D02*
X10331335Y-10984033D01*
X10331335Y-10984033D02*
X10398002Y-10984033D01*
X10931335Y-10984033D02*
X10931335Y-10617366D01*
X10931335Y-10617366D02*
X10898002Y-10550700D01*
X10898002Y-10550700D02*
X10831335Y-10517366D01*
X10831335Y-10517366D02*
X10698002Y-10517366D01*
X10698002Y-10517366D02*
X10631335Y-10550700D01*
X10931335Y-10950700D02*
X10864669Y-10984033D01*
X10864669Y-10984033D02*
X10698002Y-10984033D01*
X10698002Y-10984033D02*
X10631335Y-10950700D01*
X10631335Y-10950700D02*
X10598002Y-10884033D01*
X10598002Y-10884033D02*
X10598002Y-10817366D01*
X10598002Y-10817366D02*
X10631335Y-10750700D01*
X10631335Y-10750700D02*
X10698002Y-10717366D01*
X10698002Y-10717366D02*
X10864669Y-10717366D01*
X10864669Y-10717366D02*
X10931335Y-10684033D01*
X11264668Y-10984033D02*
X11264668Y-10517366D01*
X11264668Y-10650700D02*
X11298002Y-10584033D01*
X11298002Y-10584033D02*
X11331335Y-10550700D01*
X11331335Y-10550700D02*
X11398002Y-10517366D01*
X11398002Y-10517366D02*
X11464668Y-10517366D01*
X12198001Y-10784033D02*
X12531334Y-10784033D01*
X12131334Y-10984033D02*
X12364668Y-10284033D01*
X12364668Y-10284033D02*
X12598001Y-10984033D01*
X13131334Y-10984033D02*
X13131334Y-10284033D01*
X13131334Y-10950700D02*
X13064668Y-10984033D01*
X13064668Y-10984033D02*
X12931334Y-10984033D01*
X12931334Y-10984033D02*
X12864668Y-10950700D01*
X12864668Y-10950700D02*
X12831334Y-10917366D01*
X12831334Y-10917366D02*
X12798001Y-10850700D01*
X12798001Y-10850700D02*
X12798001Y-10650700D01*
X12798001Y-10650700D02*
X12831334Y-10584033D01*
X12831334Y-10584033D02*
X12864668Y-10550700D01*
X12864668Y-10550700D02*
X12931334Y-10517366D01*
X12931334Y-10517366D02*
X13064668Y-10517366D01*
X13064668Y-10517366D02*
X13131334Y-10550700D01*
X13398001Y-10517366D02*
X13564667Y-10984033D01*
X13564667Y-10984033D02*
X13731334Y-10517366D01*
X14298000Y-10984033D02*
X14298000Y-10617366D01*
X14298000Y-10617366D02*
X14264667Y-10550700D01*
X14264667Y-10550700D02*
X14198000Y-10517366D01*
X14198000Y-10517366D02*
X14064667Y-10517366D01*
X14064667Y-10517366D02*
X13998000Y-10550700D01*
X14298000Y-10950700D02*
X14231334Y-10984033D01*
X14231334Y-10984033D02*
X14064667Y-10984033D01*
X14064667Y-10984033D02*
X13998000Y-10950700D01*
X13998000Y-10950700D02*
X13964667Y-10884033D01*
X13964667Y-10884033D02*
X13964667Y-10817366D01*
X13964667Y-10817366D02*
X13998000Y-10750700D01*
X13998000Y-10750700D02*
X14064667Y-10717366D01*
X14064667Y-10717366D02*
X14231334Y-10717366D01*
X14231334Y-10717366D02*
X14298000Y-10684033D01*
X14631333Y-10517366D02*
X14631333Y-10984033D01*
X14631333Y-10584033D02*
X14664667Y-10550700D01*
X14664667Y-10550700D02*
X14731333Y-10517366D01*
X14731333Y-10517366D02*
X14831333Y-10517366D01*
X14831333Y-10517366D02*
X14898000Y-10550700D01*
X14898000Y-10550700D02*
X14931333Y-10617366D01*
X14931333Y-10617366D02*
X14931333Y-10984033D01*
X15164666Y-10517366D02*
X15431333Y-10517366D01*
X15264666Y-10284033D02*
X15264666Y-10884033D01*
X15264666Y-10884033D02*
X15298000Y-10950700D01*
X15298000Y-10950700D02*
X15364666Y-10984033D01*
X15364666Y-10984033D02*
X15431333Y-10984033D01*
X15964666Y-10984033D02*
X15964666Y-10617366D01*
X15964666Y-10617366D02*
X15931333Y-10550700D01*
X15931333Y-10550700D02*
X15864666Y-10517366D01*
X15864666Y-10517366D02*
X15731333Y-10517366D01*
X15731333Y-10517366D02*
X15664666Y-10550700D01*
X15964666Y-10950700D02*
X15898000Y-10984033D01*
X15898000Y-10984033D02*
X15731333Y-10984033D01*
X15731333Y-10984033D02*
X15664666Y-10950700D01*
X15664666Y-10950700D02*
X15631333Y-10884033D01*
X15631333Y-10884033D02*
X15631333Y-10817366D01*
X15631333Y-10817366D02*
X15664666Y-10750700D01*
X15664666Y-10750700D02*
X15731333Y-10717366D01*
X15731333Y-10717366D02*
X15898000Y-10717366D01*
X15898000Y-10717366D02*
X15964666Y-10684033D01*
X16597999Y-10517366D02*
X16597999Y-11084033D01*
X16597999Y-11084033D02*
X16564666Y-11150700D01*
X16564666Y-11150700D02*
X16531333Y-11184033D01*
X16531333Y-11184033D02*
X16464666Y-11217366D01*
X16464666Y-11217366D02*
X16364666Y-11217366D01*
X16364666Y-11217366D02*
X16297999Y-11184033D01*
X16597999Y-10950700D02*
X16531333Y-10984033D01*
X16531333Y-10984033D02*
X16397999Y-10984033D01*
X16397999Y-10984033D02*
X16331333Y-10950700D01*
X16331333Y-10950700D02*
X16297999Y-10917366D01*
X16297999Y-10917366D02*
X16264666Y-10850700D01*
X16264666Y-10850700D02*
X16264666Y-10650700D01*
X16264666Y-10650700D02*
X16297999Y-10584033D01*
X16297999Y-10584033D02*
X16331333Y-10550700D01*
X16331333Y-10550700D02*
X16397999Y-10517366D01*
X16397999Y-10517366D02*
X16531333Y-10517366D01*
X16531333Y-10517366D02*
X16597999Y-10550700D01*
X17197999Y-10950700D02*
X17131332Y-10984033D01*
X17131332Y-10984033D02*
X16997999Y-10984033D01*
X16997999Y-10984033D02*
X16931332Y-10950700D01*
X16931332Y-10950700D02*
X16897999Y-10884033D01*
X16897999Y-10884033D02*
X16897999Y-10617366D01*
X16897999Y-10617366D02*
X16931332Y-10550700D01*
X16931332Y-10550700D02*
X16997999Y-10517366D01*
X16997999Y-10517366D02*
X17131332Y-10517366D01*
X17131332Y-10517366D02*
X17197999Y-10550700D01*
X17197999Y-10550700D02*
X17231332Y-10617366D01*
X17231332Y-10617366D02*
X17231332Y-10684033D01*
X17231332Y-10684033D02*
X16897999Y-10750700D01*
X18031332Y-10950700D02*
X18097999Y-10984033D01*
X18097999Y-10984033D02*
X18231332Y-10984033D01*
X18231332Y-10984033D02*
X18297999Y-10950700D01*
X18297999Y-10950700D02*
X18331332Y-10884033D01*
X18331332Y-10884033D02*
X18331332Y-10850700D01*
X18331332Y-10850700D02*
X18297999Y-10784033D01*
X18297999Y-10784033D02*
X18231332Y-10750700D01*
X18231332Y-10750700D02*
X18131332Y-10750700D01*
X18131332Y-10750700D02*
X18064665Y-10717366D01*
X18064665Y-10717366D02*
X18031332Y-10650700D01*
X18031332Y-10650700D02*
X18031332Y-10617366D01*
X18031332Y-10617366D02*
X18064665Y-10550700D01*
X18064665Y-10550700D02*
X18131332Y-10517366D01*
X18131332Y-10517366D02*
X18231332Y-10517366D01*
X18231332Y-10517366D02*
X18297999Y-10550700D01*
X18731332Y-10984033D02*
X18664666Y-10950700D01*
X18664666Y-10950700D02*
X18631332Y-10884033D01*
X18631332Y-10884033D02*
X18631332Y-10284033D01*
X19097999Y-10984033D02*
X19031333Y-10950700D01*
X19031333Y-10950700D02*
X18997999Y-10917366D01*
X18997999Y-10917366D02*
X18964666Y-10850700D01*
X18964666Y-10850700D02*
X18964666Y-10650700D01*
X18964666Y-10650700D02*
X18997999Y-10584033D01*
X18997999Y-10584033D02*
X19031333Y-10550700D01*
X19031333Y-10550700D02*
X19097999Y-10517366D01*
X19097999Y-10517366D02*
X19197999Y-10517366D01*
X19197999Y-10517366D02*
X19264666Y-10550700D01*
X19264666Y-10550700D02*
X19297999Y-10584033D01*
X19297999Y-10584033D02*
X19331333Y-10650700D01*
X19331333Y-10650700D02*
X19331333Y-10850700D01*
X19331333Y-10850700D02*
X19297999Y-10917366D01*
X19297999Y-10917366D02*
X19264666Y-10950700D01*
X19264666Y-10950700D02*
X19197999Y-10984033D01*
X19197999Y-10984033D02*
X19097999Y-10984033D01*
X19531332Y-10517366D02*
X19797999Y-10517366D01*
X19631332Y-10284033D02*
X19631332Y-10884033D01*
X19631332Y-10884033D02*
X19664666Y-10950700D01*
X19664666Y-10950700D02*
X19731332Y-10984033D01*
X19731332Y-10984033D02*
X19797999Y-10984033D01*
X20564665Y-10984033D02*
X20564665Y-10284033D01*
X20564665Y-10550700D02*
X20631332Y-10517366D01*
X20631332Y-10517366D02*
X20764665Y-10517366D01*
X20764665Y-10517366D02*
X20831332Y-10550700D01*
X20831332Y-10550700D02*
X20864665Y-10584033D01*
X20864665Y-10584033D02*
X20897999Y-10650700D01*
X20897999Y-10650700D02*
X20897999Y-10850700D01*
X20897999Y-10850700D02*
X20864665Y-10917366D01*
X20864665Y-10917366D02*
X20831332Y-10950700D01*
X20831332Y-10950700D02*
X20764665Y-10984033D01*
X20764665Y-10984033D02*
X20631332Y-10984033D01*
X20631332Y-10984033D02*
X20564665Y-10950700D01*
X21197998Y-10984033D02*
X21197998Y-10517366D01*
X21197998Y-10650700D02*
X21231332Y-10584033D01*
X21231332Y-10584033D02*
X21264665Y-10550700D01*
X21264665Y-10550700D02*
X21331332Y-10517366D01*
X21331332Y-10517366D02*
X21397998Y-10517366D01*
X21897998Y-10950700D02*
X21831331Y-10984033D01*
X21831331Y-10984033D02*
X21697998Y-10984033D01*
X21697998Y-10984033D02*
X21631331Y-10950700D01*
X21631331Y-10950700D02*
X21597998Y-10884033D01*
X21597998Y-10884033D02*
X21597998Y-10617366D01*
X21597998Y-10617366D02*
X21631331Y-10550700D01*
X21631331Y-10550700D02*
X21697998Y-10517366D01*
X21697998Y-10517366D02*
X21831331Y-10517366D01*
X21831331Y-10517366D02*
X21897998Y-10550700D01*
X21897998Y-10550700D02*
X21931331Y-10617366D01*
X21931331Y-10617366D02*
X21931331Y-10684033D01*
X21931331Y-10684033D02*
X21597998Y-10750700D01*
X22531331Y-10984033D02*
X22531331Y-10617366D01*
X22531331Y-10617366D02*
X22497998Y-10550700D01*
X22497998Y-10550700D02*
X22431331Y-10517366D01*
X22431331Y-10517366D02*
X22297998Y-10517366D01*
X22297998Y-10517366D02*
X22231331Y-10550700D01*
X22531331Y-10950700D02*
X22464665Y-10984033D01*
X22464665Y-10984033D02*
X22297998Y-10984033D01*
X22297998Y-10984033D02*
X22231331Y-10950700D01*
X22231331Y-10950700D02*
X22197998Y-10884033D01*
X22197998Y-10884033D02*
X22197998Y-10817366D01*
X22197998Y-10817366D02*
X22231331Y-10750700D01*
X22231331Y-10750700D02*
X22297998Y-10717366D01*
X22297998Y-10717366D02*
X22464665Y-10717366D01*
X22464665Y-10717366D02*
X22531331Y-10684033D01*
X22864664Y-10984033D02*
X22864664Y-10284033D01*
X22931331Y-10717366D02*
X23131331Y-10984033D01*
X23131331Y-10517366D02*
X22864664Y-10784033D01*
X23531331Y-10984033D02*
X23464665Y-10950700D01*
X23464665Y-10950700D02*
X23431331Y-10917366D01*
X23431331Y-10917366D02*
X23397998Y-10850700D01*
X23397998Y-10850700D02*
X23397998Y-10650700D01*
X23397998Y-10650700D02*
X23431331Y-10584033D01*
X23431331Y-10584033D02*
X23464665Y-10550700D01*
X23464665Y-10550700D02*
X23531331Y-10517366D01*
X23531331Y-10517366D02*
X23631331Y-10517366D01*
X23631331Y-10517366D02*
X23697998Y-10550700D01*
X23697998Y-10550700D02*
X23731331Y-10584033D01*
X23731331Y-10584033D02*
X23764665Y-10650700D01*
X23764665Y-10650700D02*
X23764665Y-10850700D01*
X23764665Y-10850700D02*
X23731331Y-10917366D01*
X23731331Y-10917366D02*
X23697998Y-10950700D01*
X23697998Y-10950700D02*
X23631331Y-10984033D01*
X23631331Y-10984033D02*
X23531331Y-10984033D01*
X24364664Y-10517366D02*
X24364664Y-10984033D01*
X24064664Y-10517366D02*
X24064664Y-10884033D01*
X24064664Y-10884033D02*
X24097998Y-10950700D01*
X24097998Y-10950700D02*
X24164664Y-10984033D01*
X24164664Y-10984033D02*
X24264664Y-10984033D01*
X24264664Y-10984033D02*
X24331331Y-10950700D01*
X24331331Y-10950700D02*
X24364664Y-10917366D01*
X24597997Y-10517366D02*
X24864664Y-10517366D01*
X24697997Y-10284033D02*
X24697997Y-10884033D01*
X24697997Y-10884033D02*
X24731331Y-10950700D01*
X24731331Y-10950700D02*
X24797997Y-10984033D01*
X24797997Y-10984033D02*
X24864664Y-10984033D01*
X4486667Y-58777366D02*
X4486667Y-59477366D01*
X4486667Y-58810700D02*
X4553334Y-58777366D01*
X4553334Y-58777366D02*
X4686667Y-58777366D01*
X4686667Y-58777366D02*
X4753334Y-58810700D01*
X4753334Y-58810700D02*
X4786667Y-58844033D01*
X4786667Y-58844033D02*
X4820001Y-58910700D01*
X4820001Y-58910700D02*
X4820001Y-59110700D01*
X4820001Y-59110700D02*
X4786667Y-59177366D01*
X4786667Y-59177366D02*
X4753334Y-59210700D01*
X4753334Y-59210700D02*
X4686667Y-59244033D01*
X4686667Y-59244033D02*
X4553334Y-59244033D01*
X4553334Y-59244033D02*
X4486667Y-59210700D01*
X5120000Y-59244033D02*
X5120000Y-58777366D01*
X5120000Y-58544033D02*
X5086667Y-58577366D01*
X5086667Y-58577366D02*
X5120000Y-58610700D01*
X5120000Y-58610700D02*
X5153334Y-58577366D01*
X5153334Y-58577366D02*
X5120000Y-58544033D01*
X5120000Y-58544033D02*
X5120000Y-58610700D01*
X5453333Y-58777366D02*
X5453333Y-59244033D01*
X5453333Y-58844033D02*
X5486667Y-58810700D01*
X5486667Y-58810700D02*
X5553333Y-58777366D01*
X5553333Y-58777366D02*
X5653333Y-58777366D01*
X5653333Y-58777366D02*
X5720000Y-58810700D01*
X5720000Y-58810700D02*
X5753333Y-58877366D01*
X5753333Y-58877366D02*
X5753333Y-59244033D01*
X6986666Y-59244033D02*
X6586666Y-59244033D01*
X6786666Y-59244033D02*
X6786666Y-58544033D01*
X6786666Y-58544033D02*
X6719999Y-58644033D01*
X6719999Y-58644033D02*
X6653333Y-58710700D01*
X6653333Y-58710700D02*
X6586666Y-58744033D01*
X7786666Y-58510700D02*
X7186666Y-59410700D01*
X7986666Y-58610700D02*
X8019999Y-58577366D01*
X8019999Y-58577366D02*
X8086666Y-58544033D01*
X8086666Y-58544033D02*
X8253333Y-58544033D01*
X8253333Y-58544033D02*
X8319999Y-58577366D01*
X8319999Y-58577366D02*
X8353333Y-58610700D01*
X8353333Y-58610700D02*
X8386666Y-58677366D01*
X8386666Y-58677366D02*
X8386666Y-58744033D01*
X8386666Y-58744033D02*
X8353333Y-58844033D01*
X8353333Y-58844033D02*
X7953333Y-59244033D01*
X7953333Y-59244033D02*
X8386666Y-59244033D01*
X9486666Y-59210700D02*
X9419999Y-59244033D01*
X9419999Y-59244033D02*
X9286666Y-59244033D01*
X9286666Y-59244033D02*
X9219999Y-59210700D01*
X9219999Y-59210700D02*
X9186666Y-59144033D01*
X9186666Y-59144033D02*
X9186666Y-58877366D01*
X9186666Y-58877366D02*
X9219999Y-58810700D01*
X9219999Y-58810700D02*
X9286666Y-58777366D01*
X9286666Y-58777366D02*
X9419999Y-58777366D01*
X9419999Y-58777366D02*
X9486666Y-58810700D01*
X9486666Y-58810700D02*
X9519999Y-58877366D01*
X9519999Y-58877366D02*
X9519999Y-58944033D01*
X9519999Y-58944033D02*
X9186666Y-59010700D01*
X9819999Y-58777366D02*
X9819999Y-59244033D01*
X9819999Y-58844033D02*
X9853333Y-58810700D01*
X9853333Y-58810700D02*
X9919999Y-58777366D01*
X9919999Y-58777366D02*
X10019999Y-58777366D01*
X10019999Y-58777366D02*
X10086666Y-58810700D01*
X10086666Y-58810700D02*
X10119999Y-58877366D01*
X10119999Y-58877366D02*
X10119999Y-59244033D01*
X10753332Y-59244033D02*
X10753332Y-58544033D01*
X10753332Y-59210700D02*
X10686666Y-59244033D01*
X10686666Y-59244033D02*
X10553332Y-59244033D01*
X10553332Y-59244033D02*
X10486666Y-59210700D01*
X10486666Y-59210700D02*
X10453332Y-59177366D01*
X10453332Y-59177366D02*
X10419999Y-59110700D01*
X10419999Y-59110700D02*
X10419999Y-58910700D01*
X10419999Y-58910700D02*
X10453332Y-58844033D01*
X10453332Y-58844033D02*
X10486666Y-58810700D01*
X10486666Y-58810700D02*
X10553332Y-58777366D01*
X10553332Y-58777366D02*
X10686666Y-58777366D01*
X10686666Y-58777366D02*
X10753332Y-58810700D01*
X3820000Y-13057366D02*
X3820000Y-13757366D01*
X3820000Y-13090700D02*
X3886667Y-13057366D01*
X3886667Y-13057366D02*
X4020000Y-13057366D01*
X4020000Y-13057366D02*
X4086667Y-13090700D01*
X4086667Y-13090700D02*
X4120000Y-13124033D01*
X4120000Y-13124033D02*
X4153334Y-13190700D01*
X4153334Y-13190700D02*
X4153334Y-13390700D01*
X4153334Y-13390700D02*
X4120000Y-13457366D01*
X4120000Y-13457366D02*
X4086667Y-13490700D01*
X4086667Y-13490700D02*
X4020000Y-13524033D01*
X4020000Y-13524033D02*
X3886667Y-13524033D01*
X3886667Y-13524033D02*
X3820000Y-13490700D01*
X4453333Y-13524033D02*
X4453333Y-13057366D01*
X4453333Y-12824033D02*
X4420000Y-12857366D01*
X4420000Y-12857366D02*
X4453333Y-12890700D01*
X4453333Y-12890700D02*
X4486667Y-12857366D01*
X4486667Y-12857366D02*
X4453333Y-12824033D01*
X4453333Y-12824033D02*
X4453333Y-12890700D01*
X4786666Y-13057366D02*
X4786666Y-13524033D01*
X4786666Y-13124033D02*
X4820000Y-13090700D01*
X4820000Y-13090700D02*
X4886666Y-13057366D01*
X4886666Y-13057366D02*
X4986666Y-13057366D01*
X4986666Y-13057366D02*
X5053333Y-13090700D01*
X5053333Y-13090700D02*
X5086666Y-13157366D01*
X5086666Y-13157366D02*
X5086666Y-13524033D01*
X5919999Y-12890700D02*
X5953332Y-12857366D01*
X5953332Y-12857366D02*
X6019999Y-12824033D01*
X6019999Y-12824033D02*
X6186666Y-12824033D01*
X6186666Y-12824033D02*
X6253332Y-12857366D01*
X6253332Y-12857366D02*
X6286666Y-12890700D01*
X6286666Y-12890700D02*
X6319999Y-12957366D01*
X6319999Y-12957366D02*
X6319999Y-13024033D01*
X6319999Y-13024033D02*
X6286666Y-13124033D01*
X6286666Y-13124033D02*
X5886666Y-13524033D01*
X5886666Y-13524033D02*
X6319999Y-13524033D01*
X6653333Y-13524033D02*
X6786666Y-13524033D01*
X6786666Y-13524033D02*
X6853333Y-13490700D01*
X6853333Y-13490700D02*
X6886666Y-13457366D01*
X6886666Y-13457366D02*
X6953333Y-13357366D01*
X6953333Y-13357366D02*
X6986666Y-13224033D01*
X6986666Y-13224033D02*
X6986666Y-12957366D01*
X6986666Y-12957366D02*
X6953333Y-12890700D01*
X6953333Y-12890700D02*
X6919999Y-12857366D01*
X6919999Y-12857366D02*
X6853333Y-12824033D01*
X6853333Y-12824033D02*
X6719999Y-12824033D01*
X6719999Y-12824033D02*
X6653333Y-12857366D01*
X6653333Y-12857366D02*
X6619999Y-12890700D01*
X6619999Y-12890700D02*
X6586666Y-12957366D01*
X6586666Y-12957366D02*
X6586666Y-13124033D01*
X6586666Y-13124033D02*
X6619999Y-13190700D01*
X6619999Y-13190700D02*
X6653333Y-13224033D01*
X6653333Y-13224033D02*
X6719999Y-13257366D01*
X6719999Y-13257366D02*
X6853333Y-13257366D01*
X6853333Y-13257366D02*
X6919999Y-13224033D01*
X6919999Y-13224033D02*
X6953333Y-13190700D01*
X6953333Y-13190700D02*
X6986666Y-13124033D01*
X7786666Y-12790700D02*
X7186666Y-13690700D01*
X7953333Y-12824033D02*
X8386666Y-12824033D01*
X8386666Y-12824033D02*
X8153333Y-13090700D01*
X8153333Y-13090700D02*
X8253333Y-13090700D01*
X8253333Y-13090700D02*
X8319999Y-13124033D01*
X8319999Y-13124033D02*
X8353333Y-13157366D01*
X8353333Y-13157366D02*
X8386666Y-13224033D01*
X8386666Y-13224033D02*
X8386666Y-13390700D01*
X8386666Y-13390700D02*
X8353333Y-13457366D01*
X8353333Y-13457366D02*
X8319999Y-13490700D01*
X8319999Y-13490700D02*
X8253333Y-13524033D01*
X8253333Y-13524033D02*
X8053333Y-13524033D01*
X8053333Y-13524033D02*
X7986666Y-13490700D01*
X7986666Y-13490700D02*
X7953333Y-13457366D01*
X8820000Y-12824033D02*
X8886666Y-12824033D01*
X8886666Y-12824033D02*
X8953333Y-12857366D01*
X8953333Y-12857366D02*
X8986666Y-12890700D01*
X8986666Y-12890700D02*
X9020000Y-12957366D01*
X9020000Y-12957366D02*
X9053333Y-13090700D01*
X9053333Y-13090700D02*
X9053333Y-13257366D01*
X9053333Y-13257366D02*
X9020000Y-13390700D01*
X9020000Y-13390700D02*
X8986666Y-13457366D01*
X8986666Y-13457366D02*
X8953333Y-13490700D01*
X8953333Y-13490700D02*
X8886666Y-13524033D01*
X8886666Y-13524033D02*
X8820000Y-13524033D01*
X8820000Y-13524033D02*
X8753333Y-13490700D01*
X8753333Y-13490700D02*
X8720000Y-13457366D01*
X8720000Y-13457366D02*
X8686666Y-13390700D01*
X8686666Y-13390700D02*
X8653333Y-13257366D01*
X8653333Y-13257366D02*
X8653333Y-13090700D01*
X8653333Y-13090700D02*
X8686666Y-12957366D01*
X8686666Y-12957366D02*
X8720000Y-12890700D01*
X8720000Y-12890700D02*
X8753333Y-12857366D01*
X8753333Y-12857366D02*
X8820000Y-12824033D01*
X10153333Y-13490700D02*
X10086666Y-13524033D01*
X10086666Y-13524033D02*
X9953333Y-13524033D01*
X9953333Y-13524033D02*
X9886666Y-13490700D01*
X9886666Y-13490700D02*
X9853333Y-13424033D01*
X9853333Y-13424033D02*
X9853333Y-13157366D01*
X9853333Y-13157366D02*
X9886666Y-13090700D01*
X9886666Y-13090700D02*
X9953333Y-13057366D01*
X9953333Y-13057366D02*
X10086666Y-13057366D01*
X10086666Y-13057366D02*
X10153333Y-13090700D01*
X10153333Y-13090700D02*
X10186666Y-13157366D01*
X10186666Y-13157366D02*
X10186666Y-13224033D01*
X10186666Y-13224033D02*
X9853333Y-13290700D01*
X10486666Y-13057366D02*
X10486666Y-13524033D01*
X10486666Y-13124033D02*
X10520000Y-13090700D01*
X10520000Y-13090700D02*
X10586666Y-13057366D01*
X10586666Y-13057366D02*
X10686666Y-13057366D01*
X10686666Y-13057366D02*
X10753333Y-13090700D01*
X10753333Y-13090700D02*
X10786666Y-13157366D01*
X10786666Y-13157366D02*
X10786666Y-13524033D01*
X11419999Y-13524033D02*
X11419999Y-12824033D01*
X11419999Y-13490700D02*
X11353333Y-13524033D01*
X11353333Y-13524033D02*
X11219999Y-13524033D01*
X11219999Y-13524033D02*
X11153333Y-13490700D01*
X11153333Y-13490700D02*
X11119999Y-13457366D01*
X11119999Y-13457366D02*
X11086666Y-13390700D01*
X11086666Y-13390700D02*
X11086666Y-13190700D01*
X11086666Y-13190700D02*
X11119999Y-13124033D01*
X11119999Y-13124033D02*
X11153333Y-13090700D01*
X11153333Y-13090700D02*
X11219999Y-13057366D01*
X11219999Y-13057366D02*
X11353333Y-13057366D01*
X11353333Y-13057366D02*
X11419999Y-13090700D01*
X10624189Y-59696771D02*
X10547998Y-59658676D01*
X10547998Y-59658676D02*
X10395617Y-59658676D01*
X10395617Y-59658676D02*
X10319427Y-59696771D01*
X10319427Y-59696771D02*
X10243236Y-59772961D01*
X10243236Y-59772961D02*
X10205141Y-59849152D01*
X10205141Y-59849152D02*
X10205141Y-60001533D01*
X10205141Y-60001533D02*
X10243236Y-60077723D01*
X10243236Y-60077723D02*
X10319427Y-60153914D01*
X10319427Y-60153914D02*
X10395617Y-60192009D01*
X10395617Y-60192009D02*
X10547998Y-60192009D01*
X10547998Y-60192009D02*
X10624189Y-60153914D01*
X10471808Y-59392009D02*
X10281332Y-59430104D01*
X10281332Y-59430104D02*
X10090855Y-59544390D01*
X10090855Y-59544390D02*
X9976570Y-59734866D01*
X9976570Y-59734866D02*
X9938474Y-59925342D01*
X9938474Y-59925342D02*
X9976570Y-60115819D01*
X9976570Y-60115819D02*
X10090855Y-60306295D01*
X10090855Y-60306295D02*
X10281332Y-60420580D01*
X10281332Y-60420580D02*
X10471808Y-60458676D01*
X10471808Y-60458676D02*
X10662284Y-60420580D01*
X10662284Y-60420580D02*
X10852760Y-60306295D01*
X10852760Y-60306295D02*
X10967046Y-60115819D01*
X10967046Y-60115819D02*
X11005141Y-59925342D01*
X11005141Y-59925342D02*
X10967046Y-59734866D01*
X10967046Y-59734866D02*
X10852760Y-59544390D01*
X10852760Y-59544390D02*
X10662284Y-59430104D01*
X10662284Y-59430104D02*
X10471808Y-59392009D01*
X11919427Y-59582485D02*
X11957523Y-59544390D01*
X11957523Y-59544390D02*
X12033713Y-59506295D01*
X12033713Y-59506295D02*
X12224189Y-59506295D01*
X12224189Y-59506295D02*
X12300380Y-59544390D01*
X12300380Y-59544390D02*
X12338475Y-59582485D01*
X12338475Y-59582485D02*
X12376570Y-59658676D01*
X12376570Y-59658676D02*
X12376570Y-59734866D01*
X12376570Y-59734866D02*
X12338475Y-59849152D01*
X12338475Y-59849152D02*
X11881332Y-60306295D01*
X11881332Y-60306295D02*
X12376570Y-60306295D01*
X12871809Y-59506295D02*
X12947999Y-59506295D01*
X12947999Y-59506295D02*
X13024190Y-59544390D01*
X13024190Y-59544390D02*
X13062285Y-59582485D01*
X13062285Y-59582485D02*
X13100380Y-59658676D01*
X13100380Y-59658676D02*
X13138475Y-59811057D01*
X13138475Y-59811057D02*
X13138475Y-60001533D01*
X13138475Y-60001533D02*
X13100380Y-60153914D01*
X13100380Y-60153914D02*
X13062285Y-60230104D01*
X13062285Y-60230104D02*
X13024190Y-60268200D01*
X13024190Y-60268200D02*
X12947999Y-60306295D01*
X12947999Y-60306295D02*
X12871809Y-60306295D01*
X12871809Y-60306295D02*
X12795618Y-60268200D01*
X12795618Y-60268200D02*
X12757523Y-60230104D01*
X12757523Y-60230104D02*
X12719428Y-60153914D01*
X12719428Y-60153914D02*
X12681332Y-60001533D01*
X12681332Y-60001533D02*
X12681332Y-59811057D01*
X12681332Y-59811057D02*
X12719428Y-59658676D01*
X12719428Y-59658676D02*
X12757523Y-59582485D01*
X12757523Y-59582485D02*
X12795618Y-59544390D01*
X12795618Y-59544390D02*
X12871809Y-59506295D01*
X13443237Y-59582485D02*
X13481333Y-59544390D01*
X13481333Y-59544390D02*
X13557523Y-59506295D01*
X13557523Y-59506295D02*
X13747999Y-59506295D01*
X13747999Y-59506295D02*
X13824190Y-59544390D01*
X13824190Y-59544390D02*
X13862285Y-59582485D01*
X13862285Y-59582485D02*
X13900380Y-59658676D01*
X13900380Y-59658676D02*
X13900380Y-59734866D01*
X13900380Y-59734866D02*
X13862285Y-59849152D01*
X13862285Y-59849152D02*
X13405142Y-60306295D01*
X13405142Y-60306295D02*
X13900380Y-60306295D01*
X14586095Y-59506295D02*
X14433714Y-59506295D01*
X14433714Y-59506295D02*
X14357523Y-59544390D01*
X14357523Y-59544390D02*
X14319428Y-59582485D01*
X14319428Y-59582485D02*
X14243238Y-59696771D01*
X14243238Y-59696771D02*
X14205142Y-59849152D01*
X14205142Y-59849152D02*
X14205142Y-60153914D01*
X14205142Y-60153914D02*
X14243238Y-60230104D01*
X14243238Y-60230104D02*
X14281333Y-60268200D01*
X14281333Y-60268200D02*
X14357523Y-60306295D01*
X14357523Y-60306295D02*
X14509904Y-60306295D01*
X14509904Y-60306295D02*
X14586095Y-60268200D01*
X14586095Y-60268200D02*
X14624190Y-60230104D01*
X14624190Y-60230104D02*
X14662285Y-60153914D01*
X14662285Y-60153914D02*
X14662285Y-59963438D01*
X14662285Y-59963438D02*
X14624190Y-59887247D01*
X14624190Y-59887247D02*
X14586095Y-59849152D01*
X14586095Y-59849152D02*
X14509904Y-59811057D01*
X14509904Y-59811057D02*
X14357523Y-59811057D01*
X14357523Y-59811057D02*
X14281333Y-59849152D01*
X14281333Y-59849152D02*
X14243238Y-59887247D01*
X14243238Y-59887247D02*
X14205142Y-59963438D01*
X15614667Y-60306295D02*
X15614667Y-59506295D01*
X15614667Y-59506295D02*
X15805143Y-59506295D01*
X15805143Y-59506295D02*
X15919429Y-59544390D01*
X15919429Y-59544390D02*
X15995619Y-59620580D01*
X15995619Y-59620580D02*
X16033714Y-59696771D01*
X16033714Y-59696771D02*
X16071810Y-59849152D01*
X16071810Y-59849152D02*
X16071810Y-59963438D01*
X16071810Y-59963438D02*
X16033714Y-60115819D01*
X16033714Y-60115819D02*
X15995619Y-60192009D01*
X15995619Y-60192009D02*
X15919429Y-60268200D01*
X15919429Y-60268200D02*
X15805143Y-60306295D01*
X15805143Y-60306295D02*
X15614667Y-60306295D01*
X16757524Y-60306295D02*
X16757524Y-59887247D01*
X16757524Y-59887247D02*
X16719429Y-59811057D01*
X16719429Y-59811057D02*
X16643238Y-59772961D01*
X16643238Y-59772961D02*
X16490857Y-59772961D01*
X16490857Y-59772961D02*
X16414667Y-59811057D01*
X16757524Y-60268200D02*
X16681333Y-60306295D01*
X16681333Y-60306295D02*
X16490857Y-60306295D01*
X16490857Y-60306295D02*
X16414667Y-60268200D01*
X16414667Y-60268200D02*
X16376571Y-60192009D01*
X16376571Y-60192009D02*
X16376571Y-60115819D01*
X16376571Y-60115819D02*
X16414667Y-60039628D01*
X16414667Y-60039628D02*
X16490857Y-60001533D01*
X16490857Y-60001533D02*
X16681333Y-60001533D01*
X16681333Y-60001533D02*
X16757524Y-59963438D01*
X17062286Y-59772961D02*
X17252762Y-60306295D01*
X17252762Y-60306295D02*
X17443239Y-59772961D01*
X17748001Y-60306295D02*
X17748001Y-59772961D01*
X17748001Y-59506295D02*
X17709905Y-59544390D01*
X17709905Y-59544390D02*
X17748001Y-59582485D01*
X17748001Y-59582485D02*
X17786096Y-59544390D01*
X17786096Y-59544390D02*
X17748001Y-59506295D01*
X17748001Y-59506295D02*
X17748001Y-59582485D01*
X18471810Y-60306295D02*
X18471810Y-59506295D01*
X18471810Y-60268200D02*
X18395619Y-60306295D01*
X18395619Y-60306295D02*
X18243238Y-60306295D01*
X18243238Y-60306295D02*
X18167048Y-60268200D01*
X18167048Y-60268200D02*
X18128953Y-60230104D01*
X18128953Y-60230104D02*
X18090857Y-60153914D01*
X18090857Y-60153914D02*
X18090857Y-59925342D01*
X18090857Y-59925342D02*
X18128953Y-59849152D01*
X18128953Y-59849152D02*
X18167048Y-59811057D01*
X18167048Y-59811057D02*
X18243238Y-59772961D01*
X18243238Y-59772961D02*
X18395619Y-59772961D01*
X18395619Y-59772961D02*
X18471810Y-59811057D01*
X19348001Y-59506295D02*
X19805144Y-59506295D01*
X19576572Y-60306295D02*
X19576572Y-59506295D01*
X20071811Y-60306295D02*
X20071811Y-59772961D01*
X20071811Y-59925342D02*
X20109906Y-59849152D01*
X20109906Y-59849152D02*
X20148001Y-59811057D01*
X20148001Y-59811057D02*
X20224192Y-59772961D01*
X20224192Y-59772961D02*
X20300382Y-59772961D01*
X20681334Y-60306295D02*
X20605144Y-60268200D01*
X20605144Y-60268200D02*
X20567049Y-60230104D01*
X20567049Y-60230104D02*
X20528953Y-60153914D01*
X20528953Y-60153914D02*
X20528953Y-59925342D01*
X20528953Y-59925342D02*
X20567049Y-59849152D01*
X20567049Y-59849152D02*
X20605144Y-59811057D01*
X20605144Y-59811057D02*
X20681334Y-59772961D01*
X20681334Y-59772961D02*
X20795620Y-59772961D01*
X20795620Y-59772961D02*
X20871811Y-59811057D01*
X20871811Y-59811057D02*
X20909906Y-59849152D01*
X20909906Y-59849152D02*
X20948001Y-59925342D01*
X20948001Y-59925342D02*
X20948001Y-60153914D01*
X20948001Y-60153914D02*
X20909906Y-60230104D01*
X20909906Y-60230104D02*
X20871811Y-60268200D01*
X20871811Y-60268200D02*
X20795620Y-60306295D01*
X20795620Y-60306295D02*
X20681334Y-60306295D01*
X21214668Y-59772961D02*
X21405144Y-60306295D01*
X21595621Y-59772961D02*
X21405144Y-60306295D01*
X21405144Y-60306295D02*
X21328954Y-60496771D01*
X21328954Y-60496771D02*
X21290859Y-60534866D01*
X21290859Y-60534866D02*
X21214668Y-60572961D01*
X7652760Y-62338295D02*
X7652760Y-61804961D01*
X7652760Y-61538295D02*
X7614664Y-61576390D01*
X7614664Y-61576390D02*
X7652760Y-61614485D01*
X7652760Y-61614485D02*
X7690855Y-61576390D01*
X7690855Y-61576390D02*
X7652760Y-61538295D01*
X7652760Y-61538295D02*
X7652760Y-61614485D01*
X8033712Y-61804961D02*
X8033712Y-62338295D01*
X8033712Y-61881152D02*
X8071807Y-61843057D01*
X8071807Y-61843057D02*
X8147997Y-61804961D01*
X8147997Y-61804961D02*
X8262283Y-61804961D01*
X8262283Y-61804961D02*
X8338474Y-61843057D01*
X8338474Y-61843057D02*
X8376569Y-61919247D01*
X8376569Y-61919247D02*
X8376569Y-62338295D01*
X9367046Y-62338295D02*
X9367046Y-61804961D01*
X9367046Y-61881152D02*
X9405141Y-61843057D01*
X9405141Y-61843057D02*
X9481331Y-61804961D01*
X9481331Y-61804961D02*
X9595617Y-61804961D01*
X9595617Y-61804961D02*
X9671808Y-61843057D01*
X9671808Y-61843057D02*
X9709903Y-61919247D01*
X9709903Y-61919247D02*
X9709903Y-62338295D01*
X9709903Y-61919247D02*
X9747998Y-61843057D01*
X9747998Y-61843057D02*
X9824189Y-61804961D01*
X9824189Y-61804961D02*
X9938474Y-61804961D01*
X9938474Y-61804961D02*
X10014665Y-61843057D01*
X10014665Y-61843057D02*
X10052760Y-61919247D01*
X10052760Y-61919247D02*
X10052760Y-62338295D01*
X10738475Y-62300200D02*
X10662284Y-62338295D01*
X10662284Y-62338295D02*
X10509903Y-62338295D01*
X10509903Y-62338295D02*
X10433713Y-62300200D01*
X10433713Y-62300200D02*
X10395617Y-62224009D01*
X10395617Y-62224009D02*
X10395617Y-61919247D01*
X10395617Y-61919247D02*
X10433713Y-61843057D01*
X10433713Y-61843057D02*
X10509903Y-61804961D01*
X10509903Y-61804961D02*
X10662284Y-61804961D01*
X10662284Y-61804961D02*
X10738475Y-61843057D01*
X10738475Y-61843057D02*
X10776570Y-61919247D01*
X10776570Y-61919247D02*
X10776570Y-61995438D01*
X10776570Y-61995438D02*
X10395617Y-62071628D01*
X11119427Y-62338295D02*
X11119427Y-61804961D01*
X11119427Y-61881152D02*
X11157522Y-61843057D01*
X11157522Y-61843057D02*
X11233712Y-61804961D01*
X11233712Y-61804961D02*
X11347998Y-61804961D01*
X11347998Y-61804961D02*
X11424189Y-61843057D01*
X11424189Y-61843057D02*
X11462284Y-61919247D01*
X11462284Y-61919247D02*
X11462284Y-62338295D01*
X11462284Y-61919247D02*
X11500379Y-61843057D01*
X11500379Y-61843057D02*
X11576570Y-61804961D01*
X11576570Y-61804961D02*
X11690855Y-61804961D01*
X11690855Y-61804961D02*
X11767046Y-61843057D01*
X11767046Y-61843057D02*
X11805141Y-61919247D01*
X11805141Y-61919247D02*
X11805141Y-62338295D01*
X12300379Y-62338295D02*
X12224189Y-62300200D01*
X12224189Y-62300200D02*
X12186094Y-62262104D01*
X12186094Y-62262104D02*
X12147998Y-62185914D01*
X12147998Y-62185914D02*
X12147998Y-61957342D01*
X12147998Y-61957342D02*
X12186094Y-61881152D01*
X12186094Y-61881152D02*
X12224189Y-61843057D01*
X12224189Y-61843057D02*
X12300379Y-61804961D01*
X12300379Y-61804961D02*
X12414665Y-61804961D01*
X12414665Y-61804961D02*
X12490856Y-61843057D01*
X12490856Y-61843057D02*
X12528951Y-61881152D01*
X12528951Y-61881152D02*
X12567046Y-61957342D01*
X12567046Y-61957342D02*
X12567046Y-62185914D01*
X12567046Y-62185914D02*
X12528951Y-62262104D01*
X12528951Y-62262104D02*
X12490856Y-62300200D01*
X12490856Y-62300200D02*
X12414665Y-62338295D01*
X12414665Y-62338295D02*
X12300379Y-62338295D01*
X12909904Y-62338295D02*
X12909904Y-61804961D01*
X12909904Y-61957342D02*
X12947999Y-61881152D01*
X12947999Y-61881152D02*
X12986094Y-61843057D01*
X12986094Y-61843057D02*
X13062285Y-61804961D01*
X13062285Y-61804961D02*
X13138475Y-61804961D01*
X13328951Y-61804961D02*
X13519427Y-62338295D01*
X13709904Y-61804961D02*
X13519427Y-62338295D01*
X13519427Y-62338295D02*
X13443237Y-62528771D01*
X13443237Y-62528771D02*
X13405142Y-62566866D01*
X13405142Y-62566866D02*
X13328951Y-62604961D01*
X14738475Y-62338295D02*
X14662285Y-62300200D01*
X14662285Y-62300200D02*
X14624190Y-62262104D01*
X14624190Y-62262104D02*
X14586094Y-62185914D01*
X14586094Y-62185914D02*
X14586094Y-61957342D01*
X14586094Y-61957342D02*
X14624190Y-61881152D01*
X14624190Y-61881152D02*
X14662285Y-61843057D01*
X14662285Y-61843057D02*
X14738475Y-61804961D01*
X14738475Y-61804961D02*
X14852761Y-61804961D01*
X14852761Y-61804961D02*
X14928952Y-61843057D01*
X14928952Y-61843057D02*
X14967047Y-61881152D01*
X14967047Y-61881152D02*
X15005142Y-61957342D01*
X15005142Y-61957342D02*
X15005142Y-62185914D01*
X15005142Y-62185914D02*
X14967047Y-62262104D01*
X14967047Y-62262104D02*
X14928952Y-62300200D01*
X14928952Y-62300200D02*
X14852761Y-62338295D01*
X14852761Y-62338295D02*
X14738475Y-62338295D01*
X15233714Y-61804961D02*
X15538476Y-61804961D01*
X15348000Y-62338295D02*
X15348000Y-61652580D01*
X15348000Y-61652580D02*
X15386095Y-61576390D01*
X15386095Y-61576390D02*
X15462285Y-61538295D01*
X15462285Y-61538295D02*
X15538476Y-61538295D01*
X16376571Y-62300200D02*
X16490857Y-62338295D01*
X16490857Y-62338295D02*
X16681333Y-62338295D01*
X16681333Y-62338295D02*
X16757524Y-62300200D01*
X16757524Y-62300200D02*
X16795619Y-62262104D01*
X16795619Y-62262104D02*
X16833714Y-62185914D01*
X16833714Y-62185914D02*
X16833714Y-62109723D01*
X16833714Y-62109723D02*
X16795619Y-62033533D01*
X16795619Y-62033533D02*
X16757524Y-61995438D01*
X16757524Y-61995438D02*
X16681333Y-61957342D01*
X16681333Y-61957342D02*
X16528952Y-61919247D01*
X16528952Y-61919247D02*
X16452762Y-61881152D01*
X16452762Y-61881152D02*
X16414667Y-61843057D01*
X16414667Y-61843057D02*
X16376571Y-61766866D01*
X16376571Y-61766866D02*
X16376571Y-61690676D01*
X16376571Y-61690676D02*
X16414667Y-61614485D01*
X16414667Y-61614485D02*
X16452762Y-61576390D01*
X16452762Y-61576390D02*
X16528952Y-61538295D01*
X16528952Y-61538295D02*
X16719429Y-61538295D01*
X16719429Y-61538295D02*
X16833714Y-61576390D01*
X17062286Y-61804961D02*
X17367048Y-61804961D01*
X17176572Y-61538295D02*
X17176572Y-62224009D01*
X17176572Y-62224009D02*
X17214667Y-62300200D01*
X17214667Y-62300200D02*
X17290857Y-62338295D01*
X17290857Y-62338295D02*
X17367048Y-62338295D01*
X17938477Y-62300200D02*
X17862286Y-62338295D01*
X17862286Y-62338295D02*
X17709905Y-62338295D01*
X17709905Y-62338295D02*
X17633715Y-62300200D01*
X17633715Y-62300200D02*
X17595619Y-62224009D01*
X17595619Y-62224009D02*
X17595619Y-61919247D01*
X17595619Y-61919247D02*
X17633715Y-61843057D01*
X17633715Y-61843057D02*
X17709905Y-61804961D01*
X17709905Y-61804961D02*
X17862286Y-61804961D01*
X17862286Y-61804961D02*
X17938477Y-61843057D01*
X17938477Y-61843057D02*
X17976572Y-61919247D01*
X17976572Y-61919247D02*
X17976572Y-61995438D01*
X17976572Y-61995438D02*
X17595619Y-62071628D01*
X18319429Y-61804961D02*
X18319429Y-62604961D01*
X18319429Y-61843057D02*
X18395619Y-61804961D01*
X18395619Y-61804961D02*
X18548000Y-61804961D01*
X18548000Y-61804961D02*
X18624191Y-61843057D01*
X18624191Y-61843057D02*
X18662286Y-61881152D01*
X18662286Y-61881152D02*
X18700381Y-61957342D01*
X18700381Y-61957342D02*
X18700381Y-62185914D01*
X18700381Y-62185914D02*
X18662286Y-62262104D01*
X18662286Y-62262104D02*
X18624191Y-62300200D01*
X18624191Y-62300200D02*
X18548000Y-62338295D01*
X18548000Y-62338295D02*
X18395619Y-62338295D01*
X18395619Y-62338295D02*
X18319429Y-62300200D01*
X19043239Y-62338295D02*
X19043239Y-61538295D01*
X19386096Y-62338295D02*
X19386096Y-61919247D01*
X19386096Y-61919247D02*
X19348001Y-61843057D01*
X19348001Y-61843057D02*
X19271810Y-61804961D01*
X19271810Y-61804961D02*
X19157524Y-61804961D01*
X19157524Y-61804961D02*
X19081334Y-61843057D01*
X19081334Y-61843057D02*
X19043239Y-61881152D01*
X20071811Y-62300200D02*
X19995620Y-62338295D01*
X19995620Y-62338295D02*
X19843239Y-62338295D01*
X19843239Y-62338295D02*
X19767049Y-62300200D01*
X19767049Y-62300200D02*
X19728953Y-62224009D01*
X19728953Y-62224009D02*
X19728953Y-61919247D01*
X19728953Y-61919247D02*
X19767049Y-61843057D01*
X19767049Y-61843057D02*
X19843239Y-61804961D01*
X19843239Y-61804961D02*
X19995620Y-61804961D01*
X19995620Y-61804961D02*
X20071811Y-61843057D01*
X20071811Y-61843057D02*
X20109906Y-61919247D01*
X20109906Y-61919247D02*
X20109906Y-61995438D01*
X20109906Y-61995438D02*
X19728953Y-62071628D01*
X20452763Y-61804961D02*
X20452763Y-62338295D01*
X20452763Y-61881152D02*
X20490858Y-61843057D01*
X20490858Y-61843057D02*
X20567048Y-61804961D01*
X20567048Y-61804961D02*
X20681334Y-61804961D01*
X20681334Y-61804961D02*
X20757525Y-61843057D01*
X20757525Y-61843057D02*
X20795620Y-61919247D01*
X20795620Y-61919247D02*
X20795620Y-62338295D01*
X21671811Y-61538295D02*
X22128954Y-61538295D01*
X21900382Y-62338295D02*
X21900382Y-61538295D01*
X22395621Y-62338295D02*
X22395621Y-61804961D01*
X22395621Y-61957342D02*
X22433716Y-61881152D01*
X22433716Y-61881152D02*
X22471811Y-61843057D01*
X22471811Y-61843057D02*
X22548002Y-61804961D01*
X22548002Y-61804961D02*
X22624192Y-61804961D01*
X23005144Y-62338295D02*
X22928954Y-62300200D01*
X22928954Y-62300200D02*
X22890859Y-62262104D01*
X22890859Y-62262104D02*
X22852763Y-62185914D01*
X22852763Y-62185914D02*
X22852763Y-61957342D01*
X22852763Y-61957342D02*
X22890859Y-61881152D01*
X22890859Y-61881152D02*
X22928954Y-61843057D01*
X22928954Y-61843057D02*
X23005144Y-61804961D01*
X23005144Y-61804961D02*
X23119430Y-61804961D01*
X23119430Y-61804961D02*
X23195621Y-61843057D01*
X23195621Y-61843057D02*
X23233716Y-61881152D01*
X23233716Y-61881152D02*
X23271811Y-61957342D01*
X23271811Y-61957342D02*
X23271811Y-62185914D01*
X23271811Y-62185914D02*
X23233716Y-62262104D01*
X23233716Y-62262104D02*
X23195621Y-62300200D01*
X23195621Y-62300200D02*
X23119430Y-62338295D01*
X23119430Y-62338295D02*
X23005144Y-62338295D01*
X23538478Y-61804961D02*
X23728954Y-62338295D01*
X23919431Y-61804961D02*
X23728954Y-62338295D01*
X23728954Y-62338295D02*
X23652764Y-62528771D01*
X23652764Y-62528771D02*
X23614669Y-62566866D01*
X23614669Y-62566866D02*
X23538478Y-62604961D01*
M02*
