%TF.GenerationSoftware,KiCad,Pcbnew,10.0.6*%
%TF.CreationDate,2026-08-31T06:13:11-04:00*%
%TF.ProjectId,riser,72697365-722e-46b6-9963-61645f706362,rev?*%
%TF.SameCoordinates,Original*%
%TF.FileFunction,Copper,L1,Top*%
%TF.FilePolarity,Positive*%
%FSLAX46Y46*%
G04 Gerber Fmt 4.6, Leading zero omitted, Abs format (unit mm)*
G04 Created by KiCad (PCBNEW 10.0.6) date 2026-08-31 06:13:11*
%MOMM*%
%LPD*%
G01*
G04 APERTURE LIST*
%TA.AperFunction,SMDPad,CuDef*%
%ADD10R,7.391400X2.199600*%
%TD*%
%TA.AperFunction,ComponentPad*%
%ADD11C,1.701800*%
%TD*%
%TA.AperFunction,WasherPad*%
%ADD12C,3.200400*%
%TD*%
%TA.AperFunction,Conductor*%
%ADD13C,0.350000*%
%TD*%
G04 APERTURE END LIST*
D10*
%TO.P,,2*%
%TO.N,P2*%
X-3949700Y-55880000D03*
D11*
X25400000Y-49530000D03*
%TO.P,,1*%
%TO.N,P1*%
X22860000Y-49530000D03*
D10*
%TO.P,,4*%
%TO.N,P4*%
X-3949700Y-52705000D03*
D11*
X25400000Y-46990000D03*
%TO.P,,3*%
%TO.N,P3*%
X22860000Y-46990000D03*
D10*
%TO.P,,6*%
%TO.N,P6*%
X-3949700Y-49530000D03*
D11*
X25400000Y-44450000D03*
%TO.P,,5*%
%TO.N,P5*%
X22860000Y-44450000D03*
D10*
%TO.P,,8*%
%TO.N,P8*%
X-3949700Y-46355000D03*
D11*
X25400000Y-41910000D03*
%TO.P,,7*%
%TO.N,P7*%
X22860000Y-41910000D03*
D10*
%TO.P,,10*%
%TO.N,P10*%
X-3949700Y-43180000D03*
D11*
X25400000Y-39370000D03*
%TO.P,,9*%
%TO.N,P9*%
X22860000Y-39370000D03*
D10*
%TO.P,,12*%
%TO.N,P12*%
X-3949700Y-40005000D03*
D11*
X25400000Y-36830000D03*
%TO.P,,11*%
%TO.N,P11*%
X22860000Y-36830000D03*
D10*
%TO.P,,14*%
%TO.N,P14*%
X-3949700Y-36830000D03*
D11*
X25400000Y-34290000D03*
%TO.P,,13*%
%TO.N,P13*%
X22860000Y-34290000D03*
D10*
%TO.P,,16*%
%TO.N,P16*%
X-3949700Y-33655000D03*
D11*
X25400000Y-31750000D03*
%TO.P,,15*%
%TO.N,P15*%
X22860000Y-31750000D03*
D10*
%TO.P,,18*%
%TO.N,P18*%
X-3949700Y-30480000D03*
D11*
X25400000Y-29210000D03*
%TO.P,,17*%
%TO.N,P17*%
X22860000Y-29210000D03*
D10*
%TO.P,,20*%
%TO.N,P20*%
X-3949700Y-27305000D03*
D11*
X25400000Y-26670000D03*
%TO.P,,19*%
%TO.N,P19*%
X22860000Y-26670000D03*
D10*
%TO.P,,22*%
%TO.N,P22*%
X-3949700Y-24130000D03*
D11*
X25400000Y-24130000D03*
%TO.P,,21*%
%TO.N,P21*%
X22860000Y-24130000D03*
D10*
%TO.P,,24*%
%TO.N,P24*%
X-3949700Y-20955000D03*
D11*
X25400000Y-21590000D03*
%TO.P,,23*%
%TO.N,P23*%
X22860000Y-21590000D03*
D10*
%TO.P,,26*%
%TO.N,P26*%
X-3949700Y-17780000D03*
D11*
X25400000Y-19050000D03*
%TO.P,,25*%
%TO.N,P25*%
X22860000Y-19050000D03*
D10*
%TO.P,,28*%
%TO.N,P28*%
X-3949700Y-14605000D03*
D11*
X25400000Y-16510000D03*
%TO.P,,27*%
%TO.N,P27*%
X22860000Y-16510000D03*
D10*
%TO.P,,30*%
%TO.N,P30*%
X-3949700Y-11430000D03*
D11*
X25400000Y-13970000D03*
%TO.P,,29*%
%TO.N,P29*%
X22860000Y-13970000D03*
D12*
%TO.P,,*%
%TO.N,*%
X33020000Y-5588000D03*
X33020000Y-57912000D03*
%TD*%
%TO.N,P2*%
D13*
X-508000Y-55880000D02*
X10160000Y-55880000D01*
X10160000Y-55880000D02*
X18288000Y-50800000D01*
X18288000Y-50800000D02*
X24003000Y-50800000D01*
X24003000Y-50800000D02*
X25400000Y-49530000D01*
%TO.N,P4*%
X-508000Y-52705000D02*
X10160000Y-52705000D01*
X10160000Y-52705000D02*
X18288000Y-48260000D01*
X18288000Y-48260000D02*
X24003000Y-48260000D01*
X24003000Y-48260000D02*
X25400000Y-46990000D01*
%TO.N,P6*%
X-508000Y-49530000D02*
X10160000Y-49530000D01*
X10160000Y-49530000D02*
X18288000Y-45720000D01*
X18288000Y-45720000D02*
X24003000Y-45720000D01*
X24003000Y-45720000D02*
X25400000Y-44450000D01*
%TO.N,P8*%
X-508000Y-46355000D02*
X10160000Y-46355000D01*
X10160000Y-46355000D02*
X18288000Y-43180000D01*
X18288000Y-43180000D02*
X24003000Y-43180000D01*
X24003000Y-43180000D02*
X25400000Y-41910000D01*
%TO.N,P10*%
X-508000Y-43180000D02*
X10160000Y-43180000D01*
X10160000Y-43180000D02*
X18288000Y-40640000D01*
X18288000Y-40640000D02*
X24003000Y-40640000D01*
X24003000Y-40640000D02*
X25400000Y-39370000D01*
%TO.N,P12*%
X-508000Y-40005000D02*
X10160000Y-40005000D01*
X10160000Y-40005000D02*
X18288000Y-38100000D01*
X18288000Y-38100000D02*
X24003000Y-38100000D01*
X24003000Y-38100000D02*
X25400000Y-36830000D01*
%TO.N,P14*%
X-508000Y-36830000D02*
X10160000Y-36830000D01*
X10160000Y-36830000D02*
X18288000Y-35560000D01*
X18288000Y-35560000D02*
X24003000Y-35560000D01*
X24003000Y-35560000D02*
X25400000Y-34290000D01*
%TO.N,P16*%
X-508000Y-33655000D02*
X10160000Y-33655000D01*
X10160000Y-33655000D02*
X18288000Y-33020000D01*
X18288000Y-33020000D02*
X24003000Y-33020000D01*
X24003000Y-33020000D02*
X25400000Y-31750000D01*
%TO.N,P18*%
X-508000Y-30480000D02*
X10160000Y-30480000D01*
X10160000Y-30480000D02*
X18288000Y-30480000D01*
X18288000Y-30480000D02*
X24003000Y-30480000D01*
X24003000Y-30480000D02*
X25400000Y-29210000D01*
%TO.N,P20*%
X-508000Y-27305000D02*
X10160000Y-27305000D01*
X10160000Y-27305000D02*
X18288000Y-27940000D01*
X18288000Y-27940000D02*
X24003000Y-27940000D01*
X24003000Y-27940000D02*
X25400000Y-26670000D01*
%TO.N,P22*%
X-508000Y-24130000D02*
X10160000Y-24130000D01*
X10160000Y-24130000D02*
X18288000Y-25400000D01*
X18288000Y-25400000D02*
X24003000Y-25400000D01*
X24003000Y-25400000D02*
X25400000Y-24130000D01*
%TO.N,P24*%
X-508000Y-20955000D02*
X10160000Y-20955000D01*
X10160000Y-20955000D02*
X18288000Y-22860000D01*
X18288000Y-22860000D02*
X24003000Y-22860000D01*
X24003000Y-22860000D02*
X25400000Y-21590000D01*
%TO.N,P26*%
X-508000Y-17780000D02*
X10160000Y-17780000D01*
X10160000Y-17780000D02*
X18288000Y-20320000D01*
X18288000Y-20320000D02*
X24003000Y-20320000D01*
X24003000Y-20320000D02*
X25400000Y-19050000D01*
%TO.N,P28*%
X-508000Y-14605000D02*
X10160000Y-14605000D01*
X10160000Y-14605000D02*
X18288000Y-17780000D01*
X18288000Y-17780000D02*
X24003000Y-17780000D01*
X24003000Y-17780000D02*
X25400000Y-16510000D01*
%TO.N,P30*%
X-508000Y-11430000D02*
X10160000Y-11430000D01*
X10160000Y-11430000D02*
X18288000Y-15240000D01*
X18288000Y-15240000D02*
X24003000Y-15240000D01*
X24003000Y-15240000D02*
X25400000Y-13970000D01*
%TD*%
M02*
