M48
; DRILL file KiCad 10.0.6 date 2026-08-31T06:13:11
; FORMAT={-:-/ absolute / metric / decimal}
; #@! TF.CreationDate,2026-08-31T06:13:11-04:00
; #@! TF.GenerationSoftware,Kicad,Pcbnew,10.0.6
; #@! TF.FileFunction,MixedPlating,1,2
FMAT,2
METRIC
; #@! TA.AperFunction,Plated,PTH,ComponentDrill
T1C1.000
; #@! TA.AperFunction,NonPlated,NPTH,ComponentDrill
T2C3.200
%
G90
G05
T1
X22.86Y-13.97
X22.86Y-16.51
X22.86Y-19.05
X22.86Y-21.59
X22.86Y-24.13
X22.86Y-26.67
X22.86Y-29.21
X22.86Y-31.75
X22.86Y-34.29
X22.86Y-36.83
X22.86Y-39.37
X22.86Y-41.91
X22.86Y-44.45
X22.86Y-46.99
X22.86Y-49.53
X25.4Y-13.97
X25.4Y-16.51
X25.4Y-19.05
X25.4Y-21.59
X25.4Y-24.13
X25.4Y-26.67
X25.4Y-29.21
X25.4Y-31.75
X25.4Y-34.29
X25.4Y-36.83
X25.4Y-39.37
X25.4Y-41.91
X25.4Y-44.45
X25.4Y-46.99
X25.4Y-49.53
T2
X33.02Y-5.588
X33.02Y-57.912
M30
